/* XPM */
static char *result[] = {
/* columns rows colors chars-per-pixel */
"52 60 222 2 ",
"   c #020202",
".  c #0E0505",
"X  c #00040E",
"o  c #080708",
"O  c #0D0709",
"+  c #0E0A0B",
"@  c #0F0E0E",
"#  c #190003",
"$  c #150E0E",
"%  c #11100F",
"&  c #16100E",
"*  c #0E1110",
"=  c #101011",
"-  c #111111",
";  c #151211",
":  c #121115",
">  c #1A1311",
",  c #191512",
"<  c #1B1715",
"1  c #161619",
"2  c #1D1719",
"3  c #191918",
"4  c #19181A",
"5  c #1B1B1C",
"6  c #1E1D1E",
"7  c #1E1E1F",
"8  c #221011",
"9  c #201715",
"0  c #271714",
"q  c #2F1615",
"w  c #2E1517",
"e  c #261A13",
"r  c #251914",
"t  c #211D1D",
"y  c #241F1C",
"u  c #291F1A",
"i  c #381514",
"p  c #3F1B19",
"a  c #3F1D1C",
"s  c #22201F",
"d  c #29221F",
"f  c #2A231F",
"g  c #30251C",
"h  c #33271D",
"j  c #30251E",
"k  c #352F1E",
"l  c #3A331F",
"z  c #252420",
"x  c #222224",
"c  c #272427",
"v  c #262627",
"b  c #2E2220",
"n  c #292423",
"m  c #2B2927",
"M  c #2C2826",
"N  c #27272D",
"B  c #272828",
"V  c #372622",
"C  c #302F2F",
"Z  c #392F28",
"A  c #3F3223",
"S  c #39322B",
"D  c #3E322A",
"F  c #2E2D30",
"G  c #2E2F31",
"H  c #302E35",
"J  c #343431",
"K  c #303337",
"L  c #3B3532",
"P  c #363439",
"I  c #39393C",
"U  c #3C3E3F",
"Y  c #521F1E",
"T  c #46201D",
"R  c #472422",
"E  c #432A2C",
"W  c #4F2B2A",
"Q  c #582727",
"!  c #4E362E",
"~  c #45382D",
"^  c #51372E",
"/  c #5E302C",
"(  c #403631",
")  c #493434",
"_  c #483D32",
"`  c #4E3D35",
"'  c #652623",
"]  c #693232",
"[  c #773D3B",
"{  c #4A402B",
"}  c #494138",
"|  c #524330",
" . c #5C4336",
".. c #564D32",
"X. c #51453B",
"o. c #544A3C",
"O. c #5D5235",
"+. c #6A4738",
"@. c #61553A",
"#. c #675539",
"$. c #615838",
"%. c #63593B",
"&. c #6C5F3D",
"*. c #73653F",
"=. c #393440",
"-. c #443F45",
";. c #3E4142",
":. c #47454A",
">. c #49484C",
",. c #524742",
"<. c #59504D",
"1. c #504F54",
"2. c #545358",
"3. c #5B5A5B",
"4. c #624543",
"5. c #774C45",
"6. c #6D5040",
"7. c #6E5D4E",
"8. c #725A4B",
"9. c #625657",
"0. c #6E5F53",
"q. c #7A5650",
"w. c #796943",
"e. c #7B7144",
"r. c #686058",
"t. c #756453",
"y. c #706354",
"u. c #7B6A5B",
"i. c #605D66",
"p. c #68666D",
"a. c #7E6F60",
"s. c #746669",
"d. c #7C6D6E",
"f. c #706D72",
"g. c #82312D",
"h. c #8D3833",
"j. c #9E3630",
"k. c #AC3F3B",
"l. c #83754A",
"z. c #8B7C4F",
"x. c #8D6E5C",
"c. c #88705D",
"v. c #997B5F",
"b. c #817460",
"n. c #897867",
"m. c #8F7C6B",
"M. c #A07D67",
"N. c #C04740",
"B. c #928453",
"V. c #998E56",
"C. c #A3945B",
"Z. c #96826F",
"A. c #A58D61",
"S. c #AA9362",
"D. c #AD9A61",
"F. c #A48F77",
"G. c #AA8B76",
"H. c #A18E7A",
"J. c #AB947C",
"K. c #B2A165",
"L. c #BAA969",
"P. c #C3B26F",
"I. c #C7BA6D",
"U. c #CCB773",
"Y. c #D0BD75",
"T. c #D6C579",
"R. c #DCC87C",
"E. c #E0CA7D",
"W. c #7D7B81",
"Q. c #86858A",
"!. c #918D96",
"~. c #979494",
"^. c #9D9C9D",
"/. c #AF9B84",
"(. c #BE9F86",
"). c #B1A18B",
"_. c #B8A58C",
"`. c #BDA68D",
"'. c #938DA0",
"]. c #9F9DA5",
"[. c #A7A8A9",
"{. c #B1B0B1",
"}. c #B3B1B9",
"|. c #BAB9BD",
" X c #BFBEBE",
".X c #C1AE94",
"XX c #C8AE97",
"oX c #C7B69D",
"OX c #CEB59B",
"+X c #D2BFA1",
"@X c #D4BEA3",
"#X c #E3D080",
"$X c #E7D582",
"%X c #EAD884",
"&X c #ECDD85",
"*X c #EEDE85",
"=X c #EFDC87",
"-X c #EFE086",
";X c #F1E088",
":X c #DDC5A9",
">X c #E0CBAE",
",X c #E6CDAE",
"<X c #EBD3B5",
"1X c #F3DBBB",
"2X c #F6DEBF",
"3X c #C0BFC2",
"4X c #C0BDC8",
"5X c #CCCDCD",
"6X c #CFD1D3",
"7X c #D5D5DA",
"8X c #DBDBDC",
"9X c #FDE3C3",
"0X c #FFE7C6",
"qX c #E0DDE8",
"wX c #E4E4E7",
"eX c #EBEAED",
"rX c #F0EFF2",
"tX c #F4F5F7",
"yX c #FAFAFB",
"uX c #FEFDFE",
"iX c white",
"pX c None",
/* pixels */
"pXpXpXpXpXpXpXpXpXpXpXpXpXpXpXpXpXpXpXpXpXpXpXpXpXpXpXpXpXpXpXpXpXpXpXpXpXpXpXpXpXpXpXpXpXpXpXpXpXpXpXpX",
"pXpXpXpXpXpXpXpXpXpXpXpXpXpXpXpXpXpXpXpXpXpXpXz 7 @ @ 4 pXpXpXpXpXpXpXpXpXpXpXpXpXpXpXpXpXpXpXpXpXpXpXpX",
"pXpXpXpXpXpXpXpXpXpXpXpXpXpXpXpXpXpXpXpXpX7 1 U Q.[.[.3.6 pXpXpXpXpXpXpXpXpXpXpXpXpXpXpXpXpXpXpXpXpXpXpX",
"pXpXpXpXpXpXpXpXpXpXpXpXpXpXpXpXpXpXpXpX7 x 1.8XiXiXiXrXf.4 pXpXpXpXpXpXpXpXpXpXpXpXpXpXpXpXpXpXpXpXpXpX",
"pXpXpXpXpXpXpXpXpXpXpXpXpXpXpXpXpXpXpX4 3 x |.8X5XeXuXtX6XN pXpXpXpXpXpXpXpXpXpXpXpXpXpXpXpXpXpXpXpXpXpX",
"pXpXpXpXpXpXpXpXpXpXpXpXpXpXpXpXpXpXpX= t x !.^.>.[.6XW.Q.P < pXpXpXpXpXpXpXpXpXpXpXpXpXpXpXpXpXpXpXpXpX",
"pXpXpXpXpXpXpXpXpXpXpXpXpXpXpXpXpXpXpX@ : x F 1.Q.{.^.W.1.1 pXpXpXpXpXpXpXpXpXpXpXpXpXpXpXpXpXpXpXpXpXpX",
"pXpXpXpXpXpXpXpXpXpXpXpXpXpXpXpXpXpXpX; * F F : !.3X{.>.1 v B pXpXpXpXpXpXpXpXpXpXpXpXpXpXpXpXpXpXpXpXpX",
"pXpXpXpXpXpXpXpXpXpXpXpXpXpXpXpXpXpXpX; v t d 3.2.3.2.2., : % pXpXpXpXpXpXpXpXpXpXpXpXpXpXpXpXpXpXpXpXpX",
"pXpXpXpXpXpXpXpXpXpXpXpXpXpXpXpXpXpXpX% + D b.,X+Xc.b.oXA o - pXpXpXpXpXpXpXpXpXpXpXpXpXpXpXpXpXpXpXpXpX",
"pXpXpXpXpXpXpXpXpXpXpXpXpXpXpXpXpXpXB t + m u.1X2XXXOXOXr - pXpXpXpXpXpXpXpXpXpXpXpXpXpXpXpXpXpXpXpXpXpX",
"pXpXpXpXpXpXpXpXpXpXpXpXpXpXpXpXpXpX4 t x 3 ..).:X`.OX8.f pXpXpXpXpXpXpXpXpXpXpXpXpXpXpXpXpXpXpXpXpXpXpX",
"pXpXpXpXpXpXpXpXpXpXpXpXpXpXpXpXpXpXpX- X , k D u.m.8.k s pXpXpXpXpXpXpXpXpXpXpXpXpXpXpXpXpXpXpXpXpXpXpX",
"pXpXpXpXpXpXpXpXpXpXpXpXpXpXpXpXpXpXpXy e m + +.6.+./ e o F r h < pXpXpXpXpXpXpXpXpXpXpXpXpXpXpXpXpXpXpX",
"pXpXpXpXpXpXpXpXpXpXpXpXpXpXpXpXpX_ F.n.W 3.+ ^ u.J.5.V 1 9.^ .X7.pXpXpXpXpXpXpXpXpXpXpXpXpXpXpXpXpXpXpX",
"pXpXpXpXpXpXpXpXpXpXpXpXpXpXpXpXS _.0X_.^ f.* e n.oXm.m P s. .2X@X_ pXpXpXpXpXpXpXpXpXpXpXpXpXpXpXpXpXpX",
"pXpXpXpXpXpXpXpXpXpXpXpXpXpXpX< y.1X2X).^ ~.v + / q.W + P s.^ >X1X0.pXpXpXpXpXpXpXpXpXpXpXpXpXpXpXpXpXpX",
"pXpXpXpXpXpXpXpXpXpXpXpXpXpXf m.,X2Xm.V E ~.F : s.4.<.* 2.d.e M.1Xy.pXpXpXpXpXpXpXpXpXpXpXpXpXpXpXpXpXpX",
"pXpXpXpXpXpXpXpXpXpXpXpXpXn H.2X>XJ.! . E  Xi.: |.eXQ.+ Q.s.# v.9XXX_ pXpXpXpXpXpXpXpXpXpXpXpXpXpXpXpXpX",
"pXpXpXpXpXpXpXpXpXpXpXpX_ Z.@X`.X.n pX; r.wX^.  p.rX2.o ].d.o ^ ,X2X0.pXpXpXpXpXpXpXpXpXpXpXpXpXpXpXpXpX",
"pXpXpXpXpXpXpXpXpXpXpXX.OX<Xt.y pXpXpX> ^.yX5Xv P 3XJ F 7X^.8 9 x.1Xy.pXpXpXpXpXpXpXpXpXpXpXpXpXpXpXpXpX",
"pXpXpXpXpXpXpXpXpXpXpXo.:X9X>Xo.pXpXpX5 p.tXuXW.+ P + 2.rX}.M pXj F.oX` pXpXpXpXpXpXpXpXpXpXpXpXpXpXpXpX",
"pXpXpXpXpXpXpXpXpXpXpXpXa.<X0X.XS pXpXpX>.4XiX Xt   1 [.uXW.n pX~ (.0XG.S pXpXpXpXpXpXpXpXpXpXpXpXpXpXpX",
"pXpXpXpXpXpXpXpXpXpXpXpXC y.`.<XZ.f pXpX~.eXyXtXi.o -.eXeXi.C pX_ :X0X/.u pXpXpXpXpXpXpXpXpXpXpXpXpXpXpX",
"pXpXpXpXpXpXpXpXpXpXpXpXpXpXL 0._.M.o.M }.iXiXwXJ 3 v 8XyX'.:.pXpXH.9XG.u pXpXpXpXpXpXpXpXpXpXpXpXpXpXpX",
"pXpXpXpXpXpXpXpXpXpXpXpXpXpXpXpXS /.:Xu.f.tXiXtX3.  -.eXtXp.L pXpXX.:XG.( pXpXpXpXpXpXpXpXpXpXpXpXpXpXpX",
"pXpXpXpXpXpXpXpXpXpXpXpXpXpXpXpXpX7.9X,X,.7XiXiX}.H !.uX}.F 6 pXpX= u.8.@ pXpXpXpXpXpXpXpXpXpXpXpXpXpXpX",
"pXpXpXpXpXpXpXpXpXpXpXpXpXpXpXpXL /.(._.,.4XiXiXyXwXrXuX6X'.H pXpX= 3 o o y pXpXpXpXpXpXpXpXpXpXpXpXpXpX",
"pXpXpXpXpXpXpXpXpXpXpXpXpXpXpXpXo.OX^ t.<.}.rXuXiXiXiXiXiXqXi.; C c J o x c pXpXpXpXpXpXpXpXpXpXpXpXpXpX",
"pXpXpXpXpXpXpXpXpXpXpXpXpXpXpXpX~ Z.e 7.m =.i.!.4XwXtXwX4XW.F @ 5 $ 3 o 1 7 pXpXpXpXpXpXpXpXpXpXpXpXpXpX",
"pXpXpXpXpXpXpXpXpXpXpXpXpXpXpXpX9 8.^ A A #.k , d ,.3.-.1 + v 2 Z Z./.D O pXpXpXpXpXpXpXpXpXpXpXpXpXpXpX",
"pXpXpXpXpXpXpXpXpXpXpXpXpXpXpXpXpXj V { D.#XP.*.| #.| w.w.} f.-._.0X0Xc.pXpXpXpXpXpXpXpXpXpXpXpXpXpXpXpX",
"pXpXpXpXpXpXpXpXpXpXpXpXpXpXpXpXpXpX@ e.&XR.C.l.C.z.w.U.%Xe.v } oX.X2Xu.pXpXpXpXpXpXpXpXpXpXpXpXpXpXpXpX",
"pXpXpXpXpXpXpXpXpXpXpXpXpXpXpXpXpXpXl C.%X$Xv. .{ O.P.#X&XI.J <.t.} +X4.pXpXpXpXpXpXpXpXpXpXpXpXpXpXpXpX",
"pXpXpXpXpXpXpXpXpXpXpXpXpXpXpXpXpXpX_ T.*X*X%XA.{   ..Y.=X$X%.d | Z.c.g pXpXpXpXpXpXpXpXpXpXpXpXpXpXpXpX",
"pXpXpXpXpXpXpXpXpXpXpXpXpXpXpXpXpXpXl T.*X&X-XP.A   A U.%X-XC.m F e $ < pXpXpXpXpXpXpXpXpXpXpXpXpXpXpXpX",
"pXpXpXpXpXpXpXpXpXpXpXpXpXpXpXpXpXpXM Y.-X&X-XE.{   k U.;X*XR.| 1.: F 4 pXpXpXpXpXpXpXpXpXpXpXpXpXpXpXpX",
"pXpXpXpXpXpXpXpXpXpXpXpXpXpXpXpXpXpX> K.;X&X*X=XB., t A.=X*X*Xz.d 2.H s pXpXpXpXpXpXpXpXpXpXpXpXpXpXpXpX",
"pXpXpXpXpXpXpXpXpXpXpXpXpXpXpXpXpXpX> *.;X&X&X=Xz.y s #.R.-X*XE.O.U F M pXpXpXpXpXpXpXpXpXpXpXpXpXpXpXpX",
"pXpXpXpXpXpXpXpXpXpXpXpXpXpXpXpXpXpXy | T.-X*X$X#.5 < A P.;X&X;XL.k U H pXpXpXpXpXpXpXpXpXpXpXpXpXpXpXpX",
"pXpXpXpXpXpXpXpXpXpXpXpXpXpXpXpXpXpXl C.T.-X&X;XK.u pXj D.-X&X&X$X%.2.I pXpXpXpXpXpXpXpXpXpXpXpXpXpXpXpX",
"pXpXpXpXpXpXpXpXpXpXpXpXpXpXpXpXpXpXS V.-X&X&XI.&.z pX; A P.-X*X%X{ = pXpXpXpXpXpXpXpXpXpXpXpXpXpXpXpXpX",
"pXpXpXpXpXpXpXpXpXpXpXpXpXpXpXpXpXpXs &.&X&XK...e pXpX0 O.l.#X*X$X&.2 pXpXpXpXpXpXpXpXpXpXpXpXpXpXpXpXpX",
"pXpXpXpXpXpXpXpXpXpXpXpXpXpXpXpXpXpX~ K.%X#XC.S.#.& pXpX@.Y.$X*X&XR.&.% pXpXpXpXpXpXpXpXpXpXpXpXpXpXpXpX",
"pXpXpXpXpXpXpXpXpXpXpXpXpXpXpXpXpX& O.T.&X*X=X#Xz.g pXpX{ T.-X;X=XP.@.9 pXpXpXpXpXpXpXpXpXpXpXpXpXpXpXpX",
"pXpXpXpXpXpXpXpXpXpXpXpXpXpXpXpXpXpXn o.e.B.V.@.M pXpXpXS $.z.B.&.h pXpXpXpXpXpXpXpXpXpXpXpXpXpXpXpXpXpX",
"pXpXpXpXpXpXpXpXpXpXpXpXpXpXpXpXpXpXpXpX% } b @ pXpXpXpXpXpXz b D 9 pXpXpXpXpXpXpXpXpXpXpXpXpXpXpXpXpXpX",
"pXpXpXpXpXpXpXpXpXpXpXpXpXpXpXpXpXpXpX8 d r.,.+ 8 pXpXpXpXn 2 -.t.t 8 pXpXpXpXpXpXpXpXpXpXpXpXpXpXpXpXpX",
"pXpXpXpXpXpXpXpXpXpXpXpXpXpXpXpXpXpXpX0 b F } w O pXpXpXpXpXq ) P F . pXpXpXpXpXpXpXpXpXpXpXpXpXpXpXpXpX",
"pXpXpXpXpXpXpXpXpXpXpXpXpXpXpXpXpXpXpXpX, 3 a t O pXpXpXpXpX= b b b > pXpXpXpXpXpXpXpXpXpXpXpXpXpXpXpXpX",
"pXpXpXpXpXpXpXpXpXpXpXpXpXpXpXpXpXpXpX> Y ' V x = pXpXpXpX5 x v ' ' 0 pXpXpXpXpXpXpXpXpXpXpXpXpXpXpXpXpX",
"pXpXpXpXpXpXpXpXpXpXpXpXpXpXpXpXB - q Y T a V F 1 pXpXpXpXI m E i i w 0 pXpXpXpXpXpXpXpXpXpXpXpXpXpXpXpX",
"pXpXpXpXpXpXpXpXpXpXpXpXpXpXpXR Q d Y a T a w 1 o pXpXpXpXI t a T Y a i @ n pXpXpXpXpXpXpXpXpXpXpXpXpXpX",
"pXpXpXpXpXpXpXpXpXpXpXpXpXpXpXp j.k.h./ ' Q =.N > pXpXpXpXpXs $ g.Q Q g./ Y 9 pXpXpXpXpXpXpXpXpXpXpXpXpX",
"pXpXpXpXpXpXpXpXpXpXpXpXpXpXpX- ) 5.[ ] W c G pXpXpXpXpXpXpXpX6 5.k.k.N.k.Y & pXpXpXpXpXpXpXpXpXpXpXpXpX",
"pXpXpXpXpXpXpXpXpXpXpXpXpXpXpXpXI K N N 2 5 pXpXpXpXpXpXpXpXpXpX;.9.q.4.E $ pXpXpXpXpXpXpXpXpXpXpXpXpXpX",
"pXpXpXpXpXpXpXpXpXpXpXpXpXpXpXpXpXpXpXpXpXpXpXpXpXpXpXpXpXpXpXpXpXG K N N B pXpXpXpXpXpXpXpXpXpXpXpXpXpX",
"pXpXpXpXpXpXpXpXpXpXpXpXpXpXpXpXpXpXpXpXpXpXpXpXpXpXpXpXpXpXpXpXpXpXpXpXpXpXpXpXpXpXpXpXpXpXpXpXpXpXpXpX",
"pXpXpXpXpXpXpXpXpXpXpXpXpXpXpXpXpXpXpXpXpXpXpXpXpXpXpXpXpXpXpXpXpXpXpXpXpXpXpXpXpXpXpXpXpXpXpXpXpXpXpXpX",
"pXpXpXpXpXpXpXpXpXpXpXpXpXpXpXpXpXpXpXpXpXpXpXpXpXpXpXpXpXpXpXpXpXpXpXpXpXpXpXpXpXpXpXpXpXpXpXpXpXpXpXpX"
};
