/* XPM */
static char *result[] = {
/* columns rows colors chars-per-pixel */
"60 60 214 2 ",
"   c #020203",
".  c #0B0A0B",
"X  c #0A0707",
"o  c #120D0C",
"O  c #17110E",
"+  c #0F0F11",
"@  c #141314",
"#  c #1B1413",
"$  c #171619",
"%  c #1C1B1C",
"&  c #1A1717",
"*  c #100F10",
"=  c #210D0C",
"-  c #2A100E",
";  c #241514",
":  c #231C1B",
">  c #2C1C1B",
",  c #291714",
"<  c #351916",
"1  c #29221D",
"2  c #37271E",
"3  c #1E1E20",
"4  c #201F20",
"5  c #1F2021",
"6  c #232224",
"7  c #2A2422",
"8  c #272729",
"9  c #292729",
"0  c #2C2B2C",
"q  c #2B2927",
"w  c #332523",
"e  c #322B25",
"r  c #3A2C25",
"t  c #342D2B",
"y  c #3D2828",
"u  c #3C342C",
"i  c #3C372B",
"p  c #2E2E31",
"a  c #322F31",
"s  c #333334",
"d  c #3A3534",
"f  c #363638",
"g  c #3B3A3B",
"h  c #3A3837",
"j  c #471B18",
"k  c #4F221F",
"l  c #472B28",
"z  c #5A2623",
"x  c #47392A",
"c  c #52372D",
"v  c #433D3D",
"b  c #483A36",
"n  c #593C3A",
"m  c #73312C",
"M  c #6C2F2A",
"N  c #4B4134",
"B  c #45413D",
"V  c #49433D",
"C  c #4E4838",
"Z  c #564433",
"A  c #5C4C3C",
"S  c #554739",
"D  c #5C523C",
"F  c #5C5539",
"G  c #6B553C",
"H  c #66593D",
"J  c #72563D",
"K  c #6B483C",
"L  c #3E3D41",
"P  c #403F42",
"I  c #434243",
"U  c #464549",
"Y  c #4C4B4C",
"T  c #4B4544",
"R  c #524D4B",
"E  c #564945",
"W  c #57524E",
"Q  c #4E4E50",
"!  c #545354",
"~  c #565659",
"^  c #5C5B5C",
"/  c #5C5656",
"(  c #644A47",
")  c #675845",
"_  c #775C43",
"`  c #625C5C",
"'  c #655957",
"]  c #795B55",
"[  c #6D6443",
"{  c #796548",
"}  c #7A734D",
"|  c #68625C",
" . c #74675B",
".. c #5E5D61",
"X. c #605E61",
"o. c #636264",
"O. c #676769",
"+. c #6B6B6D",
"@. c #6B6666",
"#. c #746B66",
"$. c #7A766D",
"%. c #6F6E72",
"&. c #726F71",
"*. c #737274",
"=. c #7B7A7C",
"-. c #7A7777",
";. c #883732",
":. c #983D37",
">. c #9A342F",
",. c #A3433C",
"<. c #87544A",
"1. c #B84B43",
"2. c #866C4C",
"3. c #877554",
"4. c #967A56",
"5. c #987B57",
"6. c #8A6C4E",
"7. c #817365",
"8. c #887A6B",
"9. c #837D7C",
"0. c #887E71",
"q. c #947B6A",
"w. c #C54F47",
"e. c #CE544B",
"r. c #D2574E",
"t. c #948258",
"y. c #9E935E",
"u. c #A5865E",
"i. c #A9885F",
"p. c #9D9468",
"a. c #9A8977",
"s. c #918170",
"d. c #AC8B62",
"f. c #A29663",
"g. c #AB9073",
"h. c #AAA267",
"j. c #B7A66B",
"k. c #BCB475",
"l. c #B6AC70",
"z. c #C39371",
"x. c #C8BA78",
"c. c #CAB776",
"v. c #D4C57E",
"b. c #CFC47A",
"n. c #7E7E81",
"m. c #807F83",
"M. c #848385",
"N. c #8B8A8D",
"B. c #888688",
"V. c #9D9186",
"C. c #918F91",
"Z. c #949495",
"A. c #9A999B",
"S. c #979699",
"D. c #8F898B",
"F. c #A39583",
"G. c #A89789",
"H. c #AE9F90",
"J. c #B5A897",
"K. c #AFA69C",
"L. c #9E9EA1",
"P. c #A4A4A5",
"I. c #ABABAD",
"U. c #A8A6AA",
"Y. c #BBB2A3",
"T. c #ABA9B1",
"R. c #B1AFB5",
"E. c #BBBBBC",
"W. c #B5B5B6",
"Q. c #C19C93",
"!. c #CDB294",
"~. c #D6BEA8",
"^. c #C6B7A4",
"/. c #DDCB84",
"(. c #DED182",
"). c #EDDD85",
"_. c #ECDC89",
"`. c #E3D686",
"'. c #F0DF89",
"]. c #EDE18A",
"[. c #EFE087",
"{. c #F2E48B",
"}. c #F4E88E",
"|. c #F2E591",
" X c #D4C7AD",
".X c #D7CCB6",
"XX c #DED1BA",
"oX c #CFC3AF",
"OX c #ECD6BC",
"+X c #EAD8BC",
"@X c #F6DCBC",
"#X c #E5C7AC",
"$X c #C3C2C4",
"%X c #CBCACB",
"&X c #CFCED1",
"*X c #DBDBDD",
"=X c #D4D4D6",
"-X c #CFD0D1",
";X c #EBDDC5",
":X c #F0DFC7",
">X c #FBE3C3",
",X c #FEE9CA",
"<X c #F6E4C9",
"1X c #FAEBD2",
"2X c #F7E8CB",
"3X c #DDDBE2",
"4X c #E4E4E4",
"5X c #E7E6E8",
"6X c #EBEBEC",
"7X c #F3F3F4",
"8X c #FDFDFE",
"9X c #F7F8F8",
"0X c #ECECF0",
"qX c None",
/* pixels */
"qXqXqXqXqXqXqXqXqXqXqXqXqXqXqXqXqXqXqXqXqXqXqXqXqXqXqXqXqXqXqXqXqXqXqXn.&.&.*.-.qXqXqXqXqXqXqXqXqXqXqXqXqXqXqXqXqXqXqXqX",
"qXqXqXqXqXqXqXqXqXqXqXqXqXqXqXqXqXqXqXqXqXqXqXqXqXqXqXqXqXY P I h g p 0 6 6 6 p g Q n.qXqXqXqXqXqXqXqXqXqXqXqXqXqXqXqXqX",
"qXqXqXqXqXqXqXqXqXqXqXqXqXqXqXqXqXqXqXqXqXqXqXqXqXqXqXY 5 9 f s f f h L g p h f s 0 Y | N.qXqXqXqXqXqXqXqXqXqXqXqXqXqXqX",
"qXqXqXqXqXqXqXqXqXqXqXqXqXqXqXqXqXqXqXqXqXqXqXqXqXqXI 4 s I P f U g f p g g h g f 8 W.4XL.*.qXqXqXqXqXqXqXqXqXqXqXqXqXqX",
"qXqXqXqXqXqXqXqXqXqXqXqXqXqXqXqXqXqXqXqXqXqXqXqXqXqXs % 9 0 p f s f f f B L h g s p $X8X8XE.^ qXqXqXqXqXqXqXqXqXqXqXqXqX",
"qXqXqXqXqXqXqXqXqXqXqXqXqXqXqXqXqXqXqXqXqXqXqXqXqXqXqXO.8 6 0 8 1 s f h g h f L B 6 L.5XI.*X$XO.qXqXqXqXqXqXqXqXqXqXqXqX",
"qXqXqXqXqXqXqXqXqXqXqXqXqXqXqXqXqXqXqXqXqXqXqXqXqXqXqXqXqX-.% 6 % 5 f L B I B P U p ! =XC.~ I.%.qXqXqXqXqXqXqXqXqXqXqXqX",
"qXqXqXqXqXqXqXqXqXqXqXqXqXqXqXqXqXqXqXqXqXqXqXqXqXqXqXqXqXqX+.p & @ a f B B s s g I p Y O.Z.o.N.qXqXqXqXqXqXqXqXqXqXqXqX",
"qXqXqXqXqXqXqXqXqXqXqXqXqXqXqXqXqXqXqXqXqXqXqXqXqXqXqXqXqXqXqXqXqXg % 6 & 1 x v L h s @ ^ T.^ qXqXqXqXqXqXqXqXqXqXqXqXqX",
"qXqXqXqXqXqXqXqXqXqXqXqXqXqXqXqXqXqXqXqXqXqXqXqXqXqXqXqXqXqXqXqXqXL $ % 6 s t 7 e % q W Q N.~ qXqXqXqXqXqXqXqXqXqXqXqXqX",
"qXqXqXqXqXqXqXqXqXqXqXqXqXqXqXqXqXqXqXqXqXqXqXqXqXqXqXqXqXqXqXqXqXs % % e 6 ( H [ B.oXK.| h 0 qXqXqXqXqXqXqXqXqXqXqXqXqX",
"qXqXqXqXqXqXqXqXqXqXqXqXqXqXqXqXqXqXqXqXqXqXqXqXqXqXqXqXqXqXqXqX=.* 1 r 3.H E F | XX>X>X:X$.qXqXqXqX^ -.=.S.qXqXqXqXqXqX",
"qXqXqXqXqXqXqXqXqXqXqXqXqXqXqXqXqXqXqXqXqXqX&.h Y ^ R I / o.| $.0 @ x x c b E K G.<X@X#XF.| qXqXqXo.V..XK.g C.qXqXqXqXqX",
"qXqXqXqXqXqXqXqXqXqXqXqXqXqXqXqXqXqXqXqXqXqX| a.H..XXX!.$.J.:X+X7.& . % <.b K.q.J #XOXa.V qXqXqX=.W $.| J. .W qXqXqXqXqX",
"qXqXqXqXqXqXqXqXqXqXqXqXqXqXqXqXqXqXqXqXqXT $.V.G.s.2X@XOX>X>X>X+XV   % W.J.~.G.y ' G.q.Z.qXqXqXd $.V.$.E  .) ^ qXqXqXqX",
"qXqXqXqXqXqXqXqXqXqXqXqXqXqXqXqXqXqXqXqXC.N !.:X^.B J.,X,X>X!.+X1X#.. . s.<X^.n P qXC.=.qXqX*.R G.XX .7.b x ) P qXqXqXqX",
"qXqXqXqXqXqXqXqXqXqXqXqXqXqXqXqXqXqXqXqX*.8.>X1XF.t h a..X;XG.|  X8.O . t q.w @ I / ` ! Y | g..X:X#X<.c 2 O w n.qXqXqXqX",
"qXqXqXqXqXqXqXqXqXqXqXqXqXqXqXqXqXqXqXqXv *.:XJ.W R.P.1 : N s.{ W ] 1 + O w @ 4 *.T !..X.X+X<XG.) x j Z ' ..n.qXqXqXqXqX",
"qXqXqXqXqXqXqXqXqXqXqXqXqXqXqXqXqXqX*.6 @ % S S P.7XL.+   X _ z.K t > o   a 4 $ &.J.>X>X,X<XG.1 L ~ o.M.qXqXqXqXqXqXqXqX",
"qXqXqXqXqXqXqXqXqXqXqXqXqXqXqXqXqXo.$ % 3 s 6 p -X0X^     X 6.!.) - l T X 0 @ o g.,X,X,X+Xq.n M.qXqXqXqXqXqXqXqXqXqXqXqX",
"qXqXqXqXqXqXqXqXqXqXqXqXqXqXqXqXqXY o . 0 Q p $ N.$X8 : = o A <.j j ( m.+ @ X . E g.~.Y.( ' qXqXqXqXqXqXqXqXqXqXqXqXqXqX",
"qXqXqXqXqXqXqXqXqXqXqXqXqXqXqXqXqX6 % e % 5 P 8 B.m.^ &X' - j z n 9.&XP.X + + X : d u Y N.qXqXqXqXqXqXqXqXqXqXqXqXqXqXqX",
"qXqXqXqXqXqXqXqXqXqXqXqXqXqXqXqXI.Q Y..X) * & *.*X+.S.8X$XE ) D.&X9X8X%Xp + + . ^ qXqXqXqXqXqXqXqXqXqXqXqXqXqXqXqXqXqXqX",
"qXqXqXqXqXqXqXqXqXqXqXqXqXqXqXqX@.Y.2X,X X1 6 $X6X^ Z.8X8X*X5X8X8X8X9X=X=.$ +   X.qXqXqXqXqXqXqXqXqXqXqXqXqXqXqXqXqXqXqX",
"qXqXqXqXqXqXqXqXqXqXqXqXqXqXqX=.a.OX#X@XoXb n.*XA.s I.8X5X8X8X8X6X=XR.%.P 4 X X o.qXqXqXqXqXqXqXqXqXqXqXqXqXqXqXqXqXqXqX",
"qXqXqXqXqXqXqXqXqXqXqXqXqXqXqX/  .F.q.~.8.@.$Xn.s s W.9XN.E.8X7XR.T.~ P qXqXp X +.qXqXqXqXqXqXqXqXqXqXqXqXqXqXqXqXqXqXqX",
"qXqXqXqXqXqXqXqXqXqXqXqXqXqXqXS.s E W  .( | O.o.I.Q U.8XE.` $X7XT.X.p qXqXqXP 3 0 qXqXqXqXqXqXqXqXqXqXqXqXqXqXqXqXqXqXqX",
"qXqXqXqXqXqXqXqXqXqXqXqXqXqXqXqX=.b # , r u 3 I -XY P.8X7XA.^ A.C.s *.qXqXqX..% 6 qXqXqXqXqXqXqXqXqXqXqXqXqXqXqXqXqXqXqX",
"qXqXqXqXqXqXqXqXqXqXqXqXqXqXqXqXqXqXM.M.%.f +.-.$X=.-.7X8X9X$XO...s S.qXqXqXQ @ 3 O.qXqXqXqXqXqXqXqXqXqXqXqXqXqXqXqXqXqX",
"qXqXqXqXqXqXqXqXqXqXqXqXqXqXqXqX-.M.B.B.g ! &XR.U.=X@.M.5X8X8X4XN.a ^ qXqXqX=.+ + N.qXqXqXqXqXqXqXqXqXqXqXqXqXqXqXqXqXqX",
"qXqXqXqXqXqXqXqXqXqXqXqXqX^ I f L f   U p L 3X*Xn.E.*X&.=.&X9X9X*XS.p +.qXqXqXg % qXqXqXqXqXqXqXqXqXqXqXqXqXqXqXqXqXqXqX",
"qXqXqXqXqXqXqXqXqXqXqXqX..6 6 g ~ Q U ~ ~ 8 o.*X&XL.6X6XN.%.L.=.N.*X-.~ qXqXqXqXqXqXqXqXqXqXqXqXqXqXqXqXqXqXqXqXqXqXqXqX",
"qXqXqXqXqXqXqXqXqXqX&.Y 8 6 ~ $X6X%Xo.A.6XL.& g A.5X9X8X7X%XA.L.*X3XS.f qXqXqXqXqXqXqXqXqXqXqXqXqXqXqXqXqXqXqXqXqXqXqXqX",
"qXqXqXqXqXqXqXqXqX^ f 0 f 8 ^ qX*XO.N B *.o.1 1 3 ! B.I.U.A.N.M.%.Q 8 Q qXqXqXqXqXqXqXqXqXqXqXqXqXqXqXqXqXqXqXqXqXqXqXqX",
"qXqXqXqXqXqXqXB.+.~ 4 g g O.8 =.%.t k.t.x O 6 B.P o x D D C D H [ } i M.qXqXqXqXqXqXqXqXqXqXqXqXqXqXqXqXqXqXqXqXqXqXqXqX",
"qXqXqXqXqXqXqXI 0 $ 3 P 4 % f Q 8 x [ H N Y f p N r H f./.`._.}.}.}.h.Q qXqXqXqXqXqXqXqXqXqXqXqXqXqXqXqXqXqXqXqXqXqXqXqX",
"qXqXqXqXqXqXZ.^ P L 0 4 t 4 4 P 6 q o.f s O.r G t.{ % 1 l.}.[.[.].[.}.t.$.qXqXqXqXqXqXqXqXqXqXqXqXqXqXqXqXqXqXqXqXqXqXqX",
"qXqXqXqXqXqX*.o.4 P 0 0 t b d E * > B 1 x l c i.i.u.Z X { )._./.{.v.}.v.i qXqXqXqXqXqXqXqXqXqXqXqXqXqXqXqXqXqXqXqXqXqXqX",
"qXqXqXqXqXqXg # 4 d w O = v b l o A 4.4.u.4.x 4.u.u.5.; 2 j.p.} ].}.{.v.F C.qXqXqXqXqXqXqXqXqXqXqXqXqXqXqXqXqXqXqXqXqXqX",
"qXqXqXqXqXqX9 7 z j < < . 3 4 X.5 x d.4.G _ ) ) u.u.4.# # G C k.{.v.v.v.F M.qXqXqXqXqXqXqXqXqXqXqXqXqXqXqXqXqXqXqXqXqXqX",
"qXqXqXqXqXqXf 9 < < = < Q ! ..qXR # S u 1 2.5.{ 4.d.D 5 : r h.[.[.[.).{.y.R qXqXqXqXqXqXqXqXqXqXqXqXqXqXqXqXqXqXqXqXqXqX",
"qXqXqXqXqXqXL ( ,.z j 4 qXqXqXqXqXQ qXqX+.T N S 2.} 0 ~ i k.].b.h.v.[.[.(.F Z.qXqXqXqXqXqXqXqXqXqXqXqXqXqXqXqXqXqXqXqXqX",
"qXqXqXqXqXqXf ] r.:.% 0 qXqXqXqXqXqXqXqXqXqXqX+.v 7 O.s.2 t.[ [ f.`.[.[.v.F *.qXqXqXqXqXqXqXqXqXqXqXqXqXqXqXqXqXqXqXqXqX",
"qXqXqXqXqXqXp ( w.,.; $ qXqXqXqXqXqXqXqXqXqXqXqXqXA.n.B } t.j.(.{.[.{.x.S -.qXqXqXqXqXqXqXqXqXqXqXqXqXqXqXqXqXqXqXqXqXqX",
"qXqXqXqXqXqX^ v :.e.m < *.qXqXqXqXqXqXqXqXqXqXqXo.V 1 D `.|.{.'.).)./.) X.qXqXqXqXqXqXqXqXqXqXqXqXqXqXqXqXqXqXqXqXqXqXqX",
"qXqXqXqXqXqXqX0 s ;.,.M @.qXqXqXqXqXqXqXqXqXqXqX7 { G p.c.c.'.'._.`.{ v qXqXqXqXqXqXqXqXqXqXqXqXqXqXqXqXqXqXqXqXqXqXqXqX",
"qXqXqXqXqXqXqX*.& : y / qXqXqXqXqXqXqXqXqXqXqXqXh { G l.j.J d.v.x.H o | qXqXqXqXqXqXqXqXqXqXqXqXqXqXqXqXqXqXqXqXqXqXqXqX",
"qXqXqXqXqXqXqXqX=.qXqXqXqXqXqXqXqXqXqXqXqXqXqXqXqXb { /.(.H 6.6.Z i Y qXqXqXqXqXqXqXqXqXqXqXqXqXqXqXqXqXqXqXqXqXqXqXqXqX",
"qXqXqXqXqXqXqXqXqXqXqXqXqXqXqXqXqXqXqXqXqXqXqXqXqXqXC h.}.k.} J J C qXqXqXqXqXqXqXqXqXqXqXqXqXqXqXqXqXqXqXqXqXqXqXqXqXqX",
"qXqXqXqXqXqXqXqXqXqXqXqXqXqXqXqXqXqXqXqXqXqXqXqXqXqXqXt { l.t.6.Z g qXqXqXqXqXqXqXqXqXqXqXqXqXqXqXqXqXqXqXqXqXqXqXqXqXqX",
"qXqXqXqXqXqXqXqXqXqXqXqXqXqXqXqXqXqXqXqXqXqXqXqXqXqXqXa > 1 : u I o.qXqXqXqXqXqXqXqXqXqXqXqXqXqXqXqXqXqXqXqXqXqXqXqXqXqX",
"qXqXqXqXqXqXqXqXqXqXqXqXqXqXqXqXqXqXqXqXqXqXqXqXqXqXX.z Q.| @ ^ qXqXqXqXqXqXqXqXqXqXqXqXqXqXqXqXqXqXqXqXqXqXqXqXqXqXqXqX",
"qXqXqXqXqXqXqXqXqXqXqXqXqXqXqXqXqXqXqXqXqXqXqXqXqXv < b ' v f . %.qXqXqXqXqXqXqXqXqXqXqXqXqXqXqXqXqXqXqXqXqXqXqXqXqXqXqX",
"qXqXqXqXqXqXqXqXqXqXqXqXqXqXqXqXqXqXqXqXqXqXqXqXqX/ , w P P P X ^ qXqXqX9.y +.qXqXqXqXqXqXqXqXqXqXqXqXqXqXqXqXqXqXqXqXqX",
"qXqXqXqXqXqXqXqXqXqXqXqXqXqXqXqXqXqXqXqXqXqXqXqXqXqX* 4 t : < k y b w : , :.m ' qXqXqXqXqXqXqXqXqXqXqXqXqXqXqXqXqXqXqXqX",
"qXqXqXqXqXqXqXqXqXqXqXqXqXqXqXqXqXqXqXqXqXqXqXqXqX-.. % 8 4 z z - j < , z e.1.l qXqXqXqXqXqXqXqXqXqXqXqXqXqXqXqXqXqXqXqX",
"qXqXqXqXqXqXqXqXqXqXqXqXqXqXqXqXqXqXqXqXqXqXqXqXqXL . 0 f g > < # j >.,.e.1.m s qXqXqXqXqXqXqXqXqXqXqXqXqXqXqXqXqXqXqXqX",
"qXqXqXqXqXqXqXqXqXqXqXqXqXqXqXqXqXqXqXqXqXqXqXqXqXL   % $ 3 < j # M >.>.;.( +.! qXqXqXqXqXqXqXqXqXqXqXqXqXqXqXqXqXqXqXqX",
"qXqXqXqXqXqXqXqXqXqXqXqXqXqXqXqXqXqXqXqXqXqXqXqXqXg     & a e t w b ( b P U n.qXqXqXqXqXqXqXqXqXqXqXqXqXqXqXqXqXqXqXqXqX",
"qXqXqXqXqXqXqXqXqXqXqXqXqXqXqXqXqXqXqXqXqXqXqXqXqXqX^ Y L s 0 p s g h a ..L.qXqXqXqXqXqXqXqXqXqXqXqXqXqXqXqXqXqXqXqXqXqX"
};
