/* XPM */
static char *result[] = {
/* columns rows colors chars-per-pixel */
"60 60 216 2 ",
"   c #030203",
".  c #0C0B0C",
"X  c #07070A",
"o  c #120C0C",
"O  c #150909",
"+  c #14110C",
"@  c #1B150D",
"#  c #1F1B0F",
"$  c #0F0D11",
"%  c #120E11",
"&  c #131213",
"*  c #1A1614",
"=  c #1C1913",
"-  c #161519",
";  c #1C1B1C",
":  c #1B171B",
">  c #0E1116",
",  c #2C0E0E",
"<  c #28170F",
"1  c #241615",
"2  c #2A1514",
"3  c #221F1D",
"4  c #2C1D1B",
"5  c #251A18",
"6  c #321512",
"7  c #3C1E1D",
"8  c #351B19",
"9  c #330F0D",
"0  c #24211D",
"q  c #2B231B",
"w  c #2B251B",
"e  c #34221C",
"r  c #342A1D",
"t  c #392F1C",
"y  c #3D341F",
"u  c #1D1C21",
"i  c #221D24",
"p  c #261C28",
"a  c #1F2020",
"s  c #242324",
"d  c #2E2425",
"f  c #2C2924",
"g  c #252429",
"h  c #282629",
"j  c #2B2B2B",
"k  c #272B2C",
"l  c #382825",
"z  c #393423",
"x  c #35322D",
"c  c #3F3B27",
"v  c #2E2E31",
"b  c #2A2630",
"n  c #332E39",
"m  c #2F3031",
"M  c #343434",
"N  c #3B3534",
"B  c #3A353B",
"V  c #36393A",
"C  c #3C3C3C",
"Z  c #383639",
"A  c #451D1B",
"S  c #4C1D1B",
"D  c #4A211F",
"F  c #57221F",
"G  c #432826",
"H  c #5C2927",
"J  c #552523",
"K  c #413425",
"L  c #433B23",
"P  c #4D3D2D",
"I  c #48372A",
"U  c #423232",
"Y  c #493D33",
"T  c #413E3C",
"R  c #473B35",
"E  c #563934",
"W  c #573B2E",
"Q  c #662C29",
"!  c #7B322F",
"~  c #6B362D",
"^  c #48422C",
"/  c #51432D",
"(  c #53492E",
")  c #484333",
"_  c #49443B",
"`  c #574936",
"'  c #5B5336",
"]  c #5A532D",
"[  c #664A3B",
"{  c #734E3E",
"}  c #645539",
"|  c #6D613E",
" . c #72633C",
".. c #3D3D41",
"X. c #423E48",
"o. c #3F4040",
"O. c #434343",
"+. c #46484B",
"@. c #4C4C4D",
"#. c #474747",
"$. c #564B44",
"%. c #534A48",
"&. c #55524D",
"*. c #565244",
"=. c #514D5A",
"-. c #5B4F50",
";. c #4E5050",
":. c #545454",
">. c #5B5552",
",. c #595855",
"<. c #5A5B5B",
"1. c #58565B",
"2. c #4D4B50",
"3. c #685948",
"4. c #765849",
"5. c #695953",
"6. c #764642",
"7. c #746A41",
"8. c #776C5C",
"9. c #6B6142",
"0. c #595762",
"q. c #635E65",
"w. c #636464",
"e. c #686769",
"r. c #77777A",
"t. c #6C6B74",
"y. c #863632",
"u. c #973C38",
"i. c #81312D",
"p. c #A43B36",
"a. c #96413D",
"s. c #A9423E",
"d. c #B2433E",
"f. c #954542",
"g. c #86534A",
"h. c #B44641",
"j. c #86784C",
"k. c #967E56",
"l. c #877866",
"z. c #937C68",
"x. c #907F70",
"c. c #CA4D47",
"v. c #8D8150",
"b. c #958954",
"n. c #948657",
"m. c #948A52",
"M. c #A2935F",
"N. c #A6995E",
"B. c #AFA05F",
"V. c #92826E",
"C. c #9B8B72",
"Z. c #958674",
"A. c #AC9961",
"S. c #B29A6A",
"D. c #A7917A",
"F. c #AB816C",
"G. c #AEA364",
"H. c #BAAA69",
"J. c #C1AF71",
"K. c #CBBB74",
"L. c #C9BA75",
"P. c #D1BF77",
"I. c #C3AF6F",
"U. c #DCCB7B",
"Y. c #D9C778",
"T. c #CEC275",
"R. c #E1D27F",
"E. c #7C7787",
"W. c #878789",
"Q. c #8A8692",
"!. c #96959A",
"~. c #B69B83",
"^. c #B5A592",
"/. c #9F9AAB",
"(. c #9F98B1",
"). c #9FA4A4",
"_. c #A7A7AC",
"`. c #ACAAB3",
"'. c #B6B7B9",
"]. c #B3AEBB",
"[. c #C7AC92",
"{. c #C7B49A",
"}. c #D6B799",
"|. c #CFAC8F",
" X c #CCBAA1",
".X c #D0BDA1",
"XX c #DFD081",
"oX c #DECE80",
"OX c #E4D584",
"+X c #EEDD88",
"@X c #E0CB83",
"#X c #F1E189",
"$X c #EFE087",
"%X c #DDC6AA",
"&X c #E6CFB1",
"*X c #ECD5B5",
"=X c #EAD8B9",
"-X c #F2DDBD",
";X c #F9DFBC",
":X c #E1C8A9",
">X c #B3AAC3",
",X c #BEC0C0",
"<X c #C6C4C9",
"1X c #DCDBDE",
"2X c #D9D7DC",
"3X c #FBDFC0",
"4X c #FBE4C3",
"5X c #FAE6C5",
"6X c #D8D4E4",
"7X c #E5E5E7",
"8X c #EFEEF4",
"9X c #F0EFF0",
"0X c #F3F3F5",
"qX c #FEFEFE",
"wX c #F4F3F8",
"eX c None",
/* pixels */
"eXeXeXeXeXeXeXeXeXeXeXeXeXeXeXeXeXeXeXeXeXeXeXeXeXeXeXeXeXeXeXeXeXeXeXeXeXeXeXeXeXeXeXeXeXeXeXeXeXeXeXeXeXeXeXeXeXeXeXeX",
"eXeXeXeXeXeXeXeXeXeXeXeXeXeXeXeXeXeXeXeXeXeXeXeXeXeXM M X s eXeXeXeXeXeXeXeXeXeXeXeXeXeXeXeXeXeXeXeXeXeXeXeXeXeXeXeXeXeX",
"eXeXeXeXeXeXeXeXeXeXeXeXeXeXeXeXeXeXeXeXeXeXeXeXM M ; f s s ; j m eXeXeXeXeXeXeXeXeXeXeXeXeXeXeXeXeXeXeXeXeXeXeXeXeXeXeX",
"eXeXeXeXeXeXeXeXeXeXeXeXeXeXeXeXeXeXeXeXeXeX#.O.; k M Z T V h #.r.,.O.eXeXeXeXeXeXeXeXeXeXeXeXeXeXeXeXeXeXeXeXeXeXeXeXeX",
"eXeXeXeXeXeXeXeXeXeXeXeXeXeXeXeXeXeXeXeXeXeXZ s M x M C C s ,.1XqX7Xr.V eXeXeXeXeXeXeXeXeXeXeXeXeXeXeXeXeXeXeXeXeXeXeXeX",
"eXeXeXeXeXeXeXeXeXeXeXeXeXeXeXeXeXeXeXeXeXeX& M M a m V V ; t.2X_.'.,X;.eXeXeXeXeXeXeXeXeXeXeXeXeXeXeXeXeXeXeXeXeXeXeXeX",
"eXeXeXeXeXeXeXeXeXeXeXeXeXeXeXeXeXeXeXeXeX:.s i > k o.T C j k E.W.1.).E.V eXeXeXeXeXeXeXeXeXeXeXeXeXeXeXeXeXeXeXeXeXeXeX",
"eXeXeXeXeXeXeXeXeXeXeXeXeXeXeXeXeXeXeXeXeXM : i . s m m j f s a C !.!.V ..eXeXeXeXeXeXeXeXeXeXeXeXeXeXeXeXeXeXeXeXeXeXeX",
"eXeXeXeXeXeXeXeXeXeXeXeXeXeXeXeXeXeXeXeXq.s p p . X $ u j k s - b _.Q.k eXeXeXeXeXeXeXeXeXeXeXeXeXeXeXeXeXeXeXeXeXeXeXeX",
"eXeXeXeXeXeXeXeXeXeXeXeXeXeXeXeXeXeXeXeXeXm ; - % - s j a w ) &.o.e.w.o.eXeXeXeXeXeXeXeXeXeXeXeXeXeXeXeXeXeXeXeXeXeXeXeX",
"eXeXeXeXeXeXeXeXeXeXeXeXeXeXeXeXeXeXeXeXeXZ ; % - : w t K ' {.=X^.$.O.<.eXeXeXeXeXeXeXeXeXeXeXeXeXeXeXeXeXeXeXeXeXeXeXeX",
"eXeXeXeXeXeXeXeXeXeXeXeXeXeXeXeXeXeXeXeX@.M - . . K  .] e 3.=X4X%X8.:.eXeXeXeXeXeXeXeXeXeXeXeXeXeXeXeXeXeXeXeXeXeXeXeXeX",
"eXeXeXeXeXeXeXeXeXeXeXeXeXeXeXeXeXeXeXeX; - s & # / L t I 4.&X&Xx.&.eXeXeXeXeXeXeXeXeXeXeXeXeXeXeXeXeXeXeXeXeXeXeXeXeXeX",
"eXeXeXeXeXeXeXeXeXeXeXeXeXeXeXeXeXeXeXeXj & . X # # + [ { ` 5.Z.5.eXeXeXeXeXeXeXeXeXeXeXeXeXeXeXeXeXeXeXeXeXeXeXeXeXeXeX",
"eXeXeXeXeXeXeXeXeXeXeXeXeXeXeXeXeXeXeXeXeXeXg k X     - q R -.e.C eXeXeXeXeXeXeXeXeXeXeXeXeXeXeXeXeXeXeXeXeXeXeXeXeXeXeX",
"eXeXeXeXeXeXeXeXeXeXeXeXeXeXeXeXeXeXeXeXeXeXeXO.w [ ` * . . x *.f eXeXeXeXeXeXeXeXeXeXeXeXeXeXeXeXeXeXeXeXeXeXeXeXeXeXeX",
"eXeXeXeXeXeXeXeXeXeXeXeXeXeXeXeXeXeXeXeXeXeXeX1 z.-X=XC.e O + w 4 l eXeXeXeXeXeXeXeXeXeXeXeXeXeXeXeXeXeXeXeXeXeXeXeXeXeX",
"eXeXeXeXeXeXeXeXeXeXeXeXeXeXeXeXeXeXeXeXeXeXeX$.%X4X4X*X4., + X 2 8 k eXeXeXeXeXeXeXeXeXeXeXeXeXeXeXeXeXeXeXeXeXeXeXeXeX",
"eXeXeXeXeXeXeXeXeXeXeXeXeXeXeXeXeXeXeXeXeXeX<._ {.4X-X~.W 6 %.V . a ,.V eXeXeXeXeXeXeXeXeXeXeXeXeXeXeXeXeXeXeXeXeXeXeXeX",
"eXeXeXeXeXeXeXeXeXeXeXeXeXeXeXeXeXeXeXeXeXeXO.` }.-XC.e W 8 -.!.j X M V eXeXeXeXeXeXeXeXeXeXeXeXeXeXeXeXeXeXeXeXeXeXeXeX",
"eXeXeXeXeXeXeXeXeXeXeXeXeXeXeXeXeXeXeXeXeXeX0 ~.;X4Xl.@ W 6 E '.`.n X & C eXeXeXeXeXeXeXeXeXeXeXeXeXeXeXeXeXeXeXeXeXeXeX",
"eXeXeXeXeXeXeXeXeXeXeXeXeXeXeXeXeXeXeXeXeXeXx {.5X}.P   O 9 5.<XqX`.u   s eXeXeXeXeXeXeXeXeXeXeXeXeXeXeXeXeXeXeXeXeXeXeX",
"eXeXeXeXeXeXeXeXeXeXeXeXeXeXeXeXeXeXeXeXeXT 5..XD.[ ;   O U !.7XqX0X!.: & M eXeXeXeXeXeXeXeXeXeXeXeXeXeXeXeXeXeXeXeXeXeX",
"eXeXeXeXeXeXeXeXeXeXeXeXeXeXeXeXeXeXeXeXeX$..X[.l O.o.: u =.w.'.qXqX8X<.. - M eXeXeXeXeXeXeXeXeXeXeXeXeXeXeXeXeXeXeXeXeX",
"eXeXeXeXeXeXeXeXeXeXeXeXeXeXeXeXeXeXeXeX= 3.*X*X3.; +.V i ..!.8XqXqX0Xe.> u @.eXeXeXeXeXeXeXeXeXeXeXeXeXeXeXeXeXeXeXeXeX",
"eXeXeXeXeXeXeXeXeXeXeXeXeXeXeXeXeXeXeXeX1.E |.5Xl.#.;.g 0.(.8XqXqXqXwXQ.- . :.eXeXeXeXeXeXeXeXeXeXeXeXeXeXeXeXeXeXeXeXeX",
"eXeXeXeXeXeXeXeXeXeXeXeXeXeXeXeXeXeXeXeXeXG ~.5XZ.e.5.; 0.(.<X7XqXqXqX6X=.& :.eXeXeXeXeXeXeXeXeXeXeXeXeXeXeXeXeXeXeXeXeX",
"eXeXeXeXeXeXeXeXeXeXeXeXeXeXeXeXeXeXeXeXeXN 4.[.3.+.;.> X.=.Q.1XqXqXqXqX_.M eXeXeXeXeXeXeXeXeXeXeXeXeXeXeXeXeXeXeXeXeXeX",
"eXeXeXeXeXeXeXeXeXeXeXeXeXeXeXeXeXeXeXeXeXZ q q ; & . o 0.].8XqXqXqXqXqX_.O.eXeXeXeXeXeXeXeXeXeXeXeXeXeXeXeXeXeXeXeXeXeX",
"eXeXeXeXeXeXeXeXeXeXeXeXeXeXeXeXeXeXeXeXeXs $ & M C   n >XqXqXqXqXqXqXqX!.V eXeXeXeXeXeXeXeXeXeXeXeXeXeXeXeXeXeXeXeXeXeX",
"eXeXeXeXeXeXeXeXeXeXeXeXeXeXeXeXeXeXeXeXw.s C 0 a k o n E.`.1XqXwX8X2X<X/.C T eXeXeXeXeXeXeXeXeXeXeXeXeXeXeXeXeXeXeXeXeX",
"eXeXeXeXeXeXeXeXeXeXeXeXeXeXeXeXeXeXeXeX,.; v h . x Z.D.V.r.5.E.r.+.V k z 3 Z eXeXeXeXeXeXeXeXeXeXeXeXeXeXeXeXeXeXeXeXeX",
"eXeXeXeXeXeXeXeXeXeXeXeXeXeXeXeXeXeXeXeXeXV s ; = z.4X4X4X%X8.& y } (  .G.( eXeXeXeXeXeXeXeXeXeXeXeXeXeXeXeXeXeXeXeXeXeX",
"eXeXeXeXeXeXeXeXeXeXeXeXeXeXeXeXeXeXeXeXeXeXeXe.T g.}.-X3X{.3.= m.K.b.b.v.z eXeXeXeXeXeXeXeXeXeXeXeXeXeXeXeXeXeXeXeXeXeX",
"eXeXeXeXeXeXeXeXeXeXeXeXeXeXeXeXeXeXeXeXeXeXeXeX,.P F.&X-X^.I @ B.K. .7.j._ eXeXeXeXeXeXeXeXeXeXeXeXeXeXeXeXeXeXeXeXeXeX",
"eXeXeXeXeXeXeXeXeXeXeXeXeXeXeXeXeXeXeXeXeXeXeXeX@.5 { F.V.{ q z N.( c L.n.,.eXeXeXeXeXeXeXeXeXeXeXeXeXeXeXeXeXeXeXeXeXeX",
"eXeXeXeXeXeXeXeXeXeXeXeXeXeXeXeXeXeXeXeXeXeXeXeXs @ I D r r g } I.L ] Y.7.,.eXeXeXeXeXeXeXeXeXeXeXeXeXeXeXeXeXeXeXeXeXeX",
"eXeXeXeXeXeXeXeXeXeXeXeXeXeXeXeXeXeXeXeXeXeXeX: u e k.M.^ o.M v.H.w  .U.] eXeXeXeXeXeXeXeXeXeXeXeXeXeXeXeXeXeXeXeXeXeXeX",
"eXeXeXeXeXeXeXeXeXeXeXeXeXeXeXeXeXeXeXeXeXeXeXk > r A.H.^ <.) I.j.L K.K.c eXeXeXeXeXeXeXeXeXeXeXeXeXeXeXeXeXeXeXeXeXeXeX",
"eXeXeXeXeXeXeXeXeXeXeXeXeXeXeXeXeXeXeXeXeXeXeX2.M 3 ) *.+.; 7.T.P j.+X7.3 eXeXeXeXeXeXeXeXeXeXeXeXeXeXeXeXeXeXeXeXeXeXeX",
"eXeXeXeXeXeXeXeXeXeXeXeXeXeXeXeXeXeXeXeXeXeXeX3 * h m V X.| R.M.^ J.G.r eXeXeXeXeXeXeXeXeXeXeXeXeXeXeXeXeXeXeXeXeXeXeXeX",
"eXeXeXeXeXeXeXeXeXeXeXeXeXeXeXeXeXeXeXeXeXeXeX+ + V V y j.U.H.P } H.( ; eXeXeXeXeXeXeXeXeXeXeXeXeXeXeXeXeXeXeXeXeXeXeXeX",
"eXeXeXeXeXeXeXeXeXeXeXeXeXeXeXeXeXeXeXeXeXeX@.* * +.+.9.OXK./ = j.P.v._ eXeXeXeXeXeXeXeXeXeXeXeXeXeXeXeXeXeXeXeXeXeXeXeX",
"eXeXeXeXeXeXeXeXeXeXeXeXeXeXeXeXeXeXeXeXeX:.j w } %.$.M.L.4.o K S.#XoX( O.eXeXeXeXeXeXeXeXeXeXeXeXeXeXeXeXeXeXeXeXeXeXeX",
"eXeXeXeXeXeXeXeXeXeXeXeXeXeXeXeXeXeXeXeX,.3 P A.OXA.G.OXS.3.o / I.K.M.^ C eXeXeXeXeXeXeXeXeXeXeXeXeXeXeXeXeXeXeXeXeXeXeX",
"eXeXeXeXeXeXeXeXeXeXeXeXeXeXeXeXeXeXeXeXw.m } K.+X#X#X#X@Xn.= w / R x eXeXeXeXeXeXeXeXeXeXeXeXeXeXeXeXeXeXeXeXeXeXeXeXeX",
"eXeXeXeXeXeXeXeXeXeXeXeXeXeXeXeXeXeXeXeXeXeXs Y n.T.OXXXT.b.q 8 - v V eXeXeXeXeXeXeXeXeXeXeXeXeXeXeXeXeXeXeXeXeXeXeXeXeX",
"eXeXeXeXeXeXeXeXeXeXeXeXeXeXeXeXeXeXeXeXeXeXeXV f z ( ' z @ l I ; 5 _ eXeXeXeXeXeXeXeXeXeXeXeXeXeXeXeXeXeXeXeXeXeXeXeXeX",
"eXeXeXeXeXeXeXeXeXeXeXeXeXeXeXeXeXeXeXeXeXeXeXeX..l R #.Z O d B j 5 M eXeXeXeXeXeXeXeXeXeXeXeXeXeXeXeXeXeXeXeXeXeXeXeXeX",
"eXeXeXeXeXeXeXeXeXeXeXeXeXeXeXeXeXeXeXeXeXeXt.f % ` l.s l % 1 4 A 7 d O N e G d eXeXeXeXeXeXeXeXeXeXeXeXeXeXeXeXeXeXeXeX",
"eXeXeXeXeXeXeXeXeXeXeXeXeXeXeXeXeXeXeXeXeXeXe.l 7 T %.M 2 O u j J A A 6 7 ! d.H i eXeXeXeXeXeXeXeXeXeXeXeXeXeXeXeXeXeXeX",
"eXeXeXeXeXeXeXeXeXeXeXeXeXeXeXeXeXeXeXeXeXeXeXC 1 E l v 2 & g d 7 F D G H p.c.! q eXeXeXeXeXeXeXeXeXeXeXeXeXeXeXeXeXeXeX",
"eXeXeXeXeXeXeXeXeXeXeXeXeXeXeXeXeXeXeXeXeXeXeXo.> b 7 H A O - 2 4 J u.p.d.p.y.l k eXeXeXeXeXeXeXeXeXeXeXeXeXeXeXeXeXeXeX",
"eXeXeXeXeXeXeXeXeXeXeXeXeXeXeXeXeXeXeXeXeXeXo.- b ..4 S S 6 + o O , A E E R X.B :.eXeXeXeXeXeXeXeXeXeXeXeXeXeXeXeXeXeXeX",
"eXeXeXeXeXeXeXeXeXeXeXeXeXeXeXeXeXeXeXeXeXeXk . h U G A J l 8 S H y.4 <.;.s O.eXeXeXeXeXeXeXeXeXeXeXeXeXeXeXeXeXeXeXeXeX",
"eXeXeXeXeXeXeXeXeXeXeXeXeXeXeXeXeXeXeXeXeXeXeXh h n U Q i.Q ! d.h.u.U W.eXeXeXeXeXeXeXeXeXeXeXeXeXeXeXeXeXeXeXeXeXeXeXeX",
"eXeXeXeXeXeXeXeXeXeXeXeXeXeXeXeXeXeXeXeXeXeXeX:.V n M >.g.f.u.f.6.%.C w.eXeXeXeXeXeXeXeXeXeXeXeXeXeXeXeXeXeXeXeXeXeXeXeX",
"eXeXeXeXeXeXeXeXeXeXeXeXeXeXeXeXeXeXeXeXeXeXeXeXeXeXeX..C O.X.T M ..V eXeXeXeXeXeXeXeXeXeXeXeXeXeXeXeXeXeXeXeXeXeXeXeXeX",
"eXeXeXeXeXeXeXeXeXeXeXeXeXeXeXeXeXeXeXeXeXeXeXeXeXeXeXeXf s #.t.eXeXeXeXeXeXeXeXeXeXeXeXeXeXeXeXeXeXeXeXeXeXeXeXeXeXeXeX",
"eXeXeXeXeXeXeXeXeXeXeXeXeXeXeXeXeXeXeXeXeXeXeXeXeXeXeXeXeXeXeXeXeXeXeXeXeXeXeXeXeXeXeXeXeXeXeXeXeXeXeXeXeXeXeXeXeXeXeXeX"
};
