/* XPM */
static char *result[] = {
/* columns rows colors chars-per-pixel */
"60 60 210 2 ",
"   c #0C0C0D",
".  c #070507",
"X  c #1D0C0C",
"o  c #160909",
"O  c #12120A",
"+  c #0E0C10",
"@  c #120E15",
"#  c #141315",
"$  c #1C1A13",
"%  c #161418",
"&  c #19151C",
"*  c #1B1A1C",
"=  c #1C1213",
"-  c #0E1011",
";  c #260D0F",
":  c #221314",
">  c #231B19",
",  c #291918",
"<  c #371A1C",
"1  c #361717",
"2  c #2F0F13",
"3  c #2A251A",
"4  c #32241C",
"5  c #38261E",
"6  c #1E1A23",
"7  c #211D23",
"8  c #1F2023",
"9  c #242324",
"0  c #2B2523",
"q  c #262329",
"w  c #2A262C",
"e  c #2C2B2C",
"r  c #272828",
"t  c #332422",
"y  c #3E2623",
"u  c #332B22",
"i  c #322D2B",
"p  c #3A2C2B",
"a  c #3B2824",
"s  c #3B332D",
"d  c #3A3429",
"f  c #2D2D33",
"g  c #332E33",
"h  c #2D3031",
"j  c #343334",
"k  c #383432",
"l  c #393936",
"z  c #353539",
"x  c #373939",
"c  c #3C3B3C",
"v  c #39343F",
"b  c #471A1A",
"n  c #481B20",
"m  c #432523",
"M  c #462D27",
"N  c #592A28",
"B  c #4D332C",
"V  c #453C2C",
"C  c #473727",
"Z  c #573B2E",
"A  c #433B36",
"S  c #4B3A34",
"D  c #423C3B",
"F  c #443632",
"G  c #553A34",
"H  c #642027",
"J  c #4D452B",
"K  c #544A2D",
"L  c #454235",
"P  c #43413E",
"I  c #4C423C",
"U  c #4D4431",
"Y  c #524331",
"T  c #554D31",
"R  c #51453B",
"E  c #59483A",
"W  c #5D5335",
"Q  c #5D563A",
"!  c #5D552F",
"~  c #68473A",
"^  c #655B3A",
"/  c #6C5C3D",
"(  c #63563B",
")  c #6E603E",
"_  c #3E3B41",
"`  c #3A3542",
"'  c #413E48",
"]  c #384040",
"[  c #424343",
"{  c #4A4544",
"}  c #4C4A43",
"|  c #4C4B4B",
" . c #46444B",
".. c #564C47",
"X. c #51514E",
"o. c #5C534A",
"O. c #4A4553",
"+. c #4D4A53",
"@. c #4B4956",
"#. c #554E55",
"$. c #545454",
"%. c #5D5C5C",
"&. c #595658",
"*. c #685745",
"=. c #745845",
"-. c #7A6C44",
";. c #7E6C49",
":. c #696256",
">. c #786759",
",. c #747049",
"<. c #5A5764",
"1. c #615D6C",
"2. c #626262",
"3. c #6A6869",
"4. c #71716C",
"5. c #6B6674",
"6. c #78787A",
"7. c #716E6A",
"8. c #885C4B",
"9. c #85684D",
"0. c #86794B",
"q. c #89774D",
"w. c #8A6452",
"e. c #8A6B58",
"r. c #966553",
"t. c #8B7B53",
"y. c #967759",
"u. c #91724F",
"i. c #897868",
"p. c #957A66",
"a. c #A17965",
"s. c #8C8152",
"d. c #938453",
"f. c #998A58",
"g. c #9F925A",
"h. c #AB9D5F",
"j. c #9A8976",
"k. c #92806D",
"l. c #AC9B63",
"z. c #A59561",
"x. c #A18C78",
"c. c #B38C76",
"v. c #A3937E",
"b. c #B8947A",
"n. c #AE8D69",
"m. c #B6A568",
"M. c #BEB16D",
"N. c #CAB573",
"B. c #CCBC73",
"V. c #C5B271",
"C. c #C3B171",
"Z. c #DBCB7C",
"A. c #D5C67A",
"S. c #E1D27F",
"D. c #7A7784",
"F. c #776F83",
"G. c #86858A",
"H. c #9C9595",
"J. c #958D8B",
"K. c #A99983",
"L. c #AE9B90",
"P. c #B5A48C",
"I. c #B9A08C",
"U. c #BAAB93",
"Y. c #928AA1",
"T. c #9E99A5",
"R. c #A199AD",
"E. c #A9A5AC",
"W. c #B8B6B7",
"Q. c #B0AAB1",
"!. c #CAB79C",
"~. c #DAB69B",
"^. c #CBA990",
"/. c #D8BCA1",
"(. c #E2BDA0",
"). c #DFCD80",
"_. c #E1CF81",
"`. c #E4D481",
"'. c #ECDC85",
"]. c #ECDB87",
"[. c #F1DD8A",
"{. c #EEE087",
"}. c #F0E289",
"|. c #DBC7AA",
" X c #E3CBAD",
".X c #E9C8AA",
"XX c #E9CEB2",
"oX c #E9D5B7",
"OX c #F3DABC",
"+X c #BBB8C3",
"@X c #AEA7C1",
"#X c #C1BFC5",
"$X c #C4BCD1",
"%X c #C7C7CB",
"&X c #D1CDD7",
"*X c #DAD9DE",
"=X c #D5D3DB",
"-X c #CDC8D7",
";X c #F5DFC0",
":X c #FBE5C4",
">X c #D9D5E0",
",X c #E0DDE6",
"<X c #E8E6ED",
"1X c #EBEDEE",
"2X c #E4E4E9",
"3X c #F3F3F5",
"4X c #FEFEFF",
"5X c #F7F8F9",
"6X c #EEF1F3",
"7X c None",
/* pixels */
"7X7X7X7X7X7X7X7X7X7X7X7X7X7X7X7X7X7X7X7X7X7X7X7X7X7X7X7X7X7X7X7X7X7X7X7X7X7X7X7X7X7X7X7X7X7X7X7X7X7X7X7X7X7X7X7X7X7X7X7X",
"7X7X7X7X7X7X7X7X7X7X7X7X7X7X7X7X7X7X7X7X7X7X7X7X7X7X7X7X7X7X7X7X7X7X7X7X7X7X7X7X7X7X7X7X7X7X7X7X7X7X7X7X7X7X7X7X7X7X7X7X",
"7X7X7X7X7X7X7X7X7X7X7X7X7X7X7X7X7X7X7X7X7X7X7X7X7X7X7X7X| c r r l e 7X7X7X7X7X7X7X7X7X7X7X7X7X7X7X7X7X7X7X7X7X7X7X7X7X7X",
"7X7X7X7X7X7X7X7X7X7X7X7X7X7X7X7X7X7X7X7X7X7X7X7X7X7X7Xe r e x l h r 9 k 7X7X7X7X7X7X7X7X7X7X7X7X7X7X7X7X7X7X7X7X7X7X7X7X",
"7X7X7X7X7X7X7X7X7X7X7X7X7X7X7X7X7X7X7X7X7X7X7X7X7X7X* * l ' [ P P ] c h j 7X7X7X7X7X7X7X7X7X7X7X7X7X7X7X7X7X7X7X7X7X7X7X",
"7X7X7X7X7X7X7X7X7X7X7X7X7X7X7X7X7X7X7X7X7X7X7X7X7Xc 3 k [ c [ [ P [ ] c e e 7X7X7X7X7X7X7X7X7X7X7X7X7X7X7X7X7X7X7X7X7X7X",
"7X7X7X7X7X7X7X7X7X7X7X7X7X7X7X7X7X7X7X7X7X7X7X7X7X9 h j c c ] { c [ [ c j 8 7X7X7X7X7X7X7X7X7X7X7X7X7X7X7X7X7X7X7X7X7X7X",
"7X7X7X7X7X7X7X7X7X7X7X7X7X7X7X7X7X7X7X7X7X7X7X7X7Xj r j c [ [ [ x [ [ j k % 7X7X7X7X7X7X7X7X7X7X7X7X7X7X7X7X7X7X7X7X7X7X",
"7X7X7X7X7X7X7X7X7X7X7X7X7X7X7X7X7X7X7X7X7X7X7X7X7X# # 9 9 [ ] [ ' { P j f % 7X7X7X7X7X7X7X7X7X7X7X7X7X7X7X7X7X7X7X7X7X7X",
"7X7X7X7X7X7X7X7X7X7X7X7X7X7X7X7X7X7X7X7X7X7X7X7X7X# & @ + w e z z x h q 6 e 7X7X7X7X7X7X7X7X7X7X7X7X7X7X7X7X7X7X7X7X7X7X",
"7X7X7X7X7X7X7X7X7X7X7X7X7X7X7X7X7X7X7X7X7X7X7X7X7X9 q % . 7 7 w q w 7 7 q %.7X7X7X7X7X7X7X7X7X7X7X7X7X7X7X7X7X7X7X7X7X7X",
"7X7X7X7X7X7X7X7X7X7X7X7X7X7X7X7X7X7X7X7X7X7X7X7X7X7X9 & @ 7 w w 9 7 6 + * 7X7X7X7X7X7X7X7X7X7X7X7X7X7X7X7X7X7X7X7X7X7X7X",
"7X7X7X7X7X7X7X7X7X7X7X7X7X7X7X7X7X7X7X7X7X7X7X7X7X7X7Xe o % z z j w r 8 # | 7X7X7X7X7X7X7X7X7X7X7X7X7X7X7X7X7X7X7X7X7X7X",
"7X7X7X7X7X7X7X7X7X7X7X7X7X7X7X7X7X7X7X7X7X7X7X7X7X7X7X$.t 3 & 7 6 w 7 *   | 7X7X7X7X7X7X7X7X7X7X7X7X7X7X7X7X7X7X7X7X7X7X",
"7X7X7X7X7X7X7X7X7X7X7X7X7X7X7X7X7X7X7X7X7X7X7X7X7X%._ * O 3 O $ .       z %.7X7X7X7X7X7X7X7X7X7X7X7X7X7X7X7X7X7X7X7X7X7X",
"7X7X7X7X7X7X7X7X7X7X7X7X7X7X7X7X7X7X7X7X7X7X7XA :.s :.G.c + - 3     @.<.A o.A 7X7X7X7X7X7X7X7X7X7X7X7X7X7X7X7X7X7X7X7X7X",
"7X7X7X7X7X7X7X7X7X7X7X7X7X7X7X7X7X7X7X7X7X%.%.v..Xi.E /.-XT.G.F.5.F.%XH.s U.j.D 7X7X7X7X7X7X7X7X7X7X7X7X7X7X7X7X7X7X7X7X",
"7X7X7X7X7X7X7X7X7X7X7X7X7X7X7X7X7X7X7X7X7X..j.OX:XI.M E.3X4X5X<XT.&X1XE.M P.|.>.0 7X7X7X7X7X7X7X7X7X7X7X7X7X7X7X7X7X7X7X",
"7X7X7X7X7X7X7X7X7X7X7X7X7X7X7X7X7X7X7X7X7XI e.|.OXb.B L.1X4X4X,XW.4X1XW.B p././.v.:.} 7X7X7X7X7X7X7X7X7X7X7X7X7X7X7X7X7X",
"7X7X7X7X7X7X7X7X7X7X7X7X7X7X7X7X7X7X7X7X7X' i.XX~.8.m J.1X4X4X2X2X4X6X%XG M a.OX:X Xp.F | 7X7X7X7X7X7X7X7X7X7X7X7X7X7X7X",
"7X7X7X7X7X7X7X7X7X7X7X7X7X7X7X7X7X7X7X7XD i.;X:X^.y n L.1X4X4X3X5X4X5X%X#.0 R k.XX:X.X=.D 7X7X7X7X7X7X7X7X7X7X7X7X7X7X7X",
"7X7X7X7X7X7X7X7X7X7X7X7X7X7X7X7X7X7X7X7Xo.!.:XXXw.o m T.1X4X4X4X4X<X*X%X&.D 7...e.p.U.I.Z | 7X7X7X7X7X7X7X7X7X7X7X7X7X7X",
"7X7X7X7X7X7X7X7X7X7X7X7X7X7X7X7X7X7X7XX.:.OXOXn.5 X #.W.5X4X4X4X4X=XD.<.w w 7X7X7Xs k.oXc.~ 7X7X7X7X7X7X7X7X7X7X7X7X7X7X",
"7X7X7X7X7X7X7X7X7X7X7X7X7X7X7X7X7X7X7XX.j.OXc.S 3 w D.*X4X4X4X4X4X4X%XO.9 7X7X7X' E |.:X^.Y 7X7X7X7X7X7X7X7X7X7X7X7X7X7X",
"7X7X7X7X7X7X7X7X7X7X7X7X7X7X7X7X7X7X7Xo. X.XY h % f F.&X4X4X4X4X4X4X5XE.' 7X7X7XA x.:X~.w.p 7X7X7X7X7X7X7X7X7X7X7X7X7X7X",
"7X7X7X7X7X7X7X7X7X7X7X7X7X7X7X7X7X7X7XR oX~.C   # q 3.2X4X4X4X4X4X4X3XD.6 z 7X7X..|..Xr.F | 7X7X7X7X7X7X7X7X7X7X7X7X7X7X",
"7X7X7X7X7X7X7X7X7X7X7X7X7X7X7X7X7X7X2.>.:X!.B # r +.*X4X4X4X4X4X4X4X3XY.e u D { K..Xw.S [ 7X7X7X7X7X7X7X7X7X7X7X7X7X7X7X",
"7X7X7X7X7X7X7X7X7X7X7X7X7X7X7X7X7X7X7.j.OXc.R e  .6.3X4X4X4X4X4X4X4X4XW.s w.>.p.!.>.p 7X7X7X7X7X7X7X7X7X7X7X7X7X7X7X7X7X",
"7X7X7X7X7X7X7X7X7X7X7X7X7X7X7X7X7X7Xk K.(.~ i 9  .<.>X5X4X4X4X4X4X4X4XT.# a I.K.o...7X7X7X7X7X7X7X7X7X7X7X7X7X7X7X7X7X7X",
"7X7X7X7X7X7X7X7X7X7X7X7X7X7X7X7X7Xl - I =.: # e w ` R.-X,X5X4X4X4X4X<XY.<.t w.S l 7X7X7X7X7X7X7X7X7X7X7X7X7X7X7X7X7X7X7X",
"7X7X7X7X7X7X7X7X7X7X7X7X7X7X7X7X7X- e 9 7 7 ] [ %.Q.>X>X<X5X4X4X5X3X,X@XY.g > [ 7X7X7X7X7X7X7X7X7X7X7X7X7X7X7X7X7X7X7X7X",
"7X7X7X7X7X7X7X7X7X7X7X7X7X7X7X7X7X* f g ` * r e <.+X>X<X3X2X-XQ.D.<.5.&.' 0 [ 7X7X7X7X7X7X7X7X7X7X7X7X7X7X7X7X7X7X7X7X7X",
"7X7X7X7X7X7X7X7X7X7X7X7X7X7X7X7X7X%.3 , > t p i K i x +.$.@.{ V C K -.t.y.Y l 7X7X7X7X7X7X7X7X7X7X7X7X7X7X7X7X7X7X7X7X7X",
"7X7X7X7X7X7X7X7X7X7X7X7X7X7X7X7X7X7XL x.r.r.~ 3 0.} f $ W q.l.N.A.S.[.[.C.d x 7X7X7X7X7X7X7X7X7X7X7X7X7X7X7X7X7X7X7X7X7X",
"7X7X7X7X7X7X7X7X7X7X7X7X7X7X7X7X7X7Xs P.u.~ ~ , K $.$.Q S.}.'.'.S.S.S.[.f.0 7X7X7X7X7X7X7X7X7X7X7X7X7X7X7X7X7X7X7X7X7X7X",
"7X7X7X7X7X7X7X7X7X7X7X7X7X7X7X7X7X7X} x.~ 4 o W ^ i * 0.m.s.^ K ^ m.S.S.d.S 7X7X7X7X7X7X7X7X7X7X7X7X7X7X7X7X7X7X7X7X7X7X",
"7X7X7X7X7X7X7X7X7X7X7X7X7X7X7X7X7X7X} *.~ Z 5 ) 4.4.p d.q.4 . 5 / g.Z.S.S.) 7X7X7X7X7X7X7X7X7X7X7X7X7X7X7X7X7X7X7X7X7X7X",
"7X7X7X7X7X7X7X7X7X7X7X7X7X7X7X7X7X7X7XP 4 3 C d.{ O.d B.z.0 & / N.V.Z.}.'.) 7X7X7X7X7X7X7X7X7X7X7X7X7X7X7X7X7X7X7X7X7X7X",
"7X7X7X7X7X7X7X7X7X7X7X7X7X7X7X7X7X7X7X6.3 . W ,.j % -.M.J } } ;.S.{.'.S.S.^ 7X7X7X7X7X7X7X7X7X7X7X7X7X7X7X7X7X7X7X7X7X7X",
"7X7X7X7X7X7X7X7X7X7X7X7X7X7X7X7X7X7X7X| c % U ] @.U f.-.u 2.R -.m.A.S.Z.B.( :.7X7X7X7X7X7X7X7X7X7X7X7X7X7X7X7X7X7X7X7X7X",
"7X7X7X7X7X7X7X7X7X7X7X7X7X7X7X7X7X7X7X&.f x  .% 3 J ( q.J k k d q.d.t.h.0.r 4.7X7X7X7X7X7X7X7X7X7X7X7X7X7X7X7X7X7X7X7X7X",
"7X7X7X7X7X7X7X7X7X7X7X7X7X7X7X7X7X7X7X$.c 6 * W h.B.m./ L X.%.K V.S.Z.Z.-.J k 7X7X7X7X7X7X7X7X7X7X7X7X7X7X7X7X7X7X7X7X7X",
"7X7X7X7X7X7X7X7X7X7X7X7X7X7X7X7X7X7X7X[ _ & ) Z.}.'.l.3 P j %.s.'.'.{.`.Z.d.A 7X7X7X7X7X7X7X7X7X7X7X7X7X7X7X7X7X7X7X7X7X",
"7X7X7X7X7X7X7X7X7X7X7X7X7X7X7X7X7X7X7Xj & 0 m.{.'.{.N.T e x &.z.}.{.'.'.`.( k 7X7X7X7X7X7X7X7X7X7X7X7X7X7X7X7X7X7X7X7X7X",
"7X7X7X7X7X7X7X7X7X7X7X7X7X7X7X7X7X7X3.k Y l.'.{.'.'.).;.A X.$.t.'.{.'.{.V.S j 7X7X7X7X7X7X7X7X7X7X7X7X7X7X7X7X7X7X7X7X7X",
"7X7X7X7X7X7X7X7X7X7X7X7X7X7X7X7X7X7X3.s t.A.'.{.}.'.m.U l k | W S.{.{.{.).-.3  .7X7X7X7X7X7X7X7X7X7X7X7X7X7X7X7X7X7X7X7X",
"7X7X7X7X7X7X7X7X7X7X7X7X7X7X7X7X7X7X7X7XL Q d.M.m.t.*.t c 2.e / A.`.S.B.g.*.I &.7X7X7X7X7X7X7X7X7X7X7X7X7X7X7X7X7X7X7X7X",
"7X7X7X7X7X7X7X7X7X7X7X7X7X7X7X7X7X7X7X7X7X2.d V t k { 7X7X7XX.d ,.Q U d 0 { 7X7X7X7X7X7X7X7X7X7X7X7X7X7X7X7X7X7X7X7X7X7X",
"7X7X7X7X7X7X7X7X7X7X7X7X7X7X7X7X7X7X7X7X> s ..p.t | 7X7X7X7X7X2.<.k *.k c  .7X7X7X7X7X7X7X7X7X7X7X7X7X7X7X7X7X7X7X7X7X7X",
"7X7X7X7X7X7X7X7X7X7X7X7X7X7X7X7X7Xp y , X < a S < X %.7X7X7X7Xi X 4 I 0 t i , g 7X7X7X7X7X7X7X7X7X7X7X7X7X7X7X7X7X7X7X7X",
"7X7X7X7X7X7X7X7X7X7X7X7X7X7X7X7X7XN N < = h A p > w 7X7X7X7X7X9 $ m t a ; o b b : 7X7X7X7X7X7X7X7X7X7X7X7X7X7X7X7X7X7X7X",
"7X7X7X7X7X7X7X7X7X7X7X7X7X7X7X7Xi.G N n 3 c h %   z 7X7X7X7X7Xx - x P q o 2 , H 1 7X7X7X7X7X7X7X7X7X7X7X7X7X7X7X7X7X7X7X",
"7X7X7X7X7X7X7X7X7X7X7X7X7X7X7X7XG.| M a _ [ c f % l 7X7X7X7X7Xe * x c w X 2 n b 0 7X7X7X7X7X7X7X7X7X7X7X7X7X7X7X7X7X7X7X",
"7X7X7X7X7X7X7X7X7X7X7X7X7X7X7X7X7X$.| r h ] [ c # z 7X7X7X7X7Xr c [ [  .p 2 < : j 7X7X7X7X7X7X7X7X7X7X7X7X7X7X7X7X7X7X7X",
"7X7X7X7X7X7X7X7X7X7X7X7X7X7X7X7X7X7X| 9 * _ c w # e 7X7X7X7X6.l w c c j 7 w g ` 7X7X7X7X7X7X7X7X7X7X7X7X7X7X7X7X7X7X7X7X",
"7X7X7X7X7X7X7X7X7X7X7X7X7X7X7X7X7X7X7Xx l %.#.` w 7X7X7X7X7XG.| | %.| g ' +.7X7X7X7X7X7X7X7X7X7X7X7X7X7X7X7X7X7X7X7X7X7X",
"7X7X7X7X7X7X7X7X7X7X7X7X7X7X7X7X7X7X7X7X&.l g w [ 7X7X7X7X7X7X6.&.7X7X7X2.7X7X7X7X7X7X7X7X7X7X7X7X7X7X7X7X7X7X7X7X7X7X7X",
"7X7X7X7X7X7X7X7X7X7X7X7X7X7X7X7X7X7X7X7X7X7X7X7X7X7X7X7X7X7X7X7X7X7X7X7X7X7X7X7X7X7X7X7X7X7X7X7X7X7X7X7X7X7X7X7X7X7X7X7X",
"7X7X7X7X7X7X7X7X7X7X7X7X7X7X7X7X7X7X7X7X7X7X7X7X7X7X7X7X7X7X7X7X7X7X7X7X7X7X7X7X7X7X7X7X7X7X7X7X7X7X7X7X7X7X7X7X7X7X7X7X",
"7X7X7X7X7X7X7X7X7X7X7X7X7X7X7X7X7X7X7X7X7X7X7X7X7X7X7X7X7X7X7X7X7X7X7X7X7X7X7X7X7X7X7X7X7X7X7X7X7X7X7X7X7X7X7X7X7X7X7X7X"
};
