/* XPM */
static char *result[] = {
/* columns rows colors chars-per-pixel */
"60 60 208 2 ",
"   c #030303",
".  c #0C0A06",
"X  c #0B0609",
"o  c #0B0B0C",
"O  c #080405",
"+  c #140D0D",
"@  c #1D0D0B",
"#  c #1A130E",
"$  c #17130D",
"%  c #0E0E10",
"&  c #130F12",
"*  c #141314",
"=  c #1D1513",
"-  c #1C1B17",
";  c #171619",
":  c #1B171D",
">  c #171818",
",  c #1C1A1C",
"<  c #270E0C",
"1  c #241514",
"2  c #2A1413",
"3  c #231C15",
"4  c #231D19",
"5  c #2A1C1C",
"6  c #2B1519",
"7  c #3D1D1C",
"8  c #341A16",
"9  c #2E130E",
"0  c #1F221E",
"q  c #2D241C",
"w  c #2A251A",
"e  c #332B1D",
"r  c #39261D",
"t  c #3A321C",
"y  c #1D1C21",
"u  c #1C1721",
"i  c #221F24",
"p  c #2A1E20",
"a  c #1F2021",
"s  c #232323",
"d  c #2D2524",
"f  c #2C2824",
"g  c #262529",
"h  c #29232B",
"j  c #2B2B2B",
"k  c #26292A",
"l  c #342524",
"z  c #3C2322",
"x  c #322B25",
"c  c #3B2B25",
"v  c #332D2B",
"b  c #35312E",
"n  c #3E332C",
"m  c #3C3421",
"M  c #2D2C32",
"N  c #312D33",
"B  c #343434",
"V  c #3B3533",
"C  c #35323B",
"Z  c #363939",
"A  c #3B3B3B",
"S  c #3A3736",
"D  c #4C1B19",
"F  c #56211E",
"G  c #462C1F",
"H  c #482825",
"J  c #532421",
"K  c #5A2421",
"L  c #463B24",
"P  c #41362E",
"I  c #433B2A",
"U  c #493E2B",
"Y  c #483328",
"T  c #583D2F",
"R  c #423B33",
"E  c #433D3C",
"W  c #4C3D3A",
"Q  c #4D3633",
"!  c #5A3D37",
"~  c #732D2A",
"^  c #732A26",
"/  c #78312E",
"(  c #632624",
")  c #4A432A",
"_  c #55482A",
"`  c #474437",
"'  c #5D4033",
"]  c #57463B",
"[  c #5F5636",
"{  c #654839",
"}  c #665A3A",
"|  c #6B623C",
" . c #70633F",
".. c #3E3F42",
"X. c #3B3542",
"o. c #433B42",
"O. c #3F4141",
"+. c #434444",
"@. c #4B4A4B",
"#. c #474648",
"$. c #564A46",
"%. c #595348",
"&. c #4E4C53",
"*. c #504E57",
"=. c #535354",
"-. c #595656",
";. c #644942",
":. c #6B5B45",
">. c #775546",
",. c #6B5555",
"<. c #7A6D43",
"1. c #766944",
"2. c #7A7145",
"3. c #756C5A",
"4. c #796655",
"5. c #6E624F",
"6. c #5C5866",
"7. c #5F6161",
"8. c #626363",
"9. c #67656D",
"0. c #6C6A69",
"q. c #726B7B",
"w. c #7A797B",
"e. c #767679",
"r. c #6F677C",
"t. c #863834",
"y. c #993C38",
"u. c #A13D39",
"i. c #93423D",
"p. c #B1443F",
"a. c #844642",
"s. c #B44540",
"d. c #AD4842",
"f. c #84744A",
"g. c #88794D",
"h. c #907F51",
"j. c #837350",
"k. c #877566",
"l. c #977D68",
"z. c #A77C66",
"x. c #C84E49",
"c. c #8E834E",
"v. c #8F8151",
"b. c #958455",
"n. c #A2935D",
"m. c #AC9A5D",
"M. c #AEA15F",
"N. c #9B8874",
"B. c #8A816D",
"V. c #AC9D62",
"C. c #A89661",
"Z. c #AF947A",
"A. c #BAAA6B",
"S. c #B6A466",
"D. c #BFAE71",
"F. c #AFA565",
"G. c #C3B16D",
"H. c #CBBD76",
"J. c #C5B473",
"K. c #D9C77D",
"L. c #CFC076",
"P. c #E2D27F",
"I. c #7E7D85",
"U. c #807B85",
"Y. c #858486",
"T. c #8C8997",
"R. c #979899",
"E. c #AA9A83",
"W. c #B99D84",
"Q. c #B6A48B",
"!. c #B5A790",
"~. c #9E9BA6",
"^. c #958DA5",
"/. c #A09FA2",
"(. c #A7A8AC",
"). c #ADABB4",
"_. c #AEABB9",
"`. c #B7B9B9",
"'. c #C7A88C",
"]. c #C3B097",
"[. c #D8BA9B",
"{. c #D4BCA2",
"}. c #C8BBA1",
"|. c #E5D482",
" X c #EFDD89",
".X c #EBD986",
"XX c #F1E18B",
"oX c #EFE087",
"OX c #D6C4A7",
"+X c #E2CCAC",
"@X c #ECCCAE",
"#X c #ECD7B6",
"$X c #F1DBBB",
"%X c #C3BFCC",
"&X c #C5C4C5",
"*X c #D5D3DA",
"=X c #D6D9D9",
"-X c #D4CEDC",
";X c #FBE3C3",
":X c #FDE8C7",
">X c #D9D6E3",
",X c #E3DFEB",
"<X c #ECEDEE",
"1X c #E7E7E7",
"2X c #FEFEFE",
"3X c #F6F5F7",
"4X c #ECECF0",
"5X c None",
/* pixels */
"5X5X5X5X5X5X5X5X5X5X5X5X5X5X5X5X5X5X5X5X5X5X5X5X5X5X5X5X5X5X5X5X5X5X5X5X5X5X5X5X5X5X5X5X5X5X5X5X5X5X5X5X5X5X5X5X5X5X5X5X",
"5X5X5X5X5X5X5X5X5X5X5X5X5X5X5X5X5X5X5X5X5X5X5X5X5X5X5X5X5X5X5X5X5X5X5X5X5X5X5X5X5X5X5X5X5X5X5X5X5X5X5X5X5X5X5X5X5X5X5X5X",
"5X5X5X5X5X5X5X5X5X5X5X5X5X5X5X5X5X5X5X5X5X5X5X5X5X5X5X5X5X@.B B ; : j s @.5X5X5X5X5X5X5X5X5X5X5X5X5X5X5X5X5X5X5X5X5X5X5X",
"5X5X5X5X5X5X5X5X5X5X5X5X5X5X5X5X5X5X5X5X5X5X5X5X5X5X5XA B B > s S B j k g k -.5X5X5X5X5X5X5X5X5X5X5X5X5X5X5X5X5X5X5X5X5X",
"5X5X5X5X5X5X5X5X5X5X5X5X5X5X5X5X5X5X5X5X5X5X5X5X5X5XA 7.`.&Xw.j B A A Z j s A -.5X5X5X5X5X5X5X5X5X5X5X5X5X5X5X5X5X5X5X5X",
"5X5X5X5X5X5X5X5X5X5X5X5X5X5X5X5X5X5X5X5X5X5X5X5X5X0 =.*X<X1X*X&.s Z Z f j A s : 5X5X5X5X5X5X5X5X5X5X5X5X5X5X5X5X5X5X5X5X",
"5X5X5X5X5X5X5X5X5X5X5X5X5X5X5X5X5X5X5X5X5X5X5X5X5XZ R.R.-.(.~.N f ....Z , k i j 5X5X5X5X5X5X5X5X5X5X5X5X5X5X5X5X5X5X5X5X",
"5X5X5X5X5X5X5X5X5X5X5X5X5X5X5X5X5X5X5X5X5X5X5X5X5XA e.(.I.9.k 0 B S A A i * u h 5X5X5X5X5X5X5X5X5X5X5X5X5X5X5X5X5X5X5X5X",
"5X5X5X5X5X5X5X5X5X5X5X5X5X5X5X5X5X5X5X5X5X5X5X5X5Xj j ).9.* k j k s > > * & i i B 5X5X5X5X5X5X5X5X5X5X5X5X5X5X5X5X5X5X5X",
"5X5X5X5X5X5X5X5X5X5X5X5X5X5X5X5X5X5X5X5X5X5X5X5X5X@.O.(.I.k , , s M k * X & s : A 5X5X5X5X5X5X5X5X5X5X5X5X5X5X5X5X5X5X5X",
"5X5X5X5X5X5X5X5X5X5X5X5X5X5X5X5X5X5X5X5X5X5X5X5X5X5X#.O.E Y.!.3.t w 0 - u % * y +.5X5X5X5X5X5X5X5X5X5X5X5X5X5X5X5X5X5X5X",
"5X5X5X5X5X5X5X5X5X5X5X5X5X5X5X5X5X5X5X5X5X5X5X5X5X5X7.#.N.$X;X].L U _ _ , % & a +.5X5X5X5X5X5X5X5X5X5X5X5X5X5X5X5X5X5X5X",
"5X5X5X5X5X5X5X5X5X5X5X5X5X5X5X5X5X5X5X5X5X5X5X5X5X5X5X-.3.{.;XOX] e L | t X ; : f j 5X5X5X5X5X5X5X5X5X5X5X5X5X5X5X5X5X5X",
"5X5X5X5X5X5X5X5X5X5X5X5X5X5X5X5X5X5X5X5X5X5X5X5X5X5X5X5X-.l.OXl.' { G w m $ * ; & j 5X5X5X5X5X5X5X5X5X5X5X5X5X5X5X5X5X5X",
"5X5X5X5X5X5X5X5X5X5X5X5X5X5X5X5X5X5X5X5X5X5X5X5X5X5X5X5X5X$.5.W ] ' d   . . o ; s 5X5X5X5X5X5X5X5X5X5X5X5X5X5X5X5X5X5X5X",
"5X5X5X5X5X5X5X5X5X5X5X5X5X5X5X5X5X5X5X5X5X5X5X5X5X5X5X5X5XA 0.B - o X = # a -.5X5X5X5X5X5X5X5X5X5X5X5X5X5X5X5X5X5X5X5X5X",
"5X5X5X5X5X5X5X5X5X5X5X5X5X5X5X5X5X5X5X5X5X5X5X5X5X5X5X5Xv f R ; X 1 3.'.Z.x y 5X5X5X5X5X5X5X5X5X5X5X5X5X5X5X5X5X5X5X5X5X",
"5X5X5X5X5X5X5X5X5X5X5X5X5X5X5X5X5X5X5X5X5X5X5X5X5X5X5X4 7 1 o X < j.$X;X;XN.v 5X5X5X5X5X5X5X5X5X5X5X5X5X5X5X5X5X5X5X5X5X",
"5X5X5X5X5X5X5X5X5X5X5X5X5X5X5X5X5X5X5X5X5X5X5X5X5X5XO.` 1 + s l 9 h.$X;X;XE.@.5X5X5X5X5X5X5X5X5X5X5X5X5X5X5X5X5X5X5X5X5X",
"5X5X5X5X5X5X5X5X5X5X5X5X5X5X5X5X5X5X5X5X5X5X5X5X5X5XO.#.O s I.Q 8 T k.+X;Xl.P 5X5X5X5X5X5X5X5X5X5X5X5X5X5X5X5X5X5X5X5X5X",
"5X5X5X5X5X5X5X5X5X5X5X5X5X5X5X5X5X5X5X5X5X5X5X5X5X#.0 % u T.R.c G T 3 Q.;X[.;.b 5X5X5X5X5X5X5X5X5X5X5X5X5X5X5X5X5X5X5X5X",
"5X5X5X5X5X5X5X5X5X5X5X5X5X5X5X5X5X5X5X5X5X5X5X5X5X,   , ~.4XR.H 9 1 # Z.;X:XB.* 5X5X5X5X5X5X5X5X5X5X5X5X5X5X5X5X5X5X5X5X",
"5X5X5X5X5X5X5X5X5X5X5X5X5X5X5X5X5X5X5X5X5X5X5X5XA o % e.3X2X&X,.< O   Y Q.$XE.E 5X5X5X5X5X5X5X5X5X5X5X5X5X5X5X5X5X5X5X5X",
"5X5X5X5X5X5X5X5X5X5X5X5X5X5X5X5X5X5X5X5X5X5X5XA > o 9.<X2X3X).I.o.+ % B P 4.{.,.A 5X5X5X5X5X5X5X5X5X5X5X5X5X5X5X5X5X5X5X",
"5X5X5X5X5X5X5X5X5X5X5X5X5X5X5X5X5X5X5X5X5X5X5Xj > > (.2X2X3X).&.C % #.A j ,.$XOXP 5X5X5X5X5X5X5X5X5X5X5X5X5X5X5X5X5X5X5X",
"5X5X5X5X5X5X5X5X5X5X5X5X5X5X5X5X5X5X5X5X5X5X5XA > : ^.2X2X2X3X_.6.C ....x E.:XZ.P 5X5X5X5X5X5X5X5X5X5X5X5X5X5X5X5X5X5X5X",
"5X5X5X5X5X5X5X5X5X5X5X5X5X5X5X5X5X5X5X5X5X5X5XA X *.>X2X2X2X3X1X^.C k 0.$.].:Xz.n 5X5X5X5X5X5X5X5X5X5X5X5X5X5X5X5X5X5X5X",
"5X5X5X5X5X5X5X5X5X5X5X5X5X5X5X5X5X5X5X5X5X5X5XA k _.2X2X2X2X&XU.r.&.: e.%.!.@X>.V 5X5X5X5X5X5X5X5X5X5X5X5X5X5X5X5X5X5X5X",
"5X5X5X5X5X5X5X5X5X5X5X5X5X5X5X5X5X5X5X5X5X5X5X5X=.=X2X2X2X2X<X).6.i X C : ` >.P 5X5X5X5X5X5X5X5X5X5X5X5X5X5X5X5X5X5X5X5X",
"5X5X5X5X5X5X5X5X5X5X5X5X5X5X5X5X5X5X5X5X5X5X5X5XO.&X2X2X2X2X2X2X-Xr.%   B s o ; B 5X5X5X5X5X5X5X5X5X5X5X5X5X5X5X5X5X5X5X",
"5X5X5X5X5X5X5X5X5X5X5X5X5X5X5X5X5X5X5X5X5X5X5Xk -.*X3X2X2X2X2X2X>XT.; * #., , s A e.5X5X5X5X5X5X5X5X5X5X5X5X5X5X5X5X5X5X",
"5X5X5X5X5X5X5X5X5X5X5X5X5X5X5X5X5X5X5X5X5X5X5XB C 6.q.T._.>X&XY.0.%.$.x * > A B k 0.5X5X5X5X5X5X5X5X5X5X5X5X5X5X5X5X5X5X",
"5X5X5X5X5X5X5X5X5X5X5X5X5X5X5X5X5X5X5X5X5X5X5Xs _ [ f e e B j 3.[.+X#X}.R o : > M 5X5X5X5X5X5X5X5X5X5X5X5X5X5X5X5X5X5X5X",
"5X5X5X5X5X5X5X5X5X5X5X5X5X5X5X5X5X5X5X5X5X5X5X5X| A.v.f.m.L x N.+X;X;X[.{ V #.#.5X5X5X5X5X5X5X5X5X5X5X5X5X5X5X5X5X5X5X5X",
"5X5X5X5X5X5X5X5X5X5X5X5X5X5X5X5X5X5X5X5X5X5X5X5X` 2.2.m.P.| # 3.#X:X+Xz.Q -.5X5X5X5X5X5X5X5X5X5X5X5X5X5X5X5X5X5X5X5X5X5X",
"5X5X5X5X5X5X5X5X5X5X5X5X5X5X5X5X5X5X5X5X5X5X5X5X%.F.1.) m.h.$ T N.OX'.a.V 5X5X5X5X5X5X5X5X5X5X5X5X5X5X5X5X5X5X5X5X5X5X5X",
"5X5X5X5X5X5X5X5X5X5X5X5X5X5X5X5X5X5X5X5X5X5X5X5X%.M.G.w | n.j l T ] ' e # S 5X5X5X5X5X5X5X5X5X5X5X5X5X5X5X5X5X5X5X5X5X5X",
"5X5X5X5X5X5X5X5X5X5X5X5X5X5X5X5X5X5X5X5X5X5X5X5Xm c.G.t } L.) k - Y } { - k 5X5X5X5X5X5X5X5X5X5X5X5X5X5X5X5X5X5X5X5X5X5X",
"5X5X5X5X5X5X5X5X5X5X5X5X5X5X5X5X5X5X5X5X5X5X5X5X0  .P. .t D.2.=.-.2.K.g.3 & 5X5X5X5X5X5X5X5X5X5X5X5X5X5X5X5X5X5X5X5X5X5X",
"5X5X5X5X5X5X5X5X5X5X5X5X5X5X5X5X5X5X5X5X5X5X5X5XZ ) L.L.) v.S.n B ` g.| 4 g =.5X5X5X5X5X5X5X5X5X5X5X5X5X5X5X5X5X5X5X5X5X",
"5X5X5X5X5X5X5X5X5X5X5X5X5X5X5X5X5X5X5X5X5X5X5X5X5X- <.|.1.[ |.v.f 6.V j y k =.5X5X5X5X5X5X5X5X5X5X5X5X5X5X5X5X5X5X5X5X5X",
"5X5X5X5X5X5X5X5X5X5X5X5X5X5X5X5X5X5X5X5X5X5X5X5X5X5X3 V.C.I b.|.g.V w +.d + + 5X5X5X5X5X5X5X5X5X5X5X5X5X5X5X5X5X5X5X5X5X",
"5X5X5X5X5X5X5X5X5X5X5X5X5X5X5X5X5X5X5X5X5X5X5X5X5X5Xl f.A.) e V..XM.) +.j . k 5X5X5X5X5X5X5X5X5X5X5X5X5X5X5X5X5X5X5X5X5X",
"5X5X5X5X5X5X5X5X5X5X5X5X5X5X5X5X5X5X5X5X5X5X5X5X5X` } P.K.4.$ Y A.L.%.*.@.4 , =.5X5X5X5X5X5X5X5X5X5X5X5X5X5X5X5X5X5X5X5X",
"5X5X5X5X5X5X5X5X5X5X5X5X5X5X5X5X5X5X5X5X5X5X5X5X8.j 2.|..XC.5 # j.H.A.:.g.n.I f Z 5X5X5X5X5X5X5X5X5X5X5X5X5X5X5X5X5X5X5X",
"5X5X5X5X5X5X5X5X5X5X5X5X5X5X5X5X5X5X5X5X5X5X5X5X5XA ` | h.f.q r l.H. XK.|.XXG.U f e.5X5X5X5X5X5X5X5X5X5X5X5X5X5X5X5X5X5X",
"5X5X5X5X5X5X5X5X5X5X5X5X5X5X5X5X5X5X5X5X5X5X5X5X5X5X5XB j 3 + L H.XX XXXoXD.:.f -.5X5X5X5X5X5X5X5X5X5X5X5X5X5X5X5X5X5X5X",
"5X5X5X5X5X5X5X5X5X5X5X5X5X5X5X5X5X5X5X5X5X5X5X5X5X5X5X+.4 = Y e [ c.M.n. .n b 5X5X5X5X5X5X5X5X5X5X5X5X5X5X5X5X5X5X5X5X5X",
"5X5X5X5X5X5X5X5X5X5X5X5X5X5X5X5X5X5X5X5X5X5X5X5X5X5X5Xv 5 C n s . Z b 3 d B 5X5X5X5X5X5X5X5X5X5X5X5X5X5X5X5X5X5X5X5X5X5X",
"5X5X5X5X5X5X5X5X5X5X5X5X5X5X5X5X5X5X5X5X5X5Xj f j 5X5Xv 1 d l 6 = #.R k.c s B 5X5X5X5X5X5X5X5X5X5X5X5X5X5X5X5X5X5X5X5X5X",
"5X5X5X5X5X5X5X5X5X5X5X5X5X5X5X5X5X5X5X5X5XV J / H 5 @ 7 K J y * + 5 b 3.l 2 V w.5X5X5X5X5X5X5X5X5X5X5X5X5X5X5X5X5X5X5X5X",
"5X5X5X5X5X5X5X5X5X5X5X5X5X5X5X5X5X5X5X5X5X6 u.x.~ z 7 J D 7 M : @ 5 Z E Q 8 @.5X5X5X5X5X5X5X5X5X5X5X5X5X5X5X5X5X5X5X5X5X",
"5X5X5X5X5X5X5X5X5X5X5X5X5X5X5X5X5X5X5X5X5Xq ^ s.d.t.^ ~ H z p y + z l H d ; @.5X5X5X5X5X5X5X5X5X5X5X5X5X5X5X5X5X5X5X5X5X",
"5X5X5X5X5X5X5X5X5X5X5X5X5X5X5X5X5X5X5X5X5XA R ! t.y.t.^ 2 & @ + 2 K K d M u Z 5X5X5X5X5X5X5X5X5X5X5X5X5X5X5X5X5X5X5X5X5X",
"5X5X5X5X5X5X5X5X5X5X5X5X5X5X5X5X5X5X5X5X5X5XC X.B E N 2 D 1 2 2 D J 8 z ..g & 5X5X5X5X5X5X5X5X5X5X5X5X5X5X5X5X5X5X5X5X5X",
"5X5X5X5X5X5X5X5X5X5X5X5X5X5X5X5X5X5X5X5X5X5X5X5X5XY.8.J d.y./ 7 H ( H H M ; , 5X5X5X5X5X5X5X5X5X5X5X5X5X5X5X5X5X5X5X5X5X",
"5X5X5X5X5X5X5X5X5X5X5X5X5X5X5X5X5X5X5X5X5X5X5X5X5X5X8.W a.d.s.y.y.i.o.E X.N &.5X5X5X5X5X5X5X5X5X5X5X5X5X5X5X5X5X5X5X5X5X",
"5X5X5X5X5X5X5X5X5X5X5X5X5X5X5X5X5X5X5X5X5X5X5X5X5X5X5XZ A W ! ;.,.$.o.p Z @.5X5X5X5X5X5X5X5X5X5X5X5X5X5X5X5X5X5X5X5X5X5X",
"5X5X5X5X5X5X5X5X5X5X5X5X5X5X5X5X5X5X5X5X5X5X5X5X5X5X5X5X#.+.=.Z k B +.5X5X5X5X5X5X5X5X5X5X5X5X5X5X5X5X5X5X5X5X5X5X5X5X5X",
"5X5X5X5X5X5X5X5X5X5X5X5X5X5X5X5X5X5X5X5X5X5X5X5X5X5X5X5X5X5X5X5X5X5X5X5X5X5X5X5X5X5X5X5X5X5X5X5X5X5X5X5X5X5X5X5X5X5X5X5X"
};
