/* XPM */
static char *result[] = {
/* columns rows colors chars-per-pixel */
"60 60 223 2 ",
"   c #050304",
".  c #0C0B0C",
"X  c #0A0708",
"o  c #120E0D",
"O  c #1E0E0D",
"+  c #100F12",
"@  c #141314",
"#  c #1C1414",
"$  c #1B1A1C",
"%  c #191718",
"&  c #110F0F",
"*  c #2B120F",
"=  c #221414",
"-  c #291312",
";  c #231C1B",
":  c #2B1B1B",
">  c #261C17",
",  c #3B1D1B",
"<  c #351A19",
"1  c #2A231E",
"2  c #26201A",
"3  c #34261D",
"4  c #211F23",
"5  c #252325",
"6  c #2C2423",
"7  c #2D2825",
"8  c #272729",
"9  c #2B2A2B",
"0  c #292729",
"q  c #322523",
"w  c #3C2322",
"e  c #342B22",
"r  c #382B23",
"t  c #332E2C",
"y  c #392C2A",
"u  c #35312D",
"i  c #3A3328",
"p  c #2E2E31",
"a  c #302F31",
"s  c #343334",
"d  c #3B3535",
"f  c #363639",
"g  c #3A3639",
"h  c #3C3B3C",
"j  c #3D3936",
"k  c #441D1A",
"l  c #451C19",
"z  c #4A211D",
"x  c #55221F",
"c  c #452624",
"v  c #5A2B28",
"b  c #433426",
"n  c #433A2D",
"m  c #49372B",
"M  c #433B34",
"N  c #4A3C33",
"B  c #413D3C",
"V  c #4A3736",
"C  c #553B35",
"Z  c #682A26",
"A  c #7A2C27",
"S  c #6C3832",
"D  c #74342E",
"F  c #4B433B",
"G  c #484339",
"H  c #564B3A",
"J  c #574837",
"K  c #5D553D",
"L  c #644C3A",
"P  c #67563D",
"I  c #76423F",
"U  c #3F3E42",
"Y  c #423E42",
"T  c #434244",
"R  c #4C4544",
"E  c #494749",
"W  c #4C4A4C",
"Q  c #474649",
"!  c #534C44",
"~  c #514D4C",
"^  c #594A45",
"/  c #5A5349",
"(  c #4F4E51",
")  c #524F51",
"_  c #545354",
"`  c #5A5654",
"'  c #5C5C5D",
"]  c #595759",
"[  c #6A5843",
"{  c #735C43",
"}  c #685B57",
"|  c #69524B",
" . c #6B6549",
".. c #756346",
"X. c #7B6548",
"o. c #78734D",
"O. c #65605D",
"+. c #76675A",
"@. c #5F5F62",
"#. c #605F61",
"$. c #5F6061",
"%. c #636264",
"&. c #6C6B6D",
"*. c #6A6665",
"=. c #746B62",
"-. c #726E6E",
";. c #7D6666",
":. c #79726B",
">. c #6E6D71",
",. c #716F72",
"<. c #747375",
"1. c #7C7B7C",
"2. c #7B7576",
"3. c #88322C",
"4. c #843C35",
"5. c #993730",
"6. c #A9453D",
"7. c #984639",
"8. c #835C47",
"9. c #9D4741",
"0. c #B24A42",
"q. c #856D4D",
"w. c #806749",
"e. c #84744D",
"r. c #826A54",
"t. c #8E7453",
"y. c #867856",
"u. c #977957",
"i. c #A67B5C",
"p. c #877866",
"a. c #947E69",
"s. c #817C7B",
"d. c #98766D",
"f. c #AC7E61",
"g. c #CC544B",
"h. c #8C8456",
"j. c #9D825B",
"k. c #958658",
"l. c #9D905C",
"z. c #A4855D",
"x. c #A58C5F",
"c. c #8B8576",
"v. c #9A8777",
"b. c #AA8A61",
"n. c #A78763",
"m. c #A79863",
"M. c #B39768",
"N. c #A68C7F",
"B. c #B68D70",
"V. c #ABA368",
"C. c #B6A76B",
"Z. c #BAB172",
"A. c #C2926E",
"S. c #C79873",
"D. c #D29A77",
"F. c #C58669",
"G. c #CCBE79",
"H. c #C5B776",
"J. c #D1BC7C",
"K. c #C1AF73",
"L. c #D5C87E",
"P. c #CDC37D",
"I. c #7E7D81",
"U. c #807E86",
"Y. c #848284",
"T. c #8B8A8C",
"R. c #878589",
"E. c #948E88",
"W. c #8D8B93",
"Q. c #949395",
"!. c #9B9A9B",
"~. c #969599",
"^. c #95908A",
"/. c #A69584",
"(. c #B29C8A",
"). c #AFA797",
"_. c #B5A997",
"`. c #9E9CA5",
"'. c #A09FA4",
"]. c #A4A3A5",
"[. c #AAA9AA",
"{. c #ADACB1",
"}. c #B3B2B5",
"|. c #BAB9BB",
" X c #B5ADA6",
".X c #D0AB87",
"XX c #CDB19A",
"oX c #C5B9A8",
"OX c #CCBDB4",
"+X c #DCCC81",
"@X c #DFD085",
"#X c #E7D987",
"$X c #F2DF93",
"%X c #EDE08B",
"&X c #F3E58B",
"*X c #F5E892",
"=X c #FAF297",
"-X c #DBC5A9",
";X c #D9CBB8",
":X c #D6CBB5",
">X c #E7D5B9",
",X c #F7DDBE",
"<X c #FBE0BF",
"1X c #BFBEC5",
"2X c #C1BEC5",
"3X c #C3C3C5",
"4X c #CCCCCD",
"5X c #C6C4CA",
"6X c #CFCED0",
"7X c #D7D6D8",
"8X c #DCD3C3",
"9X c #E9DAC2",
"0X c #ECDDCB",
"qX c #FAE3C4",
"wX c #F9E6CB",
"eX c #F8E9D0",
"rX c #FEF2D8",
"tX c #EBEBEB",
"yX c #E7E6E9",
"uX c #F4F4F4",
"iX c #FEFDFE",
"pX c #F6F6F9",
"aX c None",
/* pixels */
"aXaXaXaXaXaXaXaXaXaXaXaXaXaXaXaXaXaXaXaXaXaXaXaXaXaXaXaXaXaXaXaXaXaXaXaXaXaXaXaXaXaXaXaXaXaXaXaXaXaXaXaXaXaXaXaXaXaXaXaX",
"aXaXaXaXaXaXaXaXaXaXaXaXaXaXaXaXaXaXaXaXaXaXaXaXaXaXaXaXaXaXaXaXaXaXaXaXaX&.%.%.*.aXaXaXaXaXaXaXaXaXaXaXaXaXaXaXaXaXaXaX",
"aXaXaXaXaXaXaXaXaXaXaXaXaXaXaXaXaXaXaXaXaXaXaXaXaXaXaXaXaXaXaXaXaXaX_ p f 8 9 u 8 p U <.aXaXaXaXaXaXaXaXaXaXaXaXaXaXaXaX",
"aXaXaXaXaXaXaXaXaXaXaXaXaXaXaXaXaXaXaXaXaXaXaXaXaXaXaXaXaXaXaXaX$.8 p s s s f h s s 8 W %.R.aXaXaXaXaXaXaXaXaXaXaXaXaXaX",
"aXaXaXaXaXaXaXaXaXaXaXaXaXaXaXaXaXaXaXaXaXaXaXaXaXaXaXaXaXaXaXh 8 h p h f h f f h f 8 |.tX].&.aXaXaXaXaXaXaXaXaXaXaXaXaX",
"aXaXaXaXaXaXaXaXaXaXaXaXaXaXaXaXaXaXaXaXaXaXaXaXaXaXaXaXaXaX9 $ h T s p 9 h G B h s p 1XiXiX4X' ].aXaXaXaXaXaXaXaXaXaXaX",
"aXaXaXaXaXaXaXaXaXaXaXaXaXaXaXaXaXaXaXaXaXaXaXaXaXaXaXaXaXQ $ f B 9 8 U h s d B T T 8 !.yX].6X4X*.aXaXaXaXaXaXaXaXaXaXaX",
"aXaXaXaXaXaXaXaXaXaXaXaXaXaXaXaXaXaXaXaXaXaXaXaXaXaXaXaX' 9 h s 9 @ $ f T T T E T B u W 6XW.( }.$.aXaXaXaXaXaXaXaXaXaXaX",
"aXaXaXaXaXaXaXaXaXaXaXaXaXaXaXaXaXaXaXaXaXaXaXaXaXaXaXaX9 f 5 5 8 . 8 p d U B 9 p B Q u g @.].<.T.aXaXaXaXaXaXaXaXaXaXaX",
"aXaXaXaXaXaXaXaXaXaXaXaXaXaXaXaXaXaXaXaXaXaXaXaXaXaXaX_ 8 5 % ; @ . @ 5 5 % 8 i G g s 7 % #.{.Q aXaXaXaXaXaXaXaXaXaXaXaX",
"aXaXaXaXaXaXaXaXaXaXaXaXaXaXaXaXaXaXaXaXaXaXaXaXaXaXaXT 5 % 5 h G f & % $ 5 p 7 7 3 ; d #.@.Q._ aXaXaXaXaXaXaXaXaXaXaXaX",
"aXaXaXaXaXaXaXaXaXaXaXaXaXaXaXaXaXaXaXaXaXaXaXaXaXaXaXh @ Q 3XtXtX|.0 % % 1 1 O.{ o.^.9XoX=.M a aXaXaXaXaXaXaXaXaXaXaXaX",
"aXaXaXaXaXaXaXaXaXaXaXaXaXaXaXaXaXaXaXaXaXaXaX%.=./ E t s Y.!.!.1XQ.$ e i y.L } [ +.>XwXqX>X+.T.aXaXaXaXaXaXaXaXaXaXaXaX",
"aXaXaXaXaXaXaXaXaXaXaXaXaXaXaXaXaXaXaXaXaXaX<.E.>XoXoX_.! F *._ f U i i J J N *.I N.eX,X;X).s.aXaXaXaXaXaXaXaXaXaXaXaXaX",
"aXaXaXaXaXaXaXaXaXaXaXaXaXaXaXaXaXaXaXaXaXaX] XXXX<XwX-Xa.S.(.+.s 7 9 & . i d ).} S OXqX_.} aXaXaXaXaXaXaXaXaXaXaXaXaXaX",
"aXaXaXaXaXaXaXaXaXaXaXaXaXaXaXaXaXaXaXaXaX~ v.n.{ S..XA.D.b.b d Q.7X7XW.h     *.p.; / E.,.Q.aXaXaXaXaXaXaXaXaXaXaXaXaXaX",
"aXaXaXaXaXaXaXaXaXaXaXaXaXaXaXaXaXaXaXaX*.d.F.D.8.C w.[ u.u.q }.iXiX7XU./ F 5 @ 1 2.aX].aXaXaXaXaXaXaXaXaXaXaXaXaXaXaXaX",
"aXaXaXaXaXaXaXaXaXaXaXaXaXaXaXaXaXaXaXs.r.D..XA.| &.' W R q &.pXiX7X` p.-X>X XY   I.aXaXaXaXaXaXaXaXaXaXaXaXaXaXaXaXaXaX",
"aXaXaXaXaXaXaXaXaXaXaXaXaXaXaXaXaXaXaXJ f.D.i.H s.aXaXaXaX9 !.iX7X} } 9XwX>X,X:Xs <.aXaXaXaXaXaXaXaXaXaXaXaXaXaXaXaXaXaX",
"aXaXaXaXaXaXaXaXaXaXaXaXaXaXaXaXaXaX#.8.D.8.#.aXaXaXaXaXaXg !.uX,.W (.N.>X(.y.E.B 1.aXaXaXaXaXaXaXaXaXaX~.aXaXaXaXaXaXaX",
"aXaXaXaXaXaXaXaXaXaXaXaXaXaXaXaXaX%.^ z.8.-.aXaXaXaXaXaXaXQ !.3X0 c.).w B.oX:Xc.u 1.aXaXaXaXaXaXaXaXaX&.| +.=.T 2.aXaXaX",
"aXaXaXaXaXaXaXaXaXaXaXaXaXaXaXR.:.v.r.i.C aXaXaXaXaXaXaXaX_ !.}.c c.XXC /./.;XwX).~ aXaXaXaX<.%.E 5 t c.>X,X>X=.t aXaXaX",
"aXaXaXaXaXaXaXaXaXaXaXaXaXaXaXh N.C t.B.V aXaXaXaXaXaXaXaXs ].!.k } .Xm ^ ;X>X0Xv.r } 2.:._ @ f ] $ G >XqX,X9Xa.y aXaXaX",
"aXaXaXaXaXaXaXaXaXaXaXaXaXaXs t C C S.B.J aXaXaXaXaXaXaX<.Y 4X!.k < L : . ;.>X XO.oX>X-X_...& T ] % ' 0XqXqXqX+.W aXaXaX",
"aXaXaXaXaXaXaXaXaXaXaXaXaXY.y N , C i.B.n aXaXaXaXaXaXaX9 ] pX3XV < = $ ] 9 | oX8XwXqXeXrXv.& $ U + Q 0X0XqXOXm T.aXaXaX",
"aXaXaXaXaXaXaXaXaXaXaXaXaXaXy r b [ L c <.aXaXaXaXaXaX' %.|.yX}.`.~.W.I.`.Y q d. Xv.k.).v.m   # s . % ~ } +.J } aXaXaXaX",
"aXaXaXaXaXaXaXaXaXaXaXaXaXaXaXM r 3 m ! aXaXaXaXaXaX_ ( &.yXuX1.I.5X1X@.W aXaXW Y B G R ] &.$ $ 8 . $.aXaXaXaXaXaXaXaXaX",
"aXaXaXaXaXaXaXaXaXaXaXaXaXaXaXaX2.E ' aXaXaXaXaXaXQ.s Q._ 6XiX4X@.~.1XW #.aXaXaXaXaXaXaXaXaXaXg p I.aXaXaXaXaXaXaXaXaXaX",
"aXaXaXaXaXaXaXaXaXaXaXaXaXaXaXaXaXaXaXaXaXaXaXaX1.' Q.7XT.}.iXiX{.( W.W U aXaXaXaXaXaXaXaXaXaXaXaXaXaXaXaXaXaXaXaXaXaXaX",
"aXaXaXaXaXaXaXaXaXaXaXaXaXaXaXaXaXaXaXaXaXaXaX) s 7XuXpX4X1XiXiXiX4XT.h W O.( aXaXaXaXaXaXaXaXaXaXaXaXaXaXaXaXaXaXaXaXaX",
"aXaXaXaXaXaXaXaXaXaXaXaXaXaXaXaXaXaXaXaXaXaXaX_ 9 [.iXiXiXiXpX5X|.1.h W.]._ $ E aXaXaXaXaXaXaXaXaXaXaXaXaXaXaXaXaXaXaXaX",
"aXaXaXaXaXaXaXaXaXaXaXaXaXaXaXaXaXaXaXaXaXI.T U 4 9 }.iXiXiXiX3XR.%.Q.c.M e.V.k.H G aXaXaXaXaXaXaXaXaXaXaXaXaXaXaXaXaXaX",
"aXaXaXaXaXaXaXaXaXaXaXaXaXaXaXaXaXaXaXaX&.T 8 8 % 3 u !.7XtXuXuXtX|.,.n P L.&X&X@XV.o.s.aXaXaXaXaXaXaXaXaXaXaXaXaXaXaXaX",
"aXaXaXaXaXaXaXaXaXaXaXaXaXaXaXaXaXaXI.9 f _ <.%.i o.u 9 9 W ` #.` 9 > P k.#X&X&X&XL.L.h.` aXaXaXaXaXaXaXaXaXaXaXaXaXaXaX",
"aXaXaXaXaXaXaXaXaXaXaXaXaXaXaXaXaX%.W s h <.:. .K i p $ m { { K ; J u.P.%XP.C.u.h.L.&X&Xo.<.aXaXaXaXaXaXaXaXaXaXaXaXaXaX",
"aXaXaXaXaXaXaXaXaXaXaXaXaXaXaXaXR.h 8 <.>./ V.V./ >.9 P C.t. .h.y.o.l.o...J J P u.C.L.L.P.G aXaXaXaXaXaXaXaXaXaXaXaXaXaX",
"aXaXaXaXaXaXaXaXaXaXaXaXaXaXaXaXU f ( Y.K V.P.K f f n G.#XV.Z.M. .u 9 @ > e.b.b.z.z.u.z.M.P c.aXaXaXaXaXaXaXaXaXaXaXaXaX",
"aXaXaXaXaXaXaXaXaXaXaXaXaXaXaXaX8 % f H m.h.G &.p 3 m.$X$XC.P ! aXaXT.g o r t.e...t.u.z.z.P Y.aXaXaXaXaXaXaXaXaXaXaXaXaX",
"aXaXaXaXaXaXaXaXaXaXaXaXaXI.~ 9 s $ % 2 F h 0 B t y.%X&XK.^ } aXaX2.s P e.q.w.^ J q.x.x.{ R aXaXaXaXaXaXaXaXaXaXaXaXaXaX",
"aXaXaXaXaXaXaXaXaXaX%.E d K o.% 8 T %.8 T _ 1 L l.+X+Xk.n >.aXaXu J H j.z.z.z.b.x.b.X.H -.aXaXaXaXaXaXaXaXaXaXaXaXaXaXaX",
"aXaXaXaXaXaXaXaXaXaXn u.m.+X .B B 5 u t 3 i l.L.*XC.J y aXaXaXaXG z.z.z.z.z.z.z.u.P 1 T.aXaXaXaXaXaXaXaXaXaXaXaXaXaXaXaX",
"aXaXaXaXaXaXaXaXaXaXG P.*XZ.e u 3 w.C.k.P L.=X*XG.b d aXaXaXaXaX` q.x.z.z.w.L m 3 B aXaXaXaXaXaXaXaXaXaXaXaXaXaXaXaXaXaX",
"aXaXaXaXaXaXaXaXaXaXu Z.*Xm.y.k.m.L.J.P t.m.l.q.b 9 aXaXaXaXaXaXaX3 q.z.z.w.X.X.N aXaXaXaXaXaXaXaXaXaXaXaXaXaXaXaXaXaXaX",
"aXaXaXaXaXaXaXaXaXaXO.Z.%X .l.=XL.b.u.J G N R _ @.aXaXaXaXaXaXaXaXq 3 b ..t.j.u.^ aXaXaXaXaXaXaXaXaXaXaXaXaXaXaXaXaXaXaX",
"aXaXaXaXaXaXaX~ _ aX~  .#XF ..Z.q.L H d Y.aXaXaXaXaXaXaXaXaXaX_ 7 N.y.0 1.} ~ ^ ` aXaXaXaXaXaXaXaXaXaXaXaXaXaXaXaXaXaXaX",
"aXaXaXaXaXaXaX, = U B n m.o.{ w.b _ aXaXaXaXaXaXaXaXaXaXaXaXR @ h E.M W aXaXaXaXaXaXaXaXaXaXaXaXaXaXaXaXaXaXaXaXaXaXaXaX",
"aXaXaXaXaX%.t m c W =.3 1 m [ { N aXaXaXaXaXaXaXaXaXaXaXaXaX<.= R Y Q g &.aXaXaXaXaXaXaXaXaXaXaXaXaXaXaXaXaXaXaXaXaXaXaX",
"aXaXaXQ # 4 5 B c B @.s aXaX#.B ,.aXaXaXaXaXaXaXaXaXaXaXaXaX9 % w 6 a ; > 1.aXaXaXaXaXaXaXaXaXaXaXaXaXaXaXaXaXaXaXaXaXaX",
"aXR.a % j T B h < = % ( aXaXaXaXaXaXaXaXaXaXaXaXaXaXaXaXaX@ . % : k = O *.aXaXaXaXaXaXaXaXaXaXaXaXaXaXaXaXaXaXaXaXaXaXaX",
"aX] Q a g B g : < X   Q aXaXaXaXaXaXaXaXaXaXaXaXaXaXaXaXaX. 9 s ; A 3., 1.aXaXaXaXaXaXaXaXaXaXaXaXaXaXaXaXaXaXaXaXaXaXaX",
"aXaXU d v 4.Z - x , aXaXaXaXaXaXaXaXaXaXaXaXaXaXaXaXaXaXs X $ d c k k * V aXaXaXaXaXaXaXaXaXaXaXaXaXaXaXaXaXaXaXaXaXaXaX",
"aXaX9 C Z w : = o aXaXaXaXaXaXaXaXaXaXaXaXaXaXaXaXaXaXaX. 9 ) 5 c c k v Z c R &.aXaXaXaXaXaXaXaXaXaXaXaXaXaXaXaXaXaXaXaX",
"aXaX%.s 0 v w k z s.aXaXaXaXaXaXaXaXaXaXaXaXaXaXaXaXaXaX&.h W ] Y l 3.l * l Z l 3 aXaXaXaXaXaXaXaXaXaXaXaXaXaXaXaXaXaXaX",
"aXaXaXs V g.9.= O Q aXaXaXaXaXaXaXaXaXaXaXaXaXaXaXaXaXaXaXaX<.U *.Y Z 9.4.D 6.g.A 2.aXaXaXaXaXaXaXaXaXaXaXaXaXaXaXaXaXaX",
"aXaXaX<.V 9.g.A # : C aXaXaXaXaXaXaXaXaXaXaXaXaXaXaXaXaXaXaXaXaXY -.Y D 0.0.0.0.Z R.aXaXaXaXaXaXaXaXaXaXaXaXaXaXaXaXaXaX",
"aXaXaXaXs S g.6.3.4.Z #.aXaXaXaXaXaXaXaXaXaXaXaXaXaXaXaXaXaXaXaXaXY #.) ` ;.;.| g aXaXaXaXaXaXaXaXaXaXaXaXaXaXaXaXaXaXaX",
"aXaXaXaXU W D 3.5.5.x ,.aXaXaXaXaXaXaXaXaXaXaXaXaXaXaXaXaXaXaXaXaXaXY h W @.%._ aXaXaXaXaXaXaXaXaXaXaXaXaXaXaXaXaXaXaXaX",
"aXaXaXaXR.Q ^ Z A 3.w aXaXaXaXaXaXaXaXaXaXaXaXaXaXaXaXaXaXaXaXaXaXaXaXaXaXaXaXaXaXaXaXaXaXaXaXaXaXaXaXaXaXaXaXaXaXaXaXaX",
"aXaXaXaXaX<.T a > : aXaXaXaXaXaXaXaXaXaXaXaXaXaXaXaXaXaXaXaXaXaXaXaXaXaXaXaXaXaXaXaXaXaXaXaXaXaXaXaXaXaXaXaXaXaXaXaXaXaX",
"aXaXaXaXaXaXaXQ a ( aXaXaXaXaXaXaXaXaXaXaXaXaXaXaXaXaXaXaXaXaXaXaXaXaXaXaXaXaXaXaXaXaXaXaXaXaXaXaXaXaXaXaXaXaXaXaXaXaXaX"
};
