/* XPM */
static char *result[] = {
/* columns rows colors chars-per-pixel */
"60 60 213 2 ",
"   c #020102",
".  c #070708",
"X  c #0B0B0C",
"o  c #0C0706",
"O  c #120D0D",
"+  c #190E0C",
"@  c #19100F",
"#  c #141314",
"$  c #1A1513",
"%  c #1C1B1C",
"&  c #171719",
"*  c #29110F",
"=  c #241515",
"-  c #221B1B",
";  c #2E1C1B",
":  c #281814",
">  c #371917",
",  c #250E0D",
"<  c #24201C",
"1  c #2B221D",
"2  c #32201F",
"3  c #1F1E20",
"4  c #211F20",
"5  c #232324",
"6  c #2B2423",
"7  c #262628",
"8  c #292729",
"9  c #2B2A2C",
"0  c #2B2A28",
"q  c #332A25",
"w  c #332D2C",
"e  c #382D26",
"r  c #3B322D",
"t  c #3A3225",
"y  c #2F2E31",
"u  c #312F31",
"i  c #343234",
"p  c #3C3535",
"a  c #3C3835",
"s  c #383639",
"d  c #3B3A3B",
"f  c #363638",
"g  c #431B18",
"h  c #521E1A",
"j  c #54221E",
"k  c #482A27",
"l  c #522722",
"z  c #44352A",
"x  c #473829",
"c  c #443332",
"v  c #443D35",
"b  c #433C3A",
"n  c #5A3730",
"m  c #6B2824",
"M  c #68322C",
"N  c #7B3733",
"B  c #4A4233",
"V  c #494339",
"C  c #554333",
"Z  c #594938",
"A  c #534B36",
"S  c #634D3C",
"D  c #75483D",
"F  c #67573E",
"G  c #785B3F",
"H  c #3F3E41",
"J  c #403F40",
"K  c #444344",
"L  c #4B4542",
"P  c #464649",
"I  c #4B4A4C",
"U  c #4B4744",
"Y  c #554C46",
"T  c #534D4C",
"R  c #574645",
"E  c #5D544B",
"W  c #5E5246",
"Q  c #535253",
"!  c #5E5955",
"~  c #595759",
"^  c #5C5A5C",
"/  c #5A5656",
"(  c #644B47",
")  c #685949",
"_  c #755C46",
"`  c #635C5B",
"'  c #655A55",
"]  c #765750",
"[  c #6E6442",
"{  c #7E6A4B",
"}  c #776547",
"|  c #6A625A",
" . c #78685B",
".. c #5F5E60",
"X. c #636263",
"o. c #686769",
"O. c #6C6B6D",
"+. c #696665",
"@. c #766A65",
"#. c #797268",
"$. c #6E6D70",
"%. c #706F71",
"&. c #747374",
"*. c #797473",
"=. c #767579",
"-. c #797579",
";. c #7B7A7B",
":. c #7E7A72",
">. c #8B3531",
",. c #933934",
"<. c #86362F",
"1. c #9E443E",
"2. c #AC453D",
"3. c #815046",
"4. c #B54C44",
"5. c #A64B45",
"6. c #87684B",
"7. c #85734C",
"8. c #887954",
"9. c #987B57",
"0. c #8E695B",
"q. c #887868",
"w. c #8C796F",
"e. c #C95249",
"r. c #C24C44",
"t. c #8E875B",
"y. c #96855A",
"u. c #A6865E",
"i. c #9B8C7D",
"p. c #988B7A",
"a. c #918B66",
"s. c #A99B69",
"d. c #BA976D",
"f. c #A48A78",
"g. c #A98960",
"h. c #B9AA6D",
"j. c #BEB573",
"k. c #BEAD70",
"l. c #C7BA77",
"z. c #D6A47F",
"x. c #D5C37E",
"c. c #D5CB7D",
"v. c #D4CA7E",
"b. c #7F7E81",
"n. c #807F80",
"m. c #838284",
"M. c #878689",
"N. c #8A8A8C",
"B. c #8B8684",
"V. c #978A83",
"C. c #8E8E91",
"Z. c #949395",
"A. c #9B9B9D",
"S. c #989698",
"D. c #96938C",
"F. c #A89B88",
"G. c #B59A87",
"H. c #A99E96",
"J. c #A18A83",
"K. c #BCAF9B",
"L. c #B9A896",
"P. c #BAB19D",
"I. c #B0A08D",
"U. c #9F9EA0",
"Y. c #9997A0",
"T. c #A3A3A4",
"R. c #A9A9AA",
"E. c #A8A6A8",
"W. c #ADACB0",
"Q. c #B3B2B4",
"!. c #BBBBBC",
"~. c #B6B4B9",
"^. c #B9B0A1",
"/. c #C6AF99",
"(. c #C3B49A",
"). c #CABDA8",
"_. c #DCCC82",
"`. c #E2D484",
"'. c #E4D886",
"]. c #EDDD86",
"[. c #EDDB89",
"{. c #E4CD86",
"}. c #EEE089",
"|. c #F1E289",
" X c #F3E58B",
".X c #DBCAB5",
"XX c #D9CAB1",
"oX c #E2CCB4",
"OX c #E8D5B8",
"+X c #F6DBBB",
"@X c #E8CEAE",
"#X c #BFBFC1",
"$X c #C3C2C4",
"%X c #CACBCB",
"&X c #C3C3C8",
"*X c #D1D1D2",
"=X c #D7D6DA",
"-X c #DBDADB",
";X c #E7D6C2",
":X c #F0DDC2",
">X c #FBE3C4",
",X c #FEEBCC",
"<X c #F6E5CA",
"1X c #FBEBD1",
"2X c #DFDFE2",
"3X c #E0DFE3",
"4X c #E3E3E4",
"5X c #E7E7E9",
"6X c #ECEBEC",
"7X c #F3F2F4",
"8X c #FDFDFD",
"9X c #EEEDF0",
"0X c None",
/* pixels */
"0X0X0X0X0X0X0X0X0X0X0X0X0X0X0X0X0X0X0X0X0X0X0X0X0X0X0X0X0X0X0X0X0X0X0X0X0X0X0X0X0X0X0X0X0X0X0X0X0X0X0X0X0X0X0X0X0X0X0X0X",
"0X0X0X0X0X0X0X0X0X0X0X0X0X0X0X0X0X0X0X0X0X0X0X0X0X0X0X0X0X0X0X0X0X0X0X0X0X0X0X0X0X0X0X0X0X0X0X0X0X0X0X0X0X0X0X0X0X0X0X0X",
"0X0X0X0X0X0X0X0X0X0X0X0X0X0X0X0X0X0X0X0X0X0X0X0X0X0X0X0X0X0X0X0X0X0X0X0X0X0X0X0X0X0X0X0X0X0X0X0X0X0X0X0X0X0X0X0X0X0X0X0X",
"0X0X0X0X0X0X0X0X0X0X0X0X0X0X0X0X0X0X0X0XQ.N.N.m.m.N.0X0X0X0X0X0X0X0X0X0X0X0X0X0X0X0X0X0X0X0X0X0X0X0X0X0X0X0X0X0X0X0X0X0X",
"0X0X0X0X0X0X0X0X0X0X0X0X0X0X0X0X0XE.%.P a 9 7 7 7 0 y f i d H H m.0X0X0X0X0X0X0X0X0X0X0X0X0X0X0X0X0X0X0X0X0X0X0X0X0X0X0X",
"0X0X0X0X0X0X0X0X0X0X0X0X0X0X0X0Xm.;.X.9 i s d f i d f d H i f i 5 i 0X0X0X0X0X0X0X0X0X0X0X0X0X0X0X0X0X0X0X0X0X0X0X0X0X0X",
"0X0X0X0X0X0X0X0X0X0X0X0X0X0XM.=.%X8X$X9 i s s d d u f d P d d d i 5 9 0X0X0X0X0X0X0X0X0X0X0X0X0X0X0X0X0X0X0X0X0X0X0X0X0X",
"0X0X0X0X0X0X0X0X0X0X0X0X0Xm.m.4X3X7XQ.7 s V s d V f f u 8 9 9 7 3 w =.0X0X0X0X0X0X0X0X0X0X0X0X0X0X0X0X0X0X0X0X0X0X0X0X0X",
"0X0X0X0X0X0X0X0X0X0X0X0X0XO.%XM.N.2X=.0 P K d d d d f 0 5 0 < P m.0X0X0X0X0X0X0X0X0X0X0X0X0X0X0X0X0X0X0X0X0X0X0X0X0X0X0X",
"0X0X0X0X0X0X0X0X0X0X0X0X0Xb.&.;.m.;.y H d a d U P d i & # % P 0X0X0X0X0X0X0X0X0X0X0X0X0X0X0X0X0X0X0X0X0X0X0X0X0X0X0X0X0X",
"0X0X0X0X0X0X0X0X0X0X0X0X0X0X^ W.Q # f d H f w 0 3 7 3 y N.Q.0X0X0X0X0X0X0X0X0X0X0X0X0X0X0X0X0X0X0X0X0X0X0X0X0X0X0X0X0X0X",
"0X0X0X0X0X0X0X0X0X0X0X0X0XR.Q N.Q I w % w q w u 5 % & H 0X0X0X0X0X0X0X0X0X0X0X0X0X0X0X0X0X0X0X0X0X0X0X0X0X0X0X0X0X0X0X0X",
"0X0X0X0X0X0X0X0X0X0X0X0X0XR.a V #.P.XXN.) F W e t % % y &X0X0X0X0X0X0X0X0X0X0X0X0X0X0X0X0X0X0X0X0X0X0X0X0X0X0X0X0X0X0X0X",
"0X0X0X0X0X0X0X;.;.N...T.0X0XT.#.OX>X<X;X#.n V S { t t X +.S.N.#X$XU.R.!.Q.T.0X0X0X0X0X0X0X0X0X0X0X0X0X0X0X0X0X0X0X0X0X0X",
"0X0X0X0X0X0XO.V ).K.D.^ $X0X4XO. ./.OX<Xf.] #.r C t 1 & f F.V.+.V | @.%.| Y | 0X0X0X0X0X0X0X0X0X0X0X0X0X0X0X0X0X0X0X0X0X",
"0X0X0X0X0X0X( q.#.! w.E I *X0X&X| f..Xf.l V./. .f.< . 1 L.>X<XOXL.@X<XXXH.p.| m.0X0X0X0X0X0X0X0X0X0X0X0X0X0X0X0X0X0X0X0X",
"0X0X0X0X0XJ } R J i.p.^.' X.W.2X~.#.B.m.b q.oX;XH.O . ' 1X<X@X>X>X<X.X) H.XXf.a Q.0X0X0X0X0X0X0X0X0X0X0X0X0X0X0X0X0X0X0X",
"0X0X0X0X0X^ c * k x _ +XOXG.@.+.X...-.m.b $ ( L.P X O q.;Xi.I.<X<XK.Y e P.1XOX .*.0X0X0X0X0X0X0X0X0X0X0X0X0X0X0X0X0X0X0X",
"0X0X0X0X0X0X..P W C l ( q.(.:XXXP.P.F.v O.% O t + O 5  . .) p.| v q N.Z.! ).<X:.I $X0X0X0X0X0X0X0X0X0X0X0X0X0X0X0X0X0X0X",
"0X0X0X0X0X0X0X0X0Xw.' Q d e G.>X,X>X>XG.%.& 3 y   O ; r S d.G o   # T.7XA.R ( 5 # y ;.0X0X0X0X0X0X0X0X0X0X0X0X0X0X0X0X0X",
"0X0X0X0X0X0X0X0X0X0X0X0X0XN.Y q.oX,X,X<Xi.+ & 9 X P k , S z.6.O     ^ 6X%X9 0 i % & & o.0X0X0X0X0X0X0X0X0X0X0X0X0X0X0X0X",
"0X0X0X0X0X0X0X0X0X0X0X0X0X0X0X*.R F.G.0.x X . # X M.@.j g D n + < H 8 ~.b.& i P 0 X X P 0X0X0X0X0X0X0X0X0X0X0X0X0X0X0X0X",
"0X0X0X0X0X0X0X0X0X0X0X0X0X0X0X0X~.%.Q ` u . O X O Q.5XR. .M h > ;.4X%.=.U.f s & < ) b 7 Q.0X0X0X0X0X0X0X0X0X0X0X0X0X0X0X",
"0X0X0X0X0X0X0X0X0X0X0X0X0X0X0X0X0X0X0X0X... O & ~ =X8X8X9X$XZ.m.4X8XS.O.6XS.# $ p.<XOX&.C.0X0X0X0X0X0X0X0X0X0X0X0X0X0X0X",
"0X0X0X0X0X0X0X0X0X0X0X0X0X0X0X0X0X0X0X0X^ . X # ..W.=X9X8X8X8X8X8X8XU.P *X-XI x oX>X:XOXq.T.0X0X0X0X0X0X0X0X0X0X0X0X0X0X",
"0X0X0X0X0X0X0X0X0X0X0X0X0X0X0X0X0X0X0X0XO.. % m.M.s -.~.&X7X8X=XT.8XQ.9 K T.Q.' F.oXG.L.w.` 0X0X0X0X0X0X0X0X0X0X0X0X0X0X",
"0X0X0X0X0X0X0X0X0X0X0X0X0X0X0X0X0X0X0X0Xd & H -X0XT.u -.W.7X=X%.E.8XE.I N.o.M.+.) w.' ' s M.0X0X0X0X0X0X0X0X0X0X0X0X0X0X",
"0X0X0X0X0X0X0X0X0X0X0X0X0X0X0X0X0X0X0X0X5 % Q -X0X9Xo.u Z.T.+.N.7X8XU.Q *XK 3 a z ; = a %.-X0X0X0X0X0X0X0X0X0X0X0X0X0X0X",
"0X0X0X0X0X0X0X0X0X0X0X0X0X0X0X0X0X0X0X$.5 # Q 0X0X0XS.u ..O.#X8X8X9X&.;.&X=.O.d O.m.m.%X2X0X0X0X0X0X0X0X0X0X0X0X0X0X0X0X",
"0X0X0X0X0X0X0X0X0X0X0X0X0X0X0X0X0X0X0X0XX X N.0X0X%XQ J U.9X8X8X=X;.;.=XY.~.=XQ p -.$.=.$.C.A.0X0X0X0X0X0X0X0X0X0X0X0X0X",
"0X0X0X0X0X0X0X0X0X0X0X0X0X0X0X0X0X0X0X0Xd ~ 0X0X0X..J R.#X2X5XW.$.C.4XE.C.5X&X9 9 H . 9 i i f H 0X0X0X0X0X0X0X0X0X0X0X0X",
"0X0X0X0X0X0X0X0X0X0X0X0X0X0X0X0X0X0X0X0X0X0X0X0X0XQ C.9XE.%.M.M.!.8X7X&X*XE.s ~ A.b.o.Z.S.o.9 7 P 0X0X0X0X0X0X0X0X0X0X0X",
"0X0X0X0X0X0X0X0X0X0X0X0X0X0X0X0X0X0X0X0X0X0X0X0X!.i X.Y.#XQ.W.*X4X4X=XR.P $ - A.$XX.V T.7X6X%.3 9 u J 0X0X0X0X0X0X0X0X0X",
"0X0X0X0X0X0X0X0X0X0X0X0X0X0X0X0X0X0X0X0X0X0X0X0X0X;.% V B A Y Y ! ! v & i o.- 6 a [ t.d U.W.K ^ H u 8 ..0X0X0X0X0X0X0X0X",
"0X0X0X0X0X0X0X0X0X0X0X0X0X0X0X0X0X0X0X0X0X0X0X0X2X! t.'.c.c.l.l.j.y.[ 1 v I i a C { t.x y I u i 9 P 3 4 u I 0X0X0X0X0X0X",
"0X0X0X0X0X0X0X0X0X0X0X0X0X0X0X0X0X0X0X0X0X0X0X0X;.[ '.}.}. X X Xj.t < _ 9.Z q O.i i ^ 0 5 P 9 % 6 7 9 u J ~ 0X0X0X0X0X0X",
"0X0X0X0X0X0X0X0X0X0X0X0X0X0X0X0X0X0X0X0X0X0X0X0XB l. Xc. Xc.}.'.[ o Z u.u.u.x k z q L 1 O Z p c w 9 9 J 5 ..=.0X0X0X0X0X",
"0X0X0X0X0X0X0X0X0X0X0X0X0X0X0X0X0X0X0X0X0X0X0X0XA c. X Xc.y.a.s.1 : y.u.u.6.x 6.u.9.u.Z O x s b , $ 4 c ; # d 0X0X0X0X0X",
"0X0X0X0X0X0X0X0X0X0X0X0X0X0X0X0X0X0X0X0X0X0X0X;.[ }.c.c. Xc.F C $ $ 7.u.u._ { } C 6.9.z 9 &.4 & # > > g k 4 8 0X0X0X0X0X",
"0X0X0X0X0X0X0X0X0X0X0X0X0X0X0X0X0X0X0X0X0X0X0XV j. X X}.c. Xc.F 6 i x u.9._ } S q Y T # ..0X0X0X0X: , > j r H 0X0X0X0X0X",
"0X0X0X0X0X0X0X0X0X0X0X0X0X0X0X0X0X0X0X0X0X0X0XF ]. X].x.t.t.h.l.t &.d x Z v O.S.0X0X0X0X0X0X0X0X0X6 > N e.] J S.0X0X0X0X",
"0X0X0X0X0X0X0X0X0X0X0X0X0X0X0X0X0X0X0X0X0X0X0X! 8.c.|.].c.s.{ } B +.Z.O.Z.0X0X0X0X0X0X0X0X0X0X0X0X5 $ 1.e.( p 0X0X0X0X0X",
"0X0X0X0X0X0X0X0X0X0X0X0X0X0X0X0X0X0X0X0X0X0X0X0XR 7.].].c. X].`.l.B w +.Z.0X0X0X0X0X0X0X0X0X0X0X0X: l e.5.J T 0X0X0X0X0X",
"0X0X0X0X0X0X0X0X0X0X0X0X0X0X0X0X0X0X0X0X0X0X0X0X0XV u.c. X X|.c.x.t.S F 0 0X0X0X0X0X0X0X0X0X0X0X` M 2.,.k 0 0X0X0X0X0X0X",
"0X0X0X0X0X0X0X0X0X0X0X0X0X0X0X0X0X0X0X0X0X0X0X0X0XX.$ [ l.x.d.G h.k.F } a 0X0X0X0X0X0X0X0X0X0X0X0X~ k ; & &.0X0X0X0X0X0X",
"0X0X0X0X0X0X0X0X0X0X0X0X0X0X0X0X0X0X0X0X0X0X0X0X0X0XQ z Z 6.{ F `._.} n E.0X0X0X0X0X0X0X0X0X0X0X0X0X0X0X0X0X0X0X0X0X0X0X",
"0X0X0X0X0X0X0X0X0X0X0X0X0X0X0X0X0X0X0X0X0X0X0X0X0X0X0XR G } 8.l.`.t./ 0X0X0X0X0X0X0X0X0X0X0X0X0X0X0X0X0X0X0X0X0X0X0X0X0X",
"0X0X0X0X0X0X0X0X0X0X0X0X0X0X0X0X0X0X0X0X0X0X0X0X0X0X0Xf z S } 7.x 9 0X0X0X0X0X0X0X0X0X0X0X0X0X0X0X0X0X0X0X0X0X0X0X0X0X0X",
"0X0X0X0X0X0X0X0X0X0X0X0X0X0X0X0X0X0X0X0X0X0X0X0X0X0X0X0X;.T $ b ] z 0X0X0X0X0X0X0X0X0X0X0X0X0X0X0X0X0X0X0X0X0X0X0X0X0X0X",
"0X0X0X0X0X0X0X0X0X0X0X0X0X0X0X0X0X0X0X0X0X0X0X0X0X0X0X0Xm.9 4 ~ V.k q *.0X0X0X0X0X0X0X0X0X0X0X0X0X0X0X0X0X0X0X0X0X0X0X0X",
"0X0X0X0X0X0X0X0X0X0X0X0X0X0X0X0X0X0X0X0X0X0X0XT 0X0X0X0X+.X T J J r > b 0X0X0X0X0X0X0X0X0X0X0X0X0X0X0X0X0X0X0X0X0X0X0X0X",
"0X0X0X0X0X0X0X0X0X0X0X0X0X0X0X0X0X0X0X0X0X-.M <.; b L ! r > : 4 w - # 0X0X0X0X0X0X0X0X0X0X0X0X0X0X0X0X0X0X0X0X0X0X0X0X0X",
"0X0X0X0X0X0X0X0X0X0X0X0X0X0X0X0X0X0X0X0X0Xk 4.e.l = ; g , m l 4 9 & X 0X0X0X0X0X0X0X0X0X0X0X0X0X0X0X0X0X0X0X0X0X0X0X0X0X",
"0X0X0X0X0X0X0X0X0X0X0X0X0X0X0X0X0X0X0X0X0Xi N 4.r.4.,.h = > 2 s i 9 X K 0X0X0X0X0X0X0X0X0X0X0X0X0X0X0X0X0X0X0X0X0X0X0X0X",
"0X0X0X0X0X0X0X0X0X0X0X0X0X0X0X0X0X0X0X0X0X..X./ N ,.,.m = > ; 3 # #   b 0X0X0X0X0X0X0X0X0X0X0X0X0X0X0X0X0X0X0X0X0X0X0X0X",
"0X0X0X0X0X0X0X0X0X0X0X0X0X0X0X0X0X0X0X0X0X0X0XQ J c J b u w w i & X X P 0X0X0X0X0X0X0X0X0X0X0X0X0X0X0X0X0X0X0X0X0X0X0X0X",
"0X0X0X0X0X0X0X0X0X0X0X0X0X0X0X0X0X0X0X0X0X0X0X0X0X$.~ Q X.X...&.C.0X0X0X0X0X0X0X0X0X0X0X0X0X0X0X0X0X0X0X0X0X0X0X0X0X0X0X",
"0X0X0X0X0X0X0X0X0X0X0X0X0X0X0X0X0X0X0X0X0X0X0X0X0X0X0X0X0X0X0X0X0X0X0X0X0X0X0X0X0X0X0X0X0X0X0X0X0X0X0X0X0X0X0X0X0X0X0X0X",
"0X0X0X0X0X0X0X0X0X0X0X0X0X0X0X0X0X0X0X0X0X0X0X0X0X0X0X0X0X0X0X0X0X0X0X0X0X0X0X0X0X0X0X0X0X0X0X0X0X0X0X0X0X0X0X0X0X0X0X0X",
"0X0X0X0X0X0X0X0X0X0X0X0X0X0X0X0X0X0X0X0X0X0X0X0X0X0X0X0X0X0X0X0X0X0X0X0X0X0X0X0X0X0X0X0X0X0X0X0X0X0X0X0X0X0X0X0X0X0X0X0X"
};
