/* XPM */
static char *result[] = {
/* columns rows colors chars-per-pixel */
"60 60 217 2 ",
"   c #0C0B0C",
".  c #060405",
"X  c #160D0C",
"o  c #18110E",
"O  c #0F0E10",
"+  c #141315",
"@  c #181719",
"#  c #1C1A1B",
"$  c #1C1716",
"%  c #241B1B",
"&  c #281817",
"*  c #371A18",
"=  c #250E0D",
"-  c #2B221A",
";  c #37261F",
":  c #1F1E21",
">  c #211F20",
",  c #242224",
"<  c #2A2624",
"1  c #2C2B2C",
"2  c #282626",
"3  c #322A25",
"4  c #3A2B25",
"5  c #332E2C",
"6  c #392A28",
"7  c #3D342C",
"8  c #383128",
"9  c #2D2D31",
"0  c #322F31",
"q  c #2F3033",
"w  c #343334",
"e  c #3B3433",
"r  c #39373A",
"t  c #3C3B3C",
"y  c #3B3837",
"u  c #441C19",
"i  c #49221D",
"p  c #5A211E",
"a  c #62221F",
"s  c #482928",
"d  c #592824",
"f  c #43352C",
"g  c #4C3B2C",
"h  c #463B2B",
"j  c #58382E",
"k  c #423C3C",
"l  c #4B3B3C",
"z  c #433A34",
"x  c #563633",
"c  c #642723",
"v  c #6B312E",
"b  c #683835",
"n  c #782F2A",
"m  c #4C412D",
"M  c #4D433B",
"N  c #494337",
"B  c #52453C",
"V  c #594935",
"C  c #5C513C",
"Z  c #55503A",
"A  c #624938",
"S  c #7A483D",
"D  c #64533C",
"F  c #69543C",
"G  c #685C3D",
"H  c #67613D",
"J  c #3E3D41",
"K  c #423F42",
"L  c #4F3F40",
"P  c #444344",
"I  c #4B4544",
"U  c #4C4A4D",
"Y  c #494847",
"T  c #544C44",
"R  c #574C48",
"E  c #5C544E",
"W  c #59554B",
"Q  c #4F4E51",
"!  c #504F51",
"~  c #535153",
"^  c #5A5353",
"/  c #5C5B5C",
"(  c #565659",
")  c #664B45",
"_  c #6B5544",
"`  c #6B5B41",
"'  c #655546",
"]  c #755D44",
"[  c #7B5A48",
"{  c #625C5C",
"}  c #665A55",
"|  c #696347",
" . c #7D6A4D",
".. c #786447",
"X. c #79724C",
"o. c #67625C",
"O. c #7A6A5D",
"+. c #7B7356",
"@. c #5D5D60",
"#. c #615F61",
"$. c #646264",
"%. c #6A6463",
"&. c #6D6B6C",
"*. c #676666",
"=. c #706564",
"-. c #766D69",
";. c #7C7365",
":. c #6E6D70",
">. c #716F73",
",. c #747374",
"<. c #767578",
"1. c #7B7A7D",
"2. c #787677",
"3. c #93322C",
"4. c #893831",
"5. c #983D35",
"6. c #85342C",
"7. c #8A4138",
"8. c #AD453E",
"9. c #B2453D",
"0. c #9F4842",
"q. c #B24B43",
"w. c #AC4A42",
"e. c #826B4A",
"r. c #8D684D",
"t. c #886A52",
"y. c #946D52",
"u. c #887351",
"i. c #977A56",
"p. c #8B6D4B",
"a. c #A57A5F",
"s. c #867769",
"d. c #817C79",
"f. c #806B63",
"g. c #C95349",
"h. c #8B8357",
"j. c #9A8559",
"k. c #9D915E",
"l. c #A5865E",
"z. c #A48E5E",
"x. c #968968",
"c. c #97897A",
"v. c #888279",
"b. c #AA8A61",
"n. c #A88562",
"m. c #AA9666",
"M. c #B19B68",
"N. c #A58678",
"B. c #BA9578",
"V. c #B68670",
"C. c #AAA66D",
"Z. c #B5A66A",
"A. c #BCAD70",
"S. c #B7B06D",
"D. c #CA9773",
"F. c #D59774",
"G. c #C38B6A",
"H. c #C7B977",
"J. c #C9AA76",
"K. c #D5C47E",
"L. c #CFC27C",
"P. c #7F7E81",
"I. c #838284",
"U. c #89878B",
"Y. c #8C8A8B",
"T. c #8B8786",
"R. c #938D88",
"E. c #9D9586",
"W. c #949395",
"Q. c #9C9B9D",
"!. c #97969B",
"~. c #A99A85",
"^. c #B39B86",
"/. c #A59C93",
"(. c #B9A897",
"). c #AEA18E",
"_. c #9F9EA3",
"`. c #9997A0",
"'. c #A19FA0",
"]. c #A3A2A4",
"[. c #A5A4A9",
"{. c #ACABAB",
"}. c #B2B1B3",
"|. c #B1ADAB",
" X c #C79F8E",
".X c #D1B393",
"XX c #CDBBA5",
"oX c #D7BFA7",
"OX c #DACB83",
"+X c #DED284",
"@X c #E7D988",
"#X c #F5DE92",
"$X c #EFE48E",
"%X c #F2E58C",
"&X c #F5E892",
"*X c #D3C1A5",
"=X c #D8C9B4",
"-X c #D3C9B7",
";X c #E5D4B9",
":X c #F7DEBE",
">X c #E0C6AE",
",X c #C0BFC0",
"<X c #C5C4C7",
"1X c #D2D2D4",
"2X c #DAD9DB",
"3X c #CDCCD0",
"4X c #E8DAC6",
"5X c #FDE4C4",
"6X c #FBEACC",
"7X c #F5E3C8",
"8X c #FBE9D2",
"9X c #FFF1D2",
"0X c #E3E3E5",
"qX c #E9E8EA",
"wX c #F2F2F3",
"eX c #FCFCFC",
"rX c None",
/* pixels */
"rXrXrXrXrXrXrXrXrXrXrXrXrXrXrXrXrXrXrXrXrXrXrXrXrXrXrXrXrXrXrXrXrXrXrXrXrXrXrXrXrXrXrXrXrXrXrXrXrXrXrXrXrXrXrXrXrXrXrXrX",
"rXrXrXrXrXrXrXrXrXrXrXrXrXrXrXrXrXrXrXrXrXrXrXrXrXrXrXrXrXrXrXrXrXrXrXrXrXrXrXrXrXrXrXrXrXrXrXrXrXrXrXrXrXrXrXrXrXrXrXrX",
"rXrXrXrXrXrXrXrXrXrXrXrXrXrXrXrXrXI.U t t r Q I.rXrXrXrXrXrXrXrXrXrXrXrXrXrXrXrXrXrXrXrXrXrXrXrXrXrXrXrXrXrXrXrXrXrXrXrX",
"rXrXrXrXrXrXrXrXrXrXrXrXrXrXrX/ 9 9 1 w r q q q q J rXrXrXrXrXrXrXrXrXrXrXrXrXrXrXrXrXrXrXrXrXrXrXrXrXrXrXrXrXrXrXrXrXrX",
"rXrXrXrXrXrXrXrXrXrXrXrXrXP.W.rXU 1 r r r y w q q q 2 J rXrXrXrXrXrXrXrXrXrXrXrXrXrXrXrXrXrXrXrXrXrXrXrXrXrXrXrXrXrXrXrX",
"rXrXrXrXrXrXrXrXrXrXrXrX,.rXrXrX<., w r J t q 1 w t P 2 , rXrXrXrXrXrXrXrXrXrXrXrXrXrXrXrXrXrXrXrXrXrXrXrXrXrXrXrXrXrXrX",
"rXrXrXrXrXrXrXrXrXrXrXrXrXrX3X0XU q Y J J r r t t , J y , , rXrXrXrXrXrXrXrXrXrXrXrXrXrXrXrXrXrXrXrXrXrXrXrXrXrXrXrXrXrX",
"rXrXrXrXrXrXrXrXrXrX,.rXY./ rXW.1 r J N P N P t 1 O , q r y w rXrXrXrXrXrXrXrXrXrXrXrXrXrXrXrXrXrXrXrXrXrXrXrXrXrXrXrXrX",
"rXrXrXrXrXrXrXrXrXrXrX@.Q.I.J 5 t P y 5 w t w q 1 O + 1 , 1 q Y rXrXrXrXrXrXrXrXrXrXrXrXrXrXrXrXrXrXrXrXrXrXrXrXrXrXrXrX",
"rXrXrXrXrXrXrXrXrXrXrX$.I._.t # , 1 w y 0 , @ : @   O + # + 1 , rXrXrXrXrXrXrXrXrXrXrXrXrXrXrXrXrXrXrXrXrXrXrXrXrXrXrXrX",
"rXrXrXrXrXrXrXrXrXrXrX/ *.^ %.d.E h m 5 , 2 # - O P 1.1.&.w # > Y.rXrXrXrXrXrXrXrXrXrXrXrXrXrXrXrXrXrXrXrXrXrXrXrXrXrXrX",
"rXrXrXrXrXrXrXrXrXrXrXrX5 c.XX7X7Xc.] s.R V 8 @ O #.rXrXrXrXP + $.Q.].rXrXrXrXrXrXrXrXrXrXrXrXrXrXrXrXrXrXrXrXrXrXrXrXrX",
"rXrXrXrXrXrXrXrXrXrXrXrXY.c.7X7X5X-XA ' B D | m 7 U 2.~ / @.P E ;.;.c.~.*.rXrXrXrXrXrXrXrXrXrXrXrXrXrXrXrXrXrXrXrXrXrXrX",
"rXrXrXrXrXrXrXrXrXrXrXrXrX=.c.=X6X Xb /.o.f 8 X $ > # ! E.B.t.~.6X6X5X=Xd.1.rXrXrXrXrXrXrXrXrXrXrXrXrXrXrXrXrXrXrXrXrXrX",
"rXrXrXrXrXrXrXrXrXrXrXrXrXrX&./.R.f 6 Q.5   + U Q.<X_.! 6 t.J.G..X.Xn.y.^.E rXrXrXrXrXrXrXrXrXrXrXrXrXrXrXrXrXrXrXrXrXrX",
"rXrXrXrXrXrXrXrXrXrXrXrXrXrXrXT.rXrXz -   7 M :.|.eXeX0X{ g B.] ..] j a.F.V.=.rXrXrXrXrXrXrXrXrXrXrXrXrXrXrXrXrXrXrXrXrX",
"rXrXrXrXrXrXrXrXrXrXrXrXrXrXrXrXrXrX2 @ T.=X;X XW Y.wXeX<X5 N / @.1.{ r.F.F.V.} rXrXrXrXrXrXrXrXrXrXrXrXrXrXrXrXrXrXrXrX",
"rXrXrXrXrXrXrXrXrXrXrXrXrXrXrXrXrXrX1 R.4XoX;X6X(.M U.wXwXy P.rXrXrXrX=._ n.F.r.{ rXrXrXrXrXrXrXrXrXrXrXrXrXrXrXrXrXrXrX",
"rXrXrXrXrXQ.*.Y.rXrXrXrXrXrXrXrXrXrX1 } -.N.oXE.;.).w [.qXt W.rXrXrXrXrXrX=.y.G.A 1.rXrXrXrXrXrXrXrXrXrXrXrXrXrXrXrXrXrX",
"rXrXrX8 ;.).^.;.&.1.Y.rXrXrXrXrXrXrXP E.4XXX^.[ ) -Xe %.2XY [.rXrXrXrXrXrXrX) y.i.} ,.T.rXrXrXrXrXrXrXrXrXrXrXrXrXrXrXrX",
"rXrXd.7 oX5X5X:X+.  q J 1 / rXrX].! ) 7X:XXX(.z a.XXs } 1XQ 1.rXrXrXrXrXrXrX,.S a._ N.%.!.rXrXrXrXrXrXrXrXrXrXrXrXrXrXrX",
"rXrXY.f XX:X:X5X|.: J ( > $ O.N.(.~.o.v.4X=XE   [ _ * R <X1.y rXrXrXrXrXrXrX2.[  X[ R B 5 ,.rXrXrXrXrXrXrXrXrXrXrXrXrXrX",
"rXrXrXe N.6X7X8X].+ q t + h ;X9X6X6X4X|.(.g K , X * * =.wX}., &.rXrXrXrXrXrX{ [ F.` 6 4 B 0 rXrXrXrXrXrXrXrXrXrXrXrXrXrX",
"rXrXrXrXB ;.f.-.N . , 1 . & s.(.).x.(.(.A < P.U.>.I.U.[.1X2XY.t ].rXrXrXrXrX].I A ] A ; 4 ~ rXrXrXrXrXrXrXrXrXrXrXrXrXrX",
"rXrXrXrXrXrXrXrXrX9 # 1   U ,./ R U Q ^ *.}.&.J _.,X}.$.<XeX{.~ Y `.rXrXrXrXrXQ.4 h - f $.rXrXrXrXrXrXrXrXrXrXrXrXrXrXrX",
"rXrXrXrXrXrXrXrXrXrX$.1 2.rXrXrXrXrXrXrXrXrX-X, `.[.$.`.wXeXP.U.&.Y rXrXrXrXrXrXT.o.1.[.rXrXrXrXrXrXrXrXrXrXrXrXrXrXrXrX",
"rXrXrXrXrXrXrXrXrXrXrXrXrXrXrXrXrXrXrXrX1X}.&.@ U.P.U.wXeXqXP.1X<X[./ ,.rXrXrXrXrXrXrXrXrXrXrXrXrXrXrXrXrXrXrXrXrXrXrXrX",
"rXrXrXrXrXrXrXrXrXrXrXrXrXrXrXrXrXrXrXrXQ r P.2.L `.qXwXeXwX1XeXeXeXU.@ '.rXrXrXrXrXrXrXrXrXrXrXrXrXrXrXrXrXrXrXrXrXrXrX",
"rXrXrXrXrXrXrXrXrXrXrXrXrXrXrXrXrX}.U T C Z W v.R.t &.W.2XeXeXeXeX{.9 t / rXrXrXrXrXrXrXrXrXrXrXrXrXrXrXrXrXrXrXrXrXrXrX",
"rXrXrXrXrXrXrXrXrXrXrXrXrXrXrXrXY.| j.H.$XK.h.h :.[.<X0XeXeXeX0XQ.0 o , , 1 #.rXrXrXrXrXrXrXrXrXrXrXrXrXrXrXrXrXrXrXrXrX",
"rXrXrXrXrXrXrXrXrXrXrXrXrXrX].E k.K.$X%X%X$XZ.` 7 5 :.Y.I.1.*.K 1 m H 3 :.U ( w &.rXrXrXrXrXrXrXrXrXrXrXrXrXrXrXrXrXrXrX",
"rXrXrXrXrXrXrXrXrXrXrXrXrXrXZ S.%X%XA.h.Z.H.+XK.z.G % 7 F F V $ w 6 Z W &.P.Q 1 P Y rXrXrXrXrXrXrXrXrXrXrXrXrXrXrXrXrXrX",
"rXrXrXrXrXrXrXrXrXrXrXrXrX{ u.@XK.H.z...F V ..X.+.k.| j.+. .m.k.3 Q / X.S.h.Q P.~ 2 @.rXrXrXrXrXrXrXrXrXrXrXrXrXrXrXrXrX",
"rXrXrXrXrXrXrXrXrXrXrXrXrXI z.z.a.i.l.l.b.l.m   2 I T +.Z.M.L.&Xi.< w t h.L.X.o.,.w 9 1.rXrXrXrXrXrXrXrXrXrXrXrXrXrXrXrX",
"rXrXrXrXrXrXrXrXrXrXrXrXrXT e.l.l.i.` D  .A - 6 ~ rXrXrXB G K.#X@Xe.% ( ^ N h...3 > # U rXrXrXrXrXrXrXrXrXrXrXrXrXrXrXrX",
"rXrXrXrXrXrXrXrXrXrXrXrXrXrXW ..i.l.p. .e.i.j.i.N w o.rXrX/ ' A.$XK. .7 < 0 { < 1 q 1 # 5 Y ,.rXrXrXrXrXrXrXrXrXrXrXrXrX",
"rXrXrXrXrXrXrXrXrXrXrXrXrXrXrXR.e ..l.b.l.l.l.l.j.e.D Q rXrX1.f ..H.@XA.e.7 r , r Y y w N S.H Z 7 rXrXrXrXrXrXrXrXrXrXrX",
"rXrXrXrXrXrXrXrXrXrXrXrXrXrXrXrXY.N f D ] i.l.l.l.b.F Y.rXrXrXrXM 8 Z.&X%XH.G C X.` - e 1 h.$X@X .,.rXrXrXrXrXrXrXrXrXrX",
"rXrXrXrXrXrXrXrXrXrXrXrXrXrXrXrXrXrXM V F F p.n.l...e rXrXrXrXrXrXU ; h.A.L.m.` Z.@Xx.G `  .OX%X| ,.rXrXrXrXrXrXrXrXrXrX",
"rXrXrXrXrXrXrXrXrXrXrXrXrXrXrXrXrXrXU.D l.i.u.` g - Q rXrXrXrXrXrXrX$.Y M N B V ] b.A.$X+X` S.$X| /.rXrXrXrXrXrXrXrXrXrX",
"rXrXrXrXrXrXrXrXrXrXrXrXrXrXrXrXrXrXrXB } W d.~ 4 ^.R k <.rXrXrXrXrXrXrXrXrXrX^ l ' ` m.M.f M.H.7 I.1.K rXrXrXrXrXrXrXrX",
"rXrXrXrXrXrXrXrXrXrXrXrXrXrXrXrXrXrXrXrXrXrXrXrX2 ;.=.> $ rXrXrXrXrXrXrXrXrXrXrXrXrX7 F u.D x.H z Y 1 * I rXrXrXrXrXrXrX",
"rXrXrXrXrXrXrXrXrXrXrXrXrXrXrXrXrXrXrXrXrXrXrX2 U y U 6 , rXrXrXrXrXrXrXrXrXrXrXrXrX2.g D B t $ R &.6 x < w U rXrXrXrXrX",
"rXrXrXrXrXrXrXrXrXrXrXrXrXrXrXrXrXrXrXrXrXrX^ & # % & <   w rXrXrXrXrXrXrXrXrXrXrXrXrXrX1.rXrXI.r K u f t , 5 # Y rXrXrX",
"rXrXrXrXrXrXrXrXrXrXrXrXrXrXrXrXrXrXrXrXrXrXrXz u c u : @   1 rXrXrXrXrXrXrXrXrXrXrXrXrXrXrXrXrXO . = & t J I 1 r 1 rXrX",
"rXrXrXrXrXrXrXrXrXrXrXrXrXrXrXrXrXrXrXrXrXrXrX% p d * e r @ @ rXrXrXrXrXrXrXrXrXrXrXrXrXrXrXrXrX*.# u * * b x 1 Q U rXrX",
"rXrXrXrXrXrXrXrXrXrXrXrXrXrXrXrXrXrXrXrXrX{ c a * ; d * 1 w . Q rXrXrXrXrXrXrXrXrXrXrXrXrXrXrXrXrXrX6 X * s v v 1 *.rXrX",
"rXrXrXrXrXrXrXrXrXrXrXrXrXrXrXrXrXrX{ u u s u * c c % ! ~ Q w I.rXrXrXrXrXrXrXrXrXrXrXrXrXrXrXrXrXrXl p & s * e w rXrXrX",
"rXrXrXrXrXrXrXrXrXrXrXrXrXrXrXrXrXrXs q.g.n v 7.4.d #.Q Q Y.rXrXrXrXrXrXrXrXrXrXrXrXrXrXrXrXrXrXrXrX% = p g.S 9 $.rXrXrX",
"rXrXrXrXrXrXrXrXrXrXrXrXrXrXrXrXrXrXL 4.w.w.q.7.x #.~ >.rXrXrXrXrXrXrXrXrXrXrXrXrXrXrXrXrXrXrXrX} g = u q.g.b K rXrXrXrX",
"rXrXrXrXrXrXrXrXrXrXrXrXrXrXrXrXrXrXY.e -.,.=.Y ! P <.rXrXrXrXrXrXrXrXrXrXrXrXrXrXrXrXrXrXrXrXrX6 4.4.5.9.0.K ( rXrXrXrX",
"rXrXrXrXrXrXrXrXrXrXrXrXrXrXrXrXrXrXrXP.( $.$.#.*.I.rXrXrXrXrXrXrXrXrXrXrXrXrXrXrXrXrXrXrXrXrXrXl n 3.3.n ) K Y.rXrXrXrX",
"rXrXrXrXrXrXrXrXrXrXrXrXrXrXrXrXrXrXrXrXrXrXrXrXrXrXrXrXrXrXrXrXrXrXrXrXrXrXrXrXrXrXrXrXrXrXrXrXrXi a s K U >.rXrXrXrXrX",
"rXrXrXrXrXrXrXrXrXrXrXrXrXrXrXrXrXrXrXrXrXrXrXrXrXrXrXrXrXrXrXrXrXrXrXrXrXrXrXrXrXrXrXrXrXrXrXrXrX<.@ 9 L U.rXrXrXrXrXrX",
"rXrXrXrXrXrXrXrXrXrXrXrXrXrXrXrXrXrXrXrXrXrXrXrXrXrXrXrXrXrXrXrXrXrXrXrXrXrXrXrXrXrXrXrXrXrXrXrXrXrXrXrXrXrXrXrXrXrXrXrX",
"rXrXrXrXrXrXrXrXrXrXrXrXrXrXrXrXrXrXrXrXrXrXrXrXrXrXrXrXrXrXrXrXrXrXrXrXrXrXrXrXrXrXrXrXrXrXrXrXrXrXrXrXrXrXrXrXrXrXrXrX",
"rXrXrXrXrXrXrXrXrXrXrXrXrXrXrXrXrXrXrXrXrXrXrXrXrXrXrXrXrXrXrXrXrXrXrXrXrXrXrXrXrXrXrXrXrXrXrXrXrXrXrXrXrXrXrXrXrXrXrXrX",
"rXrXrXrXrXrXrXrXrXrXrXrXrXrXrXrXrXrXrXrXrXrXrXrXrXrXrXrXrXrXrXrXrXrXrXrXrXrXrXrXrXrXrXrXrXrXrXrXrXrXrXrXrXrXrXrXrXrXrXrX",
"rXrXrXrXrXrXrXrXrXrXrXrXrXrXrXrXrXrXrXrXrXrXrXrXrXrXrXrXrXrXrXrXrXrXrXrXrXrXrXrXrXrXrXrXrXrXrXrXrXrXrXrXrXrXrXrXrXrXrXrX",
"rXrXrXrXrXrXrXrXrXrXrXrXrXrXrXrXrXrXrXrXrXrXrXrXrXrXrXrXrXrXrXrXrXrXrXrXrXrXrXrXrXrXrXrXrXrXrXrXrXrXrXrXrXrXrXrXrXrXrXrX"
};
