/* XPM */
static char *result[] = {
/* columns rows colors chars-per-pixel */
"60 60 225 2 ",
"   c #010101",
".  c #0A0000",
"X  c #0C0B0C",
"o  c #080708",
"O  c #140101",
"+  c #110C0C",
"@  c #1A0D0B",
"#  c #1D0700",
"$  c #17100E",
"%  c #0F0E11",
"&  c #140D16",
"*  c #141213",
"=  c #1D1614",
"-  c #1B1A1C",
";  c #171719",
":  c #230101",
">  c #290905",
",  c #350000",
"<  c #3E0E07",
"1  c #251414",
"2  c #2D1413",
"3  c #241C1C",
"4  c #291B1A",
"5  c #261B16",
"6  c #3A1D1B",
"7  c #361816",
"8  c #2E1A04",
"9  c #29211A",
"0  c #35241E",
"q  c #3B280A",
"w  c #00002B",
"e  c #201E20",
"r  c #013324",
"t  c #232224",
"y  c #2A2422",
"u  c #2B2B2C",
"i  c #292628",
"p  c #342922",
"a  c #3B2B24",
"s  c #332D2D",
"d  c #392827",
"f  c #2E2D31",
"g  c #202E3D",
"h  c #312B34",
"j  c #343234",
"k  c #363639",
"l  c #3C3B3C",
"z  c #3B3435",
"x  c #3E3327",
"c  c #450000",
"v  c #4B0000",
"b  c #441D1A",
"n  c #4B1A17",
"m  c #580F0E",
"M  c #670000",
"N  c #49231E",
"B  c #492A12",
"V  c #723E1B",
"C  c #4A0422",
"Z  c #472523",
"A  c #572927",
"S  c #42342E",
"D  c #4B382C",
"F  c #563D2D",
"G  c #453C38",
"H  c #4A3232",
"J  c #682925",
"K  c #78322D",
"L  c #733632",
"P  c #6C3634",
"I  c #52442E",
"U  c #4B443D",
"Y  c #574638",
"T  c #5E553A",
"R  c #4F482F",
"E  c #654D3B",
"W  c #66533B",
"Q  c #68553B",
"!  c #363944",
"~  c #0E1162",
"^  c #443A43",
"/  c #3E4243",
"(  c #2B4350",
")  c #2D6C58",
"_  c #434244",
"`  c #4C4545",
"'  c #47464A",
"]  c #4B4A4C",
"[  c #474A4A",
"{  c #534C4B",
"}  c #564944",
"|  c #544F52",
" . c #555455",
".. c #58575A",
"X. c #5C5A5D",
"o. c #595756",
"O. c #51544F",
"+. c #6F5D43",
"@. c #6B5546",
"#. c #745645",
"$. c #645A57",
"%. c #6A4B4E",
"&. c #436453",
"*. c #6B6342",
"=. c #7B6948",
"-. c #68625D",
";. c #7E6558",
":. c #797152",
">. c #5F5E62",
",. c #655F64",
"<. c #4E6767",
"1. c #55696A",
"2. c #4D7568",
"3. c #646264",
"4. c #666669",
"5. c #6B6B6C",
"6. c #696768",
"7. c #746E6D",
"8. c #726966",
"9. c #7B7369",
"0. c #736E72",
"q. c #667774",
"w. c #737375",
"e. c #7C7B7C",
"r. c #797779",
"t. c #6D6C70",
"y. c #8B322D",
"u. c #8B3731",
"i. c #943B35",
"p. c #AE443D",
"a. c #846B4C",
"s. c #8B6F4D",
"d. c #84754D",
"f. c #887953",
"g. c #987856",
"h. c #926354",
"j. c #87786B",
"k. c #867A74",
"l. c #957D75",
"z. c #C54E46",
"x. c #48876F",
"c. c #60857A",
"v. c #9E865C",
"b. c #958B5C",
"n. c #A5855E",
"m. c #93826D",
"M. c #8A8077",
"N. c #978A7A",
"B. c #998E6F",
"V. c #A88960",
"C. c #A49666",
"Z. c #B39F69",
"A. c #A68978",
"S. c #B8A86B",
"D. c #B8AC71",
"F. c #BDB272",
"G. c #ABA46A",
"H. c #C8BA77",
"J. c #D1C57D",
"K. c #7E7D81",
"L. c #746780",
"P. c #6452A4",
"I. c #649588",
"U. c #62B48B",
"Y. c #878688",
"T. c #988886",
"R. c #9F9989",
"E. c #8E8E91",
"W. c #949395",
"Q. c #95949A",
"!. c #9B9A9B",
"~. c #99979A",
"^. c #8C9791",
"/. c #A79A89",
"(. c #A79D99",
"). c #B5A38C",
"_. c #B7A897",
"`. c #B2A99E",
"'. c #8E99A5",
"]. c #A09DA3",
"[. c #9DBEB1",
"{. c #A3A3A4",
"}. c #A8A7AB",
"|. c #B4AFA8",
" X c #BBB2A4",
".X c #B9B8BA",
"XX c #AAB0AF",
"oX c #C4AD9A",
"OX c #C3AD94",
"+X c #C9BAA8",
"@X c #D5B7A5",
"#X c #DDCC84",
"$X c #EDDD86",
"%X c #E5D686",
"&X c #EFE48C",
"*X c #F1E18A",
"=X c #F2E48B",
"-X c #D9CBB7",
";X c #DFD2BE",
":X c #ECD6B9",
">X c #F2DBBD",
",X c #E0C4B3",
"<X c #BEBCC5",
"1X c #C4C4C5",
"2X c #C9C9CB",
"3X c #CAC7C7",
"4X c #D1D1D3",
"5X c #DBDBDC",
"6X c #DCD2C0",
"7X c #E7D9C3",
"8X c #C7E1D5",
"9X c #FCE3C3",
"0X c #F8E5C9",
"qX c #F7E7D1",
"wX c #ECE3CB",
"eX c #DDDBE0",
"rX c #E0DFE0",
"tX c #E4E3E4",
"yX c #EDEDED",
"uX c #E6E9E8",
"iX c #EFEFF0",
"pX c #F4F4F5",
"aX c #FEFEFE",
"sX c #F0EFF3",
"dX c None",
/* pixels */
"dXdXdXdXdXdXdXdXdXdXdXdXdXdXdXdXdXdXdXdXdXdXdXdXdXdXdXdXdX6.q.x.dXdXdXdXdXdXdXdXdXdXdXdXdXdXdXdXdXdXdXdXdXdXdXdXdXdXdXdX",
"dXdXdXdXdXdXdXdXdXdXdXdXdXdXdXdXdXdXdXdXdXdXdXdXdXdXdX) [ t e t k o.dXdXdXdXdXdXdXdXdXdXdXdXdXdXdXdXdXdXdXdXdXdXdXdXdXdX",
"dXdXdXdXdXdXdXdXdXdXdXdXdXdXdXdXdXdXdXdXdXdXdXdXdXdX] u / / j / l k u <.dXdXdXdXdXdXdXdXdXdXdXdXdXdXdXdXdXdXdXdXdXdXdXdX",
"dXdXdXdXdXdXdXdXdXdXdXdXdXdXdXdXdXdXdXdXdXdXdXdXdX/ f t t u - j u f [ i ) dXdXdXdXdXdXdXdXdXdXdXdXdXdXdXdXdXdXdXdXdXdXdX",
"dXdXdXdXdXdXdXdXdXdXdXdXdXdXdXdXdXdXdXdXdXdXdXdXdXe f [ 2.dXdXdXw./ f f k dXdXdXdXdXdXdXdXdXdXdXdXdXdXdXdXdXdXdXdXdXdXdX",
"dXdXdXdXdXdXdXdXdXdXdXdXdXdXdXdXdXdXdXdXdXdXdXdXr % ' dXdXdXdXdXdXdX4.i ; &.dXdXdXdXdXdXdXdXdXdXdXdXdXdXdXdXdXdXdXdXdXdX",
"dXdXdXdXdXdXdXdXdXdXdXdXdXdXdXdXdXdXdXdXdXdXdXdXu - ) dXdXdXdXdXdXdXdX3.*  .dXdXdXdXdXdXdXdXdXdXdXdXdXdXdXdXdXdXdXdXdXdX",
"dXdXdXdXdXdXdXdXdXdXdXdXdXdXdXdXdXdXdXdXdXdXdXdX+ e 2.dXdXdXdXdXdXdXdX4.X &.dXdXdXdXdXdXdXdXdXdXdXdXdXdXdXdXdXdXdXdXdXdX",
"dXdXdXdXdXdXdXdXdXdXdXdXdXdXdXdXdXdXdXdXdXdXdXdXf % 1.Y.w.r.dX[.w.4.K._ X 2.dXdXdXdXdXdXdXdXdXdXdXdXdXdXdXdXdXdXdXdXdXdX",
"dXdXdXdXdXdXdXdXdXdXdXdXdXdXdXdXdXdXdXdXdXdXdXdXX.o * ..5.k.Q.K.].X.! ; + o.dXdXdXdXdXdXdXdXdXdXdXdXdXdXdXdXdXdXdXdXdXdX",
"dXdXdXdXdXdXdXdXdXdXdXdXdXdXdXdXdXdXdXdXdXdXdXdXr.* t ; u {.2X.X2X] % f = ' dXdXdXdXdXdXdXdXdXdXdXdXdXdXdXdXdXdXdXdXdXdX",
"dXdXdXdXdXdXdXdXdXdXdXdXdXdXdXdXdXdXdXdXB R 6.w.o.e X 1 l 5.t.r.3.7.z + u XXdXdXdXdXdXdXdXdXdXdXdXdXdXdXdXdXdXdXdXdXdXdX",
"dXdXdXdXdXdXdXdXdXdXdXdXdXdXdXdXdXdXdX> N.7X+X;.M.R.5 U  X Xm.m._.;XN.4 { 3XdXdXdXdXdXdXdXdXdXdXdXdXdXdXdXdXdXdXdXdXdXdX",
"dXdXdXdXdXdXdXdXdXdXdXdXdXdXdXdXdXdXdXB ;XoX+XR.wX Xy z +XqX_.,X0X0Xj.7.S s {.dXdXdXdXdXdXdXdXdXdXdXdXdXdXdXdXdXdXdXdXdX",
"dXdXdXdXdXdXdXdXdXdXdXdXdXdXdXdXdXdX: N.wX@.H Y.7X} z r.U _._.B.+XM.o.T.p 6.N.-.R.dXdXdXdXdXdXdXdXdXdXdXdXdXdXdXdXdXdXdX",
"dXdXdXdXdXdXdXdXdXdXdXdXdXdXdXdXdXdX< 0X>X@.@ M.N.7 o.O.X U 9.m.$.3 r.| ^ :X0X_.U dXdXdXdXdXdXdXdXdXdXdXdXdXdXdXdXdXdXdX",
"dXdXdXdXdXdXdXdXdXdXdXdXdXdXdXdXdXO +XwXl.U  .} F 6 w.- 5 g.h.h.= f T.d ,.0X9X0Xk.{ dXdXdXdXdXdXdXdXdXdXdXdXdXdXdXdXdXdX",
"dXdXdXdXdXdXdXdXdXdXdXdXdXdXdXdXO M qXV G j.dX3.$ s 6.o @ #.@Xk.. X.T.6 8.qX9X9X;X| G [ dXdXdXdXdXdXdXdXdXdXdXdXdXdXdXdX",
"dXdXdXdXdXdXdXdXdXdXdXdXdXdXdXdXc 0X;XN dXdXdXdXl { ..o ] } ^ ; & W.k.n S 9.9.).>X:XOXF c.dXdXdXdXdXdXdXdXdXdXdXdXdXdXdX",
"dXdXdXdXdXdXdXdXdXdXdXdXdXdXdXc :X9XM v dXdXdXdX .3.^   5.}.+ ; E.tXr.b d H y h.,X6XoXN.-.I.dXdXdXdXdXdXdXdXdXdXdXdXdXdX",
"dXdXdXdXdXdXdXdXdXdXdXdXdXdX: :X9XwXc dXdXdXdXdX..5.k.  | w.X 5.pXaX].y @ X..X$.Z H u o.(.E 2.dXdXdXdXdXdXdXdXdXdXdXdXdX",
"dXdXdXdXdXdXdXdXdXdXdXdX    @X>X:X;X, dXdXdXdXdXK.] !.y e ! - 1XaXsX<X0.$ 4.5X` t ^ l ; U H E.dXdXdXdXdXdXdXdXdXdXdXdXdX",
"dXdXdXdXdXdXdXdXdXdXdXdX    _.).-.(.v dXdXdXdXdX(.t Y.{.k   t 4XaX4XY..X4.>.e.h i i t ] z e W.dXdXdXdXdXdXdXdXdXdXdXdXdX",
"dXdXdXdXdXdXdXdXdXdXdXdXdX    _.I c , dXdXdXdXdXE.^ 4X2X] o 4.pXsXY.t.rXe.j /._.k.' 4 i t j _ dXdXdXdXdXdXdXdXdXdXdXdXdX",
"dXdXdXdXdXdXdXdXdXdXdXdXdXdX  : : : dXdXdXdXdXdX....yXK.X X 0.iXQ.,.4XtXl w.j.(./.-X(.t - e | dXdXdXdXdXdXdXdXdXdXdXdXdX",
"dXdXdXdXdXdXdXdXdXdXdXdXdXdXdX# dXdXdXdXdXdXdXl._ XXpX4.o X Y.XX5.4XaXtX_ Y #.l.m._.,X7.u t.U.dXdXdXdXdXdXdXdXdXdXdXdXdX",
"dXdXdXdXdXdXdXdXdXdXdXdXdXdXdXdXdXdXdXdXdXdXdX7.] yX5X' X l Q.K.4XaXaXtX` 1 D F Q @.A.$.dXdXdXdXdXdXdXdXdXdXdXdXdXdXdXdX",
"dXdXdXdXdXdXdXdXdXdXdXdXdXdXdXdXdXdXdXdXdXdXdXX.!.aXpX2X!.1XtXtXaXaXpXeXE.s Y d } $.} x.dXdXdXdXdXdXdXdXdXdXdXdXdXdXdXdX",
"dXdXdXdXdXdXdXdXdXdXdXdXdXdXdXdXdXdXdXdXdXdX$.l }.<X2XyXaXaXaX.XQ.Q.Q.].K.t Y.].dXdXdXdXdXdXdXdXdXdXdXdXdXdXdXdXdXdXdXdX",
"dXdXdXdXdXdXdXdXdXdXdXdXdXdXdXdXdXdXdXdXdXdXE.t z s x { Y.2XpX5X{.W.Y.4.i X e.dXdXdXdXdXdXdXdXdXdXdXdXdXdXdXdXdXdXdXdXdX",
"dXdXdXdXdXdXdXdXdXdXdXdXdXdXdXdXdXdXdXdXdXdX}.z v.S.D.d.d s 4.(.4XiXpXtX}..._ dXdXdXdXdXdXdXdXdXdXdXdXdXdXdXdXdXdXdXdXdX",
"dXdXdXdXdXdXdXdXdXdXdXdXdXdXdXdXdXdXdXdXdXdX~.Y H.G.H.H.C.a 4 p S ` 4.r.t...! ' <.'.dXdXdXdXdXdXdXdXdXdXdXdXdXdXdXdXdXdX",
"dXdXdXdXdXdXdXdXdXdXdXdXdXdXdXdXdXdXdXdXdXrX$.=.J.c.Z.s.:.U b.d.Q W F 9 k t f u e X.K.dXdXdXdXdXdXdXdXdXdXdXdXdXdXdXdXdX",
"dXdXdXdXdXdXdXdXdXdXdXdXdXdXdXdXdXdXdXdXdXrXo.T &X&XJ.J.G.T *.*.D.%X#XC.9 i 4.~.$.! i 5.dXdXdXdXdXdXdXdXdXdXdXdXdXdXdXdX",
"dXdXdXdXdXdXdXdXdXdXdXdXdXdXdXdXdXdXdXdXdXuXr.=.=X=XJ.J.=X*X*.$ d.%X=X%XR ' X.Q.dXW.j ] w.dXdXdXdXdXdXdXdXdXdXdXdXdXdXdX",
"dXdXdXdXdXdXdXdXdXdXdXdXdXdXdXdXdXdXdXdXdX8X-.F.=X=XJ.=X=XJ.T 5 I :.H.&XC.= f $.1XiXr.t _ dXdXdXdXdXdXdXdXdXdXdXdXdXdXdX",
"dXdXdXdXdXdXdXdXdXdXdXdXdXdXdXdXdXdXdXdXdX[.U J.J.=X=X=X=XJ.p Q g.a.s.H.S.I u 1._ XX1Xk ..4.dXdXdXdXdXdXdXdXdXdXdXdXdXdX",
"dXdXdXdXdXdXdXdXdXdXdXdXdXdXdXdXdXdXdXdXdX^.*.%X=XJ.J.=X=XF.9 =.n.n.v.n.g.a.I k t  .K._ u 5.dXdXdXdXdXdXdXdXdXdXdXdXdXdX",
"dXdXdXdXdXdXdXdXdXdXdXdXdXdXdXdXdXdXdXdXdXq.d.*X=X=XJ.J.J.H.$ R n.n.v.g.+.=.X.dX_ / f _ i (.dXdXdXdXdXdXdXdXdXdXdXdXdXdX",
"dXdXdXdXdXdXdXdXdXdXdXdXdXdXdXdXdXdXdXdXdXdXY Z.=XJ.=X=X=Xb.x 8.D E E Y F a 1.dXdX( h | h ,.c.dXdXdXdXdXdXdXdXdXdXdXdXdX",
"dXdXdXdXdXdXdXdXdXdXdXdXdXdXdXdXdXdXdXdXdXdXi W S.$X$X$XC.a r.W.% 4 d 4 2 4 q.dXdXdXdX  ; ' ' g dXdXdXdXdXdXdXdXdXdXdXdX",
"dXdXdXdXdXdXdXdXdXdXdXdXdXdXdXdXdXdXdXdXdX* * =.g.#XH.f.W p Y.dX` Z 6 2 b 4 <.dXdXdXdXdXdX  dX  dXdXdXdXdXdXdXdXdXdXdXdX",
"dXdXdXdXdXdXdXdXdXdXdXdXdXdXdXdXdXdXdXdXdX. d W =.v.:.=.a.= X.dX8.n 7 6 b 2 ! dXdXdXdXdXdXdXdXdXdXdXdXdXdXdXdXdXdXdXdXdX",
"dXdXdXdXdXdXdXdXdXdXdXdXdXdXdXdXdXdXdXdXdX  g.g.=.Q C.v.*.=.i dXi @ b L A @   dXdXdXdXdXdXdXdXdXdXdXdXdXdXdXdXdXdXdXdXdX",
"dXdXdXdXdXdXdXdXdXdXdXdXdXdXdXdXdXdXdXdXdX  g.n.n.s.W :.d.S 9 dX. 6 1 7 1 b . dXdXdXdXdXdXdXdXdXdXdXdXdXdXdXdXdXdXdXdXdX",
"dXdXdXdXdXdXdXdXdXdXdXdXdXdXdXdXdXdXdXdXdXdX  8 s.n.g.#.q 7 dXdXO i.K u.u.i.. dXdXdXdXdXdXdXdXdXdXdXdXdXdXdXdXdXdXdXdXdX",
"dXdXdXdXdXdXdXdXdXdXdXdXdXdXdXdXdXdXdXdXdXdXdXdX9 F E 0 @ dXdXdXC , y.y.y..   dXdXdXdXdXdXdXdXdXdXdXdXdXdXdXdXdXdXdXdXdX",
"dXdXdXdXdXdXdXdXdXdXdXdXdXdXdXdXdXdXdXdXdXdXdXdXdXd Q D ; dXdXdXdXdX7 : . dXdXdXdXdXdXdXdXdXdXdXdXdXdXdXdXdXdXdXdXdXdXdX",
"dXdXdXdXdXdXdXdXdXdXdXdXdXdXdXdXdXdXdXdXdXdXdXdX+ e l.P % ^ dXdXdXdXdXdXdXdXdXdXdXdXdXdXdXdXdXdXdXdXdXdXdXdXdXdXdXdXdXdX",
"dXdXdXdXdXdXdXdXdXdXdXdXdXdXdXdXdXdXdXdXdXdXdX. 2 k ] ` h 7 ,.dXdXdXdXdXdXdXdXdXdXdXdXdXdXdXdXdXdXdXdXdXdXdXdXdXdXdXdXdX",
"dXdXdXdXdXdXdXdXdXdXdXdXdXdXdXdXdXdXdXdXdXdXdX# 7 4 ! 4 A 4 L.dXdXdXdXdXdXdXdXdXdXdXdXdXdXdXdXdXdXdXdXdXdXdXdXdXdXdXdXdX",
"dXdXdXdXdXdXdXdXdXdXdXdXdXdXdXdXdXdXdXdXdXdXdXdX1 N z A 2 ; P.dXdXdXdXdXdXdXdXdXdXdXdXdXdXdXdXdXdXdXdXdXdXdXdXdXdXdXdXdX",
"dXdXdXdXdXdXdXdXdXdXdXdXdXdXdXdXdXdXdXdXdXdXdXdX> J P J 7 y dXdXdXdXdXdXdXdXdXdXdXdXdXdXdXdXdXdXdXdXdXdXdXdXdXdXdXdXdXdX",
"dXdXdXdXdXdXdXdXdXdXdXdXdXdXdXdXdXdXdXdXdXdXdX3.2 7 b b J 6 dXdXdXdXdXdXdXdXdXdXdXdXdXdXdXdXdXdXdXdXdXdXdXdXdXdXdXdXdXdX",
"dXdXdXdXdXdXdXdXdXdXdXdXdXdXdXdXdXdXdXdXdXdX%.e @ A b A b O ~ dXdXdXdXdXdXdXdXdXdXdXdXdXdXdXdXdXdXdXdXdXdXdXdXdXdXdXdXdX",
"dXdXdXdXdXdXdXdXdXdXdXdXdXdXdXdXdXdXdXdXdXdXZ J 1 1 6 Z 4 n H dXdXdXdXdXdXdXdXdXdXdXdXdXdXdXdXdXdXdXdXdXdXdXdXdXdXdXdXdX",
"dXdXdXdXdXdXdXdXdXdXdXdXdXdXdXdXdXdXdXdXdXdX} p.i.A u.N K i.! dXdXdXdXdXdXdXdXdXdXdXdXdXdXdXdXdXdXdXdXdXdXdXdXdXdXdXdXdX",
"dXdXdXdXdXdXdXdXdXdXdXdXdXdXdXdXdXdXdXdXdXdXe.J z.z.z.z.p.n w dXdXdXdXdXdXdXdXdXdXdXdXdXdXdXdXdXdXdXdXdXdXdXdXdXdXdXdXdX",
"dXdXdXdXdXdXdXdXdXdXdXdXdXdXdXdXdXdXdXdXdXdXdXh 7 A P L 6 h dXdXdXdXdXdXdXdXdXdXdXdXdXdXdXdXdXdXdXdXdXdXdXdXdXdXdXdXdXdX",
"dXdXdXdXdXdXdXdXdXdXdXdXdXdXdXdXdXdXdXdXdXdXdXdX..h ! k _ dXdXdXdXdXdXdXdXdXdXdXdXdXdXdXdXdXdXdXdXdXdXdXdXdXdXdXdXdXdXdX"
};
