/* XPM */
static char *result[] = {
/* columns rows colors chars-per-pixel */
"60 60 213 2 ",
"   c #050305",
".  c #0C0A0B",
"X  c #090606",
"o  c #140C0C",
"O  c #100F11",
"+  c #141213",
"@  c #171719",
"#  c #1B1A1B",
"$  c #1B1615",
"%  c #1B100E",
"&  c #250F0D",
"*  c #261614",
"=  c #241916",
"-  c #241B1B",
";  c #2B1C1A",
":  c #2C1815",
">  c #341412",
",  c #3D1D1C",
"<  c #341A17",
"1  c #20100E",
"2  c #2B211D",
"3  c #34231D",
"4  c #1E1E20",
"5  c #1F2023",
"6  c #242223",
"7  c #2C2524",
"8  c #262729",
"9  c #2B2B2C",
"0  c #2A2826",
"q  c #342A23",
"w  c #352F2C",
"e  c #382824",
"r  c #36322B",
"t  c #383228",
"y  c #2E2E31",
"u  c #322F30",
"i  c #343335",
"p  c #393536",
"a  c #37363A",
"s  c #3B3A3C",
"d  c #383639",
"f  c #4A1D19",
"g  c #4F201C",
"h  c #452825",
"j  c #572421",
"k  c #41352D",
"l  c #4C3D2D",
"z  c #46392C",
"x  c #443C3A",
"c  c #463A35",
"v  c #553C3A",
"b  c #6C2D28",
"n  c #68332E",
"m  c #643935",
"M  c #723E3A",
"N  c #77312B",
"B  c #49402F",
"V  c #43403C",
"C  c #4D463E",
"Z  c #524232",
"A  c #584839",
"S  c #595238",
"D  c #614D39",
"F  c #66573D",
"G  c #72573E",
"H  c #3E3E40",
"J  c #433F41",
"K  c #444344",
"L  c #454449",
"P  c #4B4A4C",
"I  c #4A4746",
"U  c #584C48",
"Y  c #5B5447",
"T  c #4E4E51",
"R  c #555354",
"E  c #595553",
"W  c #5B595B",
"Q  c #585658",
"!  c #534C50",
"~  c #655749",
"^  c #725847",
"/  c #635A54",
"(  c #625B5B",
")  c #6D5E58",
"_  c #70544E",
"`  c #6C6844",
"'  c #736B45",
"]  c #766649",
"[  c #6A655D",
"{  c #68645A",
"}  c #786A57",
"|  c #78704C",
" . c #5E5E61",
".. c #646264",
"X. c #6E6565",
"o. c #666569",
"O. c #6C6B6C",
"+. c #6B6868",
"@. c #7C6C64",
"#. c #746F6D",
"$. c #7B736C",
"%. c #74706E",
"&. c #6D6D70",
"*. c #706F71",
"=. c #747274",
"-. c #7B7A7C",
";. c #787575",
":. c #853630",
">. c #AB453D",
",. c #80574E",
"<. c #89794F",
"1. c #887851",
"2. c #937C54",
"3. c #967B59",
"4. c #806E4A",
"5. c #837364",
"6. c #85786B",
"7. c #827976",
"8. c #8C7568",
"9. c #A3796A",
"0. c #8D8456",
"q. c #9D845A",
"w. c #9B8D5D",
"e. c #9C985F",
"r. c #A9945F",
"t. c #8A827A",
"y. c #978A6D",
"u. c #A48B61",
"i. c #A79963",
"p. c #B69F68",
"a. c #A49276",
"s. c #AAA36B",
"d. c #B6A86C",
"f. c #B7AC71",
"g. c #BBB570",
"h. c #C3B374",
"j. c #CCBC78",
"k. c #C2AB6F",
"l. c #D4C47B",
"z. c #DCCB7D",
"x. c #CCC178",
"c. c #E0D27F",
"v. c #7E7E81",
"b. c #847E80",
"n. c #848385",
"m. c #878789",
"M. c #8B8A8B",
"N. c #8B8685",
"B. c #918E87",
"V. c #9D9588",
"C. c #8E8D91",
"Z. c #959396",
"A. c #9A979B",
"S. c #9C9B9D",
"D. c #969699",
"F. c #A49A86",
"G. c #A69A95",
"H. c #B6A48E",
"J. c #ABA397",
"K. c #B3A993",
"L. c #9D9DA0",
"P. c #A09FA0",
"I. c #A4A3A4",
"U. c #ABAAAC",
"Y. c #A9A7A9",
"T. c #B2ADA7",
"R. c #B2B2B4",
"E. c #B9B9BB",
"W. c #BFBBA8",
"Q. c #C5AD9A",
"!. c #C8B49C",
"~. c #D2B69C",
"^. c #C5B9A5",
"/. c #DAC980",
"(. c #DBD182",
"). c #E4D483",
"_. c #EDDD86",
"`. c #ECDC8A",
"'. c #E8D785",
"]. c #F0DB8A",
"[. c #EEE28B",
"{. c #EFE087",
"}. c #F2E58C",
"|. c #F5E790",
" X c #D8C6AB",
".X c #D9CCB5",
"XX c #D5CCB5",
"oX c #D6CAB3",
"OX c #EDD7BC",
"+X c #EAD1B4",
"@X c #BDBCC1",
"#X c #C3C3C4",
"$X c #CCCCCC",
"%X c #C7C7C8",
"&X c #D2D2D4",
"*X c #D7D7D8",
"=X c #DCDCDD",
"-X c #D8D7DD",
";X c #CECFD0",
":X c #EEDDC4",
">X c #FDE4C4",
",X c #F5E5C9",
"<X c #FEEBCC",
"1X c #F8E5C7",
"2X c #FCEAD1",
"3X c #DFDFE0",
"4X c #E1E1E1",
"5X c #EBEBEC",
"6X c #E7E7E8",
"7X c #EFEFF0",
"8X c #F4F4F5",
"9X c #FEFEFE",
"0X c None",
/* pixels */
"0X0X0X0X0X0X0X0X0X0X0X0X0X0X0X0X0X0X0X0X0X0X0X0X0X0X0X0X0X0X0X0X0X0X0X0X0X0X0X0X0X0X0X0X0X0X0X0X0X0X0X0X0X0X0X0X0X0X0X0X",
"0X0X0X0X0X0X0X0X0X0X0X0X0X0X0X0X0X0X0X0X0X0X0X0X0X0X0X0X0X0X0X0X0X0X0X0X0X0X0X0X0X0X0X0X0X0X0X0X0X0X0X0X0X0X0X0X0X0X0X0X",
"0X0X0X0X0X0X0X0X0X0X0X0X0X0X0X0X0X0X0X0X0X0X0X0X0X0X0X6 9 9 s 0X0X0X0X0X0X0X0X0X0X0X0X0X0X0X0X0X0X0X0X0X0X0X0X0X0X0X0X0X",
"0X0X0X0X0X0X0X0X0X0X0X0X0X0X0X0X0X0X0X0X0X0X0X0X0X0X4 8 i I s 0 0X0X0X0X0X0X0X0X0X0X0X0X0X0X0X0X0X0X0X0X0X0X0X0X0X0X0X0X",
"0X0X0X0X0X0X0X0X0X0X0X0X0X0X0X0X0X0X0X0X0X0X0X0X0Xy i s s K K 9 a 0X0X0X0X0X0X0X0X0X0X0X0X0X0X0X0X0X0X0X0X0X0X0X0X0X0X0X",
"0X0X0X0X0X0X0X0X0X0X0X0X0X0X0X0X0X0X0X0X0X0X0X0Xy y 9 9 6 0 r i s R 0X0X0X0X0X0X0X0X0X0X0X0X0X0X0X0X0X0X0X0X0X0X0X0X0X0X",
"0X0X0X0X0X0X0X0X0X0X0X0X0X0X0X0X0X0X0X0X0X0X0X6 0 s  .0X0XC.L 8 s 9 M.0X0X0X0X0X0X0X0X0X0X0X0X0X0X0X0X0X0X0X0X0X0X0X0X0X",
"0X0X0X0X0X0X0X0X0X0X0X0X0X0X0X0X0X0X0X0X0X0X0X+ s 0X0X0X0X0X0X0XK 6 s 0X0X0X0X0X0X0X0X0X0X0X0X0X0X0X0X0X0X0X0X0X0X0X0X0X",
"0X0X0X0X0X0X0X0X0X0X0X0X0X0X0X0X0X0X0X0X0X0X0X# 0X0X0X0X0X0X0X0X0Xi + 0X0X0X0X0X0X0X0X0X0X0X0X0X0X0X0X0X0X0X0X0X0X0X0X0X",
"0X0X0X0X0X0X0X0X0X0X0X0X0X0X0X0X0X0X0X0X0X0X@ # 0X0X0X0X0X0X0X0X0X9 + 0X0X0X0X0X0X0X0X0X0X0X0X0X0X0X0X0X0X0X0X0X0X0X0X0X",
"0X0X0X0X0X0X0X0X0X0X0X0X0X0X0X0X0X0X0X0X0X0X0X6 0X0X0X0X0X0X0X0X0X# a 0X0XX.{ E n.0X0X0X0X0X0X0X0X0X0X0X0X0X0X0X0X0X0X0X",
"0X0X0X0X0X0X0X0X0X0X0X0X0X0X0X0X0X0X0X0X0X0X0XX s n...S.0XZ.o.*.a   9 -.E H.,X^.$.%.L.I.U.0X0X0X0X0X0X0X0X0X0X0X0X0X0X0X",
"0X0X0X0X0X0X0X0X0X0X0X0X0X0X0X0X0X0X0X0X0X0X0X@ 8 9 =.$Xn.%Xn.# 8 # @ t..X>X+X~.,XH.6 6 s W &X0X0X0X0X0X0X0X0X0X0X0X0X0X",
"0X0X0X0X0X0X0X0X0X0X0X0X0X0X0X0X0X0X0X0X0X0X0X# $ + ..Z.R.S.=.p + O 7 / H.>X^.D !.T.8 P L # S.0X0X0X0X0X0X0X0X0X0X0X0X0X",
"0X0X0X0X0X0X0X0X0X0X0X0X0X0X0X0X0X0X0X0X0X0X0Xd : 5.A.[ ~ } J.J.w i J.^.~..X5.c c u 9 a a 6 I.0X0X0X0X0X0X0X0X0X0X0X0X0X",
"0X0X0X0X0X0X0X0X0X0X0X0X0X0X0X0X0X0X0X0X0X0XW I q F.2X~.K.1X2X Xt K .X>X<Xa.C S.d y L P + Y { Z.5X0X0X0X0X0X0X0X0X0X0X0X",
"0X0X0X0X0X0X0X0X0X0X0X0X0X0X0X0X0X0X0X0X{ H.!.XXF.V ^.^.y.Q..XE $ - 6.,X<X9.7.0XE.R + ; ^ oX.X[ S.0X0X0X0X0X0X0X0X0X0X0X",
"0X0X0X0X0X0X0X0X0X0X0X0X0X0X0X0X0X0X0Xx $.{ V.,XoX# p a.F.7.A . ..! c :XOX_ n.0X0X;XJ 8. XOX.XY S.0X0X0X0X0X0X0X0X0X0X0X",
"0X0X0X0X0X0X0X0X0X0X0X0X0X0X0X0X+.p {  XK.[ [ Y. X2 X $ l } C   o.-.p ~._ E ;X0X0X0Xo.@.8.{ t.I =X0X0X0X0X0X0X0X0X0X0X0X",
"0X0X0X0X0X0X0X0X0X0X0X0X0X0X0XE V E W.K.N.;.$.E S - V . * _ v   a N.; h ) 0X0X0X0X0XE.U 3 T X.-.8X0X0X0X0X0X0X0X0X0X0X0X",
"0X0X0X0X0X0X0X0X0X0X0X0X( 6.K.XX@.%.$.7.@.$.q = o h A.i . v h X 5 L.c - R.0X0X0X0X0X0X&XR.-.M.4X0X0X0X0X0X0X0X0X0X0X0X0X",
"0X0X0X0X0X0X0X0X0X0X0Xn.) :X>X<XQ.D J ) ) ; h < - B.5X;.. W N.p . =.b.7 #X0X0X0X0X0X0X0X0X0X0X0X0X0X0X0X0X0X0X0X0X0X0X0X",
"0X0X0X0X0X0X0X0X0X0X0XQ @.<XOX+XQ.h x x ! *.u e Z.8X9X$Xd . *.C.X 8 Y.W @X0X0X0X0X0X0X0X0X0X0X0X0X0X0X0X0X0X0X0X0X0X0X0X",
"0X0X0X0X0X0X0X0X0X0X0X-./ G.~ 8._ B.=X*X0X8X*.O.5X9X9X9XU.- o p X + v...*X0X0X0X0X0X0X0X0X0X0X0X0X0X0X0X0X0X0X0X0X0X0X0X",
"0X0X0X0X0X0X0X0X0X0X0X%X..I K ..U.0X0X0X0X0XU.a n.=X9X9X9XY.9 X   + H S.0X0X0X0X0X0X0X0X0X0X0X0X0X0X0X0X0X0X0X0X0X0X0X0X",
"0X0X0X0X0X0X0X0X0X0X0X0X0X0X0X0X0X0X0X0X0X0X5XL J -.-X9X6X#XY.Y.=.@ + ..*X0X0X0X0X0X0X0X0X0X0X0X0X0X0X0X0X0X0X0X0X0X0X0X",
"0X0X0X0X0X0X0X0X0X0X0X0X0X0X0X0X0X0X0X0X0X0X@Xy o.n.o.&.=.v.;X9X*Xa + O W 0X0X0X0X0X0X0X0X0X0X0X0X0X0X0X0X0X0X0X0X0X0X0X",
"0X0X0X0X0X0X0X0X0X0X0X0X0X0X0X0X0X0X0X0X0X$XH  ...n.I.Y.&X8X9X9X7X .X . 8 0X0X0X0X0X0X0X0X0X0X0X0X0X0X0X0X0X0X0X0X0X0X0X",
"0X0X0X0X0X0X0X0X0X0X0X0X0X0X0X0X0X0X0X0X3X..T 4X8X8X9X9X9X9X9X9X9XP.i Q W 0X0X0X0X0X0X0X0X0X0X0X0X0X0X0X0X0X0X0X0X0X0X0X",
"0X0X0X0X0X0X0X0X0X0X0X0X0X0X0X0X0X0X0X#X .&. .%X9X9X9X9X9X9X%XS.-X5X=.S.&X0X0X0X0X0X0X0X0X0X0X0X0X0X0X0X0X0X0X0X0X0X0X0X",
"0X0X0X0X0X0X0X0X0X0X0X0X0X0X0X0X0X0X0XU.i R.Y.W A.&X7X9X9X9X5XD.O.m.C.T T W 5 i H L 0X0X0X0X0X0X0X0X0X0X0X0X0X0X0X0X0X0X",
"0X0X0X0X0X0X0X0X0X0X0X0X0X0X0X0X0X0X0X*XH P &XE.Q T &.m.XX3X9X9X4XL.;.P 4 I R 0XI K J 6 0X0X0X0X0X0X0X0X0X0X0X0X0X0X0X0X",
"0X0X0X0X0X0X0X0X0X0X0X0X0X0X0X0X0X0X0XE.V Z [ #X=X&XR.J.S.P.8X8X-X@Xm.i K 0X0X0X0X0XT @ 9 0X0X0X0X0X0X0X0X0X0X0X0X0X0X0X",
"0X0X0X0X0X0X0X0X0X0X0X0X0X0X0X0X0X0X0Xn.z h.] k X.-.C.R.R.m.;. .J H # @ E.0X0X0X0X0XW 8 8 y s 0X0X0X0X0X0X0X0X0X0X0X0X0X",
"0X0X0X0X0X0X0X0X0X0X0X0X0X0X0X0X0X0X3X{ i.c.' Z l 3 @ r p Y ` S 6 P 7 8 M.0X0X0XD.Q 9 R 0 0X0X0X0X0X0X0X0X0X0X0X0X0X0X0X",
"0X0X0X0X0X0X0X0X0X0X0X0X0X0X0X0X0X0XM.| [.c.x.d.s.e.` g.' w.| i.1.l 7 R i y o.s L P y 0X0X0X0X0X0X0X0X0X0X0X0X0X0X0X0X0X",
"0X0X0X0X0X0X0X0X0X0X0X0X0X0X0X0X0X0XT S [._.{.}.|.x.S ` t S d.[.`.l.| e 8 9 R i s H 0X0X0X0X0X0X0X0X0X0X0X0X0X0X0X0X0X0X",
"0X0X0X0X0X0X0X0X0X0X0X0X0X0X0X0X0X0XS.t z.{.(.d.1.S B 2 G h.}.{.`.].[.' *.U.S.0X0X0X0X0X0X0X0X0X0X0X0X0X0X0X0X0X0X0X0X0X",
"0X0X0X0X0X0X0X0X0X0X0X0X0X0X0X0X0X0X0Xq (.'.i.1.0.1.3.e 2.}.[._.z.j.'.F Z.0X0X0X0X0X0X0X0X0X0X0X0X0X0X0X0X0X0X0X0X0X0X0X",
"0X0X0X0X0X0X0X0X0X0X0X0X0X0X0X0X0X0X0Xr h.`.'.[.p.q.^ l (.{.`.`.).1.2.k ;X0X0X0X0X0X0X0X0X0X0X0X0X0X0X0X0X0X0X0X0X0X0X0X",
"0X0X0X0X0X0X0X0X0X0X0X0X0X0X0X0X0X0X0XO.B h.[.(.r.2.3 0.|.c.c.{.|.s.l R 6X0X0X0X0X0X0X0X0X0X0X0X0X0X0X0X0X0X0X0X0X0X0X0X",
"0X0X0X0X0X0X0X0X0X0X0X0X0X0X0X0X0X0X0X0XE l q.k.d.B 3 x.|.}.c.d.l.f.q M.0X0X0X0X0X0X0X0X0X0X0X0X0X0X0X0X0X0X0X0X0X0X0X0X",
"0X0X0X0X0X0X0X0X0X0X0X0X0X0X0X0X0X0X0X0X0X+.c A A u 3 w.{.{.{.d.0.2.r R.0X0X0X0X0X0X0X0X0X0X0X0X0X0X0X0X0X0X0X0X0X0X0X0X",
"0X0X0X0X0X0X0X0X0X0X0X0X0X0X0X0X0X0X0X0X0X0X$X$X;X%Xp 3 w.{.{.{.z.z.0.O.6X0X0X0X0X0X0X0X0X0X0X0X0X0X0X0X0X0X0X0X0X0X0X0X",
"0X0X0X0X0X0X0X0X0X0X0X0X0X0X0X0X0X0X0X0X0X0X0X0X0X0XO.Z S 0.c._._.}.g.e $X0X0X0X0X0X0X0X0X0X0X0X0X0X0X0X0X0X0X0X0X0X0X0X",
"0X0X0X0X0X0X0X0X0X0X0X0X0X0X0X0X0X0X0X0X0X0X0X0X0X0XU.w q.p.z._._.}.f.0 Z.0X0X0X0X0X0X0X0X0X0X0X0X0X0X0X0X0X0X0X0X0X0X0X",
"0X0X0X0X0X0X0X0X0X0X0X0X0X0X0X0X0X0X0X0X0X0X0X0X0X0XS.= ^ j.`._.{._.[.` ; ( 0X0X0X0X0X0X0X0X0X0X0X0X0X0X0X0X0X0X0X0X0X0X",
"0X0X0X0X0X0X0X0X0X0X0X0X0X0X0X0X0X0X0X0X0X0X0X0X0X0XE D A ^ /.`._.c.p.F 4.C 0X0X0X0X0X0X0X0X0X0X0X0X0X0X0X0X0X0X0X0X0X0X",
"0X0X0X0X0X0X0X0X0X0X0X0X0X0X0X0X0X0X0X0X0X0X0X0X0X0X0XY ^ ] f.(.}.l.u.u.' I 0X0X0X0X0X0X0X0X0X0X0X0X0X0X0X0X0X0X0X0X0X0X",
"0X0X0X0X0X0X0X0X0X0X0X0X0X0X0X0X0X0X0X0X0X0X0X0X0X0X0X0X;.( B ` e.0.Y C +.0X0X0X0X0X0X0X0X0X0X0X0X0X0X0X0X0X0X0X0X0X0X0X",
"0X0X0X0X0X0X0X0X0X0X0X0X0X0X0X0X0X0X0X0X0X0X0X0X0X0X0X0X0X0Xp e & ! R.%X0X0X0X0X0X0X0X0X0X0X0X0X0X0X0X0X0X0X0X0X0X0X0X0X",
"0X0X0X0X0X0X0X0X0X0X0X0X0X0X0X0X0X0X0X0X0X0X0X0X0X0X0X0X0X; - 5.z - E Y.0X0X0X0X0X0X0X0X0X0X0X0X0X0X0X0X0X0X0X0X0X0X0X0X",
"0X0X0X0X0X0X0X0X0X0X0X0X0X0X0X0X0X0X0X0X0X0X0X0X0X0X0X0Xs * $ 4 7 ; > =.0X0X0X0X0X0X0X0X0X0X0X0X0X0X0X0X0X0X0X0X0X0X0X0X",
"0X0X0X0X0X0X0X0X0X0X0X0X0X0X0X0X0X0X0X0X0X0X0X0X0X0X0X0X0X+ & - * * 7 R.0X0X0X0X0X0X0X0X0X0X0X0X0X0X0X0X0X0X0X0X0X0X0X0X",
"0X0X0X0X0X0X0X0X0X0X0X0X0X0X0X0X0X0X0X0X0X0X0X0X0X0X0X0X*.o f b N f p -X0X0X0X0X0X0X0X0X0X0X0X0X0X0X0X0X0X0X0X0X0X0X0X0X",
"0X0X0X0X0X0X0X0X0X0X0X0X0X0X0X0X0X0X0X0X0X0X0X0X0X0X0X0XR f > > > f : -.=X0X0X0X0X0X0X0X0X0X0X0X0X0X0X0X0X0X0X0X0X0X0X0X",
"0X0X0X0X0X0X0X0X0X0X0X0X0X0X0X0X0X0X0X0X0X0X0X0X0X0X0X0X7 , & & & * , , +.0X0X0X0X0X0X0X0X0X0X0X0X0X0X0X0X0X0X0X0X0X0X0X",
"0X0X0X0X0X0X0X0X0X0X0X0X0X0X0X0X0X0X0X0X0X0X0X0X0X0X0XL.h >.:.g b j N j ( 0X0X0X0X0X0X0X0X0X0X0X0X0X0X0X0X0X0X0X0X0X0X0X",
"0X0X0X0X0X0X0X0X0X0X0X0X0X0X0X0X0X0X0X0X0X0X0X0X0X0X0XS.u m m M M n m , &.8X0X0X0X0X0X0X0X0X0X0X0X0X0X0X0X0X0X0X0X0X0X0X",
"0X0X0X0X0X0X0X0X0X0X0X0X0X0X0X0X0X0X0X0X0X0X0X0X0X0X0X0Xv.H 9 s H 8 8 y Z.0X0X0X0X0X0X0X0X0X0X0X0X0X0X0X0X0X0X0X0X0X0X0X"
};
