/* XPM */
static char *result[] = {
/* columns rows colors chars-per-pixel */
"60 60 205 2 ",
"   c #040405",
".  c #0D0B0C",
"X  c #140D0C",
"o  c #1B0E0D",
"O  c #100605",
"+  c #15120E",
"@  c #0E0E11",
"#  c #100F10",
"$  c #141213",
"%  c #1A1514",
"&  c #171719",
"*  c #181719",
"=  c #1C1B1C",
"-  c #1D1915",
";  c #231A14",
":  c #221D1C",
">  c #2C1C18",
",  c #351A15",
"<  c #26221D",
"1  c #2E261F",
"2  c #37241C",
"3  c #1F1E20",
"4  c #211F21",
"5  c #232223",
"6  c #2A2422",
"7  c #2D2A25",
"8  c #262629",
"9  c #2C2B2D",
"0  c #292729",
"q  c #3C2D23",
"w  c #332D2C",
"e  c #3C2E2C",
"r  c #332625",
"t  c #3B3324",
"y  c #3D342B",
"u  c #39352B",
"i  c #2E2E31",
"p  c #302F30",
"a  c #2F3032",
"s  c #333335",
"d  c #3B3A3C",
"f  c #393636",
"g  c #481D1A",
"h  c #4F231F",
"j  c #462924",
"k  c #4C322B",
"l  c #45392C",
"z  c #423E36",
"x  c #473B37",
"c  c #563C36",
"v  c #513128",
"b  c #603F33",
"n  c #55422F",
"m  c #4C4337",
"M  c #534435",
"N  c #5D4D39",
"B  c #574936",
"V  c #5D543C",
"C  c #44412D",
"Z  c #634939",
"A  c #6C513D",
"S  c #665C3E",
"D  c #64533B",
"F  c #70513F",
"G  c #3E3D41",
"H  c #403F41",
"J  c #3F4042",
"K  c #444344",
"L  c #4C4543",
"P  c #494846",
"I  c #464549",
"U  c #4B4A4C",
"Y  c #49474B",
"T  c #554C42",
"R  c #514C4C",
"E  c #594C46",
"W  c #5B534B",
"Q  c #545355",
"!  c #5A5653",
"~  c #5F5955",
"^  c #59575C",
"/  c #5C5B5C",
"(  c #565659",
")  c #4D4D51",
"_  c #7C4E40",
"`  c #6C5943",
"'  c #615449",
"]  c #715B43",
"[  c #7B5D42",
"{  c #745347",
"}  c #645A54",
"|  c #695A5A",
" . c #604B4A",
".. c #746747",
"X. c #7C6C4D",
"o. c #786949",
"O. c #66625B",
"+. c #7A6556",
"@. c #7C744D",
"#. c #605E64",
"$. c #636264",
"%. c #6A6561",
"&. c #6A696B",
"*. c #686668",
"=. c #736A63",
"-. c #766D68",
";. c #7C7468",
":. c #6D6C70",
">. c #747375",
",. c #787779",
"<. c #7D7C7D",
"1. c #7B7475",
"2. c #826A4B",
"3. c #896148",
"4. c #856A55",
"5. c #906450",
"6. c #867B54",
"7. c #937A55",
"8. c #87724D",
"9. c #867968",
"0. c #877B74",
"q. c #8D6D67",
"w. c #8A8154",
"e. c #9D815B",
"r. c #9A8C59",
"t. c #A4855D",
"y. c #A48A5E",
"u. c #A6935F",
"i. c #8B857B",
"p. c #93867B",
"a. c #9B8878",
"s. c #9D8662",
"d. c #AB8C67",
"f. c #A49863",
"g. c #B99D6B",
"h. c #B3A66C",
"j. c #D7997D",
"k. c #C6B776",
"l. c #C1AB72",
"z. c #D3C37E",
"x. c #7F7F83",
"c. c #838284",
"v. c #878688",
"b. c #8C8B8C",
"n. c #8F8F90",
"m. c #918F92",
"M. c #939294",
"N. c #969599",
"B. c #9C9B9D",
"V. c #9D938A",
"C. c #A79985",
"Z. c #B5978D",
"A. c #B8A58E",
"S. c #ABA296",
"D. c #B7A995",
"F. c #BCB19D",
"G. c #9D9CA3",
"H. c #A09FA3",
"J. c #A6A5AA",
"K. c #AAAAAB",
"L. c #A5A4A5",
"P. c #B9B1A3",
"I. c #AFAFB2",
"U. c #B2B2B3",
"Y. c #BBBBBC",
"T. c #B9B7B5",
"R. c #D4A894",
"E. c #C6AF97",
"W. c #E9B89E",
"Q. c #C2BBA4",
"!. c #C9BDA9",
"~. c #D4B8A5",
"^. c #D6CA81",
"/. c #DCD385",
"(. c #E6D787",
"). c #F0DD8B",
"_. c #F2E28C",
"`. c #F5E591",
"'. c #D6C5AE",
"]. c #D8CAB3",
"[. c #CDC4B1",
"{. c #EAD8BD",
"}. c #BEBEC1",
"|. c #C2C2C4",
" X c #CBCBCC",
".X c #C7C6C8",
"XX c #DDD6C4",
"oX c #CFCFD1",
"OX c #D3D3D4",
"+X c #DADADB",
"@X c #D5D4DA",
"#X c #EEDDC3",
"$X c #E4D7C4",
"%X c #F9E6C9",
"&X c #F6E9D1",
"*X c #EFE7C9",
"=X c #DFDFE0",
"-X c #E4E3E4",
";X c #ECECED",
":X c #E8E7EC",
">X c #EFEFF0",
",X c #F2F2F2",
"<X c #FEFEFE",
"1X c #F7F8F8",
"2X c None",
/* pixels */
"2X2X2X2X2X2X2X2X2X2X2X2X2X2X2X2X2X2X2X2X2X2X2X2X2X2X2X2X2X2X2X2X2X2X2X2X2X2X2X2X2X2X2X2X2X2X2X2X2X2X2X2X2X2X2X2X2X2X2X2X",
"2X2X2X2X2X2X2X2X2X2X2X2X2X2X2X2X2X2X2X2X2X2X2X2X2X2X2X2X2X2X2X2X2X2X2X2X2X2X2X2X2X2X2X2X2X2X2X2X2X2X2X2X2X2X2X2X2X2X2X2X",
"2X2X2X2X2X2X2X2X2X2X2X2X2X2X2X2X2X2X2X2X2X2X2X2X2X2X2X2X2X2X>X2X2X2X2X2X2X2X2X2X2X2X2X2X2X2X2X2X2X2X2X2X2X2X2X2X2X2X2X2X",
"2X2X2X2X2X2X2X2X2X2X2X2X2X2X2X2X2X2X2X2X2X2X2X2X2X2X2X:XY.>.>.v.Y.2X2X2X2X2X2X2X2X2X2X2X2X2X2X2X2X2X2X2X2X2X2X2X2X2X2X2X",
"2X2X2X2X2X2X2X2X2X2X2X2X2X2X2X2X2X2X2X2X2X2X2X2X2X2X.X&.d 9 5 9 f &.2X2X2X2X2X2X2X2X2X2X2X2X2X2X2X2X2X2X2X2X2X2X2X2X2X2X",
"2X2X2X2X2X2X2X2X2X2X2X2X2X2X2X2X2X2X2X2X2X2X2X2X2X|.d 5 d 9 G I I i K 2X2X2X2X2X2X2X2X2X2X2X2X2X2X2X2X2X2X2X2X2X2X2X2X2X",
"2X2X2X2X2X2X2X2X2X2X2X2X2X2X2X2X2X2X2X2X2X2X2X2XOXJ $ d a a I P d 9 i K 2X2X2X2X2X2X2X2X2X2X2X2X2X2X2X2X2X2X2X2X2X2X2X2X",
"2X2X2X2X2X2X2X2X2X2X2X2X2X2X2X2X2X2X2X2X2X2X2X+XI   9 I a m P d 5 f P 8 ( 2X2X2X2X2X2X2X2X2X2X2X2X2X2X2X2X2X2X2X2X2X2X2X",
"2X2X2X2X2X2X2X2X2X2X2X2X2X2X2X2X2X2X2X2X2X2X2X|.8 & d m a I J 5 d I J a 5 2X2X2X2X2X2X2X2X2X2X2X2X2X2X2X2X2X2X2X2X2X2X2X",
"2X2X2X2X2X2X2X2X2X2X2X2X2X2X2X2X2X2X2X2X-X X.XM.i * i J a J d 8 m P 8 3 i 2X2X2X2X2X2X2X2X2X2X2X2X2X2X2X2X2X2X2X2X2X2X2X",
"2X2X2X2X2X2X2X2X2X2X2X2X2X2X2X2X2X2X2XK.=.%.! i 5 = = d s P d s I d $ f i 2X2X2X2X2X2X2X2X2X2X2X2X2X2X2X2X2X2X2X2X2X2X2X",
"2X2X2X2X2X2X2X2X2X2X2X2X2X2X2X2X2X2X XO.D.{.#XS.< 0 $ 5 w P J d 3 @ = J s 2X2X2X2X2X2X2X2X2X2X2X2X2X2X2X2X2X2X2X2X2X2X2X",
"2X2X2X2X2X2X2X2X2X2X2X2X2X2X2X2X2X2XM.=.&X%X%X'.: = 3 - < d s & . < 9 5 v.2X2X2X2X2X2X2X2X2X2X2X2X2X2X2X2X2X2X2X2X2X2X2X",
"2X2X2X2X2X2X2X2X2X2X2X2X2X2X2X2X2X2Xz < ! S.%XP.5 . & * $ $ $ = i p = &.;X2X2X2X2X2X2X2X2X2X2X2X2X2X2X2X2X2X2X2X2X2X2X2X",
"2X2X2X2X2X2X2X2X2X2X2X2X2X2X2X2XM.p # 0 d 0 ! ! >.m t - - = 3 3 5 $ . <.<X:XB.B.2X2X2X2X2X2X2X2X2X2X2X2X2X2X2X2X2X2X2X2X",
"2X2X2X2X2X2X2X2X2X2X2X2X2X2X2X2X= 5 @ 4 0 5 5 U.U.9 ..B t V < u - 2 X 9 :.Q %.p.%.U.2X2X2X2X2X2X2X2X2X2X2X2X2X2X2X2X2X2X",
"2X2X2X2X2X2X2X2X2X2X2X2X2X2X2X2X. ; +.p.9 * <.|.$.w : t T 8.t V e 1 X r L p.v.Z.C.p N.2X2X2X2X2X2X2X2X2X2X2X2X2X2X2X2X2X",
"2X2X2X2X2X2X2X2X2X2X2X2X2X2X2X2X9 i.XXC.7 = ! p.-.r ^ 4 @ + % . H #.% } A.S.!.q.Z. .H oX2X2X2X2X2X2X2X2X2X2X2X2X2X2X2X2X",
"2X2X2X2X2X2X2X2X2X2X2X2X2X2X2X2X| !.9.9.4.| [.#X;.> B.B.Q w w ^ }.>., C.R.c [.#XW.~.=.M.2X2X2X2X2X2X2X2X2X2X2X2X2X2X2X2X",
"2X2X2X2X2X2X2X2X2X2X2X2X2X2X2X$.0.E.A.#X'.#X&X!.j k }.<X;X=X-X,X1X0., d.R.Z  .~.#X%XP.W oX2X2X2X2X2X2X2X2X2X2X2X2X2X2X2X",
"2X2X2X2X2X2X2X2X2X2X2X2X2X2X2XR +.R.E.S.A.!.$X-.g | ;X<X<X<X<X<X1X1.> 3.5.k & l E D.%X0.%.2X2X2X2X2X2X2X2X2X2X2X2X2X2X2X",
"2X2X2X2X2X2X2X2X2X2X2X2X2X2X2X2Xm { Z c c z c , , | ,X<X<X<X<XOX:X,.g b q d K.}.#.x [.$X' N.2X2X2X2X2X2X2X2X2X2X2X2X2X2X",
"2X2X2X2X2X2X2X2X2X2X2X2X2X2X2X2X2X2X2XN.I. XK.P o 1.<X<X<X<X<XM.G.oX| h o >.2X2X2Xb.} XX[.W 2X2X2X2X2X2X2X2X2X2X2X2X2X2X",
"2X2X2X2X2X2X2X2X2X2X2X2X2X2X2X2X2X2X2X2X2X2X<X Xf m.<X<X<X<X<X+Xx.!.+XE O >.2X2X2X2Xb.9.*XD.O.2X2X2X2X2X2X2X2X2X2X2X2X2X",
"2X2X2X2X2X2X2X2X2X2X2X2X2X2X2X2X2X2X2X2X2X2X2X<X0.$.>X<X<X<X<X<X.X*.U.G.9 c.2X2X2X2X2X} '.*X1.2X2X2X2X2X2X2X2X2X2X2X2X2X",
"2X2X2X2X2X2X2X2X2X2X2X2X2X2X2X2X2X2X2X2X2X2X2X<Xb.G @X1X<X<X<X<X<XI.) H.Q n.2X2X2X2X2X*.XXa.T.2X2X2X2X2X2X2X2X2X2X2X2X2X",
"2X2X2X2X2X2X2X2X2X2X2X2X2X2X2X2X2X2X2X2X2X2X2X2XI.I J.:X<X<X-X+X<X1XH.H I OX2X2X2X2X2X' a.l Q.].2X2X2X2X2X2X2X2X2X2X2X2X",
"2X2X2X2X2X2X2X2X2X2X2X2X2X2X2X2X2X2X2X2X2X2X2X,X|.s x.}.,X<X@X,.Y.<X<XH.I  X2X2X2X2X&.T q u 4.E.0.2X2X2X2X2X2X2X2X2X2X2X",
"2X2X2X2X2X2X2X2X2X2X2X2X2X2X2X2X2X2X2X2X2X2X2X@X>.i :.&. X<X<XOXc.K.,X XP <.2X2X2X2X~ E E } Z F k 2X2X2X2X2X2X2X2X2X2X2X",
"2X2X2X2X2X2X2X2X2X2X2X2X2X2X2X2X2X2X2X2X2X2X2X#.^ J..XOX,X<X<X<X-Xn.H. XH >.2X2X2X2X2X2X2Xc , 2X2X2X2X2X2X2X2X2X2X2X2X2X",
"2X2X2X2X2X2X2X2X2X2X2X2X2X2X2X2X2X2X2X2X2X2XK.H Y.<X<X<X,X>X;X;X;X=X}.;Xb.( 2X2X2X2X2X2X2X2X2X2X2X2X2X2X2X2X2X2X2X2X2X2X",
"2X2X2X2X2X2X2X2X2X2X2X2X2X2X2X2X2X2X2X2XJ.&.I M.}.K.m.>.^ P H m L L ) x.|.$.M.2X2X2X2X2X2X2X2X2X2X2X2X2X2X2X2X2X2X2X2X2X",
"2X2X2X2X2X2X2X2X2X2X2X2X2X2X2X2X2X2X*.^ i & 8 G s = c [ 6.w.r.y.u.f.u.n R c.K 2X2X2X2X2X2X2X2X2X2X2X2X2X2X2X2X2X2X2X2X2X",
"2X2X2X2X2X2X2X2X2X2X2X2X2X2X2X2X2X( 9 d &.B.*.0 6 w.^.k.z._._.).z.`.`.z.o.w f 2X2X2X2X2X2X2X2X2X2X2X2X2X2X2X2X2X2X2X2X2X",
"2X2X2X2X2X2X2X2X2X2X2X2X2X2X2X2X$.i d J.>XM.I d S /.^.f.@.w.z.).`.z.z.z.f.u B.2X2X2X2X2X2X2X2X2X2X2X2X2X2X2X2X2X2X2X2X2X",
"2X2X2X2X2X2X2X2X2X2X2X2X2X2X2X2XQ i v.2XN.( i * u l T o.u.@.M w.h.r...S e.V n.2X2X2X2X2X2X2X2X2X2X2X2X2X2X2X2X2X2X2X2X2X",
"2X2X2X2X2X2X2X2X2X2X2X2X2X2X2X2Xi I N.:.d P r ` l * d 5 q S ; X C D 3.t.e.l K.2X2X2X2X2X2X2X2X2X2X2X2X2X2X2X2X2X2X2X2X2X",
"2X2X2X2X2X2X2X2X2X2X2X2X2X2X2X2Xf U d ^ 4 . F B $ 9 i * o M - n r.u.t.t.D O.2X2X2X2X2X2X2X2X2X2X2X2X2X2X2X2X2X2X2X2X2X2X",
"2X2X2X2X2X2X2X2X2X2X2X2X2X2X2XI d ^ d ) 4 l 8.> = 0 5 = - t + Z y.t.t.t.l U 2X2X2X2X2X2X2X2X2X2X2X2X2X2X2X2X2X2X2X2X2X2X",
"2X2X2X2X2X2X2X2X2X2X2X2X2X2XU K ) 2X2X2XP [ 2.$ 5 3 5 * k Z   C y.y.t.7.8.1 2X2X2X2X2X2X2X2X2X2X2X2X2X2X2X2X2X2X2X2X2X2X",
"2X2X2X2X2X2X2X2X2X2X2X2X2X2X2X2X2X2X2X2X) Z N 4 8 = 8 = A N   - ` [ m o.h.7 2X2X2X2X2X2X2X2X2X2X2X2X2X2X2X2X2X2X2X2X2X2X",
"2X2X2X2X2X2X2X2X2X2X2X2X2X2X2X2X2X2X2X2Xn.< % : 3 5 4 $ ` m / < D l ..k./.C 2X2X2X2X2X2X2X2X2X2X2X2X2X2X2X2X2X2X2X2X2X2X",
"2X2X2X2X2X2X2X2X2X2X2X2X2X2X2X2X2X2X2X2X2X/ & 5 = 5 = $ l b.n.& [ t.y.(.^.z 2X2X2X2X2X2X2X2X2X2X2X2X2X2X2X2X2X2X2X2X2X2X",
"2X2X2X2X2X2X2X2X2X2X2X2X2X2X2X2X2X2X2X2X2XK 5 4 8 p * . &.-X&.V B 7.h.).z.P 2X2X2X2X2X2X2X2X2X2X2X2X2X2X2X2X2X2X2X2X2X2X",
"2X2X2X2X2X2X2X2X2X2X2X2X2X2X2X2X2X2X2X2X2XI 8 i s s $ Y +XOX) X.6.` /.).k.t O.2X2X2X2X2X2X2X2X2X2X2X2X2X2X2X2X2X2X2X2X2X",
"2X2X2X2X2X2X2X2X2X2X2X2X2X2X2X2X2X2X2X2X2X2X= K d 9 3 B.2X/ ; M k.h.k.g.u.w.B 2X2X2X2X2X2X2X2X2X2X2X2X2X2X2X2X2X2X2X2X2X",
"2X2X2X2X2X2X2X2X2X2X2X2X2X2X2X2X2X2X2X2X2X2XK I s 0 x.2X2Xv.y B s...` X.o.h.t 2X2X2X2X2X2X2X2X2X2X2X2X2X2X2X2X2X2X2X2X2X",
"2X2X2X2X2X2X2X2X2X2X2X2X2X2X2X2X2X2X2X2X2X2X2X2X2X2X2X2X2X2X/ r ` 2.s.X.B ' / 2X2X2X2X2X2X2X2X2X2X2X2X2X2X2X2X2X2X2X2X2X",
"2X2X2X2X2X2X2X2X2X2X2X2X2X2X2X2X2X2X2X2X2X2X2X2X2X2X2X2X2X2Xm $ = 4 c q : 2X2X2X2X2X2X2X2X2X2X2X2X2X2X2X2X2X2X2X2X2X2X2X",
"2X2X2X2X2X2X2X2X2X2X2X2X2X2X2X2X2X2X2X2X2X2X2X2X2X2X2X2X2X2XQ 2 j j r o g E 2X2X2X2X2X2X2X2X2X2X2X2X2X2X2X2X2X2X2X2X2X2X",
"2X2X2X2X2X2X2X2X2X2X2X2X2X2X2X2X2X2X2X2X2X2X2X2X2X2X2X2X2X2X2X# 8 e l % h j 2X2X2X2X2X2X2X2X2X2X2X2X2X2X2X2X2X2X2X2X2X2X",
"2X2X2X2X2X2X2X2X2X2X2X2X2X2X2X2X2X2X2X2X2X2X2X2X2X2X2X2X2X2X2X$ = w P 4 h 6 2X2X2X2X2X2X2X2X2X2X2X2X2X2X2X2X2X2X2X2X2X2X",
"2X2X2X2X2X2X2X2X2X2X2X2X2X2X2X2X2X2X2X2X2X2X2X2X2X2X2X2X2X2X^ 5 J J Y I r o 2X2X2X2X2X2X2X2X2X2X2X2X2X2X2X2X2X2X2X2X2X2X",
"2X2X2X2X2X2X2X2X2X2X2X2X2X2X2X2X2X2X2X2X2X2X2X2X2X2X2X2X2X2X( * m I K d : & 2X2X2X2X2X2X2X2X2X2X2X2X2X2X2X2X2X2X2X2X2X2X",
"2X2X2X2X2X2X2X2X2X2X2X2X2X2X2X2X2X2X2X2X2X2X2X2X2X2X2X2X2X2X^ * 3 s i 9 9 2X2X2X2X2X2X2X2X2X2X2X2X2X2X2X2X2X2X2X2X2X2X2X",
"2X2X2X2X2X2X2X2X2X2X2X2X2X2X2X2X2X2X2X2X2X2X2X2X2X2X2X2X2X2X2X2XG G s H 2X2X2X2X2X2X2X2X2X2X2X2X2X2X2X2X2X2X2X2X2X2X2X2X",
"2X2X2X2X2X2X2X2X2X2X2X2X2X2X2X2X2X2X2X2X2X2X2X2X2X2X2X2X2X2X2X2X2X2X2X2X2X2X2X2X2X2X2X2X2X2X2X2X2X2X2X2X2X2X2X2X2X2X2X2X",
"2X2X2X2X2X2X2X2X2X2X2X2X2X2X2X2X2X2X2X2X2X2X2X2X2X2X2X2X2X2X2X2X2X2X2X2X2X2X2X2X2X2X2X2X2X2X2X2X2X2X2X2X2X2X2X2X2X2X2X2X",
"2X2X2X2X2X2X2X2X2X2X2X2X2X2X2X2X2X2X2X2X2X2X2X2X2X2X2X2X2X2X2X2X2X2X2X2X2X2X2X2X2X2X2X2X2X2X2X2X2X2X2X2X2X2X2X2X2X2X2X2X",
"2X2X2X2X2X2X2X2X2X2X2X2X2X2X2X2X2X2X2X2X2X2X2X2X2X2X2X2X2X2X2X2X2X2X2X2X2X2X2X2X2X2X2X2X2X2X2X2X2X2X2X2X2X2X2X2X2X2X2X2X"
};
