/* XPM */
static char *result[] = {
/* columns rows colors chars-per-pixel */
"60 60 205 2 ",
"   c #050304",
".  c #0C0B0B",
"X  c #0A0708",
"o  c #120D0D",
"O  c #120907",
"+  c #0D0E10",
"@  c #141314",
"#  c #1D1513",
"$  c #171719",
"%  c #1B1A1C",
"&  c #1A1A17",
"*  c #221A15",
"=  c #221B1C",
"-  c #2B1D1A",
";  c #271612",
":  c #341513",
">  c #361716",
",  c #24201C",
"<  c #2E251D",
"1  c #34281E",
"2  c #1F1E20",
"3  c #201F20",
"4  c #1F2022",
"5  c #242324",
"6  c #2C2623",
"7  c #262629",
"8  c #2B2A2C",
"9  c #2A2929",
"0  c #342B23",
"q  c #3C2C24",
"w  c #3A2826",
"e  c #3C342B",
"r  c #3A332A",
"t  c #2E2F32",
"y  c #312F32",
"u  c #2F3031",
"i  c #333334",
"p  c #3A3433",
"a  c #363639",
"s  c #39373A",
"d  c #3B3A3C",
"f  c #383835",
"g  c #481D1A",
"h  c #4B231C",
"j  c #482A24",
"k  c #522E2C",
"l  c #42342D",
"z  c #4B3429",
"x  c #453A2B",
"c  c #4D3F2E",
"v  c #433C3C",
"b  c #463B34",
"n  c #573837",
"m  c #52352D",
"M  c #4B4336",
"N  c #4F413C",
"B  c #534434",
"V  c #5D4533",
"C  c #5B4A36",
"Z  c #564939",
"A  c #594A37",
"S  c #62493A",
"D  c #68523B",
"F  c #71583E",
"G  c #69603F",
"H  c #3F3E41",
"J  c #403F40",
"K  c #434344",
"L  c #4B4543",
"P  c #494946",
"I  c #464549",
"U  c #4B4A4C",
"Y  c #48474C",
"T  c #554A45",
"R  c #5B534B",
"E  c #4E4D51",
"W  c #535254",
"Q  c #56555A",
"!  c #5C5B5D",
"~  c #5B5857",
"^  c #514F55",
"/  c #6D5A41",
"(  c #69564B",
")  c #735C43",
"_  c #655A57",
"`  c #734947",
"'  c #7A6547",
"]  c #67635D",
"[  c #7B6B59",
"{  c #7C7551",
"}  c #6C6A4C",
"|  c #5E5D61",
" . c #655E62",
".. c #5F6063",
"X. c #636264",
"o. c #676669",
"O. c #6C6B6C",
"+. c #6B6767",
"@. c #766C67",
"#. c #7A736B",
"$. c #6F6E73",
"%. c #706F72",
"&. c #747375",
"*. c #787779",
"=. c #7C7A7C",
"-. c #7B7774",
";. c #846B4B",
":. c #876A4A",
">. c #88734D",
",. c #886B5A",
"<. c #8D7352",
"1. c #887557",
"2. c #937553",
"3. c #967A56",
"4. c #987D58",
"5. c #94744F",
"6. c #857A6C",
"7. c #80776B",
"8. c #967969",
"9. c #857D76",
"0. c #A87F62",
"q. c #9E815A",
"w. c #978A5A",
"e. c #8C8155",
"r. c #A4855D",
"t. c #A7885F",
"y. c #968669",
"u. c #88847B",
"i. c #948679",
"p. c #9B9672",
"a. c #AB8B61",
"s. c #AE816C",
"d. c #A59763",
"f. c #B18D73",
"g. c #BEAC6F",
"h. c #BDB775",
"j. c #D1907D",
"k. c #C3896E",
"l. c #C8B876",
"z. c #D2BE7D",
"x. c #D5C47E",
"c. c #7F7F80",
"v. c #828284",
"b. c #8D8C8E",
"n. c #8A8688",
"m. c #8E8D92",
"M. c #908F91",
"N. c #939294",
"B. c #9C9C9E",
"V. c #979597",
"C. c #958B82",
"Z. c #A79D8A",
"A. c #AE9B8D",
"S. c #ABA18D",
"D. c #B3A38B",
"F. c #AEA494",
"G. c #B6AB9C",
"H. c #9F9FA1",
"J. c #A09FA2",
"K. c #A19FA8",
"L. c #A3A3A5",
"P. c #ABAAAC",
"I. c #A7A6A8",
"U. c #BBB3A6",
"Y. c #AEADB0",
"T. c #B3B3B4",
"R. c #BAB9BB",
"E. c #B6B6B9",
"W. c #C49E8E",
"Q. c #C0A280",
"!. c #C7AB98",
"~. c #DFB29E",
"^. c #C8BEA8",
"/. c #D4BBA4",
"(. c #D9C883",
"). c #F0DE91",
"_. c #E5D188",
"`. c #CDC3AC",
"'. c #D8C9AF",
"]. c #D6C9B6",
"[. c #DED4BB",
"{. c #E2D4B9",
"}. c #BFBFC1",
"|. c #C0BEC4",
" X c #C2C2C3",
".X c #CBCBCC",
"XX c #C8C7CA",
"oX c #DCD4C4",
"OX c #D0CFD1",
"+X c #D4D3D5",
"@X c #DBDADB",
"#X c #E9DCCA",
"$X c #F8E4C8",
"%X c #FFF0D5",
"&X c #F3E4CD",
"*X c #DFDEE0",
"=X c #E1DFE1",
"-X c #E2E1E2",
";X c #EBEBED",
":X c #E7E7E8",
">X c #F0EFF0",
",X c #F3F3F4",
"<X c #F7F7F9",
"1X c #FEFEFE",
"2X c None",
/* pixels */
"2X2X2X2X2X2X2X2X2X2X2X2X2X2X2X2X2X2X2X2X2X2X2X2X2X2X2X2X2X2X2X2X2X2X2X2X2X2X2X2X2X2X2X2X2X2X2X2X2X2X2X2X2X2X2X2X2X2X2X2X",
"2X2X2X2X2X2X2X2X2X2X2X2X2X2X2X2X2X2X2X2X2X2X2X2X2X2X2X2X2X2X2X2X2X2X2X2X2X2X2X2X2X2X2X2X2X2X2X2X2X2X2X2X2X2X2X2X2X2X2X2X",
"2X2X2X2X2X2X2X2X2X2X2X2X2X2X2X2X2X2X2X2X2X2X2X2X2X2X2X2X2X2X2X2X2X2X2X2X2X2X2X2X2X2X2X2X2X2X2X2X2X2X2X2X2X2X2X2X2X2X2X2X",
"2X2X2X2X2X2X2X2X2X2X2X2X2X2X2X2X2X2X2X2X2X2X2X2X2X2X2X2X2X2X.XO.E X.c. X2X2X2X2X2X2X2X2X2X2X2X2X2X2X2X2X2X2X2X2X2X2X2X2X",
"2X2X2X2X2X2X2X2X2X2X2X2X2X2X2X2X2X2X2X2X2X2X2X2X2X2X2X2X2Xc.d t 7 i d i v.2X2X2X2X2X2X2X2X2X2X2X2X2X2X2X2X2X2X2X2X2X2X2X",
"2X2X2X2X2X2X2X2X2X2X2X2X2X2X2X2X2X2X2X2X2X2X2X2X2X2X2X2XX.% d y i P P K 4 +.@X2X2X2X2X2X2X2X2X2X2X2X2X2X2X2X2X2X2X2X2X2X",
"2X2X2X2X2X2X2X2X2X2X2X2X2X2X2X2X2X2X2X2X2X2X2X2X2X2X2XO.@ 8 d i K P H 8 i 8 o.*X2X2X2X2X2X2X2X2X2X2X2X2X2X2X2X2X2X2X2X2X",
"2X2X2X2X2X2X2X2X2X2X2X2X2X2X2X2X2X2X2X2X2X2X2X2X2X2X2X. @ I f s P H 5 u P H 7 *.:X2X2X2X2X2X2X2X2X2X2X2X2X2X2X2X2X2X2X2X",
"2X2X2X2X2X2X2X2X2X2X2X2X2X2X2X2X2X2X2X2X2X2X2X2X2X2X! @ 4 K a d P u 7 K P i 9 % X.-.2X2X2X2X2X2X2X2X2X2X2X2X2X2X2X2X2X2X",
"2X2X2X2X2X2X2X2X2X2X2X2X2X2X2X2X2X2X2X2X2X2X2X2X2X2XK 4 % a i d K 8 d J i 2 9 f U.F.W B.2X2X2X2X2X2X2X2X2X2X2X2X2X2X2X2X",
"2X2X2X2X2X2X2X2X2X2X2X2X2X2X2X2X2X2X2X2X2X2X2X2X2X2X9 i $ 7 u J I u a 8 $ 7 i f #X$XD.-.2X2X2X2X2X2X2X2X2X2X2X2X2X2X2X2X",
"2X2X2X2X2X2X2X2X2X2X2X2X2X2X2X2X2X2X2X2X2X2X2X2X2X2X%.8 8 4 5 f K 8 % . @ u 6 ] $X$X/.u.2X2X2X2X2X2X2X2X2X2X2X2X2X2X2X2X",
"2X2X2X2X2X2X2X2X2X2X2X2X2X2X2X2X2X2X2X2X2X2X2X2XT.@X+XK 4 @ & 5 5 @ . % t % * 8./.'.D._ 2X2X2X2X2X2X2X2X2X2X2X2X2X2X2X2X",
"2X2X2X2X2X2X2X2X2X2X2X2X2X2X2X2X2X2X2X2X2X2XM.@.y.] b.I   + + @ $ % 6 i % , N.@.z 6.&X=.X.2X2X2X2X2X2X2X2X2X2X2X2X2X2X2X",
"2X2X2X2X2X2X2X2X2X2X2X2X2X2X2X2X2X2X2X2X2X| b `.`.i.L : : # , & & % % & . 7 OX,XT._ [.U.U 2X2X2X2X2X2X2X2X2X2X2X2X2X2X2X",
"2X2X2X2X2X2X2X2X2X2X2X2X2X2X2X2X2X2X2X2XB.u 7.G.#.`.Z.( h l q e A 0 Z 1 B + ! P. XE i.&X#.n.2X2X2X2X2X2X2X2X2X2X2X2X2X2X",
"2X2X2X2X2X2X2X2X2X2X2X2X2X2X2X2X2X2X2X2X] @.W.f.].A.1.`.T b  .b B 0 C * q - b.9.R y T A.`.~ 2X2X2X2X2X2X2X2X2X2X2X2X2X2X",
"2X2X2X2X2X2X2X2X2X2X2X2X2X2X2X2X2X2X2XT.] D.k.~.!.S f.#XL l .X=.6 o ; > w j 9.%X/.@.G.6.S.u.O.2X2X2X2X2X2X2X2X2X2X2X2X2X",
"2X2X2X2X2X2X2X2X2X2X2X2X2X2X2X2X2XN.B.X.9.j.2.1.w 1 s.k.k e @X,XR.-.` ` +.k k /.%X'.{.[.F.G.+.2X2X2X2X2X2X2X2X2X2X2X2X2X",
"2X2X2X2X2X2X2X2X2X2X2X2X2X2X2X2Xo.2 4 % l w b n.V.d * F j j +X1X1X<X=X@XXXS h 0.!.,.,.s.j.s.L 2X2X2X2X2X2X2X2X2X2X2X2X2X",
"2X2X2X2X2X2X2X2X2X2X2X2X2X2X2X2X@ i I H 5 $ W -X2XR.9 h g  .;X<X,X1X1X1X;X .: 1 p p l k ( R &.2X2X2X2X2X2X2X2X2X2X2X2X2X",
"2X2X2X2X2X2X2X2X2X2X2X2X2X2X2XT.@ 8 H s Y J @ B.2X|.9 : _ +X-XI..X1X1X1X<Xo.; v. X.XT.E.XX2X2X2X2X2X2X2X2X2X2X2X2X2X2X2X",
"2X2X2X2X2X2X2X2X2X2X2X2X2X2X2Xv.@ w = 3 H @ O.-X2X+Xi i |.T.o.R.<X>XXX,X1X*.U 2X2X2X2X2X2X2X2X2X2X2X2X2X2X2X2X2X2X2X2X2X",
"2X2X2X2X2X2X2X2X2X2X2X2X2X2X2Xv.#.D.8.( + i =X2X2X@XE m.K.Q I.1X1X,XM.V.,XM.E 2X2X2X2X2X2X2X2X2X2X2X2X2X2X2X2X2X2X2X2X2X",
"2X2X2X2X2X2X2X2X2X2X2X2X2X2X2X+.[.S.F.oXs N.2X2X2X@XI !  .Y.1X1X1X1X-XX.J.O.| 2X2X2X2X2X2X2X2X2X2X2X2X2X2X2X2X2X2X2X2X2X",
"2X2X2X2X2X2X2X2X2X2X2X2X2X2X] U.{.] v O.Y OX2X2X2X2XW 8 T.<X1X1X1X1X1X X| E 2X2X2X2X2X2X2X2X2X2X2X2X2X2X2X2X2X2X2X2X2X2X",
"2X2X2X2X2X2X2X2X2X2X2X2X2X2X( !.,.T r N ( K.2X2X2X XI I..XH.E.<X1X1X1X1XH.i 2X2X2X2X2X2X2X2X2X2X2X2X2X2X2X2X2X2X2X2X2X2X",
"2X2X2X2X2X2X2X2X2X2X2X2X2X2X+.z S ( [ r n P.2X2X2Xb.Q N.O.H.-X1X1X1X<X@X:Xo.*.2X2X2X2X2X2X2X2X2X2X2X2X2X2X2X2X2X2X2X2X2X",
"2X2X2X2X2X2X2X2X2X2X2X2X2X2X2X%.6 6 Z J P.2X2X2X2X .%.-X;X1X1X1X1X1X,XN.*.W O.2X2X2X2X2X2X2X2X2X2X2X2X2X2X2X2X2X2X2X2X2X",
"2X2X2X2X2X2X2X2X2X2X2X2X2X2X2X2X2XN.V.2X2X2X2X2X2XK K.1X1X1X1X1X1X1X1X,XN.7 =.2X2X2X2X2X2X2X2X2X2X2X2X2X2X2X2X2X2X2X2X2X",
"2X2X2X2X2X2X2X2X2X2X2X2X2X2X2X2X2X2X2X2X2X2X2X2Xb.W :X<X+X X+X+X@X,X1X1X1XL.W }.2X2X2X2X2X2X2X2X2X2X2X2X2X2X2X2X2X2X2X2X",
"2X2X2X2X2X2X2X2X2X2X2X2X2X2X2X2X2X2X2X2X2X2X2X2X| =.}.*.s 6 e b L  .&.B.+X@XO.M.2X2X2X2X2X2X2X2X2X2X2X2X2X2X2X2X2X2X2X2X",
"2X2X2X2X2X2X2X2X2X2X2X2X2X2X2X2X2X2X2X2X2X2X2X X9 s = . ; :.5.5.3.>.' D b +.+.X.2X2X2X2X2X2X2X2X2X2X2X2X2X2X2X2X2X2X2X2X",
"2X2X2X2X2X2X2X2X2X2X2X2X2X2X2X2X2X2X2X2X2X2X2XP.@   % Y x g.z.x._.x.w.d.l.>., Y 2X2X2X2X2X2X2X2X2X2X2X2X2X2X2X2X2X2X2X2X",
"2X2X2X2X2X2X2X2X2X2X2X2X2X2X2X2X2X2X2X2X2X2XR.o.E . 8 y B x.).x.>.} w.d.w.w.e N.2X2X2X2X2X2X2X2X2X2X2X2X2X2X2X2X2X2X2X2X",
"2X2X2X2X2X2X2X2X2X2X2X2X2X2X2X2X2X2X2X2X2X2X^ Y s % H 6 x M F z x h.d.e - 6 r M }.2X2X2X2X2X2X2X2X2X2X2X2X2X2X2X2X2X2X2X",
"2X2X2X2X2X2X2X2X2X2X2X2X2X2X2X2X2X2X2X2X2X$.E 7 ^ E ! q 4.<.) - r Z & 7 H 9 / S ! 2X2X2X2X2X2X2X2X2X2X2X2X2X2X2X2X2X2X2X",
"2X2X2X2X2X2X2X2X2X2X2X2X2X2X2X2X2X2X2X2XW Y I *.&.t 5 D a.t.a.S . . 7 K K K f ' 0 H.2X2X2X2X2X2X2X2X2X2X2X2X2X2X2X2X2X2X",
"2X2X2X2X2X2X2X2X2X2X2X2X2X2X2X2X2XE W Y 8 $ i =.Q % * 1.q.a.a.' X   8 f i i % ' C U 2X2X2X2X2X2X2X2X2X2X2X2X2X2X2X2X2X2X",
"2X2X2X2X2X2X2X2X2X2X2X2X2X2X2X2X2X*.U s 8 W i H Y 4 x 4.C D ;.M + + d K a K 4 ' <.6 2X2X2X2X2X2X2X2X2X2X2X2X2X2X2X2X2X2X",
"2X2X2X2X2X2X2X2X2X2X2X2X2X2X2X2X2X2X2XR.P.o.U =.V.p / 2.<.) S V @ + H I d H 5 F q.< 2X2X2X2X2X2X2X2X2X2X2X2X2X2X2X2X2X2X",
"2X2X2X2X2X2X2X2X2X2X2X2X2X2X2X2X2X2X2X2X2X2X2X2X2XW ' ;.B 4.a.:.O X I ^ Q | d B C X.2X2X2X2X2X2X2X2X2X2X2X2X2X2X2X2X2X2X",
"2X2X2X2X2X2X2X2X2X2X2X2X2X2X2X2X2X2X2X2X2X2X2X2X2Xb.M a.;.C 5.>.# . i H J E K = E 2X2X2X2X2X2X2X2X2X2X2X2X2X2X2X2X2X2X2X",
"2X2X2X2X2X2X2X2X2X2X2X2X2X2X2X2X2X2X2X2X2X2X2X2XL.f 0 r.r.>.S ) = % H I J J a 9 2X2X2X2X2X2X2X2X2X2X2X2X2X2X2X2X2X2X2X2X",
"2X2X2X2X2X2X2X2X2X2X2X2X2X2X2X2X2X2X2X2X2X2X2XP.M { M q.r.a.4.:.1 , ^ Q U E i d 2X2X2X2X2X2X2X2X2X2X2X2X2X2X2X2X2X2X2X2X",
"2X2X2X2X2X2X2X2X2X2X2X2X2X2X2X2X2X2X2X2X2X2X2XE.e h.{ >.4.:.4.:.B q y Y W ! 8 =.2X2X2X2X2X2X2X2X2X2X2X2X2X2X2X2X2X2X2X2X",
"2X2X2X2X2X2X2X2X2X2X2X2X2X2X2X2X2X2X2X2X2X2X2X2Xv.} e.B N ) 3.5.C p U 3 u 7 d 2X2X2X2X2X2X2X2X2X2X2X2X2X2X2X2X2X2X2X2X2X",
"2X2X2X2X2X2X2X2X2X2X2X2X2X2X2X2X2X2X2X2X2X2X2X2X2X2X-.M ) ' V b < i 2X2XO.&.2X2X2X2X2X2X2X2X2X2X2X2X2X2X2X2X2X2X2X2X2X2X",
"2X2X2X2X2X2X2X2X2X2X2X2X2X2X2X2X2X2X2X2X2X2X2X2X2X2X2X* O 3 p d w v 2X2X2X2X2X2X2X2X2X2X2X2X2X2X2X2X2X2X2X2X2X2X2X2X2X2X",
"2X2X2X2X2X2X2X2X2X2X2X2X2X2X2X2X2X2X2X2X2X2X2X2X2X2Xk g X - p 9 6 K 2X2X2X2X2X2X2X2X2X2X2X2X2X2X2X2X2X2X2X2X2X2X2X2X2X2X",
"2X2X2X2X2X2X2X2X2X2X2X2X2X2X2X2X2X2X2X2X2X2X2X2X2X2Xh > o 7 s a 8 5 2X2X2X2X2X2X2X2X2X2X2X2X2X2X2X2X2X2X2X2X2X2X2X2X2X2X",
"2X2X2X2X2X2X2X2X2X2X2X2X2X2X2X2X2X2X2X2X2X2X2X2X2X2Xo ; = i i 5 y i %.2X2X2X2X2X2X2X2X2X2X2X2X2X2X2X2X2X2X2X2X2X2X2X2X2X",
"2X2X2X2X2X2X2X2X2X2X2X2X2X2X2X2X2X2X2X2X2X2X2X2X2X2X2XO f U Y K Y t X.2X2X2X2X2X2X2X2X2X2X2X2X2X2X2X2X2X2X2X2X2X2X2X2X2X",
"2X2X2X2X2X2X2X2X2X2X2X2X2X2X2X2X2X2X2X2X2X2X2X2X2X2X2X+ % i d H s 5 | 2X2X2X2X2X2X2X2X2X2X2X2X2X2X2X2X2X2X2X2X2X2X2X2X2X",
"2X2X2X2X2X2X2X2X2X2X2X2X2X2X2X2X2X2X2X2X2X2X2X2X2X2X2X2Xi a 7 8 i W 2X2X2X2X2X2X2X2X2X2X2X2X2X2X2X2X2X2X2X2X2X2X2X2X2X2X",
"2X2X2X2X2X2X2X2X2X2X2X2X2X2X2X2X2X2X2X2X2X2X2X2X2X2X2X2X2XO.E ~ O.2X2X2X2X2X2X2X2X2X2X2X2X2X2X2X2X2X2X2X2X2X2X2X2X2X2X2X",
"2X2X2X2X2X2X2X2X2X2X2X2X2X2X2X2X2X2X2X2X2X2X2X2X2X2X2X2X2X2X2X2X2X2X2X2X2X2X2X2X2X2X2X2X2X2X2X2X2X2X2X2X2X2X2X2X2X2X2X2X",
"2X2X2X2X2X2X2X2X2X2X2X2X2X2X2X2X2X2X2X2X2X2X2X2X2X2X2X2X2X2X2X2X2X2X2X2X2X2X2X2X2X2X2X2X2X2X2X2X2X2X2X2X2X2X2X2X2X2X2X2X",
"2X2X2X2X2X2X2X2X2X2X2X2X2X2X2X2X2X2X2X2X2X2X2X2X2X2X2X2X2X2X2X2X2X2X2X2X2X2X2X2X2X2X2X2X2X2X2X2X2X2X2X2X2X2X2X2X2X2X2X2X",
"2X2X2X2X2X2X2X2X2X2X2X2X2X2X2X2X2X2X2X2X2X2X2X2X2X2X2X2X2X2X2X2X2X2X2X2X2X2X2X2X2X2X2X2X2X2X2X2X2X2X2X2X2X2X2X2X2X2X2X2X"
};
