/* XPM */
static char *result[] = {
/* columns rows colors chars-per-pixel */
"59 60 185 2 ",
"   c #151615",
".  c #171A1A",
"X  c #1B1B1B",
"o  c #221F1C",
"O  c #231F15",
"+  c #1E211E",
"@  c #27231B",
"#  c #3F321F",
"$  c #312B1B",
"%  c #232323",
"&  c #2B2B2C",
"*  c #2D2B21",
"=  c #3D3829",
"-  c #312F30",
";  c #333434",
":  c #36393A",
">  c #3B3C3C",
",  c #3E3B35",
"<  c #403E3F",
"1  c #3F413F",
"2  c #4A463B",
"3  c #524B3F",
"4  c #5E553C",
"5  c #67593D",
"6  c #765E25",
"7  c #3F3D40",
"8  c #413F40",
"9  c #3F4142",
"0  c #2E4755",
"q  c #385E6B",
"w  c #434343",
"e  c #44464A",
"r  c #47494A",
"t  c #4C4D4D",
"y  c #4A4846",
"u  c #524E48",
"i  c #5C5748",
"p  c #4A4E51",
"a  c #4E5254",
"s  c #535353",
"d  c #5C5B54",
"f  c #54575A",
"g  c #5B5B5B",
"h  c #585856",
"j  c #645A41",
"k  c #6A5C41",
"l  c #635F54",
"z  c #6D634A",
"x  c #6F6344",
"c  c #7C6D4D",
"v  c #776644",
"b  c #63635D",
"n  c #6D6958",
"m  c #746C5B",
"M  c #78725E",
"N  c #405B64",
"B  c #5B5F64",
"V  c #555D63",
"C  c #5B6166",
"Z  c #5D6168",
"A  c #476774",
"S  c #5A6D73",
"D  c #636363",
"F  c #686668",
"G  c #66696E",
"H  c #6C6C6C",
"J  c #676765",
"K  c #736F66",
"L  c #747367",
"P  c #747374",
"I  c #757679",
"U  c #7A7A7A",
"Y  c #78767D",
"T  c #6D7375",
"R  c #836D31",
"E  c #846826",
"W  c #887957",
"Q  c #927E58",
"!  c #837C66",
"~  c #B78F33",
"^  c #C1983D",
"/  c #93815A",
"(  c #99875E",
")  c #928157",
"_  c #9E905F",
"`  c #B3914E",
"'  c #8A8068",
"]  c #9D8D64",
"[  c #968962",
"{  c #8B8475",
"}  c #A88F67",
"|  c #AB986D",
" . c #AF956D",
".. c #B09B6D",
"X. c #B29C77",
"o. c #A7997A",
"O. c #BBA679",
"+. c #BBA86B",
"@. c #E0AE46",
"#. c #E0B146",
"$. c #C3AA75",
"%. c #D3AE71",
"&. c #CBB379",
"*. c #D2B57C",
"=. c #F1CF7B",
"-. c #377999",
";. c #34718B",
":. c #387FA3",
">. c #527481",
",. c #4A7F92",
"<. c #7F7F80",
"1. c #807F81",
"2. c #39819F",
"3. c #3A82A3",
"4. c #3C85A9",
"5. c #7A8286",
"6. c #468BAB",
"7. c #4B8EB0",
"8. c #4B90B2",
"9. c #5994AD",
"0. c #619CB7",
"q. c #6398AB",
"w. c #73A3B7",
"e. c #7FB1C8",
"r. c #73ABC4",
"t. c #828384",
"y. c #87898C",
"u. c #8B8C8C",
"i. c #888986",
"p. c #918F88",
"a. c #96948C",
"s. c #8B8E91",
"d. c #908F90",
"f. c #8F9295",
"g. c #929394",
"h. c #99999A",
"j. c #999896",
"k. c #A19E95",
"l. c #A39B8D",
"z. c #AEA58D",
"x. c #87A7B5",
"c. c #97AEB6",
"v. c #91B0BD",
"b. c #9EA2A6",
"n. c #A3A3A4",
"m. c #A8A9AA",
"M. c #B0AEAF",
"N. c #AAAEB1",
"B. c #B4B5B4",
"V. c #BEBDBD",
"C. c #CDB583",
"Z. c #D8BD86",
"A. c #C0BCBF",
"S. c #DDC284",
"D. c #DBC59B",
"F. c #EBCC8C",
"G. c #E2C68A",
"H. c #F6D38F",
"J. c #E3C890",
"K. c #EFD090",
"L. c #F6D391",
"P. c #F8D491",
"I. c #F6D893",
"U. c #F4D99E",
"Y. c #F6DCA5",
"T. c #F8DBA6",
"R. c #80B3C6",
"E. c #B0BEC0",
"W. c #A2B7C1",
"Q. c #95C1D0",
"!. c #9CC4D6",
"~. c #A9CFDD",
"^. c #B6CACE",
"/. c #BFDAE7",
"(. c #C8CBCB",
"). c #D4D3D4",
"_. c #CBD2D3",
"`. c #DEE0DD",
"'. c #E4E2DF",
"]. c #C6DEE8",
"[. c #D6E7EE",
"{. c #E7F3F4",
"}. c #F5FAFB",
"|. c #FBFDFD",
" X c None",
/* pixels */
" X X X X X X X X X X X X X X X X X X X X X X X X X X X X X X X X X X X X X X X X X X X X X X X X X X X X X X X X X X X",
" X X X X X X X X X X X X X X X X X X X X X X X X X X X X X X X X X X X X X X X X X X X X X X X X X X X X X X X X X X X",
" X X X X X X X X X X X X X X X X X X X X X X X X X X X X X X X X X X X X X X X X X X X X X X X X X X X X X X X X X X X",
" X X X X X X X X X X X X X X X X X X X XB r r e r t g  X X X X X X X X X X X X X X X X X X X X X X X X X X X X X X X X",
" X X X X X X X X X X X X X X X X X X Xw 9 p p e e H 1.: r  X X X X X X X X X X X X X X X X X X X X X X X X X X X X X X",
" X X X X X X X X X X X X X X X X X X: 9 a : % $ = y B % X y  X X X X X X X X X X X X X X X X X X X X X X X X X X X X X",
" X X X X X X X X X X X X X X X X Xy G G & X @ R +.v O X e w D  X X X X X X X X X X X X X X X X X X X X X X X X X X X X",
" X X X X X X X X X X X X X X X X X; I s . . = ^ =.` $ @ Y I w  X X X X X X X X X X X X X X X X X X X X X X X X X X X X",
" X X X X X X X X X X X X X X X Xt X + X     @ E ~ 6 @   : 9 &  X X X X X X X X X X X X X X X X X X X X X X X X X X X X",
" X X X X X X X X X X X X X X X Xy   ; 9 1 1 < 3 5 2 > 1 1 > :  X X X X X X X X X X X X X X X X X X X X X X X X X X X X",
" X X X X X X X X X X X X X X X Xw . S W.B.x.x.x.w.c.(.(.(.c.S  X X X X X X X X X X X X X X X X X X X X X X X X X X X X",
" X X X X X X X X X X X X X X X Xw . >.~.e.8.7.7.0.~.}.}./.q.A  X X X X X X X X X X X X X X X X X X X X X X X X X X X X",
" X X X X X X X X X X X X X X X Xw X 5.e.6.-.:.7.!.{.}.].0.-.q  X X X X X X X X X X X X X X X X X X X X X X X X X X X X",
" X X X X X X X X X X X X X X X X X> >.6.3.2.6.Q.{.}.].0.3.;.N  X X X X X X X X X X X X X X X X X X X X X X X X X X X X",
" X X X X X X X X X X X X X X X X X Xq -.6.6.Q.{.|.[.w.6.;.0 V  X X X X X X X X X X X X X X X X X X X X X X X X X X X X",
" X X X X X X X X X X X X X X X X X X Xq 2.v._.'.'.^.q.9.q : y i. X X X X X X X X X X X X X X X X X XU I  X X X X X X X",
" X X X X X X X X X X X X X X Xt.5.y. XT V G J L ! ! m n i 4 4 z ! a.A.).).m.P F H H H H I B.).).)._.M.B.(. X X X X X X",
" X X X X X X X X X X X X X Xs e t e H H C g d z W ) ) ) / / [ c 5 M n.A.V.{ w 7 < < 8 < s h.V.A.V.V.A.V.m.B. X X X X X",
" X X X X X X X X X X X X X> . . . + 9 B C C B b ( ( ) ] / ) _ c k n d.k.h.d.! <.I P H P I i.d.d.g.j.j.j.h.B. X X X X X",
" X X X X X X X X X X X X XF f e ; % 9 Z C C C C n z j c x x c c c W l.k.k.j.h.t.h u s d h i s y a { n.n.m. X X X X X X",
" X X X X X X X X X X X X XH g t : % & a Z Z C C B d 5 k 4 x W O.*.Z.J.J.Z.X.} k ; j ] | | | ] i - H  X X X X X X X X X",
" X X X X X X X X X X X X Xy & & X . . ; V Z C C F ! c 5 x / *.I.P.L.P.H.P.%.` v i $.I.P.I.I.H.O.u I  X X X X X X X X X",
" X X X X X X X X X X Xs  X5.H f & . X % e g C K o.S.$.c _ *.I.P.L.P.P.F.C.X.$. .X.G.H.P.P.P.H.J.z. X X X X X X X X X X",
" X X X X X X X X X Xw X - : : & X . X X 2 d H z.K.P.F.&.=.I.P.I.P.P.P.*.L a. X X XU.H.H.H.H.H.T. X X X X X X X X X X X",
" X X X X X X X X X X; % r s p & . X X X < i ! S.L.L.H.L.L.L.L.L.H.H.L.D.j. X X X X XY.T.T.Y.Y. X X X X X X X X X X X X",
" X X X X X X X X X X: : 5.m.f.9 X X X X - < u } F.L.P.P.L.H.H.K.L.U.T. X X X X X X X X X X X X X X X X X X X X X X X X",
" X X X X X X X X X X; : t.b.s.e . X ; b J g ; < | H.P.H.H.H.&.W X. X X X X X X X X X X X X X X X X X X X X X X X X X X",
" X X X X X X X X X X9 : y.N.f.r ; 7 P m.M.a.f 7 n C.L.L.H.Z.! 8 K  X X X X X X X X X X X X X X X X X X X X X X X X X X",
" X X X X X X X X X Xw : 5.b.s.a f F U t.i.u.P D G ! C.G.C.! F F t. X X X X X X X X X X X X X X X X X X X X X X X X X X",
" X X X X X X X X X Xw : s.N.h.p y g H l F 1.P l B l m M l f g D  X X X X X X X X X X X X X X X X X X X X X X X X X X X",
" X X X X X X X X X Xr : t.m.f.w ; t H F P 1.H t t t t > < t t B  X X X X X X X X X X X X X X X X X X X X X X X X X X X",
" X X X X X X X X X X XV s.N.h.w % e D P P Y D t t t 8 ; 8 t t H  X X X X X X X X X X X X X X X X X X X X X X X X X X X",
" X X X X X X X X X X X Xy.Z p & X ; t g g d s t t w : < t t t t. X X X X X X X X X X X X X X X X X X X X X X X X X X X",
" X X X X X X X X X X X X Xt % % % & w t t t t t t t y t t t : s  X X X X X X X X X X X X X X X X X X X X X X X X X X X",
" X X X X X X X X X X X X Xt.D  X XF f t t t t t t t t t y ; X &  X X X X X X X X X X X X X X X X X X X X X X X X X X X",
" X X X X X X X X X X X X X X X X X XF s t t g g h g D D > X X X y  X X X X X X X X X X X X X X X X X X X X X X X X X X",
" X X X X X X X X X X X X X&.&. X X X<.H D D u. X X X X Xr X X X %  X X X X X X X X X X X X X X X X X X X X X X X X X X",
" X X X X X X X X X X X X X#.#. X X<.Z H P i. X X X X X X X- X X   >  X X X X X X X X X X X X X X X X X X X X X X X X X",
" X X X X X X X X X X X X X@.#.=. X! H D D u. X X X X X X Xt X X X % F  X X X X X X X X X X X X X X X X X X X X X X X X",
" X X X X X X X X X X X X X X X X XD H I U  X X X X X X X X X& X X X :  X X X X X X X X X X X X X X X X X X X X X X X X",
" X X X X X X X X X X X X X X X XH t s s I  X X X X X X X X Xs % X X % s  X X X X X X X X X X X X X X X X X X X X X X X",
" X X X X X X X X X X X X X X X Xg t u t I  X X X X X X X X X X: . X . -  X X X X X X X X X X X X X X X X X X X X X X X",
" X X X X X X X X X X X X X X XH t t t s  X X X X X X X X X X XD o X X X h  X X X X X X X X X X X X X X X X X X X X X X",
" X X X X X X X X X X X X X XP s t s t D  X X X X X X X X X X X X, . X X ;  X X X X X X X X X X X X X X X X X X X X X X",
" X X X X X X X X X X X X XP t r t t h  X X X X X X X X X X X X Xg % X X X t  X X X X X X X X X X X X X X X X X X X X X",
" X X X X X X X X X X X XU s s t t g t. X X X X X X X X X X X X X X8 X X X &  X X X X X X X X X X X X X X X X X X X X X",
" X X X X X X X X X X XU s t t t s U  X X X X X X X X X X X X X X X X& . X X t  X X X X X X X X X X X X X X X X X X X X",
" X X X X X X X X X XD w t t t s U  X X X X X X X X X X X X X X X X Xy . X X %  X X X X X X X X X X X X X X X X X X X X",
" X X X X X X X X XD & % : t s U  X X X X X X X X X X X X X X X X X X X% X X X t  X X X X X X X X X X X X X X X X X X X",
" X X X X X X X X X- X X @ : F  X X X X X X X X X X X X X X X X X X X Xy X X & ; > y s  X X X X X X X X X X X X X X X X",
" X X X X X X X Xw & - - % t  X X X X X X X X X X X X X X X X X X X X X X; & ; ; - & & w  X X X X X X X X X X X X X X X",
" X X X X X X Xy ; ; ; ; ; P  X X X X X X X X X X X X X X X X X X X X X Xg ; ; ; - % & t  X X X X X X X X X X X X X X X",
" X X X X X Xg ; - ; ; ; ; t  X X X X X X X X X X X X X X X X X X X X X XH ; ; ; & & s  X X X X X X X X X X X X X X X X",
" X X X X X X XD w ; - & ; w  X X X X X X X X X X X X X X X X X X X X X XH : ; - w  X X X X X X X X X X X X X X X X X X",
" X X X X X X X X Xg ; X & >  X X X X X X X X X X X X X X X X X X X X X X X> - s  X X X X X X X X X X X X X X X X X X X",
" X X X X X X X X X X X> & y  X X X X X X X X X X X X X X X X X X X X X X Xg g  X X X X X X X X X X X X X X X X X X X X",
" X X X X X X X X X X X X X X X X X X X X X X X X X X X X X X X X X X X X X X X X X X X X X X X X X X X X X X X X X X X",
" X X X X X X X X X X X X X X X X X X X X X X X X X X X X X X X X X X X X X X X X X X X X X X X X X X X X X X X X X X X",
" X X X X X X X X X X X X X X X X X X X X X X X X X X X X X X X X X X X X X X X X X X X X X X X X X X X X X X X X X X X",
" X X X X X X X X X X X X X X X X X X X X X X X X X X X X X X X X X X X X X X X X X X X X X X X X X X X X X X X X X X X"
};
