/* XPM */
static char *result[] = {
/* columns rows colors chars-per-pixel */
"59 60 193 2 ",
"   c #151615",
".  c #171A1A",
"X  c #1B1B1B",
"o  c #231F19",
"O  c #1D211E",
"+  c #28231A",
"@  c #322B19",
"#  c #232323",
"$  c #2B2B2C",
"%  c #2D2B20",
"&  c #322F30",
"*  c #2F3533",
"=  c #333334",
"-  c #36393A",
";  c #3C3C3C",
":  c #3F3B34",
">  c #3C3520",
",  c #41321C",
"<  c #403A2E",
"1  c #413E3F",
"2  c #3F413F",
"3  c #7B5D16",
"4  c #4A4639",
"5  c #534B3D",
"6  c #6C5B3D",
"7  c #65583A",
"8  c #7D5F3B",
"9  c #76663C",
"0  c #3F3D40",
"q  c #413F40",
"w  c #3E4142",
"e  c #3F454D",
"r  c #264857",
"t  c #345E6A",
"y  c #275E6A",
"u  c #396571",
"i  c #28606D",
"p  c #434344",
"a  c #45474A",
"s  c #46494B",
"d  c #4D4D4D",
"f  c #4A4846",
"g  c #534E47",
"h  c #5D5748",
"j  c #494E51",
"k  c #474D50",
"l  c #4D5254",
"z  c #535353",
"x  c #5C5B54",
"c  c #565758",
"v  c #5B5B5B",
"b  c #575756",
"n  c #655D4A",
"m  c #7B6A46",
"M  c #716449",
"N  c #776847",
"B  c #66665B",
"V  c #736D5D",
"C  c #776A55",
"Z  c #76725C",
"A  c #6A6046",
"S  c #4F5A62",
"D  c #5A5E65",
"F  c #565C64",
"G  c #5B6166",
"H  c #576068",
"J  c #5A6169",
"K  c #556E74",
"L  c #456D7D",
"P  c #636363",
"I  c #686668",
"U  c #666A6E",
"Y  c #6C6C6C",
"T  c #676765",
"R  c #757365",
"E  c #737374",
"W  c #757679",
"Q  c #7A7A7A",
"!  c #78767E",
"~  c #6E7170",
"^  c #896711",
"/  c #876D23",
"(  c #826E49",
")  c #8B784E",
"_  c #867758",
"`  c #947D51",
"'  c #847C63",
"]  c #BE8E10",
"[  c #B7953E",
"{  c #C99722",
"}  c #EAAD26",
"|  c #E9B023",
" . c #958153",
".. c #9A8456",
"X. c #9C895C",
"o. c #A19058",
"O. c #B08C54",
"+. c #8C8064",
"@. c #90846F",
"#. c #86847D",
"$. c #A48E64",
"%. c #B19967",
"&. c #B8986A",
"*. c #B49B75",
"=. c #AC996E",
"-. c #BFA861",
";. c #BBA676",
":. c #C7AB6E",
">. c #C9A76D",
",. c #CEB46C",
"<. c #CEB27A",
"1. c #D3B57C",
"2. c #D8B676",
"3. c #CDA96E",
"4. c #E1BE79",
"5. c #E3C37C",
"6. c #F7CF6B",
"7. c #0F708C",
"8. c #12738F",
"9. c #0A7796",
"0. c #0B7DA1",
"q. c #487583",
"w. c #7E7F81",
"e. c #807F81",
"r. c #358094",
"t. c #0382A5",
"y. c #0585AB",
"u. c #1489AB",
"i. c #278DB3",
"p. c #2B91B3",
"a. c #238AAB",
"s. c #7F8383",
"d. c #6E858E",
"f. c #479AB8",
"g. c #4B94A8",
"h. c #4AA0BE",
"j. c #51A2BD",
"k. c #7AA7B6",
"l. c #70B3CA",
"z. c #61ACC7",
"x. c #828383",
"c. c #868A8C",
"v. c #8D8C8C",
"b. c #888986",
"n. c #959289",
"m. c #8A8E91",
"M. c #908F90",
"N. c #8E9295",
"B. c #929394",
"V. c #99999A",
"C. c #979897",
"Z. c #A19B92",
"A. c #A59B8B",
"S. c #ACA591",
"D. c #9EA2A6",
"F. c #87ADB8",
"G. c #89B1BF",
"H. c #96AFB5",
"J. c #A5A5A5",
"K. c #A8AAAB",
"L. c #B0AEAF",
"P. c #A9AEB1",
"I. c #B4B5B5",
"U. c #BDBDBD",
"Y. c #D9BD84",
"T. c #C1BDBE",
"R. c #E9C785",
"E. c #F3CC83",
"W. c #FDD285",
"Q. c #FDD389",
"!. c #FBD887",
"~. c #FCDB9D",
"^. c #F9D995",
"/. c #E0C594",
"(. c #FEDAA3",
"). c #9DB8C2",
"_. c #ADBFC0",
"`. c #88C2D2",
"'. c #9DD0DD",
"]. c #91C5D8",
"[. c #B1CBCF",
"{. c #A0D0E0",
"}. c #BBDCE8",
"|. c #C8CBCB",
" X c #D4D4D4",
".X c #C9D2D3",
"XX c #DEE0DD",
"oX c #E4E2DF",
"OX c #D1E9EF",
"+X c #E6F4F5",
"@X c #F4FAFB",
"#X c #FBFDFD",
"$X c None",
/* pixels */
"$X$X$X$X$X$X$X$X$X$X$X$X$X$X$X$X$X$X$X$X$X$X$X$X$X$X$X$X$X$X$X$X$X$X$X$X$X$X$X$X$X$X$X$X$X$X$X$X$X$X$X$X$X$X$X$X$X$X$X",
"$X$X$X$X$X$X$X$X$X$X$X$X$X$X$X$X$X$X$X$X$X$X$X$X$X$X$X$X$X$X$X$X$X$X$X$X$X$X$X$X$X$X$X$X$X$X$X$X$X$X$X$X$X$X$X$X$X$X$X",
"$X$X$X$X$X$X$X$X$X$X$X$X$X$X$X$X$X$X$X$X$X$X$X$X$X$X$X$X$X$X$X$X$X$X$X$X$X$X$X$X$X$X$X$X$X$X$X$X$X$X$X$X$X$X$X$X$X$X$X",
"$X$X$X$X$X$X$X$X$X$X$X$X$X$X$X$X$X$X$X$X$X$X$X$X$X$X$X$X$X$X$X$Xv d a a a s G $X$X$X$X$X$X$X$X$X$X$X$X$X$X$X$X$X$X$X$X",
"$X$X$X$X$X$X$X$X$X$X$X$X$X$X$X$X$X$X$X$X$X$X$X$X$X$X$X$X$X$Xd - #.U e a k k w w $X$X$X$X$X$X$X$X$X$X$X$X$X$X$X$X$X$X$X",
"$X$X$X$X$X$X$X$X$X$X$X$X$X$X$X$X$X$X$X$X$X$X$X$X$X$X$X$X$Xp . # v 5 > % $ - l w ; $X$X$X$X$X$X$X$X$X$X$X$X$X$X$X$X$X$X",
"$X$X$X$X$X$X$X$X$X$X$X$X$X$X$X$X$X$X$X$X$X$X$X$X$X$X$X$XP p a X + 9 -./ + . $ U U a $X$X$X$X$X$X$X$X$X$X$X$X$X$X$X$X$X",
"$X$X$X$X$X$X$X$X$X$X$X$X$X$X$X$X$X$X$X$X$X$X$X$X$X$X$X$Xp W ! # @ [ 6.{ , . X z E = $X$X$X$X$X$X$X$X$X$X$X$X$X$X$X$X$X",
"$X$X$X$X$X$X$X$X$X$X$X$X$X$X$X$X$X$X$X$X$X$X$X$X$X$X$X$X$ 4 -   + 3 ] ^ +     X X X j $X$X$X$X$X$X$X$X$X$X$X$X$X$X$X$X",
"$X$X$X$X$X$X$X$X$X$X$X$X$X$X$X$X$X$X$X$X$X$X$X$X$X$X$X$X- 1 0 ; 1 5 7 5 0 0 w 0 & . f $X$X$X$X$X$X$X$X$X$X$X$X$X$X$X$X",
"$X$X$X$X$X$X$X$X$X$X$X$X$X$X$X$X$X$X$X$X$X$X$X$X$X$X$X$XK H.|.|.|.F.k.k.k.F.[.H.K O p $X$X$X$X$X$X$X$X$X$X$X$X$X$X$X$X",
"$X$X$X$X$X$X$X$X$X$X$X$X$X$X$X$X$X$X$X$X$X$X$X$X$X$X$X$Xu f.}.@X#X{.p.p.i.p.l.'.q.. p $X$X$X$X$X$X$X$X$X$X$X$X$X$X$X$X",
"$X$X$X$X$X$X$X$X$X$X$X$X$X$X$X$X$X$X$X$X$X$X$X$X$X$X$X$Xu 0.f.}.#X+X].p.t.t.u.l.d.X p $X$X$X$X$X$X$X$X$X$X$X$X$X$X$X$X",
"$X$X$X$X$X$X$X$X$X$X$X$X$X$X$X$X$X$X$X$X$X$X$X$X$X$X$X$Xt 7.t.j.}.#X+X`.a.t.y.i.q.- $X$X$X$X$X$X$X$X$X$X$X$X$X$X$X$X$X",
"$X$X$X$X$X$X$X$X$X$X$X$X$X$X$X$X$X$X$X$X$X$X$X$X$X$X$X$XS r 8.u.z.OX#X+X`.i.y.0.u $X$X$X$X$X$X$X$X$X$X$X$X$X$X$X$X$X$X",
"$X$X$X$X$X$X$XE Q $X$X$X$X$X$X$X$X$X$X$X$X$X$X$X$X$X$X#.f - y g.g.[.oXXX[.).q.y $X$X$X$X$X$X$X$X$X$X$X$X$X$X$X$X$X$X$X",
"$X$X$X$X$X$XU.I.I.|. X X XI.Q Y Y Y Y I E K. X XU.n.' M 7 7 h B Z +.Z Z V U S ~ $Xc.s.s.$X$X$X$X$X$X$X$X$X$X$X$X$X$X$X",
"$X$X$X$X$XI.L.T.T.U.U.T.T.C.l 2 p 1 1 2 a e.T.T.J.C 7 ( `  . . . . .) M x F H Y Y s k a z $X$X$X$X$X$X$X$X$X$X$X$X$X$X",
"$X$X$X$X$XI.V.V.C.V.B.M.B.b.W Y E E E Q e.M.V.V.n.C 6 ) X.` ..o.) X.X.B H G G F e O . .   ; $X$X$X$X$X$X$X$X$X$X$X$X$X",
"$X$X$X$X$X$XJ.J.J.x.z d z h x x z d v #.Z.Z.Z.Z.A._ ( m m 6 9 m 6 M V G H J D H w # = a c Y $X$X$X$X$X$X$X$X$X$X$X$X$X",
"$X$X$X$X$X$X$X$X$XY & h X.%.%.%.o.n & M O.&.Y.R.R.4.2.>. .6 6 6 7 x J J J J H l $ O - d v Y $X$X$X$X$X$X$X$X$X$X$X$X$X",
"$X$X$X$X$X$X$X$X$XE g >.!.W.!.W.!.:.5 ( { 2.W.W.Q.W.W.W.5. .6 6 ( ' P J J J c = . . O $ $ p $X$X$X$X$X$X$X$X$X$X$X$X$X",
"$X$X$X$X$X$X$X$X$X$XS.R.W.W.W.W.6.R.*.&.3.;.<.E.Q.W.W.W.W.4...( >.R.=.U H G p # X . $ c Y w.$Xl $X$X$X$X$X$X$X$X$X$X$X",
"$X$X$X$X$X$X$X$X$X$X$X~.W.W.W.W.Q.^.$X$X$XM.R 1.W.Q.W.W.W.W.5.,.E.!.E.;.R x 4 X X X X & 0 - $ X p $X$X$X$X$X$X$X$X$X$X",
"$X$X$X$X$X$X$X$X$X$X$X$X(.~.~.~.(.$X$X$X$X$XV./.W.W.W.W.W.Q.W.Q.Q.W.W.R._ h : X . X   $ j l e # - $X$X$X$X$X$X$X$X$X$X",
"$X$X$X$X$X$X$X$X$X$X$X$X$X$X$X$X$X$X$X$X$X$X$X$X(.Q.W.E.W.W.W.W.Q.W.E.$.g q = O X X . p N.K.s.- ; $X$X$X$X$X$X$X$X$X$X",
"$X$X$X$X$X$X$X$X$X$X$X$X$X$X$X$X$X$X$X$X$X$X$X$X$X$X*._ <.W.W.W.Q.W.&.< = v I v = . . e m.D.s.- = $X$X$X$X$X$X$X$X$X$X",
"$X$X$X$X$X$X$X$X$X$X$X$X$X$X$X$X$X$X$X$X$X$X$X$X$X$X~ f _ 2.Q.W.E.1.C 0 v B.L.L.~ q * k N.P.c.- ; $X$X$X$X$X$X$X$X$X$X",
"$X$X$X$X$X$X$X$X$X$X$X$X$X$X$X$X$X$X$X$X$X$X$X$X$X$X' P T ' Y.R.Y.' I P ! m.b.#.Q I v z m.D.s.- p $X$X$X$X$X$X$X$X$X$X",
"$X$X$X$X$X$X$X$X$X$X$X$X$X$X$X$X$X$X$X$X$X$X$X$X$X$X$XP v v x C V v v v ~ ' Y D ~ v f s V.P.m.- p $X$X$X$X$X$X$X$X$X$X",
"$X$X$X$X$X$X$X$X$X$X$X$X$X$X$X$X$X$X$X$X$X$X$X$X$X$X$XP d d 1 ; d d d z U e.~ I Y j & p N.D.x.; f $X$X$X$X$X$X$X$X$X$X",
"$X$X$X$X$X$X$X$X$X$X$X$X$X$X$X$X$X$X$X$X$X$X$X$X$X$X$X~ d d q = q f d d P ! E E P p # a V.P.m.F $X$X$X$X$X$X$X$X$X$X$X",
"$X$X$X$X$X$X$X$X$X$X$X$X$X$X$X$X$X$X$X$X$X$X$X$X$X$X$Xx.d d d ; - p d d z v v v d = . $ j G c.$X$X$X$X$X$X$X$X$X$X$X$X",
"$X$X$X$X$X$X$X$X$X$X$X$X$X$X$X$X$X$X$X$X$X$X$X$X$X$X$Xz - d d d f f d j d d d d p $ # # # d $X$X$X$X$X$X$X$X$X$X$X$X$X",
"$X$X$X$X$X$X$X$X$X$X$X$X$X$X$X$X$X$X$X$X$X$X$X$X$X$X$X$ o - a d d d d d d d d d b Y $X$XI x.$X$X$X$X$X$X$X$X$X$X$X$X$X",
"$X$X$X$X$X$X$X$X$X$X$X$X$X$X$X$X$X$X$X$X$X$X$X$X$X$Xp X X X - T P v v v v d d z T $X$X$X$X$X$X$X$X$X$X$X$X$X$X$X$X$X$X",
"$X$X$X$X$X$X$X$X$X$X$X$X$X$X$X$X$X$X$X$X$X$X$X$X$X$X# X X X f $X$X$X$X$Xv.P T Y W $X$X$X,.,.$X$X$X$X$X$X$X$X$X$X$X$X$X",
"$X$X$X$X$X$X$X$X$X$X$X$X$X$X$X$X$X$X$X$X$X$X$X$X$X;   X   $ $X$X$X$X$X$X$Xb.E Y T Q $X$X| | $X$X$X$X$X$X$X$X$X$X$X$X$X",
"$X$X$X$X$X$X$X$X$X$X$X$X$X$X$X$X$X$X$X$X$X$X$X$XY # . X o d $X$X$X$X$X$X$XM.P T Y Q $X6.} } $X$X$X$X$X$X$X$X$X$X$X$X$X",
"$X$X$X$X$X$X$X$X$X$X$X$X$X$X$X$X$X$X$X$X$X$X$X$X; . X X $ $X$X$X$X$X$X$X$X$XQ E Y P $X$X$X$X$X$X$X$X$X$X$X$X$X$X$X$X$X",
"$X$X$X$X$X$X$X$X$X$X$X$X$X$X$X$X$X$X$X$X$X$X$Xb # X . o b $X$X$X$X$X$X$X$X$XQ b z d Y $X$X$X$X$X$X$X$X$X$X$X$X$X$X$X$X",
"$X$X$X$X$X$X$X$X$X$X$X$X$X$X$X$X$X$X$X$X$X$X$X& . X . - $X$X$X$X$X$X$X$X$X$XE d j f v $X$X$X$X$X$X$X$X$X$X$X$X$X$X$X$X",
"$X$X$X$X$X$X$X$X$X$X$X$X$X$X$X$X$X$X$X$X$X$Xb X X X # P $X$X$X$X$X$X$X$X$X$X$Xb d d z ~ $X$X$X$X$X$X$X$X$X$X$X$X$X$X$X",
"$X$X$X$X$X$X$X$X$X$X$X$X$X$X$X$X$X$X$X$X$X$X= . X . ; $X$X$X$X$X$X$X$X$X$X$X$XP d d d z ~ $X$X$X$X$X$X$X$X$X$X$X$X$X$X",
"$X$X$X$X$X$X$X$X$X$X$X$X$X$X$X$X$X$X$X$X$Xz o X X # P $X$X$X$X$X$X$X$X$X$X$X$X$Xv d d d d E $X$X$X$X$X$X$X$X$X$X$X$X$X",
"$X$X$X$X$X$X$X$X$X$X$X$X$X$X$X$X$X$X$X$X$X$ . X X 1 $X$X$X$X$X$X$X$X$X$X$X$X$X$Xe.x d d d b Q $X$X$X$X$X$X$X$X$X$X$X$X",
"$X$X$X$X$X$X$X$X$X$X$X$X$X$X$X$X$X$X$X$Xf . X X $ $X$X$X$X$X$X$X$X$X$X$X$X$X$X$X$XQ z d d d z Q $X$X$X$X$X$X$X$X$X$X$X",
"$X$X$X$X$X$X$X$X$X$X$X$X$X$X$X$X$X$X$X$X# . X . p $X$X$X$X$X$X$X$X$X$X$X$X$X$X$X$X$XQ z d d d p T $X$X$X$X$X$X$X$X$X$X",
"$X$X$X$X$X$X$X$X$X$X$X$X$X$X$X$X$X$X$Xf X X X # $X$X$X$X$X$X$X$X$X$X$X$X$X$X$X$X$X$X$XQ z d ; # $ D $X$X$X$X$X$X$X$X$X",
"$X$X$X$X$X$X$X$X$X$X$X$X$X$X$X$Xb p ; = $ X X f $X$X$X$X$X$X$X$X$X$X$X$X$X$X$X$X$X$X$X$XY - O o o $ $X$X$X$X$X$X$X$X$X",
"$X$X$X$X$X$X$X$X$X$X$X$X$X$X$Xp $ $ = = = # = $X$X$X$X$X$X$X$X$X$X$X$X$X$X$X$X$X$X$X$X$X$Xd # $ & $ p $X$X$X$X$X$X$X$X",
"$X$X$X$X$X$X$X$X$X$X$X$X$X$X$Xz $ # & = = - v $X$X$X$X$X$X$X$X$X$X$X$X$X$X$X$X$X$X$X$X$X$X~ - = = = = p $X$X$X$X$X$X$X",
"$X$X$X$X$X$X$X$X$X$X$X$X$X$X$X$Xb $ $ = = - Y $X$X$X$X$X$X$X$X$X$X$X$X$X$X$X$X$X$X$X$X$X$Xk = - = = = = v $X$X$X$X$X$X",
"$X$X$X$X$X$X$X$X$X$X$X$X$X$X$X$X$X$X1 = = - Y $X$X$X$X$X$X$X$X$X$X$X$X$X$X$X$X$X$X$X$X$X$X4 & & & & p I $X$X$X$X$X$X$X",
"$X$X$X$X$X$X$X$X$X$X$X$X$X$X$X$X$X$X$Xz = ; $X$X$X$X$X$X$X$X$X$X$X$X$X$X$X$X$X$X$X$X$X$X$X; $ X = b $X$X$X$X$X$X$X$X$X",
"$X$X$X$X$X$X$X$X$X$X$X$X$X$X$X$X$X$X$X$Xv v $X$X$X$X$X$X$X$X$X$X$X$X$X$X$X$X$X$X$X$X$X$X$Xf $ ; $X$X$X$X$X$X$X$X$X$X$X",
"$X$X$X$X$X$X$X$X$X$X$X$X$X$X$X$X$X$X$X$X$X$X$X$X$X$X$X$X$X$X$X$X$X$X$X$X$X$X$X$X$X$X$X$X$X$X$X$X$X$X$X$X$X$X$X$X$X$X$X",
"$X$X$X$X$X$X$X$X$X$X$X$X$X$X$X$X$X$X$X$X$X$X$X$X$X$X$X$X$X$X$X$X$X$X$X$X$X$X$X$X$X$X$X$X$X$X$X$X$X$X$X$X$X$X$X$X$X$X$X",
"$X$X$X$X$X$X$X$X$X$X$X$X$X$X$X$X$X$X$X$X$X$X$X$X$X$X$X$X$X$X$X$X$X$X$X$X$X$X$X$X$X$X$X$X$X$X$X$X$X$X$X$X$X$X$X$X$X$X$X",
"$X$X$X$X$X$X$X$X$X$X$X$X$X$X$X$X$X$X$X$X$X$X$X$X$X$X$X$X$X$X$X$X$X$X$X$X$X$X$X$X$X$X$X$X$X$X$X$X$X$X$X$X$X$X$X$X$X$X$X"
};
