/* XPM */
static char *result[] = {
/* columns rows colors chars-per-pixel */
"59 60 187 2 ",
"   c #1B1B1B",
".  c #171716",
"X  c #1E201E",
"o  c #20201F",
"O  c #322B17",
"+  c #1E1E20",
"@  c #1E2223",
"#  c #242425",
"$  c #262929",
"%  c #2A2B2B",
"&  c #262729",
"*  c #362F22",
"=  c #33302C",
"-  c #2E2F30",
";  c #2F3234",
":  c #333333",
">  c #37393A",
",  c #3C3C3C",
"<  c #373838",
"1  c #4A3E1D",
"2  c #403F3E",
"3  c #4E411F",
"4  c #52421D",
"5  c #43433F",
"6  c #464136",
"7  c #66593D",
"8  c #7B6428",
"9  c #2E3A41",
"0  c #3C3F41",
"q  c #403F40",
"w  c #3F4141",
"e  c #306279",
"r  c #434343",
"t  c #444749",
"y  c #47494B",
"u  c #4C4C4C",
"i  c #4B4A45",
"p  c #514E4F",
"a  c #514D41",
"s  c #585447",
"d  c #4C4E53",
"f  c #504F51",
"g  c #4F5152",
"h  c #4B5959",
"j  c #545454",
"k  c #595857",
"l  c #555658",
"z  c #57595A",
"x  c #5B5B5B",
"c  c #585758",
"v  c #655A43",
"b  c #6A5C41",
"n  c #635C4C",
"m  c #635F58",
"M  c #5F6059",
"N  c #726345",
"B  c #7D6F4D",
"V  c #74674C",
"C  c #7F714F",
"Z  c #686558",
"A  c #70695D",
"S  c #7C745B",
"D  c #6A6048",
"F  c #5B5F64",
"G  c #565B63",
"H  c #5B6165",
"J  c #58636B",
"K  c #486B7A",
"L  c #4A626C",
"P  c #646363",
"I  c #6C6C6C",
"U  c #686868",
"Y  c #747269",
"T  c #727167",
"R  c #6B6D70",
"E  c #6E7071",
"W  c #737373",
"Q  c #76797C",
"!  c #7B7C7C",
"~  c #7A7777",
"^  c #96752A",
"/  c #806E4E",
"(  c #83724E",
")  c #837454",
"_  c #8A7A54",
"`  c #967F58",
"'  c #837964",
"]  c #857F77",
"[  c #AC842D",
"{  c #98865E",
"}  c #9E874C",
"|  c #A88743",
" . c #9E8D62",
".. c #958568",
"X. c #88857B",
"o. c #988C75",
"O. c #A38F63",
"+. c #A9956C",
"@. c #A48F70",
"#. c #A8997A",
"$. c #B59D76",
"%. c #B09B6A",
"&. c #BAA675",
"*. c #DCAC41",
"=. c #D6B359",
"-. c #E5BC5E",
";. c #C49E61",
":. c #C4AA7A",
">. c #C9B278",
",. c #D3B87D",
"<. c #D5B96C",
"1. c #E4BE60",
"2. c #E6C366",
"3. c #377189",
"4. c #387D9D",
"5. c #3D6B81",
"6. c #647B85",
"7. c #7D7F81",
"8. c #807F80",
"9. c #3A82A5",
"0. c #3D85A8",
"q. c #798E91",
"w. c #708E99",
"e. c #458BA9",
"r. c #4D90AC",
"t. c #5291AD",
"y. c #5798B5",
"u. c #609DB8",
"i. c #76A3B5",
"p. c #848384",
"a. c #8A8A8A",
"s. c #86898C",
"d. c #8E9194",
"f. c #9D9E9C",
"g. c #969697",
"h. c #A6A298",
"j. c #BFB19A",
"k. c #BBAB86",
"l. c #969CA1",
"z. c #9FA1A1",
"x. c #8FAFBC",
"c. c #A4A4A5",
"v. c #AAABAB",
"b. c #A9AAA8",
"n. c #ADAEB2",
"m. c #BBBBBA",
"M. c #B3B6B4",
"N. c #B2ABA3",
"B. c #C3AC81",
"V. c #CBB786",
"C. c #D8BE87",
"Z. c #D0BA90",
"A. c #C0BEBE",
"S. c #DFC592",
"D. c #E2C48A",
"F. c #EDCD8D",
"G. c #E5C98B",
"H. c #F2CF8D",
"J. c #EFD08E",
"K. c #F3D28E",
"L. c #F2CF90",
"P. c #EED195",
"I. c #F3D291",
"U. c #F8D796",
"Y. c #F4DBAA",
"T. c #F7DEB0",
"R. c #F9E1AE",
"E. c #F8E1B0",
"W. c #88B7CA",
"Q. c #97B8C3",
"!. c #92C2CD",
"~. c #96C1D2",
"^. c #AFC5CC",
"/. c #B3D4DF",
"(. c #BED8E5",
"). c #C4C5C4",
"_. c #C8C8C7",
"`. c #C0CED3",
"'. c #D1D1D1",
"]. c #DCDDDD",
"[. c #D7D8D8",
"{. c #C5DEE8",
"}. c #D7E6E8",
"|. c #E6EFF2",
" X c #EAF3F3",
".X c #F8F9F9",
"XX c None",
/* pixels */
"XXXXXXXXXXXXXXXXXXXXXXXXXXXXXXXXXXXXXXXXXXXXXXXXXXXXXXXXXXXXXXXXXXXXXXXXXXXXXXXXXXXXXXXXXXXXXXXXXXXXXXXXXXXXXXXXXXXXXX",
"XXXXXXXXXXXXXXXXXXXXXXXXXXXXXXXXXXXXXXXXXXXXXXXXXXXXXXXXXXXXXXXXXXXXXXXXXXXXXXXXXXXXXXXXXXXXXXXXXXXXXXXXXXXXXXXXXXXXXX",
"XXXXXXXXXXXXXXXXXXXXXXXXXXXXXXXXXXXXXXXXXXXXXXXXXXXXXXXXXXXXXXXXXXXXXXXXXXXXXXXXXXXXXXXXXXXXXXXXXXXXXXXXXXXXXXXXXXXXXX",
"XXXXXXXXXXXXXXXXXXXXXXXXXXXXXXXXXXXXXXXXXXXXXXXXXXXXXXXXXXXXXXXXXXXXXXXXXXXXXXXXXXXXXXXXXXXXXXXXXXXXXXXXXXXXXXXXXXXXXX",
"XXXXXXXXXXXXXXXXXXXXXXXXXXXXXXXXXXXXXXXXXXXXXXXXXXXXXXXXXXXXXXXXXXXXXXXXXXXXXXXXXXXXXXXXXXXXXXXXXXXXXXXXXXXXXXXXXXXXXX",
"XXXXXXXXXXXXXXXXXXXXXXXXXXXXXXXXXXXXXXXXXXXXXXXXXXXXXXXXXXXXXXXXXXXXXXXXXXXXXXXXXXXXXXXXXXXXXXXXXXXXXXXXXXXXXXXXXXXXXX",
"XXXXXXXXXXXXXXXXXXXXXXXXXXXXXXXXXXXXXXXXXXXXXXXXXXXXXXXXXXXXXXXXXXXXXXXXXXXXXXXXXXXXXXXXXXXXXXXXXXXXXXXXXXXXXXXXXXXXXX",
"XXXXXXXXXXXXXXXXXXXXXXXXXXXXXXXXXXXXXXXXXXXXH k x x I XXXXXXXXXXXXXXXXXXXXXXXXXXXXXXXXXXXXXXXXXXXXXXXXXXXXXXXXXXXXXXXX",
"XXXXXXXXXXXXXXXXXXXXXXXXXXXXXXXXXXXXXXXXw w y y y h W d u XXXXXXXXXXXXXXXXXXXXXXXXXXXXXXXXXXXXXXXXXXXXXXXXXXXXXXXXXXXX",
"XXXXXXXXXXXXXXXXXXXXXXXXXXXXXXXXXXXXXX< w g , = = r W , . r XXXXXXXXXXXXXXXXXXXXXXXXXXXXXXXXXXXXXXXXXXXXXXXXXXXXXXXXXX",
"XXXXXXXXXXXXXXXXXXXXXXXXXXXXXXXXXXXXd P h $   3 } _ * + , r E XXXXXXXXXXXXXXXXXXXXXXXXXXXXXXXXXXXXXXXXXXXXXXXXXXXXXXXX",
"XXXXXXXXXXXXXXXXXXXXXXXXXXXXXXXXXXXX, Q 0 . o 8 2.<.4   E p.j XXXXXXXXXXXXXXXXXXXXXXXXXXXXXXXXXXXXXXXXXXXXXXXXXXXXXXXX",
"XXXXXXXXXXXXXXXXXXXXXXXXXXXXXXXXXXr   X   . . 4 [ ^ O . : t < XXXXXXXXXXXXXXXXXXXXXXXXXXXXXXXXXXXXXXXXXXXXXXXXXXXXXXXX",
"XXXXXXXXXXXXXXXXXXXXXXXXXXXXXXXXXXr   , t y t i n s t y d r r XXXXXXXXXXXXXXXXXXXXXXXXXXXXXXXXXXXXXXXXXXXXXXXXXXXXXXXX",
"XXXXXXXXXXXXXXXXXXXXXXXXXXXXXXXXXXr @ 6.^.Q.i.i.i.x.`.].[.Q.6.XXXXXXXXXXXXXXXXXXXXXXXXXXXXXXXXXXXXXXXXXXXXXXXXXXXXXXXX",
"XXXXXXXXXXXXXXXXXXXXXXXXXXXXXXXXXX0 @ w.~.y.0.0.e.W. X.X/.t.K XXXXXXXXXXXXXXXXXXXXXXXXXXXXXXXXXXXXXXXXXXXXXXXXXXXXXXXX",
"XXXXXXXXXXXXXXXXXXXXXXXXXXXXXXXXXXr $ w.y.0.9.e.W. X.X(.y.4.K XXXXXXXXXXXXXXXXXXXXXXXXXXXXXXXXXXXXXXXXXXXXXXXXXXXXXXXX",
"XXXXXXXXXXXXXXXXXXXXXXXXXXXXXXXXXXXXd 5.0.9.0.W. X.X{.y.9.e L XXXXXXXXXXXXXXXXXXXXXXXXXXXXXXXXXXXXXXXXXXXXXXXXXXXXXXXX",
"XXXXXXXXXXXXXXXXXXXXXXXXXXXXXXXXXXXXXXK 3.t.W.}..X|.W.e.3.9 x XXXXXXXXXXXXXXXXXXXXXXXXXXXXXXXXXXXXa.XXXXXXXXXXXXXXXXXX",
"XXXXXXXXXXXXXXXXXXXXXXXXXXXXXXXXXXXXXXXXL 6.l.h.N.N.q.6.h 6 a ' h.m.'.].[.M.f.f.f.h.c.M.[.].[.[.m.p.v.XXXXXXXXXXXXXXXX",
"XXXXXXXXXXXXXXXXXXXXXXXXXXXXXXU x P G XXR G l s N ( ( B C B B N N X.A.'.).U r 2 r w r x n.'._._._._.A.m.XXXXXXXXXXXXXX",
"XXXXXXXXXXXXXXXXXXXXXXXXXXXXj $ # # $ d F F H H ) O.{  . ... .( 7 Y f.b.c.~ P P x x m I g.c.c.g.f.z.f.v.XXXXXXXXXXXXXX",
"XXXXXXXXXXXXXXXXXXXXXXXXXXXXx w : $ # y F F F H U ) N C B N ( V 7 _ g.f.f.f.g.~ x x m U I I P E a.f.g.n.XXXXXXXXXXXXXX",
"XXXXXXXXXXXXXXXXXXXXXXXXXXXXQ U l > @ > G J H H H n v 7 7 7 ( %.&.:.Z.Z.k.$...u a ) ' ...._ a t a.XXXXXXXXXXXXXXXXXXXX",
"XXXXXXXXXXXXXXXXXXXXXXXXXXXXy % $ X . o r H H F J T S 7 7 _ ,.K.K.K.K.H.D.;.` v @.P.L.F.K.P.O.j XXXXXXXXXXXXXXXXXXXXXX",
"XXXXXXXXXXXXXXXXXXXXXXXXx I ! R j $     % j H H X.V.>._ _ ,.K.K.H.H.H.D.>.:.$.@.S.U.I.P.I.I.S.h.XXXXXXXXXXXXXXXXXXXXXX",
"XXXXXXXXXXXXXXXXXXXXXXP # : y r - X .   # a P o.,.K.K.,.,.H.K.K.L.H.F.&.] XXXXXXY.U.U.U.I.F.Y.XXXXXXXXXXXXXXXXXXXXXXXX",
"XXXXXXXXXXXXXXXXXXXXXXx # t l g %     . # 5 m &.K.K.K.K.K.K.K.H.P.P.P.j.XXXXXXXXXXR.E.T.T.Y.XXXXXXXXXXXXXXXXXXXXXXXXXX",
"XXXXXXXXXXXXXXXXXXXXXXl - 7.n.g.y     + # < q n >.K.H.L.K.K.F.D.F.I.XXXXXXXXXXXXXXXXXXXXXXXXXXXXXXXXXXXXXXXXXXXXXXXXXX",
"XXXXXXXXXXXXXXXXXXXXXXl - 6.v.d.r   # d ! ! x - v C.K.H.H.K.%.V #.XXXXXXXXXXXXXXXXXXXXXXXXXXXXXXXXXXXXXXXXXXXXXXXXXXXX",
"XXXXXXXXXXXXXXXXXXXXXXP - Q v.g.u r f p.v.b.] k f o.S.I.L.B.A p ~ XXXXXXXXXXXXXXXXXXXXXXXXXXXXXXXXXXXXXXXXXXXXXXXXXXXX",
"XXXXXXXXXXXXXXXXXXXXXXP ; Q z.d.j k U W I 7.7.I P Y #.B.#.Y Z P p.XXXXXXXXXXXXXXXXXXXXXXXXXXXXXXXXXXXXXXXXXXXXXXXXXXXX",
"XXXXXXXXXXXXXXXXXXXXXXU ; Q c.d.y , l I Z W ! m l x x k u l k m XXXXXXXXXXXXXXXXXXXXXXXXXXXXXXXXXXXXXXXXXXXXXXXXXXXXXX",
"XXXXXXXXXXXXXXXXXXXXXXXXt Q v.g.t % d U I Q W x l x j t t c k E XXXXXXXXXXXXXXXXXXXXXXXXXXXXXXXXXXXXXXXXXXXXXXXXXXXXXX",
"XXXXXXXXXXXXXXXXXXXXXXXXXXs.p.R < + , x P U x j j j r 2 u c k a.XXXXXXXXXXXXXXXXXXXXXXXXXXXXXXXXXXXXXXXXXXXXXXXXXXXXXX",
"XXXXXXXXXXXXXXXXXXXXXXXXXXXXg $   . % i d u u p p j p p p u t j XXXXXXXXXXXXXXXXXXXXXXXXXXXXXXXXXXXXXXXXXXXXXXXXXXXXXX",
"XXXXXXXXXXXXXXXXXXXXXXXXXXXXXXj k j u u u u u u u j k k u 0 # # r XXXXXXXXXXXXXXXXXXXXXXXXXXXXXXXXXXXXXXXXXXXXXXXXXXXX",
"XXXXXXXXXXXXXXXXXXXXXXXXXXXXXXXXXXXXp.x u u j k j k P I j # # # & t XXXXXXXXXXXXXXXXXXXXXXXXXXXXXXXXXXXXXXXXXXXXXXXXXX",
"XXXXXXXXXXXXXXXXXXXXXXXXXXXXXX>.XXXXW W U k ! XXXXXXXXXXXXr % & & # 2 XXXXXXXXXXXXXXXXXXXXXXXXXXXXXXXXXXXXXXXXXXXXXXXX",
"XXXXXXXXXXXXXXXXXXXXXXXXXXXX-.*.=.X.P P W ! XXXXXXXXXXXXXXXXi & # o   : XXXXXXXXXXXXXXXXXXXXXXXXXXXXXXXXXXXXXXXXXXXXXX",
"XXXXXXXXXXXXXXXXXXXXXXXXXXXX1.*.| T W I P XXXXXXXXXXXXXXXXXXXXu         % XXXXXXXXXXXXXXXXXXXXXXXXXXXXXXXXXXXXXXXXXXXX",
"XXXXXXXXXXXXXXXXXXXXXXXXXXXXXX>.Z p x I a.XXXXXXXXXXXXXXXXXXXXXXi         % XXXXXXXXXXXXXXXXXXXXXXXXXXXXXXXXXXXXXXXXXX",
"XXXXXXXXXXXXXXXXXXXXXXXXXXXXXX7.k u u x XXXXXXXXXXXXXXXXXXXXXXXXXXu #     # XXXXXXXXXXXXXXXXXXXXXXXXXXXXXXXXXXXXXXXXXX",
"XXXXXXXXXXXXXXXXXXXXXXXXXXXXP j u u p W XXXXXXXXXXXXXXXXXXXXXXXXXXXX:       XXXXXXXXXXXXXXXXXXXXXXXXXXXXXXXXXXXXXXXXXX",
"XXXXXXXXXXXXXXXXXXXXXXQ P u u u u u k XXXXXXXXXXXXXXXXXXXXXXXXXXXXXX:   . # XXXXXXXXXXXXXXXXXXXXXXXXXXXXXXXXXXXXXXXXXX",
"XXXXXXXXXXXXXXXXXXP m j u u f u d k ! XXXXXXXXXXXXXXXXXXXXXXXXXXXXXX& .   % XXXXXXXXXXXXXXXXXXXXXXXXXXXXXXXXXXXXXXXXXX",
"XXXXXXXXXXXXXXx : # , y f y p x W XXXXXXXXXXXXXXXXXXXXXXXXXXXXXXXXXX#   . : XXXXXXXXXXXXXXXXXXXXXXXXXXXXXXXXXXXXXXXXXX",
"XXXXXXXXXX, , - %   % i u x I XXXXXXXXXXXXXXXXXXXXXXXXXXXXXXXXXXXXu       r XXXXXXXXXXXXXXXXXXXXXXXXXXXXXXXXXXXXXXXXXX",
"XXXXXXXXXX: : : : % # u W XXXXXXXXXXXXXXXXXXXXXXXXXXXXXXXXXXXXXXXX,       x XXXXXXXXXXXXXXXXXXXXXXXXXXXXXXXXXXXXXXXXXX",
"XXXXXXXXXXu - : : : k XXXXXXXXXXXXXXXXXXXXXXXXXXXXXXXXXXXXXXXXXXXX:       XXXXXXXXXXXXXXXXXXXXXXXXXXXXXXXXXXXXXXXXXXXX",
"XXXXXXXXXXx - : : : XXXXXXXXXXXXXXXXXXXXXXXXXXXXXXXXXXXXXXXXXXXXXX: # % % XXXXXXXXXXXXXXXXXXXXXXXXXXXXXXXXXXXXXXXXXXXX",
"XXXXXXXXXXXX: # : : XXXXXXXXXXXXXXXXXXXXXXXXXXXXXXXXXXXXXXXXXXXXXX: : : : u XXXXXXXXXXXXXXXXXXXXXXXXXXXXXXXXXXXXXXXXXX",
"XXXXXXXXXXXXi # : u XXXXXXXXXXXXXXXXXXXXXXXXXXXXXXXXXXXXXXXXXXXX5 : : : : : x XXXXXXXXXXXXXXXXXXXXXXXXXXXXXXXXXXXXXXXX",
"XXXXXXXXXXXXXX, f XXXXXXXXXXXXXXXXXXXXXXXXXXXXXXXXXXXXXXXXXXXXW : : : : # % t XXXXXXXXXXXXXXXXXXXXXXXXXXXXXXXXXXXXXXXX",
"XXXXXXXXXXXXXXXXXXXXXXXXXXXXXXXXXXXXXXXXXXXXXXXXXXXXXXXXXXXXXXW , q , , : : i XXXXXXXXXXXXXXXXXXXXXXXXXXXXXXXXXXXXXXXX",
"XXXXXXXXXXXXXXXXXXXXXXXXXXXXXXXXXXXXXXXXXXXXXXXXXXXXXXXXXXXXXXXXXXXXXXXXXXXXXXXXXXXXXXXXXXXXXXXXXXXXXXXXXXXXXXXXXXXXXX",
"XXXXXXXXXXXXXXXXXXXXXXXXXXXXXXXXXXXXXXXXXXXXXXXXXXXXXXXXXXXXXXXXXXXXXXXXXXXXXXXXXXXXXXXXXXXXXXXXXXXXXXXXXXXXXXXXXXXXXX",
"XXXXXXXXXXXXXXXXXXXXXXXXXXXXXXXXXXXXXXXXXXXXXXXXXXXXXXXXXXXXXXXXXXXXXXXXXXXXXXXXXXXXXXXXXXXXXXXXXXXXXXXXXXXXXXXXXXXXXX",
"XXXXXXXXXXXXXXXXXXXXXXXXXXXXXXXXXXXXXXXXXXXXXXXXXXXXXXXXXXXXXXXXXXXXXXXXXXXXXXXXXXXXXXXXXXXXXXXXXXXXXXXXXXXXXXXXXXXXXX",
"XXXXXXXXXXXXXXXXXXXXXXXXXXXXXXXXXXXXXXXXXXXXXXXXXXXXXXXXXXXXXXXXXXXXXXXXXXXXXXXXXXXXXXXXXXXXXXXXXXXXXXXXXXXXXXXXXXXXXX"
};
