/* XPM */
static char *result[] = {
/* columns rows colors chars-per-pixel */
"59 60 189 2 ",
"   c #1C1C17",
".  c #1B1B1B",
"X  c #171616",
"o  c #1E201E",
"O  c #22221F",
"+  c #332B14",
"@  c #1E1E20",
"#  c #1D2223",
"$  c #242425",
"%  c #252929",
"&  c #2B2B2B",
"*  c #262729",
"=  c #372F20",
"-  c #34302B",
";  c #2E2F30",
":  c #2E3234",
">  c #333333",
",  c #37393A",
"<  c #3C3C3D",
"1  c #373838",
"2  c #4C3E17",
"3  c #403F3E",
"4  c #534217",
"5  c #7F6318",
"6  c #43433E",
"7  c #474135",
"8  c #534D3F",
"9  c #6A5A3B",
"0  c #665938",
"q  c #705F3E",
"w  c #75633E",
"e  c #3B3F41",
"r  c #2B3A42",
"t  c #3F4143",
"y  c #17637C",
"u  c #3B6C7D",
"i  c #434344",
"p  c #444749",
"a  c #464A4B",
"s  c #4C4C4C",
"d  c #4B4A44",
"f  c #514E4F",
"g  c #514D41",
"h  c #595445",
"j  c #4B4D52",
"k  c #474950",
"l  c #504F51",
"z  c #4E5152",
"x  c #475A59",
"c  c #545454",
"v  c #595857",
"b  c #555659",
"n  c #5B5B5B",
"m  c #57595A",
"M  c #655B46",
"N  c #635F57",
"B  c #5F6059",
"V  c #6C6045",
"C  c #746342",
"Z  c #7D6C46",
"A  c #73654B",
"S  c #60635C",
"D  c #716856",
"F  c #7A765B",
"G  c #5B5F65",
"H  c #555B64",
"J  c #43636E",
"K  c #5A6165",
"L  c #5A6169",
"P  c #576068",
"I  c #476A74",
"U  c #646363",
"Y  c #6C6C6C",
"T  c #696867",
"R  c #747167",
"E  c #676B71",
"W  c #6E7071",
"Q  c #727373",
"!  c #7A7776",
"~  c #757A7C",
"^  c #7B7C7C",
"/  c #9C7410",
"(  c #816F47",
")  c #826F49",
"_  c #84724B",
"`  c #8A764B",
"'  c #8E7B4D",
"]  c #847557",
"[  c #937E53",
"{  c #A07D49",
"}  c #867F76",
"|  c #837A6A",
" . c #B38308",
".. c #AE8633",
"X. c #E5AB1A",
"o. c #9B875B",
"O. c #A48E5B",
"+. c #A28741",
"@. c #9A8666",
"#. c #89857A",
"$. c #958A73",
"%. c #A6946B",
"&. c #B79A65",
"*. c #A08E71",
"=. c #AA9978",
"-. c #B39D76",
";. c #A88F6B",
":. c #B9A673",
">. c #CB9D56",
",. c #DCB652",
"<. c #EDBC4C",
"1. c #C6A56C",
"2. c #CDB26B",
"3. c #C8AC79",
"4. c #CBB277",
"5. c #D4B573",
"6. c #D9BA77",
"7. c #EDC253",
"8. c #EBC67D",
"9. c #17728C",
"0. c #2B6C83",
"q. c #067EA0",
"w. c #5C7C85",
"e. c #617E89",
"r. c #7D7F80",
"t. c #807F80",
"y. c #0082A7",
"u. c #0785AB",
"i. c #1A89AB",
"p. c #2190AE",
"a. c #2F91AF",
"s. c #3997B4",
"d. c #748F92",
"f. c #688F9B",
"g. c #469CBB",
"h. c #68A4B7",
"j. c #78ABBA",
"k. c #7FBACC",
"l. c #70B5C9",
"z. c #7AB9D0",
"x. c #838384",
"c. c #8A8A8A",
"v. c #868788",
"b. c #8D9194",
"n. c #9D9E9C",
"m. c #969697",
"M. c #BEAB81",
"N. c #A7A296",
"B. c #959CA1",
"V. c #9FA1A1",
"C. c #A4A4A5",
"Z. c #AAABAB",
"A. c #A5A9AB",
"S. c #B2ACA2",
"D. c #ADAEB2",
"F. c #BBBBBA",
"G. c #B4B5B4",
"H. c #D6BC86",
"J. c #C0B196",
"K. c #C0BEBE",
"L. c #E7C584",
"P. c #F5CD84",
"I. c #FACE84",
"U. c #F9CF8A",
"Y. c #F7D184",
"T. c #FBD184",
"R. c #FED58C",
"E. c #F5D08E",
"W. c #F8DA9F",
"Q. c #FDDFAA",
"!. c #F6D9A8",
"~. c #FEE2A8",
"^. c #92B7C2",
"/. c #84C3CF",
"(. c #8AC2D4",
"). c #BDCED4",
"_. c #A9C6CD",
"`. c #BBDCE8",
"'. c #AAD5E0",
"]. c #C4C5C4",
"[. c #C8C8C7",
"{. c #D1D1D1",
"}. c #DCDDDD",
"|. c #D6D8D8",
" X c #D3E7E8",
".X c #E4EFF2",
"XX c #E8F3F3",
"oX c #F7F9F9",
"OX c None",
/* pixels */
"OXOXOXOXOXOXOXOXOXOXOXOXOXOXOXOXOXOXOXOXOXOXOXOXOXOXOXOXOXOXOXOXOXOXOXOXOXOXOXOXOXOXOXOXOXOXOXOXOXOXOXOXOXOXOXOXOXOXOX",
"OXOXOXOXOXOXOXOXOXOXOXOXOXOXOXOXOXOXOXOXOXOXOXOXOXOXOXOXOXOXOXOXOXOXOXOXOXOXOXOXOXOXOXOXOXOXOXOXOXOXOXOXOXOXOXOXOXOXOX",
"OXOXOXOXOXOXOXOXOXOXOXOXOXOXOXOXOXOXOXOXOXOXOXOXOXOXOXOXOXOXOXOXOXOXOXOXOXOXOXOXOXOXOXOXOXOXOXOXOXOXOXOXOXOXOXOXOXOXOX",
"OXOXOXOXOXOXOXOXOXOXOXOXOXOXOXOXOXOXOXOXOXOXOXOXOXOXOXOXOXOXOXOXOXOXOXOXOXOXOXOXOXOXOXOXOXOXOXOXOXOXOXOXOXOXOXOXOXOXOX",
"OXOXOXOXOXOXOXOXOXOXOXOXOXOXOXOXOXOXOXOXOXOXOXOXOXOXOXOXOXOXOXOXOXOXOXOXOXOXOXOXOXOXOXOXOXOXOXOXOXOXOXOXOXOXOXOXOXOXOX",
"OXOXOXOXOXOXOXOXOXOXOXOXOXOXOXOXOXOXOXOXOXOXOXOXOXOXOXOXOXOXOXOXOXOXOXOXOXOXOXOXOXOXOXOXOXOXOXOXOXOXOXOXOXOXOXOXOXOXOX",
"OXOXOXOXOXOXOXOXOXOXOXOXOXOXOXOXOXOXOXOXOXOXOXOXOXOXOXOXOXOXOXOXOXOXOXOXOXOXOXOXOXOXOXOXOXOXOXOXOXOXOXOXOXOXOXOXOXOXOX",
"OXOXOXOXOXOXOXOXOXOXOXOXOXOXOXOXOXOXOXOXOXOXOXOXOXOXOXOXOXOXOXOXY n n n K OXOXOXOXOXOXOXOXOXOXOXOXOXOXOXOXOXOXOXOXOXOX",
"OXOXOXOXOXOXOXOXOXOXOXOXOXOXOXOXOXOXOXOXOXOXOXOXOXOXOXOXOXOXj j Q x k k a t i OXOXOXOXOXOXOXOXOXOXOXOXOXOXOXOXOXOXOXOX",
"OXOXOXOXOXOXOXOXOXOXOXOXOXOXOXOXOXOXOXOXOXOXOXOXOXOXOXOXOXi   1 Q 6 - ; e j i , OXOXOXOXOXOXOXOXOXOXOXOXOXOXOXOXOXOXOX",
"OXOXOXOXOXOXOXOXOXOXOXOXOXOXOXOXOXOXOXOXOXOXOXOXOXOXOXOXW t < @ - [ +.2   * b K s OXOXOXOXOXOXOXOXOXOXOXOXOXOXOXOXOXOX",
"OXOXOXOXOXOXOXOXOXOXOXOXOXOXOXOXOXOXOXOXOXOXOXOXOXOXOXOXl x.W @ 4 ,.7.5 . X e Q < OXOXOXOXOXOXOXOXOXOXOXOXOXOXOXOXOXOX",
"OXOXOXOXOXOXOXOXOXOXOXOXOXOXOXOXOXOXOXOXOXOXOXOXOXOXOXOX1 p > X + /  .4 X X . @ . i OXOXOXOXOXOXOXOXOXOXOXOXOXOXOXOXOX",
"OXOXOXOXOXOXOXOXOXOXOXOXOXOXOXOXOXOXOXOXOXOXOXOXOXOXOXOXi i s a s h M s a a p : . i OXOXOXOXOXOXOXOXOXOXOXOXOXOXOXOXOX",
"OXOXOXOXOXOXOXOXOXOXOXOXOXOXOXOXOXOXOXOXOXOXOXOXOXOXOXOXw.A.|.}.).j.h.h.h.^._.f.# i OXOXOXOXOXOXOXOXOXOXOXOXOXOXOXOXOX",
"OXOXOXOXOXOXOXOXOXOXOXOXOXOXOXOXOXOXOXOXOXOXOXOXOXOXOXOX0.s.'.oXXX/.p.u.u.s.^.f.# 3 OXOXOXOXOXOXOXOXOXOXOXOXOXOXOXOXOX",
"OXOXOXOXOXOXOXOXOXOXOXOXOXOXOXOXOXOXOXOXOXOXOXOXOXOXOXOXu q.s.`.oXXX/.i.y.u.g.f.% i OXOXOXOXOXOXOXOXOXOXOXOXOXOXOXOXOX",
"OXOXOXOXOXOXOXOXOXOXOXOXOXOXOXOXOXOXOXOXOXOXOXOXOXOXOXOXI y u.g.`.oX.Xz.i.y.u.0.k OXOXOXOXOXOXOXOXOXOXOXOXOXOXOXOXOXOX",
"OXOXOXOXOXOXOXOXOXc.OXOXOXOXOXOXOXOXOXOXOXOXOXOXOXOXOXOXx : 0.p.l.XXoX X^.p.9.I OXOXOXOXOXOXOXOXOXOXOXOXOXOXOXOXOXOXOX",
"OXOXOXOXOXOXOXOXC.x.K.|.|.}.|.G.C.n.V.V.n.G.|.|.{.F.N.| h 7 x w.d.S.S.N.B.w.u OXOXOXOXOXOXOXOXOXOXOXOXOXOXOXOXOXOXOXOX",
"OXOXOXOXOXOXOXF.].[.].[.[.{.D.n i 6 < 3 i T ].{.K.#.V w Z ( Z ( ( _ C h b H E OXG K m Y OXOXOXOXOXOXOXOXOXOXOXOXOXOXOX",
"OXOXOXOXOXOXOXZ.n.n.V.n.V.C.m.Y n n n U T ! C.Z.N.F 0 ` O.o.O.O.o.O.] S L K P z $ $ $ * c OXOXOXOXOXOXOXOXOXOXOXOXOXOX",
"OXOXOXOXOXOXOXD.n.m.c.W U E T U N m n ! m.n.n.m.m.] q w _ C Z Z w _ T K P G K k $ % 1 e m OXOXOXOXOXOXOXOXOXOXOXOXOXOX",
"OXOXOXOXOXOXOXOXOXOXc.i h ] @.o.o.] d f @.-.J.6.H.4.:.&.` 9 9 9 0 N K P P L H , $ , c T ^ OXOXOXOXOXOXOXOXOXOXOXOXOXOX",
"OXOXOXOXOXOXOXOXOXOXOXc %.Y.E.I.U.E.%.h { >.8.I.Y.Y.T.Y.5.` 9 9 ] R H K K P t o X # % & s OXOXOXOXOXOXOXOXOXOXOXOXOXOX",
"OXOXOXOXOXOXOXOXOXOXOXN.L.T.P.P.T.R.L.;.1.1.4.L.8.I.I.T.T.6.' ` 5.5.} K K c & . . % c E ^ W n OXOXOXOXOXOXOXOXOXOXOXOX",
"OXOXOXOXOXOXOXOXOXOXOXOX!.Y.U.R.R.R.!.OXOXOX} -.Y.I.I.I.T.T.6.5.I.Y.L.$.S h O X   @ : t a ; # T OXOXOXOXOXOXOXOXOXOXOX",
"OXOXOXOXOXOXOXOXOXOXOXOXOX!.Q.Q.~.~.OXOXOXOXOXJ.E.T.I.I.T.T.T.8.T.T.P.:.V i #   . X ; z m i $ m OXOXOXOXOXOXOXOXOXOXOX",
"OXOXOXOXOXOXOXOXOXOXOXOXOXOXOXOXOXOXOXOXOXOXOXOXOXR.8.L.I.T.T.T.I.Y.2.M 3 < $ . . X a m.D.r.& m OXOXOXOXOXOXOXOXOXOXOX",
"OXOXOXOXOXOXOXOXOXOXOXOXOXOXOXOXOXOXOXOXOXOXOXOXOXOX=.A &.8.T.T.Y.H.M ; m ^ ^ l $ . p b.A.~ : z OXOXOXOXOXOXOXOXOXOXOX",
"OXOXOXOXOXOXOXOXOXOXOXOXOXOXOXOXOXOXOXOXOXOXOXOXOXOX! f D 3.I.I.L.*.l b t.Z.Z.x.z t z b.Z.~ ; T OXOXOXOXOXOXOXOXOXOXOX",
"OXOXOXOXOXOXOXOXOXOXOXOXOXOXOXOXOXOXOXOXOXOXOXOXOXOXv.U U R -.3.=.R U T r.} W Q T b b b.V.~ : T OXOXOXOXOXOXOXOXOXOXOX",
"OXOXOXOXOXOXOXOXOXOXOXOXOXOXOXOXOXOXOXOXOXOXOXOXOXOXOXU c b s v N n v N ~ ! G Y v 1 a b.C.r.: K OXOXOXOXOXOXOXOXOXOXOX",
"OXOXOXOXOXOXOXOXOXOXOXOXOXOXOXOXOXOXOXOXOXOXOXOXOXOXOXW n v i i b m b H ! ~ Y Y f & p m.Z.r.p OXOXOXOXOXOXOXOXOXOXOXOX",
"OXOXOXOXOXOXOXOXOXOXOXOXOXOXOXOXOXOXOXOXOXOXOXOXOXOXOXc.n b s 3 i c c l N T U n 3 @ 1 E x.v.OXOXOXOXOXOXOXOXOXOXOXOXOX",
"OXOXOXOXOXOXOXOXOXOXOXOXOXOXOXOXOXOXOXOXOXOXOXOXOXOXOXc i l l f s c f f j s s d & X . * z OXOXOXOXOXOXOXOXOXOXOXOXOXOX",
"OXOXOXOXOXOXOXOXOXOXOXOXOXOXOXOXOXOXOXOXOXOXOXOXOXOXi $ $ 3 s v v c s s s s s s f c c c OXOXOXOXOXOXOXOXOXOXOXOXOXOXOX",
"OXOXOXOXOXOXOXOXOXOXOXOXOXOXOXOXOXOXOXOXOXOXOXOXOXi & $ $ $ c Y U b c b c s s n x.OXOXOXOXOXOXOXOXOXOXOXOXOXOXOXOXOXOX",
"OXOXOXOXOXOXOXOXOXOXOXOXOXOXOXOXOXOXOXOXOXOXOXOX< $ * $ * i OXOXOXOXOXOX^ n T Q Q OXOX2.OXOXOXOXOXOXOXOXOXOXOXOXOXOXOX",
"OXOXOXOXOXOXOXOXOXOXOXOXOXOXOXOXOXOXOXOXOXOXOX>   @ $ & d OXOXOXOXOXOXOXOX^ W U U #.,.X.<.OXOXOXOXOXOXOXOXOXOXOXOXOXOX",
"OXOXOXOXOXOXOXOXOXOXOXOXOXOXOXOXOXOXOXOXOXOX*       @ s OXOXOXOXOXOXOXOXOXOXT Y Q Y ..X.<.OXOXOXOXOXOXOXOXOXOXOXOXOXOX",
"OXOXOXOXOXOXOXOXOXOXOXOXOXOXOXOXOXOXOXOXOX; . . . @ i OXOXOXOXOXOXOXOXOXOXOXv.Y n s D 2.OXOXOXOXOXOXOXOXOXOXOXOXOXOXOX",
"OXOXOXOXOXOXOXOXOXOXOXOXOXOXOXOXOXOXOXOXOX.   . O k OXOXOXOXOXOXOXOXOXOXOXOXOXn s f c ^ OXOXOXOXOXOXOXOXOXOXOXOXOXOXOX",
"OXOXOXOXOXOXOXOXOXOXOXOXOXOXOXOXOXOXOXOXOX$   . 1 OXOXOXOXOXOXOXOXOXOXOXOXOXOXQ f s s c U OXOXOXOXOXOXOXOXOXOXOXOXOXOX",
"OXOXOXOXOXOXOXOXOXOXOXOXOXOXOXOXOXOXOXOXOX$ . . ; OXOXOXOXOXOXOXOXOXOXOXOXOXOXOXv s s f s s U ^ OXOXOXOXOXOXOXOXOXOXOX",
"OXOXOXOXOXOXOXOXOXOXOXOXOXOXOXOXOXOXOXOXOX* X . $ OXOXOXOXOXOXOXOXOXOXOXOXOXOXOX^ b c s s s s c n U OXOXOXOXOXOXOXOXOX",
"OXOXOXOXOXOXOXOXOXOXOXOXOXOXOXOXOXOXOXOXOX> X   $ OXOXOXOXOXOXOXOXOXOXOXOXOXOXOXOXOXQ n f s s s < $ > n OXOXOXOXOXOXOX",
"OXOXOXOXOXOXOXOXOXOXOXOXOXOXOXOXOXOXOXOXOXi .   @ s OXOXOXOXOXOXOXOXOXOXOXOXOXOXOXOXOXOXY v s p & . & & < < OXOXOXOXOX",
"OXOXOXOXOXOXOXOXOXOXOXOXOXOXOXOXOXOXOXOXOXv   . . 1 OXOXOXOXOXOXOXOXOXOXOXOXOXOXOXOXOXOXOXOXQ s $ & > 1 > > OXOXOXOXOX",
"OXOXOXOXOXOXOXOXOXOXOXOXOXOXOXOXOXOXOXOXOXOX@ .   > OXOXOXOXOXOXOXOXOXOXOXOXOXOXOXOXOXOXOXOXOXOXb ; > 1 ; d OXOXOXOXOX",
"OXOXOXOXOXOXOXOXOXOXOXOXOXOXOXOXOXOXOXOXOXOX& * $ > OXOXOXOXOXOXOXOXOXOXOXOXOXOXOXOXOXOXOXOXOXOXOX> > > ; n OXOXOXOXOX",
"OXOXOXOXOXOXOXOXOXOXOXOXOXOXOXOXOXOXOXOXOXs > > > 1 OXOXOXOXOXOXOXOXOXOXOXOXOXOXOXOXOXOXOXOXOXOXOX> > $ > OXOXOXOXOXOX",
"OXOXOXOXOXOXOXOXOXOXOXOXOXOXOXOXOXOXOXOXn > > > > > 3 OXOXOXOXOXOXOXOXOXOXOXOXOXOXOXOXOXOXOXOXOXOXs > $ d OXOXOXOXOXOX",
"OXOXOXOXOXOXOXOXOXOXOXOXOXOXOXOXOXOXOXOXi & $ ; > > > Q OXOXOXOXOXOXOXOXOXOXOXOXOXOXOXOXOXOXOXOXOXOXf < OXOXOXOXOXOXOX",
"OXOXOXOXOXOXOXOXOXOXOXOXOXOXOXOXOXOXOXOXs > > < 6 e < Q OXOXOXOXOXOXOXOXOXOXOXOXOXOXOXOXOXOXOXOXOXOXOXOXOXOXOXOXOXOXOX",
"OXOXOXOXOXOXOXOXOXOXOXOXOXOXOXOXOXOXOXOXOXOXOXOXOXOXOXOXOXOXOXOXOXOXOXOXOXOXOXOXOXOXOXOXOXOXOXOXOXOXOXOXOXOXOXOXOXOXOX",
"OXOXOXOXOXOXOXOXOXOXOXOXOXOXOXOXOXOXOXOXOXOXOXOXOXOXOXOXOXOXOXOXOXOXOXOXOXOXOXOXOXOXOXOXOXOXOXOXOXOXOXOXOXOXOXOXOXOXOX",
"OXOXOXOXOXOXOXOXOXOXOXOXOXOXOXOXOXOXOXOXOXOXOXOXOXOXOXOXOXOXOXOXOXOXOXOXOXOXOXOXOXOXOXOXOXOXOXOXOXOXOXOXOXOXOXOXOXOXOX",
"OXOXOXOXOXOXOXOXOXOXOXOXOXOXOXOXOXOXOXOXOXOXOXOXOXOXOXOXOXOXOXOXOXOXOXOXOXOXOXOXOXOXOXOXOXOXOXOXOXOXOXOXOXOXOXOXOXOXOX",
"OXOXOXOXOXOXOXOXOXOXOXOXOXOXOXOXOXOXOXOXOXOXOXOXOXOXOXOXOXOXOXOXOXOXOXOXOXOXOXOXOXOXOXOXOXOXOXOXOXOXOXOXOXOXOXOXOXOXOX"
};
