/* XPM */
static char *result[] = {
/* columns rows colors chars-per-pixel */
"59 60 179 2 ",
"   c #171717",
".  c #1C1A17",
"X  c #161818",
"o  c #1B1B1B",
"O  c #221E19",
"+  c #2D2819",
"@  c #1E1F20",
"#  c #1F2021",
"$  c #242424",
"%  c #282927",
"&  c #2C2C2C",
"*  c #282628",
"=  c #302C25",
"-  c #33332B",
";  c #2F2F31",
":  c #2F3132",
">  c #2A373E",
",  c #333333",
"<  c #3C3933",
"1  c #373A3B",
"2  c #3C3C3C",
"3  c #363738",
"4  c #423B2A",
"5  c #604D1C",
"6  c #47453C",
"7  c #6E5522",
"8  c #715D28",
"9  c #675B3D",
"0  c #2C3A41",
"q  c #3E4244",
"w  c #3F444A",
"e  c #325968",
"r  c #434444",
"t  c #46484B",
"y  c #4C4C4D",
"u  c #464849",
"i  c #514F4F",
"p  c #4E5146",
"a  c #4E504F",
"s  c #5C5546",
"d  c #4D4E51",
"f  c #4E5151",
"g  c #535453",
"h  c #5B5B54",
"j  c #54565A",
"k  c #55595B",
"l  c #5C5C5C",
"z  c #575857",
"x  c #655A43",
"c  c #695C47",
"v  c #705F45",
"b  c #6E6247",
"n  c #726446",
"m  c #7A6C4B",
"M  c #76684A",
"N  c #64635C",
"B  c #6F6551",
"V  c #746957",
"C  c #7B7052",
"Z  c #5A5E64",
"A  c #515D63",
"S  c #495D65",
"D  c #5C6165",
"F  c #5E6268",
"G  c #4F6E77",
"H  c #636463",
"J  c #656769",
"K  c #6C6C6D",
"L  c #696967",
"P  c #706E63",
"I  c #706F6E",
"U  c #6A736E",
"Y  c #7C7462",
"T  c #6E6F72",
"R  c #6D7475",
"E  c #737373",
"W  c #7C7C7C",
"Q  c #777878",
"!  c #9F7C2B",
"~  c #80734A",
"^  c #837452",
"/  c #897B5B",
"(  c #897853",
")  c #927F5A",
"_  c #826C45",
"`  c #8C7E6A",
"'  c #6D827C",
"]  c #AA8633",
"[  c #DCAC3C",
"{  c #8F825E",
"}  c #96855B",
"|  c #BB9C4F",
" . c #B99055",
".. c #8D826D",
"X. c #9D8A61",
"o. c #83817D",
"O. c #908A7C",
"+. c #9D8F70",
"@. c #AC9366",
"#. c #A8936A",
"$. c #A89877",
"%. c #B4A27A",
"&. c #BAA37A",
"*. c #BAA567",
"=. c #E3BA57",
"-. c #CEB164",
";. c #C9AD77",
":. c #C7B07C",
">. c #D5BA7B",
",. c #F0CB6C",
"<. c #E7C46F",
"1. c #39738C",
"2. c #377593",
"3. c #5B7380",
"4. c #7B7F82",
"5. c #747F85",
"6. c #6A7982",
"7. c #3B82A5",
"8. c #3983A9",
"9. c #7E8285",
"0. c #458AA8",
"q. c #5998B5",
"w. c #789DAB",
"e. c #669EB7",
"r. c #71A2B6",
"t. c #838483",
"y. c #818588",
"u. c #8B8B8C",
"i. c #85898C",
"p. c #95938B",
"a. c #969989",
"s. c #8A8D90",
"d. c #8D9093",
"f. c #939293",
"g. c #999997",
"h. c #9E9E9D",
"j. c #989898",
"k. c #A19F9B",
"l. c #A39C8C",
"z. c #85ACBB",
"x. c #A2A3A4",
"c. c #ACACAD",
"v. c #A6A8A9",
"b. c #B4B4B3",
"n. c #BCBCBB",
"m. c #C6AD81",
"M. c #CCB581",
"N. c #D8BC81",
"B. c #DEC185",
"V. c #D7C191",
"C. c #E3C687",
"Z. c #E4C78A",
"A. c #E8CB8A",
"S. c #F1CF8D",
"D. c #EED08C",
"F. c #F6D38E",
"G. c #F8D38F",
"H. c #E7CA91",
"J. c #ECD59F",
"K. c #F6D491",
"L. c #F8D491",
"P. c #F7D89F",
"I. c #F7DDA5",
"U. c #85B6CA",
"Y. c #93BACA",
"T. c #97C1D2",
"R. c #B4D1DC",
"E. c #B4CCD3",
"W. c #BCD9E3",
"Q. c #C6C6C6",
"!. c #C9C9C8",
"~. c #D4D8D9",
"^. c #CDD7DB",
"/. c #CCDFE5",
"(. c #E1E2E3",
"). c #EAF3F5",
"_. c #FAFBFA",
"`. c #F6FBFB",
"'. c None",
/* pixels */
"'.'.'.'.'.'.'.'.'.'.'.'.'.'.'.'.'.'.'.'.'.'.'.'.'.'.'.'.'.'.'.'.'.'.'.'.'.'.'.'.'.'.'.'.'.'.'.'.'.'.'.'.'.'.'.'.'.'.'.",
"'.'.'.'.'.'.'.'.'.'.'.'.'.'.'.'.'.'.'.'.'.'.'.'.'.'.'.'.'.'.'.'.'.'.'.'.'.'.'.'.'.'.'.'.'.'.'.'.'.'.'.'.'.'.'.'.'.'.'.",
"'.'.'.'.'.'.'.'.'.'.'.'.'.'.'.'.'.'.'.'.'.'.'.'.'.'.'.'.'.'.'.'.'.'.'.'.'.'.'.'.'.'.'.'.'.'.'.'.'.'.'.'.'.'.'.'.'.'.'.",
"'.'.'.'.'.'.'.'.'.'.'.'.'.'.'.'.'.'.'.'.'.'.'.'.'.'.'.'.'.'.'.'.'.'.'.'.'.'.'.'.'.'.'.'.'.'.'.'.'.'.'.'.'.'.'.'.'.'.'.",
"'.'.'.'.'.'.'.'.'.'.'.'.'.'.'.'.'.'.'.'.'.'.'.'.'.'.'.'.'.'.'.'.'.'.'.'.'.'.'.'.'.'.'.'.'.'.'.'.'.'.'.'.'.'.'.'.'.'.'.",
"'.'.'.'.'.'.'.'.'.'.'.'.'.'.'.'.'.'.'.'.'.'.'.'.'.'.'.'.'.'.'.'.'.'.'.'.'.'.'.'.'.'.'.'.'.'.'.'.'.'.'.'.'.'.'.'.'.'.'.",
"'.'.'.'.'.'.'.'.'.'.'.'.'.'.'.'.'.'.'.'.'.'.'.'.'.'.'.'.'.'.'.'.'.'.'.'.'.'.'.'.'.'.'.'.'.'.'.'.'.'.'.'.'.'.'.'.'.'.'.",
"'.'.'.'.'.'.'.'.'.'.'.'.'.'.'.'.'.'.'.'.'.'.t y d d y d '.'.'.'.'.'.'.'.'.'.'.'.'.'.'.'.'.'.'.'.'.'.'.'.'.'.'.'.'.'.'.",
"'.'.'.'.'.'.'.'.'.'.'.'.'.'.'.'.'.'.'.'.k 2 r t t w D E r z '.'.'.'.'.'.'.'.'.'.'.'.'.'.'.'.'.'.'.'.'.'.'.'.'.'.'.'.'.",
"'.'.'.'.'.'.'.'.'.'.'.'.'.'.'.'.'.'.'.l 2 y w , = < p l * $ l '.'.'.'.'.'.'.'.'.'.'.'.'.'.'.'.'.'.'.'.'.'.'.'.'.'.'.'.",
"'.'.'.'.'.'.'.'.'.'.'.'.'.'.'.'.'.'.'.g Q q o O 8 *.~ + $ f t '.'.'.'.'.'.'.'.'.'.'.'.'.'.'.'.'.'.'.'.'.'.'.'.'.'.'.'.",
"'.'.'.'.'.'.'.'.'.'.'.'.'.'.'.'.'.'.2 u R % X = ] ,.| + * d.L l '.'.'.'.'.'.'.'.'.'.'.'.'.'.'.'.'.'.'.'.'.'.'.'.'.'.'.",
"'.'.'.'.'.'.'.'.'.'.'.'.'.'.'.'.'.'.& X o X X . 5 ] 7 O X 3 , t '.'.'.'.'.'.'.'.'.'.'.'.'.'.'.'.'.'.'.'.'.'.'.'.'.'.'.",
"'.'.'.'.'.'.'.'.'.'.'.'.'.'.'.'.'.'.% % p k l k z N l l l l g z '.'.'.'.'.'.'.'.'.'.'.'.'.'.'.'.'.'.'.'.'.'.'.'.'.'.'.",
"'.'.'.'.'.'.'.'.'.'.'.'.'.'.'.'.'.'.* > w.E.z.r.r.r.Y.~.(./.w.R '.'.'.'.'.'.'.'.'.'.'.'.'.'.'.'.'.'.'.'.'.'.'.'.'.'.'.",
"'.'.'.'.'.'.'.'.'.'.'.'.'.'.'.'.'.'.* 0 z.U.7.7.7.q.W.`.).Y.2.3.'.'.'.'.'.'.'.'.'.'.'.'.'.'.'.'.'.'.'.'.'.'.'.'.'.'.'.",
"'.'.'.'.'.'.'.'.'.'.'.'.'.'.'.'.'.'., q w.8.8.8.q.W.`.).T.8.2.G '.'.'.'.'.'.'.'.'.'.'.'.'.'.'.'.'.'.'.'.'.'.'.'.'.'.'.",
"'.'.'.'.'.'.'.'.'.'.'.'.'.'.'.'.'.'.'.A 1.8.8.q.R.`.).T.0.2.e Q '.'.'.'.'.'.'.'.'.'.'.'.'.'.'.'.'.'.'.'.'.'.'.'.'.'.'.",
"'.'.'.'.'.'.'.'.'.'.'.'.'.'.'.'.'.'.'.'.G 1.e.R.).`./.e.0.e 1 J '.'.'.'.'.'.'.'.'.'.'.'.'.'.'.'.'.'.W '.'.'.'.'.'.'.'.",
"'.'.'.'.'.'.'.'.'.'.'.'.'.'.'.'.'.i.y.'.'.S 5.u.p.l.a.R U p 6 s Y u.'.'.'.'.'.'.'.'.'.'.'.'.'.'.~.c.d.n.'.'.'.'.'.'.'.",
"'.'.'.'.'.'.'.'.'.'.'.'.'.'.'.'.H l k J 4.H Z j x m ( ( { ~ { ~ n B p.n.Q.k.i r u r r r H b.Q.Q.Q.Q.Q.n.b.'.'.'.'.'.'.",
"'.'.'.'.'.'.'.'.'.'.'.'.'.'.'.0 # # # ; j F Z F N X.} } X.} } } n x ` x.x.f.E P J H H H I f.j.j.g.k.h.h.c.'.'.'.'.'.'.",
"'.'.'.'.'.'.'.'.'.'.'.'.'.'.'.l f 0 - & j F Z Z F P m 9 m n n m M M O.k.k.j.g.u.N y i g g g i i E j.h.h.b.'.'.'.'.'.'.",
"'.'.'.'.'.'.'.'.'.'.'.'.'.'.'.T D u ; # 0 H Z F D A h 9 9 9 n } ;.N.N.H.N.&.@.V 3 x X.#.@.#.^ < r '.'.'.'.'.'.'.'.'.'.",
"'.'.'.'.'.'.'.'.'.'.'.'.'.'.'.d 2 & o o $ y D F D J ..C x n @.A.K.F.K.G.L.>. ._ x :.K.F.D.F.Z./ z '.'.'.'.'.'.'.'.'.'.",
"'.'.'.'.'.'.'.'.'.'.'.'.'.y Q R L u # X o - l F L $.Z.;.( @.A.K.K.F.K.S.:.%.m.&.&.D.F.F.K.F.K.V.'.'.'.'.'.'.'.'.'.'.'.",
"'.'.'.'.'.'.'.'.'.'.'.'.r o : 3 : $ o o o - s P %.D.K.D.>.D.K.F.L.G.L.Z...Q '.'.'.P.K.L.L.K.P.'.'.'.'.'.'.'.'.'.'.'.'.",
"'.'.'.'.'.'.'.'.'.'.'.'.2 & l U j $ X o X $ u V M.K.K.K.L.G.G.K.L.L.G.J.'.'.'.'.'.'.'.'.'.'.'.'.'.'.'.'.'.'.'.'.'.'.'.",
"'.'.'.'.'.'.'.'.'.'.'.'.q 2 d.c.9.: X o * , r q B >.K.G.L.G.L.A.N.K.I.'.'.'.'.'.'.'.'.'.'.'.'.'.'.'.'.'.'.'.'.'.'.'.'.",
"'.'.'.'.'.'.'.'.'.'.'.'.r 0 i.x.9.: # : H t.W i & C A.F.L.L.C.( h '.'.'.'.'.'.'.'.'.'.'.'.'.'.'.'.'.'.'.'.'.'.'.'.'.'.",
"'.'.'.'.'.'.'.'.'.'.'.'.u 1 u.x.9.t y H u.j.g.Q j l $.F.K.A.$.z z '.'.'.'.'.'.'.'.'.'.'.'.'.'.'.'.'.'.'.'.'.'.'.'.'.'.",
"'.'.'.'.'.'.'.'.'.'.'.'.t 2 u.x.9.t l L E L o.Q J N P +.$...N D E '.'.'.'.'.'.'.'.'.'.'.'.'.'.'.'.'.'.'.'.'.'.'.'.'.'.",
"'.'.'.'.'.'.'.'.'.'.'.'.i 1 u.v.9.3 r l K J ` Q j d f f 6 r i i I '.'.'.'.'.'.'.'.'.'.'.'.'.'.'.'.'.'.'.'.'.'.'.'.'.'.",
"'.'.'.'.'.'.'.'.'.'.'.'.I z f.c.9., , j K T W I f d y u 3 q i i 4.'.'.'.'.'.'.'.'.'.'.'.'.'.'.'.'.'.'.'.'.'.'.'.'.'.'.",
"'.'.'.'.'.'.'.'.'.'.'.'.'.'.9.T j $ $ u z H H z y y r 3 2 y y H '.'.'.'.'.'.'.'.'.'.'.'.'.'.'.'.'.'.'.'.'.'.'.'.'.'.'.",
"'.'.'.'.'.'.'.'.'.'.'.'.'.'.'.q * # O 3 y y y y y i u r y y z '.'.'.'.'.'.'.'.'.'.'.'.'.'.'.'.'.'.'.'.'.'.'.'.'.'.'.'.",
"'.'.'.'.'.'.'.'.'.'.'.'.'.'.'.Q H K L I Q l y y i y i y i l '.'.'.'.'.'.'.'.'.'.'.'.'.'.'.'.'.'.'.'.'.'.'.'.'.'.'.'.'.",
"'.'.'.'.'.'.'.'.'.'.'.'.'.'.'.'.'.'.'.'.'.'.q r y i g g J '.'.'.'.'.'.'.'.'.'.'.'.'.'.'.'.'.'.'.'.'.'.'.'.'.'.'.'.'.'.",
"'.'.'.'.'.'.'.'.'.'.'.'.'.'.'.'.-.'.'.'.'.'.$ $ , l H H I '.'.'.'.'.'.'.'.'.'.'.'.'.'.'.'.'.'.'.'.'.'.'.'.'.'.'.'.'.'.",
"'.'.'.'.'.'.'.'.'.'.'.'.'.'.'.=.[ =.'.'.'.'.O X # i J H I '.'.'.'.'.'.'.'.'.'.'.'.'.'.'.'.'.'.'.'.'.'.'.'.'.'.'.'.'.'.",
"'.'.'.'.'.'.'.'.'.'.'.'.'.'.'.<.=.<.'.'.'.K o o O g E K K i.'.'.'.'.'.'.'.'.'.'.'.'.'.'.'.'.'.'.'.'.'.'.'.'.'.'.'.'.'.",
"'.'.'.'.'.'.'.'.'.'.'.'.'.'.'.'.'.'.'.'.'.l o o o 2 g g y I '.'.'.'.'.'.'.'.'.'.'.'.'.'.'.'.'.'.'.'.'.'.'.'.'.'.'.'.'.",
"'.'.'.'.'.'.'.'.'.'.'.'.'.'.'.'.'.'.'.'.'.i   o $ 1 y y y H '.'.'.'.'.'.'.'.'.'.'.'.'.'.'.'.'.'.'.'.'.'.'.'.'.'.'.'.'.",
"'.'.'.'.'.'.'.'.'.'.'.'.'.'.'.'.'.K '.'.'.i , 1 r y y i y l '.'.'.'.'.'.'.'.'.'.'.'.'.'.'.'.'.'.'.'.'.'.'.'.'.'.'.'.'.",
"'.'.'.'.'.'.'.'.'.'.'.'.'.'.'.'.z , y z t t y d y i y y y z '.'.'.'.'.'.'.'.'.'.'.'.'.'.'.'.'.'.'.'.'.'.'.'.'.'.'.'.'.",
"'.'.'.'.'.'.'.'.'.'.'.'.'.'.'.'.i ; , & $ 2 i d y y y i g E '.'.'.'.'.'.'.'.'.'.'.'.'.'.'.'.'.'.'.'.'.'.'.'.'.'.'.'.'.",
"'.'.'.'.'.'.'.'.'.'.'.'.'.'.'.'.r , 3 , * , d f i g H E '.'.'.'.'.'.'.'.'.'.'.'.'.'.'.'.'.'.'.'.'.'.'.'.'.'.'.'.'.'.'.",
"'.'.'.'.'.'.'.'.'.'.'.'.'.'.'.'.2 - , , * & 4 1 u '.'.'.'.'.'.'.'.'.'.'.'.'.'.'.'.'.'.'.'.'.'.'.'.'.'.'.'.'.'.'.'.'.'.",
"'.'.'.'.'.'.'.'.'.'.'.'.'.'.'.'.& % , 2 t $ $ o 2 '.'.'.'.'.'.'.'.'.'.'.'.'.'.'.'.'.'.'.'.'.'.'.'.'.'.'.'.'.'.'.'.'.'.",
"'.'.'.'.'.'.'.'.'.'.'.'.'.'.'.T % & , z E O X X r '.'.'.'.'.'.'.'.'.'.'.'.'.'.'.'.'.'.'.'.'.'.'.'.'.'.'.'.'.'.'.'.'.'.",
"'.'.'.'.'.'.'.'.'.'.'.'.'.'.'.T 2 2 y '.J # o o y '.'.'.'.'.'.'.'.'.'.'.'.'.'.'.'.'.'.'.'.'.'.'.'.'.'.'.'.'.'.'.'.'.'.",
"'.'.'.'.'.'.'.'.'.'.'.'.'.'.'.'.'.'.'.'.z o o o z '.'.'.'.'.'.'.'.'.'.'.'.'.'.'.'.'.'.'.'.'.'.'.'.'.'.'.'.'.'.'.'.'.'.",
"'.'.'.'.'.'.'.'.'.'.'.'.'.'.'.'.'.'.'.'.i X O $ Z '.'.'.'.'.'.'.'.'.'.'.'.'.'.'.'.'.'.'.'.'.'.'.'.'.'.'.'.'.'.'.'.'.'.",
"'.'.'.'.'.'.'.'.'.'.'.'.'.'.'.'.'.'.'.'.i * ; , u J '.'.'.'.'.'.'.'.'.'.'.'.'.'.'.'.'.'.'.'.'.'.'.'.'.'.'.'.'.'.'.'.'.",
"'.'.'.'.'.'.'.'.'.'.'.'.'.'.'.'.'.'.'.'.g ; , 3 , , l '.'.'.'.'.'.'.'.'.'.'.'.'.'.'.'.'.'.'.'.'.'.'.'.'.'.'.'.'.'.'.'.",
"'.'.'.'.'.'.'.'.'.'.'.'.'.'.'.'.'.'.'.'.r , , , ; : 4 '.'.'.'.'.'.'.'.'.'.'.'.'.'.'.'.'.'.'.'.'.'.'.'.'.'.'.'.'.'.'.'.",
"'.'.'.'.'.'.'.'.'.'.'.'.'.'.'.'.'.'.'.E 3 , , 3 * * , '.'.'.'.'.'.'.'.'.'.'.'.'.'.'.'.'.'.'.'.'.'.'.'.'.'.'.'.'.'.'.'.",
"'.'.'.'.'.'.'.'.'.'.'.'.'.'.'.'.'.'.'.'.H H l l z z l '.'.'.'.'.'.'.'.'.'.'.'.'.'.'.'.'.'.'.'.'.'.'.'.'.'.'.'.'.'.'.'.",
"'.'.'.'.'.'.'.'.'.'.'.'.'.'.'.'.'.'.'.'.'.'.'.'.'.'.'.'.'.'.'.'.'.'.'.'.'.'.'.'.'.'.'.'.'.'.'.'.'.'.'.'.'.'.'.'.'.'.'.",
"'.'.'.'.'.'.'.'.'.'.'.'.'.'.'.'.'.'.'.'.'.'.'.'.'.'.'.'.'.'.'.'.'.'.'.'.'.'.'.'.'.'.'.'.'.'.'.'.'.'.'.'.'.'.'.'.'.'.'."
};
