/* XPM */
static char *result[] = {
/* columns rows colors chars-per-pixel */
"59 60 188 2 ",
"   c #171717",
".  c #161818",
"X  c #1B1B1B",
"o  c #181817",
"O  c #221E1C",
"+  c #211C16",
"@  c #332A1B",
"#  c #272315",
"$  c #1E1F20",
"%  c #1F2021",
"&  c #242424",
"*  c #282927",
"=  c #2C2C2C",
"-  c #28292B",
";  c #302E2B",
":  c #33332A",
">  c #2F2F31",
",  c #2E3132",
"<  c #26373F",
"1  c #333333",
"2  c #363A3B",
"3  c #3C3C3C",
"4  c #373836",
"5  c #403A31",
"6  c #433B28",
"7  c #644D0E",
"8  c #745919",
"9  c #48453B",
"0  c #695A3C",
"q  c #695C37",
"w  c #705C3D",
"e  c #71643D",
"r  c #283A42",
"t  c #3D4345",
"y  c #3E444B",
"u  c #235A6A",
"i  c #386774",
"p  c #434444",
"a  c #46494B",
"s  c #4C4D4D",
"d  c #464849",
"f  c #514F4F",
"g  c #4E504F",
"h  c #4D5145",
"j  c #5E5747",
"k  c #4D4E51",
"l  c #4E5151",
"z  c #545454",
"x  c #54565A",
"c  c #555A5B",
"v  c #5C5C5C",
"b  c #595956",
"n  c #655B46",
"m  c #735F41",
"M  c #6F6140",
"N  c #746341",
"B  c #786744",
"V  c #7D6B46",
"C  c #72644D",
"Z  c #7D704E",
"A  c #64635B",
"S  c #766954",
"D  c #7E745F",
"F  c #485E65",
"G  c #595E65",
"H  c #5B6165",
"J  c #5A6168",
"K  c #54767C",
"L  c #636363",
"P  c #6C6C6D",
"I  c #676868",
"U  c #716E62",
"Y  c #68746D",
"T  c #70706E",
"R  c #6E6F72",
"E  c #6B7475",
"W  c #737272",
"Q  c #767779",
"!  c #7B7C7C",
"~  c #767877",
"^  c #A57B0C",
"/  c #866B3F",
"(  c #85734D",
")  c #8A774D",
"_  c #89764A",
"`  c #8C7A54",
"'  c #967F54",
"]  c #8F7E67",
"[  c #67837C",
"{  c #B18518",
"}  c #E5AB09",
"|  c #C19B3F",
" . c #E9B537",
".. c #988558",
"X. c #A28A5B",
"o. c #B0945E",
"O. c #BEA55D",
"+. c #8F826A",
"@. c #83817D",
"#. c #8F8C7D",
"$. c #928876",
"%. c #A88F66",
"&. c #AB9364",
"*. c #AF986F",
"=. c #B39560",
"-. c #A79674",
";. c #B19A76",
":. c #B7A376",
">. c #BDA274",
",. c #C18F4A",
"<. c #D4B155",
"1. c #ECBA44",
"2. c #D2AD70",
"3. c #CCB074",
"4. c #D0B579",
"5. c #DABA74",
"6. c #CBAC74",
"7. c #E0B86D",
"8. c #E3BF78",
"9. c #F2C659",
"0. c #EAC57D",
"q. c #EEC563",
"w. c #0D7594",
"e. c #187896",
"r. c #21718C",
"t. c #557281",
"y. c #7A7F82",
"u. c #717F86",
"i. c #667983",
"p. c #0084AD",
"a. c #0C83A9",
"s. c #1B88AA",
"d. c #298DAC",
"f. c #248EAE",
"g. c #3F99B8",
"h. c #7D8285",
"j. c #7F8488",
"k. c #4D9FBB",
"l. c #409AB8",
"z. c #719FAD",
"x. c #649DAD",
"c. c #5EA0B8",
"v. c #61A3B8",
"b. c #7AADBD",
"n. c #77B7CC",
"m. c #838483",
"M. c #858A8D",
"N. c #8D8A8A",
"B. c #818589",
"V. c #959589",
"C. c #898D90",
"Z. c #8C9093",
"A. c #939293",
"S. c #999997",
"D. c #9E9E9D",
"F. c #979899",
"G. c #A29F9B",
"H. c #A49C8A",
"J. c #9FA2A4",
"K. c #A2A3A4",
"L. c #ABACAD",
"P. c #A5A8A9",
"I. c #B4B4B4",
"U. c #B9B9B9",
"Y. c #D6C089",
"T. c #E8C684",
"R. c #F4CD83",
"E. c #F9CF88",
"W. c #FDD285",
"Q. c #FED389",
"!. c #F9D898",
"~. c #C0C0BD",
"^. c #86BED1",
"/. c #89B8C6",
"(. c #8BC2D4",
"). c #AECDD4",
"_. c #ADD1DB",
"`. c #ABD3E0",
"'. c #B5DAE4",
"]. c #C6C6C6",
"[. c #C9C9C8",
"{. c #D3D8D9",
"}. c #CBD7DC",
"|. c #C7E0E6",
" X c #E1E2E3",
".X c #E8F3F5",
"XX c #F7FBFA",
"oX c None",
/* pixels */
"oXoXoXoXoXoXoXoXoXoXoXoXoXoXoXoXoXoXoXoXoXoXoXoXoXoXoXoXoXoXoXoXoXoXoXoXoXoXoXoXoXoXoXoXoXoXoXoXoXoXoXoXoXoXoXoXoXoXoX",
"oXoXoXoXoXoXoXoXoXoXoXoXoXoXoXoXoXoXoXoXoXoXoXoXoXoXoXoXoXoXoXoXoXoXoXoXoXoXoXoXoXoXoXoXoXoXoXoXoXoXoXoXoXoXoXoXoXoXoX",
"oXoXoXoXoXoXoXoXoXoXoXoXoXoXoXoXoXoXoXoXoXoXoXoXoXoXoXoXoXoXoXoXoXoXoXoXoXoXoXoXoXoXoXoXoXoXoXoXoXoXoXoXoXoXoXoXoXoXoX",
"oXoXoXoXoXoXoXoXoXoXoXoXoXoXoXoXoXoXoXoXoXoXoXoXoXoXoXoXoXoXoXoXoXoXoXoXoXoXoXoXoXoXoXoXoXoXoXoXoXoXoXoXoXoXoXoXoXoXoX",
"oXoXoXoXoXoXoXoXoXoXoXoXoXoXoXoXoXoXoXoXoXoXoXoXoXoXoXoXoXoXoXoXoXoXoXoXoXoXoXoXoXoXoXoXoXoXoXoXoXoXoXoXoXoXoXoXoXoXoX",
"oXoXoXoXoXoXoXoXoXoXoXoXoXoXoXoXoXoXoXoXoXoXoXoXoXoXoXoXoXoXoXoXoXoXoXoXoXoXoXoXoXoXoXoXoXoXoXoXoXoXoXoXoXoXoXoXoXoXoX",
"oXoXoXoXoXoXoXoXoXoXoXoXoXoXoXoXoXoXoXoXoXoXoXoXoXoXoXoXoXoXoXoXoXoXoXoXoXoXoXoXoXoXoXoXoXoXoXoXoXoXoXoXoXoXoXoXoXoXoX",
"oXoXoXoXoXoXoXoXoXoXoXoXoXoXoXoXoXoXoXoXoXoXoXoXoXoXoXoXoXoXoXs a k l s a oXoXoXoXoXoXoXoXoXoXoXoXoXoXoXoXoXoXoXoXoXoX",
"oXoXoXoXoXoXoXoXoXoXoXoXoXoXoXoXoXoXoXoXoXoXoXoXoXoXoXoXoXb p W A t y y t t b oXoXoXoXoXoXoXoXoXoXoXoXoXoXoXoXoXoXoXoX",
"oXoXoXoXoXoXoXoXoXoXoXoXoXoXoXoXoXoXoXoXoXoXoXoXoXoXoXoXv & * G 9 9 : , t h 3 v oXoXoXoXoXoXoXoXoXoXoXoXoXoXoXoXoXoXoX",
"oXoXoXoXoXoXoXoXoXoXoXoXoXoXoXoXoXoXoXoXoXoXoXoXoXoXoXoXd k & # _ O.8 # % t ~ z oXoXoXoXoXoXoXoXoXoXoXoXoXoXoXoXoXoXoX",
"oXoXoXoXoXoXoXoXoXoXoXoXoXoXoXoXoXoXoXoXoXoXoXoXoXoXoXv I Z.* @ ,.9.{ @ . * E a t oXoXoXoXoXoXoXoXoXoXoXoXoXoXoXoXoXoX",
"oXoXoXoXoXoXoXoXoXoXoXoXoXoXoXoXoXoXoXoXoXoXoXoXoXoXoXa 1 4 o + 8 ^ 7 o     X o > oXoXoXoXoXoXoXoXoXoXoXoXoXoXoXoXoXoX",
"oXoXoXoXoXoXoXoXoXoXoXoXoXoXoXoXoXoXoXoXoXoXoXoXoXoXoXb z b v v A A b c c v s & * oXoXoXoXoXoXoXoXoXoXoXoXoXoXoXoXoXoX",
"oXoXoXoXoXoXoXoXoXoXoXoXoXoXoXoXoXoXoXoXoXoXoXoXoXoXoXi.b.}. X{.(.c.c.c.b.).b.< & oXoXoXoXoXoXoXoXoXoXoXoXoXoXoXoXoXoX",
"oXoXoXoXoXoXoXoXoXoXoXoXoXoXoXoXoXoXoXoXoXoXoXoXoXoXoXK e.n..XXX'.l.a.w.s.n.b.r & oXoXoXoXoXoXoXoXoXoXoXoXoXoXoXoXoXoX",
"oXoXoXoXoXoXoXoXoXoXoXoXoXoXoXoXoXoXoXoXoXoXoXoXoXoXoXt.w.s.(..XXX'.g.a.p.f.x.p 1 oXoXoXoXoXoXoXoXoXoXoXoXoXoXoXoXoXoX",
"oXoXoXoXoXoXoXoXoXoXoXoXoXoXoXoXoXoXoXoXoXoXoXoXoXoXoXE u w.f.(..XXX_.g.p.p.r.F oXoXoXoXoXoXoXoXoXoXoXoXoXoXoXoXoXoXoX",
"oXoXoXoXoXoXoXoX] oXoXoXoXoXoXoXoXoXoXoXoXoXoXoXoXoXoXL < u d.k.|.XX.X_.k.w.i oXoXoXoXoXoXoXoXoXoXoXoXoXoXoXoXoXoXoXoX",
"oXoXoXoXoXoXoXI.Z.L.{.oXoXoXoXoXoXoXoXoXoXoXoXoXoXN.` j 9 h Y [ V.H.V.N.h.i oXoXB.B.oXoXoXoXoXoXoXoXoXoXoXoXoXoXoXoXoX",
"oXoXoXoXoXoXI.U.[.].].].].I.A p p p p p f G.[.~.V.C w ( ) _ _ _ ) ( n z H H h.I c G L oXoXoXoXoXoXoXoXoXoXoXoXoXoXoXoX",
"oXoXoXoXoXoXL.D.J.J.F.F.F.A.P L L L I P W A.D.D.@.0 B X.....X.......A H J J x , % % % 5 oXoXoXoXoXoXoXoXoXoXoXoXoXoXoX",
"oXoXoXoXoXoXI.K.D.S.R l g z z z z s A N.S.F.S.G.$.( e ( e e V e V U J J J H z - - 3 l v oXoXoXoXoXoXoXoXoXoXoXoXoXoXoX",
"oXoXoXoXoXoXoXoXoXoXp 4 ( &.&.&.X.j 4 S =.>.T.T.8.7.2.X.m 0 q 0 j G H G H F t % 1 d H T oXoXoXoXoXoXoXoXoXoXoXoXoXoXoX",
"oXoXoXoXoXoXoXoXoXoXb ` T.Q.W.W.W.6.0 _ ,.7.W.W.E.W.W.0.o.N 0 ) +.P J J H a & o X = 2 l oXoXoXoXoXoXoXoXoXoXoXoXoXoXoX",
"oXoXoXoXoXoXoXoXoXoXoXY.W.W.W.W.W.R.>.>.6.:.4.R.W.W.W.W.0.o.) 6.T.-.I H H : X X % d P Q ~ s oXoXoXoXoXoXoXoXoXoXoXoXoX",
"oXoXoXoXoXoXoXoXoXoXoXoXQ.Q.W.W.Q.!.oXoXoXQ +.T.W.W.E.Q.W.R.0.0.W.R.:.T j : X o X % , 1 = X p oXoXoXoXoXoXoXoXoXoXoXoX",
"oXoXoXoXoXoXoXoXoXoXoXoXoXoXoXoXoXoXoXoXoXoXoX!.W.W.W.W.W.W.W.W.W.W.4.S a * o X . - x P G = 3 oXoXoXoXoXoXoXoXoXoXoXoX",
"oXoXoXoXoXoXoXoXoXoXoXoXoXoXoXoXoXoXoXoXoXoXoXoX!.Q.8.0.W.W.W.W.W.5.C 5 p 4 * X . , j.L.Z.2 t oXoXoXoXoXoXoXoXoXoXoXoX",
"oXoXoXoXoXoXoXoXoXoXoXoXoXoXoXoXoXoXoXoXoXoXoXoXoXoXn ` 0.W.W.W.T.Z = f ! m.L ; X 1 h.J.M.2 p oXoXoXoXoXoXoXoXoXoXoXoX",
"oXoXoXoXoXoXoXoXoXoXoXoXoXoXoXoXoXoXoXoXoXoXoXoXoXoXb b -.T.W.R.;.v z Q F.F.N.H s y h.J.M.3 a oXoXoXoXoXoXoXoXoXoXoXoX",
"oXoXoXoXoXoXoXoXoXoXoXoXoXoXoXoXoXoXoXoXoXoXoXoXoXoXW H L +.*.%.U L L ! m.I T P v d h.P.M.2 s oXoXoXoXoXoXoXoXoXoXoXoX",
"oXoXoXoXoXoXoXoXoXoXoXoXoXoXoXoXoXoXoXoXoXoXoXoXoXoXW z f p p f f f z Q @.L R G 9 1 m.P.C.2 s oXoXoXoXoXoXoXoXoXoXoXoX",
"oXoXoXoXoXoXoXoXoXoXoXoXoXoXoXoXoXoXoXoXoXoXoXoXoXoX! f s p 4 p s s f P ! P P x 1 1 m.L.Z.z R oXoXoXoXoXoXoXoXoXoXoXoX",
"oXoXoXoXoXoXoXoXoXoXoXoXoXoXoXoXoXoXoXoXoXoXoXoXoXoXoXL f s 3 4 p s f z A L v d & & x Q j.oXoXoXoXoXoXoXoXoXoXoXoXoXoX",
"oXoXoXoXoXoXoXoXoXoXoXoXoXoXoXoXoXoXoXoXoXoXoXoXoXoXoXoXz s a p d s f f s s s 1 % $ & r oXoXoXoXoXoXoXoXoXoXoXoXoXoXoX",
"oXoXoXoXoXoXoXoXoXoXoXoXoXoXoXoXoXoXoXoXoXoXoXoXoXoXoXoXoXv z s f f s f s v ! T I I L ! oXoXoXoXoXoXoXoXoXoXoXoXoXoXoX",
"oXoXoXoXoXoXoXoXoXoXoXoXoXoXoXoXoXoXoXoXoXoXoXoXoXoXoXoXoXoXI z z f s p p oXoXoXoXoXoXoXoXoXoXoXoXoXoXoXoXoXoXoXoXoXoX",
"oXoXoXoXoXoXoXoXoXoXoXoXoXoXoXoXoXoXoXoXoXoXoXoXoXoXoXoXoXoXP L L v 1 & % oXoXoXoXoX<.oXoXoXoXoXoXoXoXoXoXoXoXoXoXoXoX",
"oXoXoXoXoXoXoXoXoXoXoXoXoXoXoXoXoXoXoXoXoXoXoXoXoXoXoXoXoXoXW L L f & o X oXoXoXoX1.} 1.oXoXoXoXoXoXoXoXoXoXoXoXoXoXoX",
"oXoXoXoXoXoXoXoXoXoXoXoXoXoXoXoXoXoXoXoXoXoXoXoXoXoXoXoXoXm.P P W z % X X P oXoXoX9. .q.oXoXoXoXoXoXoXoXoXoXoXoXoXoXoX",
"oXoXoXoXoXoXoXoXoXoXoXoXoXoXoXoXoXoXoXoXoXoXoXoXoXoXoXoXoXT s z z 3 X X X A oXoXoXoXoXoXoXoXoXoXoXoXoXoXoXoXoXoXoXoXoX",
"oXoXoXoXoXoXoXoXoXoXoXoXoXoXoXoXoXoXoXoXoXoXoXoXoXoXoXoXoXL s s f 4 % X   s oXoXoXoXoXoXoXoXoXoXoXoXoXoXoXoXoXoXoXoXoX",
"oXoXoXoXoXoXoXoXoXoXoXoXoXoXoXoXoXoXoXoXoXoXoXoXoXoXoXoXoXv s s f s p 3 > f oXoXoXR oXoXoXoXoXoXoXoXoXoXoXoXoXoXoXoXoX",
"oXoXoXoXoXoXoXoXoXoXoXoXoXoXoXoXoXoXoXoXoXoXoXoXoXoXoXoXoXb s s s f s s f s d b a 1 b oXoXoXoXoXoXoXoXoXoXoXoXoXoXoXoX",
"oXoXoXoXoXoXoXoXoXoXoXoXoXoXoXoXoXoXoXoXoXoXoXoXoXoXoXoXoXW z s s s s s f r & ; 1 1 k oXoXoXoXoXoXoXoXoXoXoXoXoXoXoXoX",
"oXoXoXoXoXoXoXoXoXoXoXoXoXoXoXoXoXoXoXoXoXoXoXoXoXoXoXoXoXoXoX! L z f s k 4 * 1 1 1 p oXoXoXoXoXoXoXoXoXoXoXoXoXoXoXoX",
"oXoXoXoXoXoXoXoXoXoXoXoXoXoXoXoXoXoXoXoXoXoXoXoXoXoXoXoXoXoXoXoXoXoXd 4 5 = - 1 4 ; 3 oXoXoXoXoXoXoXoXoXoXoXoXoXoXoXoX",
"oXoXoXoXoXoXoXoXoXoXoXoXoXoXoXoXoXoXoXoXoXoXoXoXoXoXoXoXoXoXoXoXoXoX3 X & & a 3 1 - = oXoXoXoXoXoXoXoXoXoXoXoXoXoXoXoX",
"oXoXoXoXoXoXoXoXoXoXoXoXoXoXoXoXoXoXoXoXoXoXoXoXoXoXoXoXoXoXoXoXoXoXp X X X W z 1 = = T oXoXoXoXoXoXoXoXoXoXoXoXoXoXoX",
"oXoXoXoXoXoXoXoXoXoXoXoXoXoXoXoXoXoXoXoXoXoXoXoXoXoXoXoXoXoXoXoXoXoXf X o % I oXs 3 3 I oXoXoXoXoXoXoXoXoXoXoXoXoXoXoX",
"oXoXoXoXoXoXoXoXoXoXoXoXoXoXoXoXoXoXoXoXoXoXoXoXoXoXoXoXoXoXoXoXoXoXz X X O z oXoXoXoXoXoXoXoXoXoXoXoXoXoXoXoXoXoXoXoX",
"oXoXoXoXoXoXoXoXoXoXoXoXoXoXoXoXoXoXoXoXoXoXoXoXoXoXoXoXoXoXoXoXoXoXG & % X f oXoXoXoXoXoXoXoXoXoXoXoXoXoXoXoXoXoXoXoX",
"oXoXoXoXoXoXoXoXoXoXoXoXoXoXoXoXoXoXoXoXoXoXoXoXoXoXoXoXoXoXoXoXoXI p > ; * k oXoXoXoXoXoXoXoXoXoXoXoXoXoXoXoXoXoXoXoX",
"oXoXoXoXoXoXoXoXoXoXoXoXoXoXoXoXoXoXoXoXoXoXoXoXoXoXoXoXoXoXoXoXv 1 1 4 1 ; z oXoXoXoXoXoXoXoXoXoXoXoXoXoXoXoXoXoXoXoX",
"oXoXoXoXoXoXoXoXoXoXoXoXoXoXoXoXoXoXoXoXoXoXoXoXoXoXoXoXoXoXoXoX5 = = 1 4 1 p oXoXoXoXoXoXoXoXoXoXoXoXoXoXoXoXoXoXoXoX",
"oXoXoXoXoXoXoXoXoXoXoXoXoXoXoXoXoXoXoXoXoXoXoXoXoXoXoXoXoXoXoXoX4 * * , 1 1 3 Q oXoXoXoXoXoXoXoXoXoXoXoXoXoXoXoXoXoXoX",
"oXoXoXoXoXoXoXoXoXoXoXoXoXoXoXoXoXoXoXoXoXoXoXoXoXoXoXoXoXoXoXoXG b b v G L A oXoXoXoXoXoXoXoXoXoXoXoXoXoXoXoXoXoXoXoX",
"oXoXoXoXoXoXoXoXoXoXoXoXoXoXoXoXoXoXoXoXoXoXoXoXoXoXoXoXoXoXoXoXoXoXoXoXoXoXoXoXoXoXoXoXoXoXoXoXoXoXoXoXoXoXoXoXoXoXoX",
"oXoXoXoXoXoXoXoXoXoXoXoXoXoXoXoXoXoXoXoXoXoXoXoXoXoXoXoXoXoXoXoXoXoXoXoXoXoXoXoXoXoXoXoXoXoXoXoXoXoXoXoXoXoXoXoXoXoXoX"
};
