/* XPM */
static char *result[] = {
/* columns rows colors chars-per-pixel */
"59 60 187 2 ",
"   c #171817",
".  c #1A1B1B",
"X  c #171717",
"o  c #23201A",
"O  c #362E1B",
"+  c #1D1E20",
"@  c #1F2021",
"#  c #232424",
"$  c #2A2924",
"%  c #25292A",
"&  c #2C2C2D",
"*  c #302E2F",
"=  c #2D2E30",
"-  c #252D30",
";  c #2F3133",
":  c #333434",
">  c #333638",
",  c #37393A",
"<  c #3C3C3C",
"1  c #383836",
"2  c #463A1C",
"3  c #403F3F",
"4  c #483F28",
"5  c #3F413F",
"6  c #6B531F",
"7  c #46453C",
"8  c #524B3C",
"9  c #5E523F",
"0  c #675321",
"q  c #665A3F",
"w  c #685B3F",
"e  c #3C3E40",
"r  c #3F4142",
"t  c #315262",
"y  c #39667A",
"u  c #434343",
"i  c #444649",
"p  c #4C4C4C",
"a  c #484949",
"s  c #544D40",
"d  c #4E504F",
"f  c #5B5242",
"g  c #53514F",
"h  c #5C5649",
"j  c #555547",
"k  c #4C4E51",
"l  c #4E5152",
"z  c #545454",
"x  c #5A5751",
"c  c #5B5956",
"v  c #545758",
"b  c #5C5C5C",
"n  c #56595A",
"m  c #6B5D42",
"M  c #665D45",
"N  c #605A50",
"B  c #6F6044",
"V  c #736646",
"C  c #7B6B4A",
"Z  c #73664F",
"A  c #68665D",
"S  c #716A56",
"D  c #5B5E62",
"F  c #535D62",
"G  c #5B6165",
"H  c #5A6168",
"J  c #576C73",
"K  c #54717E",
"L  c #636463",
"P  c #65696C",
"I  c #6B6C6C",
"U  c #656569",
"Y  c #6C7169",
"T  c #787769",
"R  c #6D6F71",
"E  c #616C71",
"W  c #6E7172",
"Q  c #737474",
"!  c #7A7B7B",
"~  c #777779",
"^  c #8E6E28",
"/  c #81714D",
"(  c #8B7A55",
")  c #8E7E5A",
"_  c #857555",
"`  c #947849",
"'  c #827B6C",
"]  c #817865",
"[  c #99865B",
"{  c #BD9A5D",
"}  c #9B8960",
"|  c #96866B",
" . c #9E9069",
".. c #8D8774",
"X. c #8B8777",
"o. c #9D9074",
"O. c #90866E",
"+. c #A08B60",
"@. c #A79264",
"#. c #B09265",
"$. c #A69778",
"%. c #AC9D78",
"&. c #BBA474",
"*. c #B5A376",
"=. c #D6B45B",
"-. c #C4A44E",
";. c #E1AD42",
":. c #E2BD5D",
">. c #C8AE7E",
",. c #CCB37E",
"<. c #CDB26E",
"1. c #E7BF60",
"2. c #EDC25C",
"3. c #ECCC7F",
"4. c #357794",
"5. c #356D83",
"6. c #527281",
"7. c #7A7D80",
"8. c #667D85",
"9. c #3F809F",
"0. c #3982A3",
"q. c #3B85AA",
"w. c #7F8180",
"e. c #6A909F",
"r. c #678E99",
"t. c #468BA9",
"y. c #4A91AF",
"u. c #5396B4",
"i. c #5792AA",
"p. c #659EB7",
"a. c #6CA3B7",
"s. c #828384",
"d. c #838588",
"f. c #8A8C8D",
"g. c #8A8986",
"h. c #8B8F92",
"j. c #939395",
"k. c #9C9993",
"l. c #9B9A9B",
"z. c #A49E90",
"x. c #B7A380",
"c. c #A9A598",
"v. c #819FAB",
"b. c #9FA2A5",
"n. c #83A9B6",
"m. c #A3A3A4",
"M. c #AAABAC",
"N. c #A1A5A9",
"B. c #ACAFB2",
"V. c #B4B4B4",
"C. c #BEBDBD",
"Z. c #D8BD81",
"A. c #C7B08A",
"S. c #DEC287",
"D. c #E4C68A",
"F. c #E6CA8D",
"G. c #ECCC8D",
"H. c #E3C585",
"J. c #F4CF8E",
"K. c #F5D38E",
"L. c #F8D38F",
"P. c #E6CC96",
"I. c #F5D491",
"U. c #F8D392",
"Y. c #F4D89D",
"T. c #F5DEA6",
"R. c #F8DDA6",
"E. c #F9E3B7",
"W. c #86B6CB",
"Q. c #85B1C0",
"!. c #90BDCF",
"~. c #99C2D1",
"^. c #A1C1CC",
"/. c #B3D3DF",
"(. c #B8D1D9",
"). c #A1C8D9",
"_. c #B3D3E1",
"`. c #C5C5C5",
"'. c #CACACB",
"]. c #D6D6D6",
"[. c #DADADC",
"{. c #D2DDE0",
"}. c #D7E0E3",
"|. c #EBEAEA",
" X c #EDF4F6",
".X c #F4F9F9",
"XX c None",
/* pixels */
"XXXXXXXXXXXXXXXXXXXXXXXXXXXXXXXXXXXXXXXXXXXXXXXXXXXXXXXXXXXXXXXXXXXXXXXXXXXXXXXXXXXXXXXXXXXXXXXXXXXXXXXXXXXXXXXXXXXXXX",
"XXXXXXXXXXXXXXXXXXXXXXXXXXXXXXXXXXXXXXXXXXXXXXXXXXXXXXXXXXXXXXXXXXXXXXXXXXXXXXXXXXXXXXXXXXXXXXXXXXXXXXXXXXXXXXXXXXXXXX",
"XXXXXXXXXXXXXXXXXXXXXXXXXXXXXXXXXXXXXXXXXXXXXXXXXXXXXXXXXXXXXXXXXXXXXXXXXXXXXXXXXXXXXXXXXXXXXXXXXXXXXXXXXXXXXXXXXXXXXX",
"XXXXXXXXXXXXXXXXXXXXXXXXXXXXXXXXXXXXXXXXXXXXXXXXXXXXXXXXXXXXXXXXXXXXXXXXXXXXXXXXXXXXXXXXXXXXXXXXXXXXXXXXXXXXXXXXXXXXXX",
"XXXXXXXXXXXXXXXXXXXXXXXXXXXXXXXXXXXXXXXXXXXXXXXXXXXXXXXXXXXXXXXXXXXXXXXXXXXXXXXXXXXXXXXXXXXXXXXXXXXXXXXXXXXXXXXXXXXXXX",
"XXXXXXXXXXXXXXXXXXXXXXXXXXXXXXXXXXXXXXXXXXz l k k z b I XXXXXXXXXXXXXXXXXXXXXXXXXXXXXXXXXXXXXXXXXXXXXXXXXXXXXXXXXXXXXX",
"XXXXXXXXXXXXXXXXXXXXXXXXXXXXXXXXXXXXXXa > a k p i D s.u < XXXXXXXXXXXXXXXXXXXXXXXXXXXXXXXXXXXXXXXXXXXXXXXXXXXXXXXXXXXX",
"XXXXXXXXXXXXXXXXXXXXXXXXXXXXXXXXXXXXL < k r - $ 7 7 v & . p XXXXXXXXXXXXXXXXXXXXXXXXXXXXXXXXXXXXXXXXXXXXXXXXXXXXXXXXXX",
"XXXXXXXXXXXXXXXXXXXXXXXXXXXXXXXXXXXXl 7.i + . 0 -.+.O . v z I XXXXXXXXXXXXXXXXXXXXXXXXXXXXXXXXXXXXXXXXXXXXXXXXXXXXXXXX",
"XXXXXXXXXXXXXXXXXXXXXXXXXXXXXXXXXXv > L & . o ^ 2.-.2 X Q ~ g XXXXXXXXXXXXXXXXXXXXXXXXXXXXXXXXXXXXXXXXXXXXXXXXXXXXXXXX",
"XXXXXXXXXXXXXXXXXXXXXXXXXXXXXXXXXXa . X X   X 2 ^ 6 o X # & < XXXXXXXXXXXXXXXXXXXXXXXXXXXXXXXXXXXXXXXXXXXXXXXXXXXXXXXX",
"XXXXXXXXXXXXXXXXXXXXXXXXXXXXXXXXXX3 @ v R R P P Y I W W Q L n XXXXXXXXXXXXXXXXXXXXXXXXXXXXXXXXXXXXXXXXXXXXXXXXXXXXXXXX",
"XXXXXXXXXXXXXXXXXXXXXXXXXXXXXXXXXX3 % r.(.Q.p.p.p.W.}.|.{.n.8.XXXXXXXXXXXXXXXXXXXXXXXXXXXXXXXXXXXXXXXXXXXXXXXXXXXXXXXX",
"XXXXXXXXXXXXXXXXXXXXXXXXXXXXXXXXXX< - v.W.t.0.0.u._..X X!.0.6.XXXXXXXXXXXXXXXXXXXXXXXXXXXXXXXXXXXXXXXXXXXXXXXXXXXXXXXX",
"XXXXXXXXXXXXXXXXXXXXXXXXXXXXXXXXXXp > e.t.0.0.u./..X X~.t.4.K XXXXXXXXXXXXXXXXXXXXXXXXXXXXXXXXXXXXXXXXXXXXXXXXXXXXXXXX",
"XXXXXXXXXXXXXXXXXXXXXXXXXXXXXXXXXXXXH y 0.q.u._..X X).y.4.t E XXXXXXXXXXXXXXXXXXXXXXXXXXXXXXXXXXXXXXXXXXXXXXXXXXXXXXXX",
"XXXXXXXXXXXXXXXXXXXXXXXXXXXXXXXXXXXXXXJ 5.i.^.}.|.[.a.i.y 5 x XXXXXXXXXXXXXXXXXXXXXXXXXXXXXXXXXXXX' XXXXXXXXXXXXXXXXXX",
"XXXXXXXXXXXXXXXXXXXXXXXXXXXXXXXXd.d.XXXXF J ~ ' X.X.Y Y j 8 9 S ' c.'.[.'.g.I I W I I ! (.].].].`.M.V.XXXXXXXXXXXXXXXX",
"XXXXXXXXXXXXXXXXXXXXXXXXXXXXXXz l l z W U D n h C _ ( _ ( _ ( V M X.C.'.V.c e < 3 7 3 p N.`.`.'.'.'.`.V.XXXXXXXXXXXXXX",
"XXXXXXXXXXXXXXXXXXXXXXXXXXXXa . + + % l G H G G _ } [ [ [ [ [ C q T k.l.j.s.~ R U U U I X.f.j.l.m.N.l.M.XXXXXXXXXXXXXX",
"XXXXXXXXXXXXXXXXXXXXXXXXXXXXQ b a ; % k H F D G P V m V B B V C / | c.c.z.z.g.G a h x x h z z P l.M.m.V.XXXXXXXXXXXXXX",
"XXXXXXXXXXXXXXXXXXXXXXXXXXXXI b a ; @ > F H G G G b B w h V +.,.S.H.F.F.>.#./ 1 h @.&.&.&. .j u f.XXXXXXXXXXXXXXXXXXXX",
"XXXXXXXXXXXXXXXXXXXXXXXXXXXXv e ; @ . . e F H G G ..[ w m @.G.K.L.L.L.L.H.{ ` 9 &.I.K.U.I.I.%.b XXXXXXXXXXXXXXXXXXXXXX",
"XXXXXXXXXXXXXXXXXXXXXXXX< D ~ P p # . . $ x H I %.S.,.[ @.G.K.K.L.L.K.A.$.A.A.x.F.U.J.J.K.I.P.XXXXXXXXXXXXXXXXXXXXXXXX",
"XXXXXXXXXXXXXXXXXXXXXXz X = e > # . . X # j A %.G.K.K.H.G.I.K.U.K.L.G.o.! XXXXXXT.Y.I.I.I.Y.E.XXXXXXXXXXXXXXXXXXXXXXXX",
"XXXXXXXXXXXXXXXXXXXXXXp # D ~ P ; . . . o 3 N *.I.K.I.I.I.K.K.U.U.U.Y.XXXXXXXXXXXXXXXXT.XXXXXXXXXXXXXXXXXXXXXXXXXXXXXX",
"XXXXXXXXXXXXXXXXXXXXXXa & w.B.j.e . + # , u < s &.K.K.K.I.K.F.,.F.R.XXXXXXXXXXXXXXXXXXXXXXXXXXXXXXXXXXXXXXXXXXXXXXXXXX",
"XXXXXXXXXXXXXXXXXXXXXXz = 7.b.f.e # = R z.j.L * f ,.K.K.I.F.} 8 z.XXXXXXXXXXXXXXXXXXXXXXXXXXXXXXXXXXXXXXXXXXXXXXXXXXXX",
"XXXXXXXXXXXXXXXXXXXXXXL = 7.b.f.k k D g.l.l.s.b b O.S.J.D.$.A v f.XXXXXXXXXXXXXXXXXXXXXXXXXXXXXXXXXXXXXXXXXXXXXXXXXXXX",
"XXXXXXXXXXXXXXXXXXXXXXL = d.B.j.i z U R N ~ 7.U N A T o.] L D L XXXXXXXXXXXXXXXXXXXXXXXXXXXXXXXXXXXXXXXXXXXXXXXXXXXXXX",
"XXXXXXXXXXXXXXXXXXXXXXU = 7.b.f.e 1 z I b ! ! v k z p 5 < p g b XXXXXXXXXXXXXXXXXXXXXXXXXXXXXXXXXXXXXXXXXXXXXXXXXXXXXX",
"XXXXXXXXXXXXXXXXXXXXXXXXF 7.N.h.e & g I I ! W z p k u < < p g Q XXXXXXXXXXXXXXXXXXXXXXXXXXXXXXXXXXXXXXXXXXXXXXXXXXXXXX",
"XXXXXXXXXXXXXXXXXXXXXXXXXXh.P l $ . < x D D v g p a , < a p b XXXXXXXXXXXXXXXXXXXXXXXXXXXXXXXXXXXXXXXXXXXXXXXXXXXXXXXX",
"XXXXXXXXXXXXXXXXXXXXXXXXXXXXk # # # ; u p g k k p p a p g g D ' XXXXXXXXXXXXXXXXXXXXXXXXXXXXXXXXXXXXXXXXXXXXXXXXXXXXXX",
"XXXXXXXXXXXXXXXXXXXXXXXXXXXXXXR ~ XXL : < p p k p p p g x D b I d.XXXXXXXXXXXXXXXXXXXXXXXXXXXXXXXXXXXXXXXXXXXXXXXXXXXX",
"XXXXXXXXXXXXXXXXXXXXXXXXXXXXXXc.XXXXY # # : p N N D I Q Q D I W n P XXXXXXXXXXXXXXXXXXXXXXXXXXXXXXXXXXXXXXXXXXXXXXXXXX",
"XXXXXXXXXXXXXXXXXXXXXXXXXXXXXX=.=.XXg X . . v XXXXXXXXXXXX! Q b p g N XXXXXXXXXXXXXXXXXXXXXXXXXXXXXXXXXXXXXXXXXXXXXXXX",
"XXXXXXXXXXXXXXXXXXXXXXXXXXXXG.;.;.&.1   . # XXXXXXXXXXXXXXXXQ p p p p v XXXXXXXXXXXXXXXXXXXXXXXXXXXXXXXXXXXXXXXXXXXXXX",
"XXXXXXXXXXXXXXXXXXXXXXXXXXXXXX:.1.O.# . X , XXXXXXXXXXXXXXXXXXI k g p z XXXXXXXXXXXXXXXXXXXXXXXXXXXXXXXXXXXXXXXXXXXXXX",
"XXXXXXXXXXXXXXXXXXXXXXXXXXXXXXXXXXz . . . p XXXXXXXXXXXXXXXXXX! z z d L XXXXXXXXXXXXXXXXXXXXXXXXXXXXXXXXXXXXXXXXXXXXXX",
"XXXXXXXXXXXXXXXXXXXXXXXXXXXXXXXXXX: X . # XXXXXXXXXXXXXXXXXXXXU v n N 7.XXXXXXXXXXXXXXXXXXXXXXXXXXXXXXXXXXXXXXXXXXXXXX",
"XXXXXXXXXXXXXXXXXXXXXXXXXXXXXXXXXX# X X # XXXXXXXXXXXXXXXXXXXXb z v R XXXXXXXXXXXXXXXXXXXXXXXXXXXXXXXXXXXXXXXXXXXXXXXX",
"XXXXXXXXXXXXXXXXXXXXXXXXXXXXXXXX3 . . . 7 XXXXXXXXXXXXXXXXXX~ x z z 7.XXXXXXXXXXXXXXXXXXXXXXXXXXXXXXXXXXXXXXXXXXXXXXXX",
"XXXXXXXXXXXXXXXXXXXXXXXXXXXXXXXX& X . # XXXXXXXXXXXXXXXXXXXXD d g n XXXXXXXXXXXXXXXXXXXXXXXXXXXXXXXXXXXXXXXXXXXXXXXXXX",
"XXXXXXXXXXXXXXXXXXXXXXXXXXXXXXXX# X . > XXXXXXXXXXXXXXXXXXL < u u U XXXXXXXXXXXXXXXXXXXXXXXXXXXXXXXXXXXXXXXXXXXXXXXXXX",
"XXXXXXXXXXXXXXXXXXXXXXXXXXXXXXa X . . p XXXXXXXXXXXXXXXXI a , : : Q XXXXXXXXXXXXXXXXXXXXXXXXXXXXXXXXXXXXXXXXXXXXXXXXXX",
"XXXXXXXXXXXXXXXXXXXXXXXXXXXXXX: X . # XXXXXXXXXXXXXXXXx < 7 u < u XXXXXXXXXXXXXXXXXXXXXXXXXXXXXXXXXXXXXXXXXXXXXXXXXXXX",
"XXXXXXXXXXXXXXXXXXXXXXXXXXXXXX# X X < XXXXXXXXXXXXXX! , : < 3 3 u ! XXXXXXXXXXXXXXXXXXXXXXXXXXXXXXXXXXXXXXXXXXXXXXXXXX",
"XXXXXXXXXXXXXXXXXXXXXXXXXXXXg X . X p XXXXXXXXXXXXXXXXc < : > < 3 L XXXXXXXXXXXXXXXXXXXXXXXXXXXXXXXXXXXXXXXXXXXXXXXXXX",
"XXXXXXXXXXXXXXXXXXXXXXXXXXXX1 # # % XXXXXXXXXXXXXXXXXXXXXXp : # < N XXXXXXXXXXXXXXXXXXXXXXXXXXXXXXXXXXXXXXXXXXXXXXXXXX",
"XXXXXXXXXXXXXXXXXXXXXXXXXXI < * * 1 W XXXXXXXXXXXXXXXXXXXXXXXXu < I XXXXXXXXXXXXXXXXXXXXXXXXXXXXXXXXXXXXXXXXXXXXXXXXXX",
"XXXXXXXXXXXXXXXXXXXXXXXXXXu : : > : a XXXXXXXXXXXXXXXXXXXXXXXXXXR XXXXXXXXXXXXXXXXXXXXXXXXXXXXXXXXXXXXXXXXXXXXXXXXXXXX",
"XXXXXXXXXXXXXXXXXXXXXXXXXXu > : : : > N XXXXXXXXXXXXXXXXXXXXXXXXXXXXXXXXXXXXXXXXXXXXXXXXXXXXXXXXXXXXXXXXXXXXXXXXXXXXXX",
"XXXXXXXXXXXXXXXXXXXXXXXXXXXXb < & % ; z XXXXXXXXXXXXXXXXXXXXXXXXXXXXXXXXXXXXXXXXXXXXXXXXXXXXXXXXXXXXXXXXXXXXXXXXXXXXXX",
"XXXXXXXXXXXXXXXXXXXXXXXXXXXXXXXXp & & c XXXXXXXXXXXXXXXXXXXXXXXXXXXXXXXXXXXXXXXXXXXXXXXXXXXXXXXXXXXXXXXXXXXXXXXXXXXXXX",
"XXXXXXXXXXXXXXXXXXXXXXXXXXXXXXXXXXI z Q XXXXXXXXXXXXXXXXXXXXXXXXXXXXXXXXXXXXXXXXXXXXXXXXXXXXXXXXXXXXXXXXXXXXXXXXXXXXXX",
"XXXXXXXXXXXXXXXXXXXXXXXXXXXXXXXXXXXXXXXXXXXXXXXXXXXXXXXXXXXXXXXXXXXXXXXXXXXXXXXXXXXXXXXXXXXXXXXXXXXXXXXXXXXXXXXXXXXXXX",
"XXXXXXXXXXXXXXXXXXXXXXXXXXXXXXXXXXXXXXXXXXXXXXXXXXXXXXXXXXXXXXXXXXXXXXXXXXXXXXXXXXXXXXXXXXXXXXXXXXXXXXXXXXXXXXXXXXXXXX",
"XXXXXXXXXXXXXXXXXXXXXXXXXXXXXXXXXXXXXXXXXXXXXXXXXXXXXXXXXXXXXXXXXXXXXXXXXXXXXXXXXXXXXXXXXXXXXXXXXXXXXXXXXXXXXXXXXXXXXX",
"XXXXXXXXXXXXXXXXXXXXXXXXXXXXXXXXXXXXXXXXXXXXXXXXXXXXXXXXXXXXXXXXXXXXXXXXXXXXXXXXXXXXXXXXXXXXXXXXXXXXXXXXXXXXXXXXXXXXXX"
};
