/* XPM */
static char *result[] = {
/* columns rows colors chars-per-pixel */
"59 60 187 2 ",
"   c #171817",
".  c #161A19",
"X  c #1A1B1B",
"o  c #181716",
"O  c #242019",
"+  c #382E18",
"@  c #1D1E20",
"#  c #1F2528",
"$  c #232424",
"%  c #2A2924",
"&  c #272829",
"*  c #2B2C2D",
"=  c #302E2F",
"-  c #2D2E30",
";  c #232D30",
":  c #2F3133",
">  c #333434",
",  c #323638",
"<  c #37393A",
"1  c #3C3C3C",
"2  c #383836",
"3  c #493A17",
"4  c #4A3F25",
"5  c #3F413F",
"6  c #705210",
"7  c #6B5314",
"8  c #46453B",
"9  c #544B3B",
"0  c #5C523E",
"q  c #6B5B3C",
"w  c #64563C",
"e  c #705F3D",
"r  c #3C3E40",
"t  c #3E4142",
"y  c #255364",
"u  c #28677C",
"i  c #444444",
"p  c #44464A",
"a  c #4C4C4C",
"s  c #47494A",
"d  c #4D514F",
"f  c #53514F",
"g  c #5D574C",
"h  c #585445",
"j  c #4D4E51",
"k  c #474D50",
"l  c #4E5152",
"z  c #545454",
"x  c #5B5A56",
"c  c #545758",
"v  c #56595A",
"b  c #5C5D5C",
"n  c #5B5751",
"m  c #665A44",
"M  c #756441",
"N  c #7D6A45",
"B  c #76664C",
"V  c #68665C",
"C  c #726A54",
"Z  c #4D5D63",
"A  c #555D63",
"S  c #5C5E62",
"D  c #5B6264",
"F  c #5A6168",
"G  c #566166",
"H  c #5C6D71",
"J  c #4C727F",
"K  c #476C76",
"L  c #636363",
"P  c #656A6C",
"I  c #6B6C6C",
"U  c #656669",
"Y  c #6B7169",
"T  c #787768",
"R  c #6C6F72",
"E  c #6F7171",
"W  c #737373",
"Q  c #7A7A7B",
"!  c #777678",
"~  c #946D10",
"^  c #806E45",
"/  c #8A754C",
"(  c #8E7A50",
")  c #857958",
"_  c #917E55",
"`  c #997741",
"'  c #837B69",
"]  c #EAAB1D",
"[  c #CAA33B",
"{  c #9B8559",
"}  c #A58C5A",
"|  c #B6915E",
" . c #A89054",
".. c #8E856A",
"X. c #8C8675",
"o. c #9F9071",
"O. c #97886F",
"+. c #A69263",
"@. c #A99774",
"#. c #AD9B76",
"$. c #B59F70",
"%. c #A0896B",
"&. c #BFA36C",
"*. c #BEA868",
"=. c #B7A279",
"-. c #C49952",
";. c #D4AD50",
":. c #ECBD4A",
">. c #E1B546",
",. c #C8A974",
"<. c #CFB376",
"1. c #D5B677",
"2. c #CBAE6D",
"3. c #F5C144",
"4. c #EAC47C",
"5. c #E9C47D",
"6. c #F1CD72",
"7. c #087897",
"8. c #196E85",
"9. c #5F7E86",
"0. c #497383",
"q. c #797D80",
"w. c #0283A5",
"e. c #0286AB",
"r. c #1D85A6",
"t. c #218CAE",
"y. c #3090A9",
"u. c #3798B7",
"i. c #2793B2",
"p. c #5B8F9B",
"a. c #7F8283",
"s. c #4093AD",
"d. c #5F91A1",
"f. c #519FBA",
"g. c #53A2BA",
"h. c #79A0AD",
"j. c #6CA8B9",
"k. c #79B4C6",
"l. c #74B8D0",
"z. c #838384",
"x. c #828588",
"c. c #878C8C",
"v. c #8A8C8D",
"b. c #8B8B85",
"n. c #8A8F92",
"m. c #929395",
"M. c #9D9993",
"N. c #9C9A9B",
"B. c #A59F8F",
"V. c #A9A596",
"C. c #9EA2A5",
"Z. c #A4A3A3",
"A. c #AAABAC",
"S. c #A0A5A9",
"D. c #ABAFB2",
"F. c #B5B4B5",
"G. c #BEBDBD",
"H. c #CCAE80",
"J. c #CBB288",
"K. c #E9C581",
"L. c #EBC985",
"P. c #E7C686",
"I. c #F2CB83",
"U. c #FACE83",
"Y. c #F7D385",
"T. c #FDD384",
"R. c #FCD28A",
"E. c #FBDD9E",
"W. c #FAD894",
"Q. c #E9CD93",
"!. c #FDE3B1",
"~. c #83BED1",
"^. c #99C2CE",
"/. c #8EC3D3",
"(. c #96C9DB",
"). c #B2D2DA",
"_. c #AAD4E2",
"`. c #C5C5C5",
"'. c #CACACB",
"]. c #D6D6D6",
"[. c #DADADB",
"{. c #CFDDE0",
"}. c #D5E0E4",
"|. c #EBEAEA",
" X c #EBF4F6",
".X c #F3F9F9",
"XX c None",
/* pixels */
"XXXXXXXXXXXXXXXXXXXXXXXXXXXXXXXXXXXXXXXXXXXXXXXXXXXXXXXXXXXXXXXXXXXXXXXXXXXXXXXXXXXXXXXXXXXXXXXXXXXXXXXXXXXXXXXXXXXXXX",
"XXXXXXXXXXXXXXXXXXXXXXXXXXXXXXXXXXXXXXXXXXXXXXXXXXXXXXXXXXXXXXXXXXXXXXXXXXXXXXXXXXXXXXXXXXXXXXXXXXXXXXXXXXXXXXXXXXXXXX",
"XXXXXXXXXXXXXXXXXXXXXXXXXXXXXXXXXXXXXXXXXXXXXXXXXXXXXXXXXXXXXXXXXXXXXXXXXXXXXXXXXXXXXXXXXXXXXXXXXXXXXXXXXXXXXXXXXXXXXX",
"XXXXXXXXXXXXXXXXXXXXXXXXXXXXXXXXXXXXXXXXXXXXXXXXXXXXXXXXXXXXXXXXXXXXXXXXXXXXXXXXXXXXXXXXXXXXXXXXXXXXXXXXXXXXXXXXXXXXXX",
"XXXXXXXXXXXXXXXXXXXXXXXXXXXXXXXXXXXXXXXXXXXXXXXXXXXXXXXXXXXXXXXXXXXXXXXXXXXXXXXXXXXXXXXXXXXXXXXXXXXXXXXXXXXXXXXXXXXXXX",
"XXXXXXXXXXXXXXXXXXXXXXXXXXXXXXXXXXXXXXXXXXXXXXXXXXXXXXXXXXXXXXI A l l a l z XXXXXXXXXXXXXXXXXXXXXXXXXXXXXXXXXXXXXXXXXX",
"XXXXXXXXXXXXXXXXXXXXXXXXXXXXXXXXXXXXXXXXXXXXXXXXXXXXXXXXXXXX1 i z.b p k k p , a XXXXXXXXXXXXXXXXXXXXXXXXXXXXXXXXXXXXXX",
"XXXXXXXXXXXXXXXXXXXXXXXXXXXXXXXXXXXXXXXXXXXXXXXXXXXXXXXXXXa X & x 8 4 % - t k r L XXXXXXXXXXXXXXXXXXXXXXXXXXXXXXXXXXXX",
"XXXXXXXXXXXXXXXXXXXXXXXXXXXXXXXXXXXXXXXXXXXXXXXXXXXXXXXXI c c X +  .;.7 . X s Q z XXXXXXXXXXXXXXXXXXXXXXXXXXXXXXXXXXXX",
"XXXXXXXXXXXXXXXXXXXXXXXXXXXXXXXXXXXXXXXXXXXXXXXXXXXXXXXXl W W X 3 [ 3.~ O . * L > v XXXXXXXXXXXXXXXXXXXXXXXXXXXXXXXXXX",
"XXXXXXXXXXXXXXXXXXXXXXXXXXXXXXXXXXXXXXXXXXXXXXXXXXXXXXXX< * $ o O 6 ~ 3 X . o o X i XXXXXXXXXXXXXXXXXXXXXXXXXXXXXXXXXX",
"XXXXXXXXXXXXXXXXXXXXXXXXXXXXXXXXXXXXXXXXXXXXXXXXXXXXXXXXv L W E E P I P H P I c ; 4 XXXXXXXXXXXXXXXXXXXXXXXXXXXXXXXXXX",
"XXXXXXXXXXXXXXXXXXXXXXXXXXXXXXXXXXXXXXXXXXXXXXXXXXXXXXXX9.S.}. X}.l.f.f.g.k.).p.; r XXXXXXXXXXXXXXXXXXXXXXXXXXXXXXXXXX",
"XXXXXXXXXXXXXXXXXXXXXXXXXXXXXXXXXXXXXXXXXXXXXXXXXXXXXXXX0.7.l. X.X_.u.w.w.r.l.h.; r XXXXXXXXXXXXXXXXXXXXXXXXXXXXXXXXXX",
"XXXXXXXXXXXXXXXXXXXXXXXXXXXXXXXXXXXXXXXXXXXXXXXXXXXXXXXX0.7.t./. X.X_.u.w.w.t.d., k XXXXXXXXXXXXXXXXXXXXXXXXXXXXXXXXXX",
"XXXXXXXXXXXXXXXXXXXXXXXXXXXXXXXXXXXXXXXXXXXXXXXXXXXXXXXXH y 7.i.(..X.X_.u.e.e.u F XXXXXXXXXXXXXXXXXXXXXXXXXXXXXXXXXXXX",
"XXXXXXXXXXXXXXXXXXz.XXXXXXXXXXXXXXXXXXXXXXXXXXXXXXXXXXXXx < u y.g.{.|.}.^.u.8.K XXXXXXXXXXXXXXXXXXXXXXXXXXXXXXXXXXXXXX",
"XXXXXXXXXXXXXXXXF.S.`.].].].G.Q R R I R I x.'.[.'.V.' C w 9 h Y T ..X...T H Z XXXXx.x.XXXXXXXXXXXXXXXXXXXXXXXXXXXXXXXX",
"XXXXXXXXXXXXXXF.G.'.'.`.`.'.Z.d r 4 5 5 1 x F.'.G.X.m M ( ( ( ( / / N g v S P R z l l z XXXXXXXXXXXXXXXXXXXXXXXXXXXXXX",
"XXXXXXXXXXXXXXD.N.Z.V.N.m.v.z.I P U U E ! a.M.N.N.T q ^ { _ { { { { ) D F F F l & X @ @ a XXXXXXXXXXXXXXXXXXXXXXXXXXXX",
"XXXXXXXXXXXXXXF.Z.A.N.U l z n n x z a b b.B.M.V.V.../ ^ N M M M e B L G S F F k & > s b E XXXXXXXXXXXXXXXXXXXXXXXXXXXX",
"XXXXXXXXXXXXXXXXXXXXb.i h +.&.&.,.+.h < / | ,.L.L.5.4.1.} e w q m b G D F F A , $ - p b I XXXXXXXXXXXXXXXXXXXXXXXXXXXX",
"XXXXXXXXXXXXXXXXXXXXXXb $.Y.T.U.T.R.,.w ` -.4.R.T.T.T.T.5.| e q { ..L F F A 1 X . @ > 1 b XXXXXXXXXXXXXXXXXXXXXXXXXXXX",
"XXXXXXXXXXXXXXXXXXXXXXXXQ.R.Y.U.6.R.K.=.,.J.#.<.T.T.T.T.R.4. .{ 1.K.@.U F n % o X $ k U ! S 8 XXXXXXXXXXXXXXXXXXXXXXXX",
"XXXXXXXXXXXXXXXXXXXXXXXX!.W.R.R.W.R.E.XXXXXXQ %.I.T.T.T.T.T.4.4.T.T.I.=.V h % o X @ # , r - o z XXXXXXXXXXXXXXXXXXXXXX",
"XXXXXXXXXXXXXXXXXXXXXXXXXXXXXXE.XXXXXXXXXXXXXXXXW.T.T.R.T.T.R.R.T.T.R.$.g 8 @ X X X - P ! A $ a XXXXXXXXXXXXXXXXXXXXXX",
"XXXXXXXXXXXXXXXXXXXXXXXXXXXXXXXXXXXXXXXXXXXXXXXXXXE.L.<.4.T.R.T.U.U.&.9 r i < % X . r m.A.a.* p XXXXXXXXXXXXXXXXXXXXXX",
"XXXXXXXXXXXXXXXXXXXXXXXXXXXXXXXXXXXXXXXXXXXXXXXXXXXXV.9 { K.T.T.U.1.h = L m.N.I - $ r n.C.q.- z XXXXXXXXXXXXXXXXXXXXXX",
"XXXXXXXXXXXXXXXXXXXXXXXXXXXXXXXXXXXXXXXXXXXXXXXXXXXXv.x L @.L.U.K.O.c b ' N.N.z.b j a v.C.q.- L XXXXXXXXXXXXXXXXXXXXXX",
"XXXXXXXXXXXXXXXXXXXXXXXXXXXXXXXXXXXXXXXXXXXXXXXXXXXXXXU S V ' %.' S b U q.Q b E U l a m.D.x.- D XXXXXXXXXXXXXXXXXXXXXX",
"XXXXXXXXXXXXXXXXXXXXXXXXXXXXXXXXXXXXXXXXXXXXXXXXXXXXXXb a a 2 8 a f j c q.Q b R c < r n.C.q.* L XXXXXXXXXXXXXXXXXXXXXX",
"XXXXXXXXXXXXXXXXXXXXXXXXXXXXXXXXXXXXXXXXXXXXXXXXXXXXXXW j a i , i a f z W Q I U f & r n.C.x.c XXXXXXXXXXXXXXXXXXXXXXXX",
"XXXXXXXXXXXXXXXXXXXXXXXXXXXXXXXXXXXXXXXXXXXXXXXXXXXXXXXXb f a 1 2 i j f z S b z 4 @ & l P n.XXXXXXXXXXXXXXXXXXXXXXXXXX",
"XXXXXXXXXXXXXXXXXXXXXXXXXXXXXXXXXXXXXXXXXXXXXXXXXXXXXXQ b z a a i a f a j a f i - # $ $ j XXXXXXXXXXXXXXXXXXXXXXXXXXXX",
"XXXXXXXXXXXXXXXXXXXXXXXXXXXXXXXXXXXXXXXXXXXXXXXXXXXXz.E b b z a a a a a j a 4 > U XX! R XXXXXXXXXXXXXXXXXXXXXXXXXXXXXX",
"XXXXXXXXXXXXXXXXXXXXXXXXXXXXXXXXXXXXXXXXXXXXXXXXXXU c W U L W Q I L b S k : # $ R XXXXV.XXXXXXXXXXXXXXXXXXXXXXXXXXXXXX",
"XXXXXXXXXXXXXXXXXXXXXXXXXXXXXXXXXXXXXXXXXXXXXXXXb f a b W ! XXXXXXXXXXXXc X X X a XX>.;.XXXXXXXXXXXXXXXXXXXXXXXXXXXXXX",
"XXXXXXXXXXXXXXXXXXXXXXXXXXXXXXXXXXXXXXXXXXXXXXv a a a a ! XXXXXXXXXXXXXXXX$ X o 2 2.] ] 6.XXXXXXXXXXXXXXXXXXXXXXXXXXXX",
"XXXXXXXXXXXXXXXXXXXXXXXXXXXXXXXXXXXXXXXXXXXXXXz a a f I XXXXXXXXXXXXXXXXXX> X X $ ..:.:.XXXXXXXXXXXXXXXXXXXXXXXXXXXXXX",
"XXXXXXXXXXXXXXXXXXXXXXXXXXXXXXXXXXXXXXXXXXXXXXU z z z W XXXXXXXXXXXXXXXXXXf o X X z XXXXXXXXXXXXXXXXXXXXXXXXXXXXXXXXXX",
"XXXXXXXXXXXXXXXXXXXXXXXXXXXXXXXXXXXXXXXXXXXXXXq.b x c U XXXXXXXXXXXXXXXXXXXXX X . = XXXXXXXXXXXXXXXXXXXXXXXXXXXXXXXXXX",
"XXXXXXXXXXXXXXXXXXXXXXXXXXXXXXXXXXXXXXXXXXXXXXXXU c n b XXXXXXXXXXXXXXXXXXXX& X . $ XXXXXXXXXXXXXXXXXXXXXXXXXXXXXXXXXX",
"XXXXXXXXXXXXXXXXXXXXXXXXXXXXXXXXXXXXXXXXXXXXXXXXQ n z c Q XXXXXXXXXXXXXXXXXX1 X X X 1 XXXXXXXXXXXXXXXXXXXXXXXXXXXXXXXX",
"XXXXXXXXXXXXXXXXXXXXXXXXXXXXXXXXXXXXXXXXXXXXXXXXXXc a j L XXXXXXXXXXXXXXXXXXXX$ X X * XXXXXXXXXXXXXXXXXXXXXXXXXXXXXXXX",
"XXXXXXXXXXXXXXXXXXXXXXXXXXXXXXXXXXXXXXXXXXXXXXXXXXU i i 1 L XXXXXXXXXXXXXXXXXX> X X @ XXXXXXXXXXXXXXXXXXXXXXXXXXXXXXXX",
"XXXXXXXXXXXXXXXXXXXXXXXXXXXXXXXXXXXXXXXXXXXXXXXXXXW > > < p I XXXXXXXXXXXXXXXXa X X   a XXXXXXXXXXXXXXXXXXXXXXXXXXXXXX",
"XXXXXXXXXXXXXXXXXXXXXXXXXXXXXXXXXXXXXXXXXXXXXXXXXXXXi 4 r r 4 c XXXXXXXXXXXXXXXX& X o > XXXXXXXXXXXXXXXXXXXXXXXXXXXXXX",
"XXXXXXXXXXXXXXXXXXXXXXXXXXXXXXXXXXXXXXXXXXXXXXXXXX! p r r r r < Q XXXXXXXXXXXXXX2 o X $ XXXXXXXXXXXXXXXXXXXXXXXXXXXXXX",
"XXXXXXXXXXXXXXXXXXXXXXXXXXXXXXXXXXXXXXXXXXXXXXXXXXL 4 r , = 1 v XXXXXXXXXXXXXXXXa X X X j XXXXXXXXXXXXXXXXXXXXXXXXXXXX",
"XXXXXXXXXXXXXXXXXXXXXXXXXXXXXXXXXXXXXXXXXXXXXXXXXXb r ; = j XXXXXXXXXXXXXXXXXXXXXX& O $ < XXXXXXXXXXXXXXXXXXXXXXXXXXXX",
"XXXXXXXXXXXXXXXXXXXXXXXXXXXXXXXXXXXXXXXXXXXXXXXXXXI < i XXXXXXXXXXXXXXXXXXXXXXXXW 2 = > < I XXXXXXXXXXXXXXXXXXXXXXXXXX",
"XXXXXXXXXXXXXXXXXXXXXXXXXXXXXXXXXXXXXXXXXXXXXXXXXXXXE XXXXXXXXXXXXXXXXXXXXXXXXXXi > > > 2 i XXXXXXXXXXXXXXXXXXXXXXXXXX",
"XXXXXXXXXXXXXXXXXXXXXXXXXXXXXXXXXXXXXXXXXXXXXXXXXXXXXXXXXXXXXXXXXXXXXXXXXXXXXXb 2 > > > 2 i XXXXXXXXXXXXXXXXXXXXXXXXXX",
"XXXXXXXXXXXXXXXXXXXXXXXXXXXXXXXXXXXXXXXXXXXXXXXXXXXXXXXXXXXXXXXXXXXXXXXXXXXXXXz = $ & 1 b XXXXXXXXXXXXXXXXXXXXXXXXXXXX",
"XXXXXXXXXXXXXXXXXXXXXXXXXXXXXXXXXXXXXXXXXXXXXXXXXXXXXXXXXXXXXXXXXXXXXXXXXXXXXXb * * a XXXXXXXXXXXXXXXXXXXXXXXXXXXXXXXX",
"XXXXXXXXXXXXXXXXXXXXXXXXXXXXXXXXXXXXXXXXXXXXXXXXXXXXXXXXXXXXXXXXXXXXXXXXXXXXXXW z I XXXXXXXXXXXXXXXXXXXXXXXXXXXXXXXXXX",
"XXXXXXXXXXXXXXXXXXXXXXXXXXXXXXXXXXXXXXXXXXXXXXXXXXXXXXXXXXXXXXXXXXXXXXXXXXXXXXXXXXXXXXXXXXXXXXXXXXXXXXXXXXXXXXXXXXXXXX",
"XXXXXXXXXXXXXXXXXXXXXXXXXXXXXXXXXXXXXXXXXXXXXXXXXXXXXXXXXXXXXXXXXXXXXXXXXXXXXXXXXXXXXXXXXXXXXXXXXXXXXXXXXXXXXXXXXXXXXX",
"XXXXXXXXXXXXXXXXXXXXXXXXXXXXXXXXXXXXXXXXXXXXXXXXXXXXXXXXXXXXXXXXXXXXXXXXXXXXXXXXXXXXXXXXXXXXXXXXXXXXXXXXXXXXXXXXXXXXXX",
"XXXXXXXXXXXXXXXXXXXXXXXXXXXXXXXXXXXXXXXXXXXXXXXXXXXXXXXXXXXXXXXXXXXXXXXXXXXXXXXXXXXXXXXXXXXXXXXXXXXXXXXXXXXXXXXXXXXXXX"
};
