/* XPM */
static char *result[] = {
/* columns rows colors chars-per-pixel */
"60 60 31 1 ",
"  c #9CB0CA",
". c #C9D5E7",
"X c #9BAFC9",
"o c #ABBFDA",
"O c #BAC7D6",
"+ c #4B637C",
"@ c #9EB2CC",
"# c #B3C7E3",
"$ c #B3C7E2",
"% c #B0C5E0",
"& c #A0B4CF",
"* c #AEC2DD",
"= c #A8BCD6",
"- c #A4B8D2",
"; c #6E859E",
": c #8399B3",
"> c #FCFEFE",
", c #B5C8E4",
"< c #BAC6D1",
"1 c #526981",
"2 c #C3CFE0",
"3 c #8596A6",
"4 c #C9D5E2",
"5 c #8DA2BB",
"6 c #D1DDEA",
"7 c #5D748D",
"8 c #BECBDB",
"9 c #DFE7F2",
"0 c #ADB8C5",
"q c #9DABBB",
"w c #7B899A",
/* pixels */
"++++++++++++++++++++++++++++++++++++++++++++++++++++++++++++",
":::::::::::::::::5000000000000000000000q11::::::::::::::::::",
"%%%%%%%%%%%%%%%%$6>>>>>>>>>>>>>>>>>>>>>617o,$%%%%%%%%%%%%%%%",
"&@@@@@@@&&@@@&@&%2666666666666666666666<17o$*&@@@@@@&@@@&&&@",
"    XXXXXXXXXXX@*$%#%#%%%#%%%$%%%#%#%%,X17o#*@XXXXXXXXXXXXXX",
"         -=-====ooooooo**o*ooo%$######,X17o#*@       X -====",
"        @*$$$$%#-  @ @      @ o$$$####,X17o#*@       X@*$$$$",
"         *$$$$##-             o$$$%####X17o$*@        @*$$$$",
"         =******&             o$$$$$$$,X17o$*@        @o****",
"        X   @@@@            @@o$$$$$$$,X17&==           @@@@",
"XXXXXXXXXXXXXXXXXXXXXXX   X-oo%$$$o----517X XXXXXXXX  XXXXXX",
"           XXXXXXXXXX     X=$$$$$$=X  @:17X        X     XXX",
"ooo-       &---------@X    -$$#$$$=    :17Xoooooo-       ---",
"#$$*@      o$$$$$$$$$-X    &======-   @:17@$$$%$$o@      *$$",
"$$$*       o$$$$$$$$$-    XX@@@@@@@&&&&517=#$$$$$o@      *$$",
"$$$*  XX   o$$$$$$$$$-X X   o%%%%%%%%%%X17o#$$$$$o@   XX *$$",
"$$$*@     @o$$$$$$$$$-XXX   o$$$$$$$$$,X17o$$$$$$o@     @*$$",
"$$$%*******%$$$$$$$$$-X     o$$$$$$$$$,X17o#$$$$$%*******%$$",
"$$$$$$%$$$$$$$$$$$$$$-X     o$$$$$$$$$,X17o$$$$$$$$$$$$$#$$$",
"$$$$$$$$$$$$$$$$$$$$%-X     o#$$$$$$$$#X17o$$$$$$$$$$$$$$$$$",
"%%%%%%%%%%%%%%%%%%%%%-XXXXXXo%%%%%%%%%%X17=%%%%%%%%%%%%%%%%%",
";;;;;;;;;;;;;;;;;;;;;;;7;7;;;;;;;;;;;;;;+1;;;;;;;;;;;;;;;;;;",
"++++++++++++++++++++++++++++++++++++++++++++++++++++++++++++",
"3333333333333333w11;;;;;;;;;;;;;;;;;;;;;w3333333333333333333",
">>>>>>>>>>>>>>>>617=%%******************6>>>>>>>>>>>>>>>>>>>",
"9999999999999999817=#%-----&&&--&&-&-&-*.9999999999999999999",
"$$$$$%$$%$%$%##, 17=#%&     X   XXXXXX@%$$$%$$$$$$$$$$%%$%$$",
"%*%%%%%%$$$$$$%$ 17=#%&    XXXX &&&&&&-*%*%%%*%%%%%%%%$$$$%$",
"&&&@&@&o#####$$,@17=#%&   X   X o%$$$$%-@&&&&&&&&&@&&o,,####",
"XXX  XX=$$$$$##,@17=#*&         *$$###$&  XXXXX  XXX o$$$$$$",
"   X   o#######,@17=#*&         o%%%%%*&X      X     o$$$$##",
"  X    =$$######@17-*o@         @&&&&&&    X X  X X  o$$$$$$",
"   X&==*$$$*===oX17X@                       X X  X&==*$$$*==",
"   X-$$$$$$o   X5175 XX       X X XX  XXXXX     XX=$$$$$$=XX",
" X X-$$$$$$o    517X------- X   XX@&&&&&&&&&@ XXXX-$$$$$$=XX",
"    -******=    517X$$$$$$o  X X  o%%%%%%%%%-   X -******-  ",
"     @@@@@@@@@@@517-$$%$$$o   X   o,##$$##$$- X  X @&@@@&@@@",
"     =**********X17=#$$$$$*    X  *#######$$-  X   =********",
"     o#$$$$%$#$#@17=#$$$$$o       o$$$$$$$$$- X  X o$$$$$$$$",
"     o$$$$$$$$$$ 17=#$$%$$%=======%$$$$$$$$$-   X @o$$$$$$$$",
"     o$$$$$$$$$#@17=#$$$$$$$$$####$$$$$$$$$$- X  X *$$$$$$$$",
"     o$$$$$$$$$#@17=#$$$$$$$$#####$$$$$$$$$$-  X   o$$$$$$$$",
"  @ @o,######,#,@17o,$$$$$$$$#,,,,,,#######$-    @@*########",
"3w3;3:::::::::::311:::::::::::::::::55555555:33:3w3:::::::::",
"+++1+++1+++++1+++++++++++1++1+++1111;wwwwwwwwwww71111+++++++",
"5555555555555555550<<<<<<<<<<<<<<2444444qw50000000-0q5555555",
"%%%%%%%%%%%%%%%%%,9>>>>>>>>>>>>>>>>>>>>><wq......444..2,$%%*",
"@@@@@@ @@@@@@@@ -$2........66969666666660wq..2OOOOOOOOOO=&  ",
"                -$$##%##$,8..4444444444.qwq..2OOOOOOOOOO<<-@",
"        X&======oooooooo$222222.........qwq..2OOOOOOOOOO2828",
"        X-%$$$$$*@@  X@=OOOOOOO4..4.....qwq..2OOOOOOOOO8....",
"        X-$###$$*@    =OOOOOOOO4........qwq..2OOOOOOOOO8444.",
"         &oooooo=  X@=OOOOOOOOO4........qwq..2OOOOOOO<<O2222",
"X              @  X =OOOOOOOOOO4........qwq288OOOOO<<<<<<<<<",
"                  @=O<OOOOOO224....28888qwqOOOOOOO<<<<<<<<<<",
"                 X@OOOOOOOOO4......8OOOOqwqOOOOOO<O<<<<<<<<<",
"oooo-      @-=====O828OOOOOO2......8OOOO5wq8222222O<<O<<<O88",
"###$=     X&%$$$$,...4OO<OOO8888828OOOO<qwq2.444448<<<<<<O44",
"###$=     X&%$$$,2...4OOOOOOO88888888888qwq..444448<<<<<<O44",
"###$=     X&%$$,2....4OOOOOO84........44qwq.4444448<<<<<<O44"
};
