/* XPM */
static char *result[] = {
/* columns rows colors chars-per-pixel */
"60 60 217 2 ",
"   c #160F34",
".  c #1A0F37",
"X  c #1C0F3A",
"o  c #161035",
"O  c #191036",
"+  c #1C103C",
"@  c #200F3F",
"#  c #22123F",
"$  c #1F1140",
"%  c #231144",
"&  c #281347",
"*  c #2A1945",
"=  c #261249",
"-  c #2B134C",
";  c #2D1A49",
":  c #32174F",
">  c #32194E",
",  c #311750",
"<  c #351951",
"1  c #3C1C55",
"2  c #33254C",
"3  c #3A2255",
"4  c #3E2954",
"5  c #3E255A",
"6  c #3A295D",
"7  c #392E61",
"8  c #363869",
"9  c #411F57",
"0  c #421F59",
"q  c #412E54",
"w  c #442159",
"e  c #42295D",
"r  c #46325A",
"t  c #442D62",
"y  c #493566",
"u  c #533A69",
"i  c #543A6B",
"p  c #533D71",
"a  c #1E4772",
"s  c #224C75",
"d  c #244D79",
"f  c #334876",
"g  c #26527A",
"h  c #29567E",
"j  c #2C597E",
"k  c #3B5B76",
"l  c #335D7D",
"z  c #3E597A",
"x  c #36607E",
"c  c #3C637D",
"v  c #55426B",
"b  c #5C466E",
"n  c #454374",
"m  c #5A4474",
"M  c #584777",
"N  c #465E76",
"B  c #435C7C",
"V  c #4B5C7D",
"C  c #624B75",
"Z  c #624D7B",
"A  c #66527B",
"S  c #45627D",
"D  c #4C637D",
"F  c #44687C",
"G  c #51627D",
"H  c #526A7E",
"J  c #2A5982",
"K  c #2C5A84",
"L  c #395586",
"P  c #2F5E92",
"I  c #36628E",
"U  c #316292",
"Y  c #386996",
"T  c #3A6E9C",
"R  c #3C719E",
"E  c #3D72A1",
"W  c #3C75AA",
"Q  c #4A5D84",
"!  c #495988",
"~  c #595885",
"^  c #675482",
"/  c #6B5987",
"(  c #6C5A88",
")  c #715D88",
"_  c #4C6186",
"`  c #456881",
"'  c #4D6589",
"]  c #536285",
"[  c #586782",
"{  c #536489",
"}  c #5B6589",
"|  c #54698E",
" . c #5A6A8E",
".. c #577A89",
"X. c #466693",
"o. c #556A90",
"O. c #5C6B91",
"+. c #536D9A",
"@. c #44739E",
"#. c #4B749F",
"$. c #527193",
"%. c #64688E",
"&. c #786589",
"*. c #7C6A8C",
"=. c #636E92",
"-. c #6A6894",
";. c #766894",
":. c #7B7199",
">. c #79739B",
",. c #4373A1",
"<. c #4B77A2",
"1. c #497CA8",
"2. c #537AA4",
"3. c #5679A4",
"4. c #5B7DA5",
"5. c #4077B3",
"6. c #447CB2",
"7. c #637DA5",
"8. c #6C7EA5",
"9. c #637FA9",
"0. c #787AA4",
"q. c #837498",
"w. c #867DA6",
"e. c #58838E",
"r. c #588391",
"t. c #638992",
"y. c #68949D",
"u. c #4C84A3",
"i. c #4D82AD",
"p. c #548AA4",
"a. c #5384AD",
"s. c #5B88A8",
"d. c #5D92A4",
"f. c #4981B3",
"g. c #4E86B8",
"h. c #5389B6",
"j. c #5A8CB4",
"k. c #5D91B5",
"l. c #6580A7",
"z. c #6582A9",
"x. c #6B83A9",
"c. c #6987AC",
"v. c #7480A6",
"b. c #7385AA",
"n. c #7985A9",
"m. c #7985AB",
"M. c #7C8AAC",
"N. c #6596A6",
"B. c #709DAA",
"V. c #748BB1",
"C. c #6493B6",
"Z. c #6A96B7",
"A. c #6D9AB7",
"S. c #7699B5",
"D. c #7AA5A5",
"F. c #7AA5B6",
"G. c #7EB0B5",
"H. c #8884A5",
"J. c #8C85A9",
"K. c #848CAD",
"L. c #8A8EAF",
"P. c #9581A1",
"I. c #9489AB",
"U. c #9B8DAA",
"Y. c #8197AE",
"T. c #8C90AF",
"R. c #9191AF",
"E. c #9D90AA",
"W. c #8788B1",
"Q. c #8B8FB0",
"!. c #958FB1",
"~. c #8C97B1",
"^. c #859CB3",
"/. c #9491B1",
"(. c #9C94B2",
"). c #919EB5",
"_. c #9D99B5",
"`. c #A095AF",
"'. c #A39BB6",
"]. c #A59BB7",
"[. c #A59CB8",
"{. c #81ADAD",
"}. c #84A4BB",
"|. c #88A8BB",
" X c #98A7BA",
".X c #82B5B4",
"XX c #89B7B9",
"oX c #94B4BD",
"OX c #A4A3B9",
"+X c #ABA4BC",
"@X c #ADAABE",
"#X c #B2ACBF",
"$X c #8DAAC2",
"%X c #8FADC8",
"&X c #98B9C4",
"*X c #AFABC0",
"=X c #B2ACC1",
"-X c #B8AEC5",
";X c #A5B8C3",
":X c #B4B2C3",
">X c #B9B4C6",
",X c #B9B8C8",
"<X c #BDBCCA",
"1X c #C1BDCC",
"2X c #9CC5C3",
"3X c #9CD0C4",
"4X c #A7C7C8",
"5X c #B8C8CD",
"6X c #A8D2CA",
"7X c #B5D5D0",
"8X c #B7D7D3",
"9X c #B5E3D4",
"0X c #C4C3CE",
"qX c #C8C8CF",
"wX c #CDCCD6",
"eX c #C5D3D6",
"rX c #CBD3D5",
/* pixels */
"=.=.=.=.=.-.=.=.H G t.3X9X9X9X9X9X9X9X9X9X9X9X9X9X9X9X9X9X9X9X9X9X9X9X9X9X9X9X9X9X9X9X9X9X9X9X9XD.H G =.=.=.-.=.=.=.=.} ",
"=.=.=.=.=.=.=.%.G t.4XeXrXrXrXrXrXrXrXrXrXrXrXrXrXrXrXrXrXrXrXrXrXrXrXrXrXrXrXrXrXrXrXrXrXrXrXrX8X{.[ [ %.=.=.=.=.=.=.} ",
"=.=.=.=.=.=.[ [ y.6XeXqXrXqXwXwXwXwXwXwXwXwXwXrXwXwXwXwXwXwXwXwXwXwXwXrXwXwXwXwXwXwXwXwXwXwXwXqXeX8XXX..G H =.=.=.=.=.} ",
"=.=.=.=. ._ H D.6X7XqXqXqXqX#XE.E.E.E.E.E.E.E.E.E.E.E.E.`.E.E.`.E.E.E.E.E.E.E.E.E.E.E.E.].0XqXqXqX5X7XXX..H %.=.=.=.=.} ",
"O.=.=.=.[ D D.6X5X0X0X0XqXOXA r q q q q q q q q q q q q q q q q q q 4 q q q q q q q q q v q.1X0X0X1X0X5X2X..G %. .=.=.{ ",
"O.O.O. .} D XX7X<X0X0X<XE.b 4 * O O O O O O O O O O O O . . . . o O O o O O O O O O   # 4 r q.1X1X1X5X5X5Xt.G  .=.O. .} ",
"| [ [ { V N XX5X<X<X>XP.b 4 % o     O   o o o       O   O O     o o o O O O o o o O O . # 2 r A +X1X<X5X4Xe.N { } { [ _ ",
" . . . .G D XX4X>X>X'.b 4 # . O O O O O O O O O   O O   O . O . O O O O O O O o O O O O O O 2 r q.>X,X,X4Xe.V }  .o.o.] ",
" . .O. .{ D .X4X>X>X`.v * . O O O O O O O + O O O O O O O O O O . + O + o + + o O O O + + O + 4 *.#X1X#X4Xe.V  . .o.O.] ",
" .o. .o.] S .X;X-X:XE.v ; . O O O O O o O O O O O O O O O O O O o o O O o o o o O O O o . o + 4 *.#X#X#X4Xe.B  .o.O.O._ ",
"o.|  . ._ _ .X;X=X=XE.v * . + + + + O + + O + O O O O O + O O # o + o + + o + + + + + o O + # 4 *.=X#X#X2Xr.V | o.o.o.! ",
"o.o.o.o._ Q .X;X*X=XU.v * . . + O + + O + + O + # O O # + + O O + + + o + + + o O + X O + X + 4 *.@X#X@X&Xe.Q |  .o.o.] ",
"o.| o.| ' S .X;X+X*XU.v ; X + + + + + + X + $ + + + + + + + + + + + + + + + + + + + + + + + + 4 &.+X+XOX2Xe.B |  .| | _ ",
"| o.| ' _ B {.oX+X+XU.v ; X X $ + + $ + X $ + + + + + $ + + + + + + + $ + $ + + + + + + + + % 4 &.+XOXOX&X..z _ ' { | ' ",
"| | Q z z F G.oX[.+XI.v * X X X + + + $ $ X X $ + $ + X % + + + X $ X $ + $ X $ X $ # + + $ $ w &.[.+XOX&Xe.S S B ' ' | ",
"' ' z r.G.G.2X X[.[.P.v ; $ $ $ $ $ + $ $ $ $ X $ + % + + + + # $ $ $ $ $ X $ X $ X % + + + % q &.[.[.OX&XXXG.B.F Q ' | ",
"' B ` XXoX X X_.[.[.I.i = $ $ $ $ $ $ $ % $ $ $ $ $ + % $ $ % + $ = $ $ $ $ $ $ $ $ $ $ $ X % q ) ].].]. X X X&XN.k _ ' ",
"z c F.oX_.'.'.'.].[.q.i - $ % % $ $ $ $ $ $ % $ % $ % + % + $ % $ $ $ $ $ $ $ $ $ $ $ $ $ $ = w / (.].].].'.'. XXX..z ' ",
"k N.oX_._.'.'.'.].w.C w = % % % % % $ $ $ % % $ $ % % % % $ % % % $ $ % $ % $ = % $ % % $ % % < i ;.(.].].]._._. XG.S z ",
"$.XX X(.(.(.(.(.U.A t - % % % % % % % % % % % % % % $ % % % % % % % % $ = $ = $ % % % % % $ % = 0 i q.(.(.(.`.(._.$XB.z ",
"N.oX(.(.(.(.(.!.) y > & % % % % % % = % % % % % % = % % % % = % $ % % % $ = = = % % $ = $ % % % - w m w.(.(.(.(.E. XF.c ",
"N.|.E.(.(.(.(.I.C w & % % % = % % = % % % = = % % = = = % % % = = = % = = = $ = = = = % % = % % % : u q.(.(.(.(._.).}.c ",
"N.oX/.(.(.(.E.I.Z w & & = = = = = = = = = = % = % = = = % = = % $ = = = = = = = = = % = = % = = % > u *.(./.(.E./. XF.c ",
"d.|././././.(.I.Z 0 & % = = = = = % = = = = = = = = = = = = = = = = = = = = = = = = = = = = = = = : u q.(././././.).F.c ",
"d.|.~././././.J.Z 0 - = = = = = = = = = = = = = = = = = - = = - = - = = = = = = = = = = - = = = = , u :.!.!./.!./.~.F.c ",
"d.|.Q.R./.R.R.J.^ t - = - = = = = = - - - - - = - - = - - = = - - = - - - - - - - - - - = - - - = , u q.!.I.R.R.R.^.F.l ",
"d.}.L.Q.Q.T.R.J.~ 0 - - = = - - - = - - - - - - = - - - - = - - = - = = = - - = = - = - - = - = - 3 i :.R.Q.Q.Q.T.^.F.x ",
"d.}.L.L.Q.Q.T.J.^ 0 - - - - - = - - - = = - - - - = - - - - = - - - - - - = - - - - - = - - = - = < i >.Q.Q.Q.K.K.Y.S.x ",
"s.F.K.Q.K.K.Q.J.^ t - - - - = - = - - - = - = - = - - = = - = - - - = - - = - = - - = - - = - = - < i :.Q.K.K.K.T.S.F.x ",
"d.F.K.K.K.K.K.H./ t - - = = - - - - = - - - - = - - = - - - - = - = - = - - - = - = - = = - - - = 1 p :.K.K.K.K.K.M.A.x ",
"p.F.K.M.M.K.M.H.~ t - - - = - - - - - - - = - = - - = - - = = - = - = - - - - - = - - = = - - - - < v >.K.M.K.M.M.S.A.l ",
"j.S.M.M.M.M.M.n.( 7 - = - - - = = = - = - - - - = - - - - - - - - - - - - - - = - - - - - = - - = 3 m :.M.M.K.M.M.B.A.x ",
"p.F.V.m.M.m.M.n.( y - = - - - - - - - - - - - - - - - - - - - - - - - - - - - - - - - - - - - - - < M >.M.M.M.m.M.S.A.l ",
"p.S.V.m.m.m.b.n.( y - - - - - - - - - - - - - - - - - - - - - - - - - - - - - - - - - - - - - - = 3 M 0.m.b.m.M.b.V.Z.l ",
"p.A.b.b.b.m.b.v.) y - - - - - - - - - - - - - - - - - - - - - - - : - - - - - - - - - - - - - - - 3 M >.b.V.b.b.b.V.Z.j ",
"p.S.b.b.b.b.b.b.-.u - - - - - - - - - - - - - : - - - - : - - - - - - - - - - - - - - : - - - - - 3 ^ >.b.b.b.b.b.V.C.l ",
"u.A.x.b.x.b.b.0.;.i - - - - - - - , - - - - - - - - - - - - - - - - - - - - - - - - - - - - - - - 5 ^ >.b.b.b.x.b.c.A.j ",
"u.Z.x.x.x.x.x.8.;.i - - - - : - : - - - - - , - - : - - : - - - - - - - - - - - : - - - : - : - - 5 ^ 0.x.x.x.x.c.c.k.l ",
"u.Z.x.x.x.x.x.b.;.p : - - : - - - - - , - , - - - - : - - - : - : : - - - - - - - - - : - : - : - e / 0.x.x.x.x.x.c.k.j ",
"u.Z.z.x.x.9.8.8.>.M - : - - : : : - - - , - , - : - - : : - - : - - : : : : : : - : - - : - : - - e ) 0.7.z.x.x.z.c.k.j ",
"u.C.9.z.z.l.9.8.0.p : - - - , , , , - , , - , , , - , - : : : & - , - , - , - : : , - , , , , - - t ) m.8.z.l.l.z.z.k.h ",
"1.C.9.z.9.9.9.x.w.M : - , , , , , , , , , , , , , , , , : : : : , , , , , , , , , , , : , , , , - t ;.0.9.9.l.l.l.s.k.h ",
"1.k.4.7.7.4.9.8.w.^ : : , , , , : : : : , , , , , , : , : : @ 9 , , , , , , , , , - : , , , , , - t :.n.7.7.7.4.s.s.k.j ",
"u.k.4.4.4.4.4.9.W.( 1 : , , , : : : : , , , , , : : : : : : 9 & < , , , < , : : : : : : , , , , , p w.m.4.4.4.4.4.4.h.h ",
"R k.2.4.3.4.4.4.V.W.M < : < < < : : 9 : , 9 : : , : : : 9 : : 9 < < < : , < < < < < < < < < < , t ;.W.7.3.s.4.4.2.j.a.d ",
"h i.j.2.3.2.2.2.3.0.0.p < < < < : : , , , : : , : : , 9 : : : : < : : < < < , < < , < < , , < w / H.7.2.2.2.2.u.a.j.I s ",
"d K h.a.3.3.2.2.3.3.0.( e < < < , : 9 : : : : : : : : : : : : : : : < < < : : : < < , , , , 1 p >.7.2.2.3.3.2.2.j.@.d g ",
"g a Y j.1.<.3.3.3.3.7.-.t < < < 9 : : : : 9 9 : 9 : , 9 : 9 9 : 9 , : 9 < < < 9 < < , 1 1 , 1 Z 8.#.2.2.2.2.2.a.1.s s g ",
"h g d ,.h.h.h.u.3.<.3.%.t < < < 1 < < 1 < 1 < 1 1 : 1 9 1 : 9 : , 9 9 < < < 9 < 1 < 1 1 < < < M 7.2.1.3.1.h.a.a.K s h J ",
"J h d g U U g.i.<.<.+.^ w 1 1 < 1 1 1 < 1 < 1 < 1 : 1 : : 9 : 9 : 9 < 9 9 < < 9 1 1 1 < 1 1 < M =.#.<.<.h.5.P K s g J J ",
"J J h g a s i.i.<.<.+.~ 5 1 1 1 1 1 1 1 1 1 1 1 1 1 1 1 9 1 1 : 9 9 , , 1 1 9 < 1 1 1 1 1 1 1 p O.<.<.<.h.U s d h J J J ",
"J J J J g d i.6.@.@.+.~ 5 1 1 1 1 1 1 1 1 1 1 1 1 1 1 1 9 1 1 9 , 0 0 9 1 1 1 9 1 1 1 1 1 1 1 y { #.#.,.g.U s h J J J J ",
"J J J J h d f.6.@.@.X.n e 1 1 1 1 1 1 1 0 0 1 1 9 9 9 1 9 9 9 w 0 1 1 1 0 0 1 1 1 1 0 1 1 1 3 y ! ,.,.,.g.U d J J J J J ",
"J J J J g d 6.1.@.@.X.n 5 1 0 1 0 1 0 9 1 0 1 0 9 9 9 9 9 9 9 w 0 1 0 9 0 1 1 0 9 1 1 0 0 1 3 y ! ,.,.,.g.P s h J K J K ",
"J J J J g d 6.W ,.,.Y p 5 0 0 0 0 9 9 9 9 9 0 9 9 9 9 9 9 9 w w 1 9 9 9 9 9 0 9 9 9 9 1 1 w 1 t ! @.,.E f.P s J K J K K ",
"J J J J g g W 1.,.,.I 8 5 0 0 3 9 0 9 9 9 9 0 9 9 9 9 9 9 9 w w 0 9 0 9 9 9 0 9 9 9 w 9 0 w 0 7 ! T E ,.f.P s j K J J K ",
"J J J J g d 5.W E E I 8 5 w w w 0 0 0 w w w w w w w w w w w w w 0 0 0 0 w w w w w w w w w w 5 7 f T E T 6.P d J K J J J ",
"J J J J d d 5.W R T Y f 7 w w w w w w w w w w w w w w w w w w w 0 0 0 0 w w w w w w w w 0 3 6 8 L T T T 6.P d K K J J J ",
"j h j J d d W W T T T I f 7 6 w w w w w w w w w w w w w w w w w w w w w w w w w w w w w 5 6 t Z Y T T T 6.P s J K K J g ",
"}.^.^.}.^.^.%X$X$X$X$X$X|.K.H.P.P.P.P.w.P.w.P.P.P.E.w.w.P.P.P.P.w.w.w.w.P.P.P.P.P.P.P.P.P.I./.+X$X$X$X%X%X}.Y.^.^.^.^.Y."
};
