/* XPM */
static char *result[] = {
/* columns rows colors chars-per-pixel */
"35 35 166 2 ",
"   c #010305",
".  c #010609",
"X  c #050A0C",
"o  c #080B0C",
"O  c #170F09",
"+  c #0F130E",
"@  c #13110B",
"#  c #1D130C",
"$  c #151C0D",
"%  c #050C11",
"&  c #090F13",
"*  c #0C1113",
"=  c #0B151B",
"-  c #071015",
";  c #121415",
":  c #141719",
">  c #181A1C",
",  c #22140C",
"<  c #2C190C",
"1  c #1E250E",
"2  c #352819",
"3  c #2A3B1F",
"4  c #0E1B23",
"5  c #1B1E21",
"6  c #1E2123",
"7  c #12242E",
"8  c #132631",
"9  c #162933",
"0  c #182E3B",
"q  c #222324",
"w  c #2D2C24",
"e  c #26292B",
"r  c #2B2C2D",
"t  c #262825",
"y  c #2F3D24",
"u  c #33382F",
"i  c #2E2F30",
"p  c #2D3535",
"a  c #333435",
"s  c #37383A",
"d  c #3C3D3D",
"f  c #343638",
"g  c #431B0E",
"h  c #491912",
"j  c #761D15",
"k  c #4A2114",
"l  c #59281D",
"z  c #71241E",
"x  c #672A1A",
"c  c #4F2E2C",
"v  c #452D21",
"b  c #573B2B",
"n  c #403F3E",
"m  c #6A3B37",
"M  c #33422A",
"N  c #4F4219",
"B  c #595B2E",
"V  c #40403F",
"C  c #50503C",
"Z  c #65452D",
"A  c #65552A",
"S  c #675339",
"D  c #50703E",
"F  c #767633",
"G  c #1A3442",
"H  c #1E3B4B",
"J  c #203E4E",
"K  c #213F50",
"L  c #4A3943",
"P  c #3F5546",
"I  c #224153",
"U  c #26495C",
"Y  c #26475A",
"T  c #3F6640",
"R  c #2B5267",
"E  c #3E536C",
"W  c #3D6676",
"Q  c #454545",
"!  c #46494B",
"~  c #4B4C4C",
"^  c #4C4D45",
"/  c #4A4C57",
"(  c #545555",
")  c #575758",
"_  c #57595B",
"`  c #5B5C5D",
"'  c #755A58",
"]  c #5B7A48",
"[  c #4D6950",
"{  c #5C6E5B",
"}  c #537C54",
"|  c #63645E",
" . c #737358",
".. c #5B5E60",
"X. c #685F60",
"o. c #436975",
"O. c #48747E",
"+. c #52787B",
"@. c #646464",
"#. c #686767",
"$. c #6A6A6B",
"%. c #6A6B66",
"&. c #6E706D",
"*. c #737373",
"=. c #7B7B7C",
"-. c #872016",
";. c #852B23",
":. c #8A332B",
">. c #9F4036",
",. c #A3473E",
"<. c #8A7333",
"1. c #8D4741",
"2. c #826866",
"3. c #997571",
"4. c #538A59",
"5. c #698D5E",
"6. c #61905F",
"7. c #5F956E",
"8. c #688A6E",
"9. c #7E8E62",
"0. c #74847B",
"q. c #86A052",
"w. c #819275",
"e. c #3C7598",
"r. c #426D8E",
"t. c #60788B",
"y. c #7C7E80",
"u. c #5D8384",
"i. c #5A9484",
"p. c #4B8895",
"a. c #61848A",
"s. c #7D9587",
"d. c #679E94",
"f. c #799692",
"g. c #74A185",
"h. c #4F88A7",
"j. c #5589A7",
"k. c #5499AF",
"l. c #5D9CB5",
"z. c #59A2B8",
"x. c #64A1A4",
"c. c #559CC5",
"v. c #5EAED1",
"b. c #66A5C4",
"n. c #7DBDCA",
"m. c #868788",
"M. c #8A8B8C",
"N. c #818081",
"B. c #929293",
"V. c #9A999B",
"C. c #A38380",
"Z. c #AE9694",
"A. c #83A598",
"S. c #9FA0A0",
"D. c #A4A4A5",
"F. c #B1B2B3",
"G. c #BCBCBD",
"H. c #C1ABA8",
"J. c #CBCBCC",
"K. c #DACECD",
"L. c #CFCFD0",
"P. c #D1D2D3",
"I. c #E5E6E7",
"U. c #F4F4F5",
"Y. c #F7F6FA",
"T. c None",
/* pixels */
"T.T.T.T.T.T.T.T.T.T.T.T.T.T.U.' ;.,.3.Y.T.T.T.T.T.T.T.T.T.T.T.T.T.T.T.",
"T.T.T.T.T.T.T.T.T.T.T.T.T.T.K.1.;.-.m I.T.T.T.T.T.T.T.T.T.T.T.T.T.T.T.",
"T.T.T.T.T.T.T.T.T.T.T.T.T.T.H.3.,.j 2.T.T.T.T.T.T.T.T.T.T.T.T.T.T.T.T.",
"T.T.T.T.T.T.T.T.T.T.T.T.T.T.Z.:.z h | J.T.T.T.T.T.T.T.T.T.T.T.T.T.T.T.",
"T.T.T.T.T.T.T.T.T.T.T.T.T.F.( v A w q ~ B.T.T.T.T.T.T.T.T.T.T.T.T.T.T.",
"T.T.T.T.T.T.T.T.T.T.T.T.P.( a @. .X.d ~ ` T.T.T.T.T.T.T.T.T.T.T.T.T.T.",
"T.T.T.T.T.T.T.T.T.T.T.P.*.) ) $.@...~ q q f _ T.T.T.T.T.T.T.T.T.T.T.T.",
"T.T.T.T.T.T.T.T.T.T.G.*.=.G.V.m.=.( ;   o q r r T.T.T.T.T.T.T.T.T.T.T.",
"T.T.T.T.T.T.T.T.T.T.=.f M.U.Y.Y.L.*.@   ; o r e ~ T.T.T.T.T.T.T.T.T.T.",
"T.T.T.T.T.T.T.T.T.D.) r ~ N.V.B.#.i q > ; t n e s T.T.T.T.T.T.T.T.T.T.",
"T.T.T.T.T.T.T.T.T.Z.#.~ Q d V V n n s d Q ~ f @ ! T.T.T.T.T.T.T.T.T.T.",
"T.T.T.T.T.T.T.T.T.G.f ) #.$.%.#.X.#.$.` s >     y.T.T.T.T.T.T.T.T.T.T.",
"T.T.T.T.T.T.T.T.T.T.r   : M u a a u t o       o T.T.T.T.T.T.T.T.T.T.T.",
"T.T.T.T.T.T.T.T.T.T._   M / M y [ } T 3 $     5 T.T.T.T.T.T.T.T.T.T.T.",
"T.T.T.T.T.T.T.T.T.T.M.X M } f.g.x.d.4.6.D 1   p T.T.T.T.T.T.T.T.T.T.T.",
"T.T.T.T.T.T.T.T.T.T.F.* ] n.z.7.k.p.i.x.d.8.M ~ T.T.T.T.T.T.T.T.T.T.T.",
"T.T.T.T.T.T.T.T.T.T.P.w q.v.k.5.O.W W e.c.l.a.%.T.T.T.T.T.T.T.T.T.T.T.",
"T.T.T.T.T.T.T.T.T.T.I.C F r.8.w.s.s.w.{ o.+.B &.T.T.T.T.T.T.T.T.T.T.T.",
"T.T.T.T.T.T.T.T.T.T.T.^ 2 <.f.j.h.l.b.a.0.S N T.T.T.T.T.T.T.T.T.T.T.T.",
"T.T.T.T.T.T.T.T.T.T.T.^ O A j.h.E E r.e.t.b O T.T.T.T.T.T.T.T.T.T.T.T.",
"T.T.T.T.T.T.T.T.T.T.T._ < l L c h x l / c 2 , T.T.T.T.T.T.T.T.T.T.T.T.",
"T.T.T.T.T.T.T.T.T.T.T.` @ h g o % # # h 2 0 o T.T.T.T.T.T.T.T.T.T.T.T.",
"T.T.T.T.T.T.T.T.T.T.T.... # X   . . . , e K   T.T.T.T.T.T.T.T.T.T.T.T.",
"T.T.T.T.T.T.T.T.T.T.T.`   . 4 4 . . . . 7 8   H T.T.T.T.T.T.T.T.T.T.T.",
"T.T.T.T.T.T.T.T.T.T.T...  4 K J %   . = H U G e T.T.T.T.T.T.T.T.T.T.T.",
"T.T.T.T.T.T.T.T.T.T.T.(   . = G % & 4 0 H I 8 = T.T.T.T.T.T.T.T.T.T.T.",
"T.T.T.T.T.T.T.T.T.T.T.!   . 4 I J 7 9 7 H 8 & . T.T.T.T.T.T.T.T.T.T.T.",
"T.T.T.T.T.T.T.T.T.T.T.f   % K R G 0 Y 4 7 H     T.T.T.T.T.T.T.T.T.T.T.",
"T.T.T.T.T.T.T.T.T.T.T.5   & U I H Y 8 % % 7 .   r T.T.T.T.T.T.T.T.T.T.",
"T.T.T.T.T.T.T.T.T.T.T.-   . = 0 H G J % .   .   ; T.T.T.T.T.T.T.T.T.T.",
"T.T.T.T.T.T.T.T.T.T.m.  . . . J 8 & 4 . .   . . q s T.T.T.T.T.T.T.T.T.",
"T.T.T.T.T.T.T.T.T.T.$.6     . %         .   X 6 T.T.T.T.T.T.T.T.T.T.T.",
"T.T.T.T.T.T.T.T.T.T.T.T._ r : o X X X * : q e T.T.T.T.T.T.T.T.T.T.T.T.",
"T.T.T.T.T.T.T.T.T.T.T.T.T.T.T.T.T.$.T.T.T.T.T.T.T.T.T.T.T.T.T.T.T.T.T.",
"T.T.T.T.T.T.T.T.T.T.T.T.T.T.T.T.T.T.T.T.T.T.T.T.T.T.T.T.T.T.T.T.T.T.T."
};
