/* XPM */
static char *result[] = {
/* columns rows colors chars-per-pixel */
"52 60 256 2 ",
"   c #295982",
".  c #C26371",
"X  c #C06272",
"o  c #646E91",
"O  c #A5577B",
"+  c #BA6F90",
"@  c #D77C83",
"#  c #A5577D",
"$  c #A7587B",
"%  c #B05C77",
"&  c #54627E",
"*  c #DB7F82",
"=  c #BB7290",
"-  c #84AFAC",
";  c #9D96B3",
":  c #A9587A",
">  c #BA6073",
",  c #B85F75",
"<  c #677092",
"1  c #C56470",
"2  c #285680",
"3  c #AB5979",
"4  c #C1758F",
"5  c #AE5B78",
"6  c #B76D90",
"7  c #A35A7C",
"8  c #CA7A8B",
"9  c #D47A84",
"0  c #C4788E",
"q  c #C1DFD5",
"w  c #D17986",
"e  c #BE728F",
"r  c #214D76",
"t  c #BD6172",
"y  c #CE686D",
"u  c #616D90",
"i  c #B67193",
"p  c #A45879",
"a  c #55698E",
"s  c #9E5B80",
"d  c #C1BCCD",
"f  c #396F9E",
"g  c #6782A8",
"h  c #7A87AB",
"j  c #D56A6A",
"k  c #CB7789",
"l  c #9D5E70",
"z  c #CECFD7",
"x  c #CE7888",
"c  c #BA677E",
"v  c #7485AA",
"b  c #637FA7",
"n  c #E1847F",
"m  c #C7666F",
"M  c #25537B",
"N  c #5A6B8F",
"B  c #5279A3",
"V  c #6E84A9",
"C  c #9291B1",
"Z  c #B45E76",
"A  c #A299B5",
"S  c #BD758B",
"D  c #CA656D",
"F  c #557CA5",
"G  c #7F8AAD",
"H  c #B2779D",
"J  c #987199",
"K  c #898DAF",
"L  c #9A6E83",
"P  c #E67266",
"I  c #AB81AA",
"U  c #9892B1",
"Y  c #807BA1",
"T  c #D16A6C",
"R  c #B06487",
"E  c #5C7EA6",
"W  c #566589",
"Q  c #9A799D",
"!  c #975B76",
"~  c #D3A89D",
"^  c #C27C84",
"/  c #A95C7C",
"(  c #B88E8D",
")  c #B97A91",
"_  c #91739F",
"`  c #BA7F94",
"'  c #AB8591",
"]  c #BD8C9B",
"[  c #DC746B",
"{  c #5B90B3",
"}  c #3A617F",
"|  c #3D75A9",
" . c #6397B2",
".. c #447BAD",
"X. c #4A82B1",
"o. c #CDCFD5",
"O. c #52698D",
"+. c #405A7B",
"@. c #9B6388",
"#. c #465F7D",
"$. c #4174A0",
"%. c #A26082",
"&. c #C390A1",
"*. c #856F93",
"=. c #BE968C",
"-. c #C5C4CF",
";. c #B3ACC2",
":. c #DB6C67",
">. c #DF8E81",
",. c #9D6D7E",
"<. c #95678D",
"1. c #B77D9A",
"2. c #D3747B",
"3. c #59688C",
"4. c #4E7AA5",
"5. c #6D9EB4",
"6. c #B07095",
"7. c #737CA3",
"8. c #5E698B",
"9. c #4677A3",
"0. c #8D8FB0",
"q. c #4D6085",
"w. c #9BA7B7",
"e. c #895F7F",
"r. c #B26275",
"t. c #7D5F7D",
"y. c #A48098",
"u. c #D1766E",
"i. c #D48880",
"p. c #305B7F",
"a. c #C26878",
"s. c #A87AA1",
"d. c #74A3B5",
"f. c #919FB6",
"g. c #B37791",
"h. c #956488",
"j. c #B18A90",
"k. c #C4686C",
"l. c #A39EB7",
"z. c #9CC6C3",
"x. c #D76E6C",
"c. c #CE7B89",
"v. c #4E6F82",
"b. c #8F6782",
"n. c #E9867B",
"m. c #C1BBCB",
"M. c #D7AD9B",
"N. c #5588B3",
"B. c #718EAF",
"V. c #7C94B1",
"C. c #9F668A",
"Z. c #8899B4",
"A. c #4D668A",
"S. c #848CAE",
"D. c #B68BAD",
"F. c #CC6F79",
"G. c #9D6B8A",
"H. c #426B98",
"J. c #BE8294",
"K. c #997391",
"L. c #CA7371",
"P. c #7E7397",
"I. c #7FAAAF",
"U. c #AE687B",
"Y. c #AD6279",
"T. c #A6667F",
"R. c #CB959B",
"E. c #C39094",
"W. c #D0968D",
"Q. c #B8B6C7",
"!. c #B66F82",
"~. c #D58687",
"^. c #C8C9D4",
"/. c #CE8484",
"(. c #56617F",
"). c #AB5F83",
"_. c #C8778B",
"`. c #678AAE",
"'. c #5F86AC",
"]. c #B86884",
"[. c #5289AF",
"{. c #5C7BA2",
"}. c #B66777",
"|. c #92B2BE",
" X c #B387A3",
".X c #BE93A8",
"XX c #C57489",
"oX c #A45D76",
"OX c #8E7EA1",
"+X c #B67680",
"@X c #86B1B4",
"#X c #AB5F79",
"$X c #97829B",
"%X c #95BBC1",
"&X c #B66573",
"*X c #B27489",
"=X c #A4AFBD",
"-X c #A99FB8",
";X c #ADA5BD",
":X c #B67D7C",
">X c #AF81A6",
",X c #7FA9B9",
"<X c #37648F",
"1X c #4D719B",
"2X c #6F9AA1",
"3X c #C49BA7",
"4X c #715879",
"5X c #DF7D7B",
"6X c #9F8EAF",
"7X c #CDA69E",
"8X c #C1DFD4",
"9X c #966A94",
"0X c #5D4A70",
"qX c #BA6E75",
"wX c #9F5E87",
"eX c #62818D",
"rX c #B06465",
"tX c #AD616B",
"yX c #BE7B7C",
"uX c #8C7393",
"iX c #908190",
"pX c #AAB8C2",
"aX c #CA9E88",
"sX c #5581AB",
"dX c #A484B1",
"fX c #476B82",
"gX c #B8CECF",
"hX c #73698C",
"jX c #A26482",
"kX c #61597E",
"lX c #A95E70",
"zX c #BFD4D4",
"xX c #A9D4CE",
"cX c #B2C3C9",
"vX c #BEC0CD",
"bX c #A77789",
"nX c #D98B87",
"mX c #D2757F",
"MX c #618C9C",
"NX c #395584",
"BX c #555278",
"VX c #9588A8",
"CX c #B57A97",
"ZX c #CA9D94",
"AX c #819BA7",
"SX c #937885",
"DX c #CE7382",
"FX c #6796A4",
"GX c #578294",
"HX c #998887",
"JX c #7F8598",
"KX c #AA6E8B",
"LX c #D3846E",
"PX c #CDC0A9",
"IX c #6E8F99",
"UX c #C26291",
/* pixels */
"o < < < < < < < < 8.(.(.& & & & & & & & & & & & & & & & (.& (.& & & (.(.(.& (.(.(.(.(.o < < < < < < < < ",
"o < < < < < < < 8.& IX- - - - - - - - - - - - - - - - - - - - - - - - - - - - - - - eX(.u < < < < < < < ",
"u o o o o o o 8.& 2XxXq 8X8X8X8X8Xq q q q q q q q q q q q q q q q q q q q q q q 8Xq z.eX& u o o o o o o ",
"u o o o o o 8.& 2XxXzXo.o.z z z z z z z z z z z z z z o.o.o.o.o.o.o.o.o.z o.o.o.o.o.zXz.eX& 8.o o o o o ",
"u o o o u 8.& 2XxXzX^.^.^.-.m.m.m.m.m.m.m.d d d d m.m.d d d d d d d d d d d m.-.^.^.^.zXz.eX& 8.o o o u ",
"u u u o 8.& 2XxXgX-.-.^.;.L ,.,.,.,.,.,.,.,.SXSXL L L L L L L L L L L L L L b.$Xm.^.-.-.gXz.eX& u o o u ",
"8.u u u W v.z.gXvXvX-.;.,.k.[ [ n n n n nX* W.~ ~.* * @ @ @ @ 9 9 9 w w w F.. l K.m.-.d vXgX@X& 8.u u u ",
"3.3.3.3.q.v.z.cXvXd ;X,.k.P P P n.n.n.n.n.n.W.M.n n n n n 5X5X* * * @ @ @ 2.y a.l K.Q.d m.cX@X#.W 3.3.3.",
"W W W W q.v.z.cXQ.;.b.k.P P P [ >.>.>.>.>.>.aXM.i.i.i.i.i.i.i./.i././././.F.D D . l iXQ.Q.cX- #.W 3.3.W ",
"3.N N N W v.z.Q.Q.-Xl P P P LXaXM.M.M.M.M.~ PXPX~ ~ ~ ~ ~ ~ ~ 7X7X7X7X7X7XZXqXk.1 r.b.;.Q.cX@X#.3.N N N ",
"3.N N N W v.%XpXQ.-Xl P P [ aXi.>.>.>.>.>.nXZXM.nXnXnX~.~.~.~.~.~.~./././.=.( X 1 r.b.;.;.pX- #.W N N N ",
"a a N N q.v.%XpX;.A l [ P [ aXu.[ n.n.n n n W.~ * * * * * * @ @ @ 9 @ mXF.yX( t 1 r.b.;.;.pXI.#.W N N a ",
"a a a a q.v.%X=X;.A l [ P [ aXu.:.[ 5Xn n n W.~ * * * * * @ @ @ 9 @ mXF.. yX( &X. r.b.;X;.pXI.#.O.a a a ",
"a a a a q.v.%X=X;X6Xl [ P u.=.u.:.x.[ 5Xn n W.~ * * * * @ @ @ @ @ 9 F.1 . yX( &XX r.e.;X;X=XI.#.A.a a a ",
"a a a O.q.v.|.=X;X6Xl :.P u.=.u.:.x.j x.5Xn W.~ * * * @ @ @ @ 9 9 F.1 1 . +X( &XX % e.-X;X=XI.#.A.O.O.O.",
"O.a A.#.+.fX|.w.-X6Xl :.:.u.=.u.:.j j j T 5XW.~ * * * @ @ @ @ 9 F.1 1 1 X +X( &Xt % e.-X-X=XI.+.+.q.O.O.",
"A.A.#.fXMX2X%Xw.l.6X! x.:.u.=.u.j j j j T T /.ZX2.2.2.2.2.2.DXF.1 . . . t +X( &Xt % e.A l.w.@XFXMX#.q.O.",
"A.q.+.5.%X|.w.l.l.6X! x.:.L.=.L.j j j T T y :X=.k.m m m m 1 1 1 1 . . X t +Xj.&X> #Xe.A l.w.=X|.%XMX+.A.",
"A.+.GX|.w.A A A l.VXl x.:.L.=.L.j T T T y y :X( k.m 1 1 1 1 . . . X X t > +Xj.r.> #Xe.; A l.A A w.@XfX+.",
"+.fX,Xw.A A A A ; b.&Xx.:.L.=.L.j T T T y D :X( k.m 1 1 1 . . . X X X t > +Xj.r., Z ! uXA ; A A ; |.2X+.",
"+.FX|.; ; ; ; ; uXl T j T yX=.L.T T y y y D :X( k.m 1 1 . . . X X t t t > U.j.U.Z Z / e.$X; ; ; ; ; |.GX",
"} ,Xf.; ; ; ; OX! m j T L.=.yXy y y y D D D :X( . 1 . . . X X t t > > > , r.bX' Y.Z Z p t.VX; ; ; ; f.d.",
"} ,Xf.; ; ; ; uXU.2.x.L.E.^ y y y y D D D m :X( qX. . X X X t t > > > , , , Y.' j.c c ].e.OX; ; U ; f.d.",
"} ,Xf.U U U ; *.!.* @ W.R.mXy y y D D D m 1 qXj.j.}.X X t t > > > > , , , , c ` 3XJ.0 0 h.OX; U U U f.d.",
"} ,Xf.U U U U *.!.* @ E.R.@ 2.y D D m m 1 1 . }.j.' }.t t t > > , , , Z , c XXJ.3XJ.0 0 h.OXU U U U f.d.",
"} ,XZ.C C C C *.!.@ @ E.R.9 9 mXm m 1 1 1 . . X }.j.' }.> > > > , , , Z c XX0 ` 3XJ.0 4 h.OXC C C C f.5.",
"} d.Z.C C C C *.!.@ @ E.R.9 9 9 mXa.1 . . . X X t }.' ' U., , , , Z , c XX0 0 ` 3XJ.4 4 h.OXC C C C Z.5.",
"} d.Z.0.0.0.0.*.!.@ 9 E.R.w w 9 9 DXa.X X X X t t t U.' ' U.Z , Z Z c XX0 0 0 ` 3X` 4 4 h.Y 0.0.0.0.Z.5.",
"} d.Z.K K K 0.*.!.@ 9 E.R.w w w w w DXX t t t > , , Z U.' ' Y.Z Z c XX0 0 0 0 ` 3X` 4 4 h.Y 0.K K K Z.5.",
"} d.V.K K K K *.!.@ 9 E.R.w w w w w w a.t t > U.bXbXbXT.,.' U.Z Z c 0 4 0 0 4 ) .X` 4 4 h.Y K K K S.Z.5.",
"} 5.V.S.S.S.K *.!.9 w E.R.w w x x x x a.t t r.y.w.w.w.$Xb.' T.% % ].4 XX4 4 4 ) .X` e = h.Y S.S.S.S.V. .",
"} 5.V.G G G S.P.*X9 w ] &.x x x x k k a.> > Y.$X@X@XI.JXt.y.T.5 5 ].4 4 4 4 4 ) .X1.= = <.Y G G G S.V. .",
"p.5.V.G G G G P.*X9 w ] &.x x x x k k a.> , Y.iXI.I.I.JXt.y.T.5 5 ].4 4 e 4 e g..X1.= i <.Y G G G G V. .",
"p.5.B.h h h h P.*Xw w ] &.x x x k k _.a., , #XuXAXAXAXP.t.y.T.5 5 ].4 e e e e g..XCX= i <.Y h h h h V. .",
"p.5.B.h h h h P.*Xw x ] &.k k k k k k a., , #Xb.iXHXiXhXt.y.T.5 3 ].e e e e e g..XCX= i <.Y h h h v B. .",
"p. .B.v v v v P.*Xc.c.] &.8 k k k k _.c , Z #Xe.iXHXSXt.t.y.jX3 3 ].e e e + + g.D.CX+ i 9X7.v v v v B. .",
"p. .B.v v v v P.g.c.c.] &.8 8 k k _._.c Z Z % ! t.4X4X4Xe.y.jX: 3 ].e e + + + g.D.CX+ i 9X7.v v v v B.{ ",
"p. .`.V V V v P.g.c.c.] &.8 8 8 _._.XX}.Z % % 5 l ! ! ! L y.%.: : R e + + + + g.D.H + i 9X7.V V V V B.{ ",
"p. .`.V V V V Y g.c.8 ] &.8 8 8 _._.c Z % % % % 5 5 / G.$XG.$ : : : R + + + 6 6.D.H 6 i J 7.V V V V `.{ ",
"   .`.g g g g Y g.8 8 ] &.8 8 8 _.c % % % % % 5 5 / G.Q G.7 : $ $ $ / R 6 6 6 6.D.H 6 i J 7.g g g g `.{ ",
"p.{ '.g g g g Y g.8 8 ] &.8 8 _.c % Z % % % % 3 / G.$XG.$ $ $ $ $ $ $ $ R 6 6 6.D.H 6 6 J 7.g g g g `.{ ",
"2 { '.b g b b Y CX8 8 ] &.0 _.c % % % % 5 5 5 oXG.Q C.p $ $ $ $ O O O O 7 R 6 6.D.H 6 6 Q 7.b b b b `.[.",
"2 { '.b b b b Y ` 8 8 ] .X0 c % % % % 5 5 5 / G.Q C.$ $ $ $ $ $ O O O O O O R 6.D.H 6 i Q 7.b b b b '.[.",
"2 { '.E E E b h CXXXXX)  XKX% % 5 5 5 5 3 3 @.Q C.p $ # $ $ $ $ O O O O 7 # 7 J I KXR R Q 7.{.E E E '.[.",
"M { sXE E E E v y.Y.Z % G.Q %.% % 5 3 3 3 : <.Q 7 $ O O $ $ $ O O # # # O 7 h.Q C.7 7 %.$Xg {.E E E '.[.",
"r [.N.F F F {.{.VXKX% Z / K.K./ 5 5 3 3 3 : <.Q 7 $ $ $ $ $ O O O # # # # s _ 9X7 p 7 J h {.F F F F N.9.",
"r <X{ sXF F F B b OXT.% % jXQ %.3 3 3 : : : <.J 7 $ $ $ # # # # # # # # O @._ s O p C.Y {.B F F F sX[.  ",
"M r $.N.B B B B B 7.K.#X5 %._ %.3 : : : $ $ <._ 7 O O O # # # # # # O O p @.J s p 7 uX{.B B B B F N.<Xr ",
"M r M [.sX4.4.B B {.uX/ 5 %._ %.3 : : $ $ $ <.J 7 p O O # # # # O O O p p @.J s p s P.B 4.4.4.4.N.9.r r ",
"  2 r <XX.X.N.4.4.B *./ 3 %._ %.3 : : $ O $ 9XQ ).).).).).).)./ p O p p p h.J s : s hXB 4.4.N.X.X.2 r 2 ",
"    M r M   N.9.9.1Xt.$ 3 %._ wX: $ $ O $ R s.I i + + + = = = 6 / p p p p @.J 7 oXs hX1X9...X.2 M r 2   ",
"      2 r 2 X.9.9.1Xt.7 3 s _ wX: $ $ $ R 6 s.I i + + = = = = = 6 / p p p @.J oXlX! hX1X9.....r M 2     ",
"        M   X.9.$.1X4X7 : s _ wX$ $ # R 6 + s.I i + + = = = = = 4 + #Xp oX@.J oXlXl kX1X$.....r 2       ",
"        M   X.9.$.H.4X7 : s _ wX$ $ R 6 + + s.I i + + = = = = S S S S Y.oX@.J oXlXl kXH.$.....r 2       ",
"        M   X.$.$.H.4X7 $ s _ wX$ R 6 6 6 + s.I i + = = = = = S S S 4 S Y.@.K.oXtXl kXH.$.| ..r 2       ",
"        M 2 X.$.$.H.kX7 $ s _ <.C.6.6.6.6.6.s.dX6.i i i i i i ) ) ) ) ) *XG.K.lXtXl BXH.$.| | r 2       ",
"        M 2 X.$.f <X0Xs $ s 9X_ s.I s.I I I dX6XI >X>X>X>X>X>X X X X X X Xy.T.tXtXl BXH.f | | r 2       ",
"        M 2 ..f f <XBXs O # s @.H H H H H H dXdXH H H 1.1.1.1.1.` ` ` J.J.+XtXrXrX! +.H.f | | r 2       ",
"        M 2 ..f f f NX0Xs 7 # # 6 6 6 6 6 6 s.I i = = = S S S S ^ ^ ^ ^ ^ qXrXrXl 0X<Xf f | | r 2       ",
"2       M   ..f f f H.NX0Xs 7 # 6 6 6 6 + + s.I = e S S S S S ^ ^ ^ ^ ^ /.qXrXl 0XNXf f f | | r 2       "
};
