/* XPM */
static char *result[] = {
/* columns rows colors chars-per-pixel */
"60 60 13 1 ",
"  c #4E5B70",
". c #353F4D",
"X c #212C34",
"o c #222D38",
"O c #283441",
"+ c #6E8298",
"@ c #303B47",
"# c #3C4A5A",
"$ c #475365",
"% c #687A90",
"& c #394455",
"* c #54637B",
"= c #5F7184",
/* pixels */
"XXXXXXXXXXXXXXXXXXXXXXXXXXXXXXXXXXXXXXXXXXXXXXXXXXXXXXXXXXXX",
"XXXoXXXXXXXXXXXXXXXXXXXXXXXXXXXXXXXXXXXXXXXXXXXXXXXXXXooooXX",
"XoO@OO@O@O@@@@O@@@@O@O@OO@OO@OOOO@O@O@OO@O@O@O@O@O@O@O@@OOXX",
"oo ======================================================#oX",
"XO=++++++++++++++++++++++++++++++++++++++++++++++++++++++#oX",
"Xo=+++++++++++++++++++++++++++++++++++++++++++++++++++++%$oX",
"XO=++++++++++++++++++++++++++++++++++++++++++++++++++++++#oX",
"Xo %%%%%%%%%%%%%%%%%%%%%%%%%%%%%%%%%%%%%%%%%%%%%%%%%%%%%%#oX",
"XX@                                                      .oX",
"XX@                                                      .oX",
"XXO$                                                     .oX",
"XX@$                                                     .oX",
"XX@                                                     $.oX",
"XX@$                $     $                              .oX",
"XXO&&&&&&&&&.&&&&&&&&&&&&&&&&.&&&&$                      .XX",
"Xoo...............................$                      .XX",
"XXo...............................$                      .oX",
"Xoo@@@@@@@@@@@@@@@@@@@@@@@@@@@@@@@#$$$$$$$$$$$$$$$$$$$$$#@oX",
"XXXoooooooooooooooooooooooooooooooooOoOoOoooOoOoOoOoOoOoOoXo",
"XXoooXXXXXXXXXXXXXXXXXXXXoXXXXXXXXXXXXXXXXoXXXXXXXXXXXXoooXX",
"oooooooooooooooooooooooOoooooOooooOoXXXXoOOOOOOOOOOOOOOOOooX",
"@@.@.@.@.@.@.@.@.@.@.@.@@.@@.@@@@.#.XXXX@$$$$$$$$$$$$$$$$@oX",
".................................&$&oXXX@                .oX",
".................................&$&XXXX@                .oX",
".................................&$.XXXX@                .oX",
"..........................&#$$#$$$ &XXXo. *   $$$$$$$$$$$.oX",
"..........................& *******&XXXX.*** #.&&.&.&.&..OoX",
"..........................& *******&XXXX.*** #...........OXX",
"..........................& *******&ooXX.****#...........OXX",
"........&.................& *******&XXXX.*** #...........OXX",
"..........................& *******&XXXX.****#...........OXX",
"###########...............& *******&XXXX.*** #...&.......OXX",
"          $&....&.........& *******&XoXX.****#...........OXX",
"          $&..............& * * ** .XoXX. ** &...........OXX",
"          $&........&......&###&#&&@XoXXO&#&#............OXX",
"          $&.................@.....OXXXXO@...............OXX",
"           &.......................OoXooO@...............OoX",
"          $&................&####$#@oXoX@#$##$##$##$##$##@oo",
"     $  $ $&................&$  $ $.oXXo@$   $  $  $  $ $.oo",
"@@@@@@@@@@@OoOOoOOOOOOOOOOOOO@@@@@@OXXXoo@@@@@@@@@@@@@@@@OoX",
"XXXXXXXXoXXXXXXoXXXoXXXXXXXXXXXooooXXXXXXXoooXXXXXXXXXXooXXX",
"oXXooooooooXXXoXooooooooooXXoooooooooooooooooooooooooooooXXX",
"XXO&######&@@O@O@O@O@O@O@O@O@&###########################@oo",
"XX@       $&................&                            .oX",
"XX@        &................#                            .oX",
"XXO       $&................&                            .oX",
"XX@        &................&                            .oX",
"XXO       $&................&                            .oX",
"XX@        &................#                            .oX",
"XXO       $&....&....&......&                            .oX",
"XX@        &................&                            .oX",
"oX@       $&................#                            .XX",
"XXO        &................&                            .XX",
"XXO$$$$$$$#.@@@@@@@@@@@@@@@@&$$$$$$$$$$$$$$$$$$$$$$$$$$$$@oX",
"XXoOoOOOOOOooooOoooooOooOooooOOOOoOoOOOOOOOOOOOOOOoOoOoOoooX",
"oXXXXXXXXoXXXooooooooooooooooXXXXXXXXXXXXXXXXXXXXXXXoooooooo",
"oXXXXXXXoooXXooXooooXoXoXoooXXXXXXXXXXXXXXXXXXXXXXoXoXoXXXoo",
"oXXXXoooooooooooXoXXooooooXoXoXoXoXooooooooooooooooooXXXXooo",
"Xo.######################################################OoX",
"Xo*%%%%%%%%%%%%%%%%%%%%%%%%%%%+%%+%%+%%+%%%%%%+%%+%%%%%%%$oX"
};
